G04 EAGLE Gerber RS-274X export*
G75*
%MOMM*%
%FSLAX34Y34*%
%LPD*%
%INBottom Solder Mask*%
%IPPOS*%
%AMOC8*
5,1,8,0,0,1.08239X$1,22.5*%
G01*
%ADD10C,3.403200*%
%ADD11C,2.703200*%
%ADD12C,1.524000*%
%ADD13R,2.743200X2.743200*%
%ADD14C,2.743200*%
%ADD15C,1.879600*%
%ADD16R,1.879600X1.879600*%
%ADD17R,1.524000X1.524000*%
%ADD18C,3.759200*%
%ADD19C,2.203200*%
%ADD20C,1.727200*%
%ADD21P,1.649562X8X112.500000*%
%ADD22C,1.511200*%
%ADD23C,3.003200*%
%ADD24C,2.453200*%
%ADD25C,1.703200*%
%ADD26P,1.649562X8X22.500000*%
%ADD27C,2.603500*%
%ADD28R,1.853200X1.853200*%
%ADD29P,2.005885X8X292.500000*%
%ADD30R,3.319200X3.319200*%
%ADD31P,2.034460X8X112.500000*%
%ADD32C,1.803400*%
%ADD33R,1.803400X1.803400*%
%ADD34C,1.503200*%
%ADD35C,2.103200*%
%ADD36C,1.625600*%
%ADD37C,1.981200*%
%ADD38R,1.711200X1.711200*%
%ADD39C,1.711200*%
%ADD40P,1.649562X8X202.500000*%
%ADD41C,1.524000*%
%ADD42P,1.852186X8X202.500000*%
%ADD43C,1.409600*%
%ADD44C,3.203200*%
%ADD45P,1.681168X8X22.500000*%
%ADD46R,3.203200X3.203200*%
%ADD47C,1.209600*%


D10*
X158750Y603250D03*
X1746250Y603250D03*
D11*
X1879600Y342900D03*
X1879600Y31750D03*
D10*
X952500Y1003300D03*
D12*
X304800Y863600D03*
X279400Y863600D03*
X63500Y635000D03*
X88900Y635000D03*
X1257300Y787400D03*
X1282700Y787400D03*
X1447800Y787400D03*
X1473200Y787400D03*
D13*
X1790700Y952500D03*
D14*
X1841500Y952500D03*
D12*
X355600Y635000D03*
X330200Y635000D03*
D15*
X1727200Y952500D03*
D16*
X1727200Y850900D03*
D17*
X50800Y990600D03*
D12*
X152400Y990600D03*
D17*
X50800Y838200D03*
D12*
X152400Y838200D03*
D17*
X177800Y990600D03*
D12*
X177800Y965200D03*
X177800Y838200D03*
X254000Y838200D03*
X177800Y939800D03*
X177800Y914400D03*
X177800Y863600D03*
X177800Y889000D03*
X254000Y863600D03*
X254000Y889000D03*
X254000Y914400D03*
X254000Y939800D03*
X254000Y965200D03*
X254000Y990600D03*
D17*
X1390650Y38100D03*
D12*
X1390650Y63500D03*
X1390650Y190500D03*
X1314450Y190500D03*
X1390650Y88900D03*
X1390650Y114300D03*
X1390650Y165100D03*
X1390650Y139700D03*
X1314450Y165100D03*
X1314450Y139700D03*
X1314450Y114300D03*
X1314450Y88900D03*
X1314450Y63500D03*
X1314450Y38100D03*
D17*
X177800Y762000D03*
D12*
X177800Y736600D03*
X254000Y736600D03*
X254000Y762000D03*
X177800Y711200D03*
X177800Y685800D03*
X254000Y711200D03*
X254000Y685800D03*
D18*
X1582420Y749300D02*
X1617980Y749300D01*
X1607566Y697865D02*
X1607566Y662305D01*
D19*
X1628700Y519000D02*
X1648700Y519000D01*
X1648700Y456000D02*
X1628700Y456000D01*
X1688700Y479000D02*
X1688700Y499000D01*
D20*
X1328420Y749300D02*
X1313180Y749300D01*
X1313180Y723900D02*
X1328420Y723900D01*
X1328420Y698500D02*
X1313180Y698500D01*
X1201420Y749300D02*
X1186180Y749300D01*
X1186180Y723900D02*
X1201420Y723900D01*
X1201420Y698500D02*
X1186180Y698500D01*
X1249680Y749300D02*
X1264920Y749300D01*
X1264920Y723900D02*
X1249680Y723900D01*
X1249680Y698500D02*
X1264920Y698500D01*
X1503680Y749300D02*
X1518920Y749300D01*
X1518920Y723900D02*
X1503680Y723900D01*
X1503680Y698500D02*
X1518920Y698500D01*
X1391920Y749300D02*
X1376680Y749300D01*
X1376680Y723900D02*
X1391920Y723900D01*
X1391920Y698500D02*
X1376680Y698500D01*
X1440180Y749300D02*
X1455420Y749300D01*
X1455420Y723900D02*
X1440180Y723900D01*
X1440180Y698500D02*
X1455420Y698500D01*
D12*
X1346200Y812800D03*
X1346200Y914400D03*
X1117600Y914400D03*
X1117600Y812800D03*
X1016000Y914400D03*
X1016000Y812800D03*
X1536700Y812800D03*
X1536700Y914400D03*
X1511300Y914400D03*
X1511300Y812800D03*
X1384300Y914400D03*
X1384300Y812800D03*
X1447800Y914400D03*
X1447800Y812800D03*
X1041400Y584200D03*
X1041400Y685800D03*
X1066800Y685800D03*
X1066800Y584200D03*
X1092200Y685800D03*
X1092200Y584200D03*
X1320800Y914400D03*
X1320800Y812800D03*
X1117600Y584200D03*
X1117600Y685800D03*
X1409700Y812800D03*
X1409700Y914400D03*
X1016000Y584200D03*
X1016000Y685800D03*
X1600200Y927100D03*
X1701800Y927100D03*
X1701800Y901700D03*
X1600200Y901700D03*
X1193800Y914400D03*
X1193800Y812800D03*
X254000Y508000D03*
X254000Y609600D03*
X355600Y508000D03*
X355600Y609600D03*
X330200Y609600D03*
X330200Y508000D03*
X152400Y939800D03*
X50800Y939800D03*
X50800Y965200D03*
X152400Y965200D03*
X50800Y889000D03*
X152400Y889000D03*
X50800Y863600D03*
X152400Y863600D03*
X1219200Y812800D03*
X1219200Y914400D03*
X787400Y660400D03*
X787400Y558800D03*
X279400Y914400D03*
X381000Y914400D03*
X279400Y990600D03*
X381000Y990600D03*
X381000Y889000D03*
X279400Y889000D03*
X50800Y1016000D03*
X152400Y1016000D03*
X50800Y812800D03*
X152400Y812800D03*
X63500Y508000D03*
X63500Y609600D03*
X88900Y609600D03*
X88900Y508000D03*
X50800Y711200D03*
X152400Y711200D03*
X1257300Y914400D03*
X1257300Y812800D03*
X50800Y762000D03*
X152400Y762000D03*
X50800Y736600D03*
X152400Y736600D03*
D21*
X1549400Y520700D03*
X1549400Y647700D03*
D12*
X1143000Y914400D03*
X1143000Y812800D03*
X1041400Y914400D03*
X1041400Y812800D03*
X1066800Y812800D03*
X1066800Y914400D03*
X1092200Y812800D03*
X1092200Y914400D03*
X863600Y558800D03*
X863600Y660400D03*
X1200150Y88900D03*
X1200150Y190500D03*
X1504950Y88900D03*
X1504950Y190500D03*
X1174750Y190500D03*
X1174750Y88900D03*
X838200Y660400D03*
X838200Y558800D03*
X812800Y558800D03*
X812800Y660400D03*
X990600Y787400D03*
X965200Y787400D03*
X965200Y711200D03*
X990600Y711200D03*
X939800Y787400D03*
X914400Y787400D03*
X939800Y711200D03*
X914400Y711200D03*
D17*
X863600Y838200D03*
D12*
X838200Y838200D03*
X812800Y838200D03*
X787400Y838200D03*
X762000Y838200D03*
X736600Y838200D03*
X711200Y838200D03*
X685800Y838200D03*
X660400Y838200D03*
X635000Y838200D03*
X609600Y838200D03*
X584200Y838200D03*
X558800Y838200D03*
X533400Y838200D03*
X508000Y838200D03*
X482600Y838200D03*
X457200Y838200D03*
X431800Y838200D03*
X406400Y838200D03*
X381000Y838200D03*
X381000Y685800D03*
X406400Y685800D03*
X431800Y685800D03*
X457200Y685800D03*
X482600Y685800D03*
X508000Y685800D03*
X533400Y685800D03*
X558800Y685800D03*
X584200Y685800D03*
X609600Y685800D03*
X635000Y685800D03*
X660400Y685800D03*
X685800Y685800D03*
X711200Y685800D03*
X736600Y685800D03*
X762000Y685800D03*
X787400Y685800D03*
X812800Y685800D03*
X838200Y685800D03*
X863600Y685800D03*
D22*
X80000Y347490D02*
X80000Y334410D01*
X105400Y334410D02*
X105400Y347490D01*
X130800Y347490D02*
X130800Y334410D01*
X156200Y334410D02*
X156200Y347490D01*
X181600Y347490D02*
X181600Y334410D01*
X207000Y334410D02*
X207000Y347490D01*
X232400Y347490D02*
X232400Y334410D01*
X257800Y334410D02*
X257800Y347490D01*
X283200Y347490D02*
X283200Y334410D01*
X308600Y334410D02*
X308600Y347490D01*
X334000Y347490D02*
X334000Y334410D01*
X359400Y334410D02*
X359400Y347490D01*
X384800Y347490D02*
X384800Y334410D01*
X410200Y334410D02*
X410200Y347490D01*
X435600Y347490D02*
X435600Y334410D01*
X461000Y334410D02*
X461000Y347490D01*
D23*
X25400Y31750D03*
X25400Y340950D03*
X774600Y340950D03*
X774600Y31750D03*
D14*
X115300Y408000D03*
D24*
X91300Y458000D03*
X139300Y458000D03*
X166300Y458000D03*
X64300Y458000D03*
D25*
X65300Y408000D03*
X165300Y408000D03*
X115300Y458000D03*
D14*
X305800Y408000D03*
D24*
X281800Y458000D03*
X329800Y458000D03*
X356800Y458000D03*
X254800Y458000D03*
D25*
X255800Y408000D03*
X355800Y408000D03*
X305800Y458000D03*
D14*
X686800Y408000D03*
D24*
X662800Y458000D03*
X710800Y458000D03*
X737800Y458000D03*
X635800Y458000D03*
D25*
X636800Y408000D03*
X736800Y408000D03*
X686800Y458000D03*
D14*
X1258300Y408000D03*
D24*
X1234300Y458000D03*
X1282300Y458000D03*
X1309300Y458000D03*
X1207300Y458000D03*
D25*
X1208300Y408000D03*
X1308300Y408000D03*
X1258300Y458000D03*
D14*
X1448800Y408000D03*
D24*
X1424800Y458000D03*
X1472800Y458000D03*
X1499800Y458000D03*
X1397800Y458000D03*
D25*
X1398800Y408000D03*
X1498800Y408000D03*
X1448800Y458000D03*
D26*
X1803400Y279400D03*
X1854200Y279400D03*
X1828800Y304800D03*
D13*
X1790700Y806450D03*
D14*
X1841500Y806450D03*
D27*
X1840802Y533400D02*
X1816799Y533400D01*
X1816799Y584200D02*
X1840802Y584200D01*
X1840802Y635000D02*
X1816799Y635000D01*
D14*
X1854200Y406400D03*
X1803400Y406400D03*
D12*
X1143000Y584200D03*
X1143000Y685800D03*
D20*
X1041400Y995680D02*
X1041400Y1010920D01*
X1066800Y1010920D02*
X1066800Y995680D01*
X1092200Y995680D02*
X1092200Y1010920D01*
X1231900Y1010920D02*
X1231900Y995680D01*
X1257300Y995680D02*
X1257300Y1010920D01*
X1282700Y1010920D02*
X1282700Y995680D01*
X1422400Y995680D02*
X1422400Y1010920D01*
X1447800Y1010920D02*
X1447800Y995680D01*
X1473200Y995680D02*
X1473200Y1010920D01*
D17*
X1117600Y787400D03*
D12*
X1092200Y787400D03*
X1092200Y711200D03*
X1117600Y711200D03*
X1066800Y787400D03*
X1041400Y787400D03*
X1066800Y711200D03*
X1041400Y711200D03*
X254000Y635000D03*
X279400Y635000D03*
X279400Y609600D03*
X279400Y508000D03*
D17*
X1041400Y482600D03*
D12*
X1016000Y482600D03*
X889000Y482600D03*
X863600Y482600D03*
X990600Y482600D03*
X965200Y482600D03*
X914400Y482600D03*
X939800Y482600D03*
X863600Y406400D03*
X889000Y406400D03*
X914400Y406400D03*
X939800Y406400D03*
X965200Y406400D03*
X990600Y406400D03*
X1016000Y406400D03*
X1041400Y406400D03*
D14*
X496300Y408000D03*
D24*
X472300Y458000D03*
X520300Y458000D03*
X547300Y458000D03*
X445300Y458000D03*
D25*
X446300Y408000D03*
X546300Y408000D03*
X496300Y458000D03*
D12*
X595630Y914400D03*
X547370Y914400D03*
X584200Y863600D03*
X609600Y863600D03*
X558800Y863600D03*
X533400Y863600D03*
D28*
X1613300Y209400D03*
D29*
X1638300Y209400D03*
X1663300Y209400D03*
D30*
X1683300Y279400D03*
X1593300Y279400D03*
D28*
X1613300Y184000D03*
D29*
X1638300Y184000D03*
X1663300Y184000D03*
D28*
X1232300Y209400D03*
D29*
X1257300Y209400D03*
X1282300Y209400D03*
D30*
X1302300Y279400D03*
X1212300Y279400D03*
D28*
X1422800Y209400D03*
D29*
X1447800Y209400D03*
X1472800Y209400D03*
D30*
X1492800Y279400D03*
X1402800Y279400D03*
D31*
X1041400Y63500D03*
X1041400Y114300D03*
X1092200Y114300D03*
X1092200Y63500D03*
X1041400Y254000D03*
X1041400Y304800D03*
X1092200Y304800D03*
X1092200Y254000D03*
X850900Y254000D03*
X850900Y304800D03*
X901700Y304800D03*
X901700Y254000D03*
X850900Y63500D03*
X850900Y114300D03*
X901700Y114300D03*
X901700Y63500D03*
D17*
X1244600Y88900D03*
D12*
X1270000Y88900D03*
D17*
X1435100Y88900D03*
D12*
X1460500Y88900D03*
D32*
X1370330Y990600D03*
D33*
X1334770Y990600D03*
D32*
X1560830Y990600D03*
D33*
X1525270Y990600D03*
D12*
X1701800Y952500D03*
X1701800Y977900D03*
X1701800Y1003300D03*
X1727200Y1003300D03*
X1041400Y965200D03*
X1066800Y965200D03*
X1092200Y965200D03*
X1117600Y965200D03*
X1231900Y965200D03*
X1257300Y965200D03*
X1282700Y939800D03*
X1257300Y939800D03*
X1422400Y965200D03*
X1447800Y965200D03*
X1473200Y939800D03*
X1447800Y939800D03*
D34*
X1231900Y523240D03*
X1257300Y523519D03*
X1282700Y523240D03*
X1231900Y645160D03*
X1257300Y645160D03*
X1282700Y645160D03*
D35*
X1183767Y584200D03*
X1330833Y584200D03*
D34*
X1422400Y523240D03*
X1447800Y523519D03*
X1473200Y523240D03*
X1422400Y645160D03*
X1447800Y645160D03*
X1473200Y645160D03*
D35*
X1374267Y584200D03*
X1521333Y584200D03*
D36*
X1175512Y501650D02*
X1161288Y501650D01*
X1161288Y476250D02*
X1175512Y476250D01*
X1351788Y501650D02*
X1366012Y501650D01*
X1366012Y476250D02*
X1351788Y476250D01*
D12*
X990600Y508000D03*
X1016000Y508000D03*
X914400Y508000D03*
X889000Y508000D03*
X1041400Y508000D03*
X1066800Y508000D03*
X965200Y508000D03*
X939800Y508000D03*
X25400Y635000D03*
X25400Y660400D03*
X330200Y863600D03*
X355600Y863600D03*
X25400Y838200D03*
X25400Y863600D03*
X25400Y990600D03*
X25400Y965200D03*
X152400Y787400D03*
X50800Y787400D03*
X25400Y762000D03*
X25400Y787400D03*
D37*
X1600200Y797560D02*
X1600200Y815340D01*
X1701800Y815340D02*
X1701800Y797560D01*
D38*
X431800Y584200D03*
D39*
X431800Y609600D03*
X457200Y584200D03*
X457200Y609600D03*
X482600Y584200D03*
X482600Y609600D03*
X508000Y584200D03*
X508000Y609600D03*
X533400Y584200D03*
X533400Y609600D03*
X558800Y584200D03*
X558800Y609600D03*
X584200Y584200D03*
X584200Y609600D03*
X609600Y584200D03*
X609600Y609600D03*
X635000Y584200D03*
X635000Y609600D03*
X660400Y584200D03*
X660400Y609600D03*
X685800Y584200D03*
X685800Y609600D03*
X711200Y584200D03*
X711200Y609600D03*
D38*
X1752600Y330200D03*
D39*
X1727200Y330200D03*
X1752600Y304800D03*
X1727200Y304800D03*
X1752600Y279400D03*
X1727200Y279400D03*
X1752600Y254000D03*
X1727200Y254000D03*
X1752600Y228600D03*
X1727200Y228600D03*
X1752600Y203200D03*
X1727200Y203200D03*
X1752600Y177800D03*
X1727200Y177800D03*
X1752600Y152400D03*
X1727200Y152400D03*
X1752600Y127000D03*
X1727200Y127000D03*
X1752600Y101600D03*
X1727200Y101600D03*
X1752600Y76200D03*
X1727200Y76200D03*
X1752600Y50800D03*
X1727200Y50800D03*
D12*
X254000Y787400D03*
X228600Y787400D03*
X152400Y914400D03*
X127000Y914400D03*
X1066800Y406400D03*
X1066800Y431800D03*
X1289050Y38100D03*
X1263650Y38100D03*
X609600Y660400D03*
X635000Y660400D03*
X660400Y660400D03*
X685800Y660400D03*
X1016000Y711200D03*
X1016000Y736600D03*
X1143000Y711200D03*
X1143000Y736600D03*
X330200Y965200D03*
X355600Y965200D03*
X381000Y939800D03*
X279400Y939800D03*
X304800Y965200D03*
X279400Y965200D03*
X412750Y406400D03*
X412750Y508000D03*
X387350Y508000D03*
X387350Y406400D03*
D17*
X990600Y685800D03*
D12*
X965200Y685800D03*
X914400Y609600D03*
X939800Y609600D03*
X939800Y685800D03*
X914400Y685800D03*
X965200Y609600D03*
X990600Y609600D03*
D17*
X1816100Y88900D03*
D12*
X1841500Y88900D03*
X1885950Y88900D03*
X1885950Y190500D03*
D40*
X1530350Y228600D03*
X1543050Y209550D03*
X1555750Y228600D03*
D26*
X1555750Y279400D03*
X1543050Y298450D03*
X1530350Y279400D03*
D12*
X1555750Y190500D03*
X1555750Y88900D03*
X1530350Y88900D03*
X1530350Y190500D03*
D41*
X406400Y983996D02*
X406400Y997204D01*
X431800Y997204D02*
X431800Y983996D01*
X457200Y983996D02*
X457200Y997204D01*
X482600Y997204D02*
X482600Y983996D01*
X508000Y983996D02*
X508000Y997204D01*
X533400Y997204D02*
X533400Y983996D01*
D12*
X812800Y406400D03*
X812800Y508000D03*
X787400Y508000D03*
X787400Y406400D03*
X495300Y952500D03*
X469900Y952500D03*
D17*
X1625600Y88900D03*
D12*
X1651000Y88900D03*
X1581150Y88900D03*
X1581150Y190500D03*
D32*
X1174750Y990600D03*
D33*
X1149350Y990600D03*
D38*
X736600Y914400D03*
D42*
X736600Y889000D03*
X711200Y914400D03*
X711200Y889000D03*
X685800Y914400D03*
X685800Y889000D03*
D12*
X939800Y584200D03*
X965200Y584200D03*
X25400Y736600D03*
X25400Y711200D03*
X50800Y685800D03*
X152400Y685800D03*
X38100Y508000D03*
X38100Y609600D03*
D15*
X1727200Y704850D03*
D16*
X1727200Y806450D03*
D20*
X1621300Y995405D02*
X1621300Y1010645D01*
X1638300Y970645D02*
X1638300Y955405D01*
X1655300Y995405D02*
X1655300Y1010645D01*
X1604300Y970645D02*
X1604300Y955405D01*
X1672300Y955405D02*
X1672300Y970645D01*
D40*
X1651000Y584200D03*
X1600200Y584200D03*
D36*
X139700Y540512D02*
X139700Y526288D01*
X165100Y526288D02*
X165100Y540512D01*
X190500Y540512D02*
X190500Y526288D01*
X215900Y526288D02*
X215900Y540512D01*
X837438Y939800D02*
X851662Y939800D01*
X851662Y914400D02*
X837438Y914400D01*
X837438Y990600D02*
X851662Y990600D01*
X851662Y1016000D02*
X837438Y1016000D01*
D43*
X571500Y914400D03*
D44*
X1682750Y863600D03*
D45*
X1625600Y584200D03*
D46*
X1619250Y863600D03*
D47*
X393700Y596900D03*
M02*
