M48
;GenerationSoftware,Autodesk,EAGLE,9.2.2*%
;CreationDate,2018-11-12T20:18:24Z*%
FMAT,2
ICI,OFF
METRIC,TZ,000.000
T20C0.600
T19C0.700
T18C0.800
T17C0.813
T16C0.900
T15C0.914
T14C1.000
T13C1.016
T12C1.100
T11C1.118
T10C1.270
T9C1.500
T8C1.600
T7C1.900
T6C2.000
T5C2.100
T4C2.500
T3C2.800
T2C3.200
%
G90
M71
T2
X95250Y100330
X174625Y60325
X15875Y60325
T3
X2540Y3175
X2540Y34095
X77460Y34095
X77460Y3175
T4
X187960Y3175
X187960Y34290
T5
X140280Y27940
X149280Y27940
X121230Y27940
X130230Y27940
X159330Y27940
X168330Y27940
T6
X168275Y86360
X161925Y86360
T7
X152133Y58420
X137427Y58420
X118377Y58420
X133083Y58420
T8
X182880Y53340
X182880Y58420
X182880Y63500
X185420Y40640
X180340Y40640
T9
X139780Y45800
X142480Y45800
X49630Y40800
X47230Y45800
X52030Y45800
X54730Y45800
X44530Y45800
X6430Y45800
X16630Y45800
X13930Y45800
X9130Y45800
X11530Y40800
X120730Y45800
X66280Y45800
X71080Y45800
X73780Y45800
X63580Y45800
X125830Y40800
X123430Y45800
X128230Y45800
X130930Y45800
X149980Y45800
X144880Y40800
X25480Y45800
X35680Y45800
X32980Y45800
X28180Y45800
X30580Y40800
X68680Y40800
X147280Y45800
X6530Y40800
X49630Y45800
X54630Y40800
X44630Y40800
X144880Y45800
X149880Y40800
X139880Y40800
X125830Y45800
X130830Y40800
X120830Y40800
X73680Y40800
X63680Y40800
X30580Y45800
X35580Y40800
X25580Y40800
X11530Y45800
X16530Y40800
X68680Y45800
T10
X160020Y74930
X160757Y68009
T11
X85090Y6350
X85090Y11430
X90170Y11430
X90170Y6350
X172720Y70485
X172720Y80645
X172720Y85090
X104140Y6350
X172720Y95250
X90170Y25400
X90170Y30480
X85090Y30480
X85090Y25400
X109220Y25400
X109220Y30480
X104140Y30480
X104140Y25400
X109220Y6350
X109220Y11430
X104140Y11430
T12
X123230Y20940
X166330Y18400
X163830Y18400
X161330Y18400
X125730Y20940
X128230Y20940
X166330Y20940
X163830Y20940
X161330Y20940
X142280Y20940
X144780Y20940
X147280Y20940
T13
X144780Y100330
X147320Y100330
X132080Y69850
X142240Y100330
X128270Y100330
X125730Y100330
X123190Y100330
X109220Y100330
X106680Y100330
X104140Y100330
X179070Y95250
X165530Y100302
X160430Y96302
X167230Y96302
X184150Y80645
X179070Y80645
X163830Y96302
X132080Y72390
X119380Y74930
X119380Y72390
X119380Y69850
X125730Y74930
X125730Y72390
X125730Y69850
X151130Y74930
X151130Y72390
X151130Y69850
X138430Y74930
X138430Y72390
X138430Y69850
X144780Y74930
X144780Y72390
X144780Y69850
X132080Y74930
X162130Y100302
X184150Y95250
T14
X71120Y91440
X71120Y88900
X68580Y91440
X68580Y88900
X73660Y91440
X175260Y7620
X71120Y58420
X71120Y60960
X175260Y33020
X172720Y33020
X175260Y30480
X172720Y30480
X175260Y27940
X73660Y88900
X172720Y27940
X175260Y25400
X172720Y5080
X175260Y5080
X172720Y7620
X68580Y60960
X172720Y25400
X175260Y22860
X172720Y22860
X175260Y20320
X172720Y20320
X175260Y17780
X172720Y17780
X175260Y15240
X172720Y15240
X175260Y12700
X172720Y12700
X175260Y10160
X172720Y10160
X68580Y58420
X43180Y58420
X43180Y60960
X45720Y58420
X45720Y60960
X48260Y58420
X48260Y60960
X50800Y58420
X50800Y60960
X53340Y58420
X53340Y60960
X55880Y58420
X55880Y60960
X58420Y58420
X58420Y60960
X60960Y58420
X60960Y60960
X168870Y48900
X163870Y45600
X163870Y51900
X63500Y58420
X63500Y60960
X66040Y58420
X66040Y60960
T15
X84455Y101600
X84455Y91440
X84455Y99060
X116840Y50165
X84455Y93980
X21590Y53340
X19050Y53340
X16510Y53340
X13970Y53340
X135890Y47625
X135890Y50165
X116840Y47625
T16
X162560Y58420
T17
X131445Y8890
X138430Y81280
X131445Y6350
X131445Y3810
X17780Y76200
X17780Y73660
X25400Y73660
X25400Y76200
X17780Y71120
X17780Y68580
X25400Y71120
X25400Y68580
X134620Y81280
X134620Y91440
X111760Y91440
X111760Y81280
X101600Y91440
X101600Y81280
X153670Y81280
X153670Y91440
X151130Y91440
X151130Y81280
X138430Y91440
X22860Y78740
X25400Y99060
X170180Y95250
X25400Y78740
X17780Y93980
X17780Y91440
X17780Y86360
X17780Y88900
X25400Y86360
X25400Y88900
X25400Y91440
X25400Y93980
X25400Y96520
X131445Y11430
X139065Y3810
X139065Y6350
X139065Y19050
X131445Y19050
X139065Y8890
X139065Y11430
X139065Y16510
X139065Y13970
X131445Y16510
X131445Y13970
X128270Y93980
X101600Y50800
X99060Y50800
X106680Y68580
X106680Y58420
X109220Y68580
X109220Y58420
X144780Y93980
X147320Y93980
X144780Y96520
X142240Y96520
X125730Y93980
X91440Y50800
X125730Y96520
X123190Y96520
X111760Y96520
X109220Y96520
X106680Y96520
X104140Y96520
X172720Y100330
X170180Y100330
X170180Y97790
X91440Y78740
X2540Y86360
X144780Y81280
X104140Y58420
X104140Y68580
X170180Y80645
X160020Y80645
X2540Y78740
X2540Y76200
X5080Y78740
X15240Y78740
X2540Y96520
X2540Y99060
X144780Y91440
X2540Y83820
X35560Y86360
X33020Y86360
X2540Y66040
X2540Y63500
X93980Y50800
X96520Y50800
X106680Y50800
X104140Y50800
X88900Y50800
X46990Y95250
X15240Y83820
X17780Y99060
X17780Y96520
X17780Y83820
X25400Y83820
X114935Y99060
X117475Y99060
X158115Y19050
X158115Y8890
X165100Y8890
X162560Y8890
X5080Y83820
X49530Y95250
X78740Y40640
X78740Y50800
X81280Y50800
X81280Y40640
X53340Y99060
X50800Y99060
X48260Y99060
X45720Y99060
X43180Y99060
X33020Y63500
X30480Y86360
X27940Y86360
X6350Y63500
X8890Y63500
X125730Y78740
X160020Y58420
X165100Y58420
X128270Y78740
X144780Y78740
X147320Y78740
X35560Y63500
X40640Y99060
X5080Y99060
X15240Y99060
X3810Y60960
X3810Y50800
X15240Y68580
X5080Y68580
X2540Y71120
X2540Y73660
X96520Y58420
X93980Y58420
X101600Y73660
X38735Y50800
X41275Y50800
X41275Y40640
X27940Y96520
X30480Y96520
X27940Y93980
X38100Y93980
X35560Y96520
X33020Y96520
X114300Y73660
X114300Y71120
X38735Y40640
X101600Y71120
X68580Y66040
X66040Y66040
X63500Y66040
X60960Y66040
X126365Y3810
X128905Y3810
X106680Y43180
X106680Y40640
X12700Y91440
X188595Y8890
X153035Y19050
X153035Y8890
X155575Y8890
X155575Y19050
X153035Y27940
X154305Y29845
X155575Y27940
X155575Y22860
X154305Y20955
X153035Y22860
X188595Y19050
X15240Y91440
X184150Y8890
X181610Y8890
X99060Y60960
X96520Y60960
X91440Y68580
X93980Y68580
X93980Y60960
X91440Y60960
X96520Y68580
X99060Y68580
X120015Y19050
X114300Y91440
X114300Y81280
X104140Y91440
X104140Y81280
X106680Y81280
X106680Y91440
X109220Y81280
X109220Y91440
X86360Y55880
X86360Y66040
X120015Y8890
X154940Y64770
X150495Y8890
X150495Y19050
X117475Y19050
X117475Y8890
X83820Y66040
X83820Y55880
X81280Y55880
X81280Y66040
X99060Y78740
X96520Y78740
X114300Y58420
X111760Y78740
X15240Y101600
X5080Y81280
X15240Y81280
X6350Y50800
X6350Y60960
X8890Y60960
X8890Y50800
X5080Y71120
X15240Y71120
X114300Y68580
X96520Y71120
X125730Y91440
X125730Y81280
X5080Y76200
X15240Y76200
X5080Y73660
X15240Y73660
X154940Y52070
X182880Y30480
X185420Y27940
X180340Y27940
X68580Y83820
X40640Y83820
X43180Y83820
X45720Y83820
X48260Y83820
X50800Y83820
X53340Y83820
X55880Y83820
X58420Y83820
X60960Y83820
X63500Y83820
X66040Y83820
X38100Y83820
X71120Y83820
X73660Y83820
X76200Y83820
X78740Y83820
X81280Y83820
X83820Y83820
X86360Y83820
X91440Y71120
X93980Y71120
X93980Y78740
X63500Y68580
X99060Y71120
X86360Y68580
X83820Y68580
X81280Y68580
X78740Y68580
X76200Y68580
X73660Y68580
X71120Y68580
X68580Y68580
X66040Y68580
X156083Y99060
X60960Y68580
X58420Y68580
X55880Y68580
X53340Y68580
X50800Y68580
X48260Y68580
X45720Y68580
X43180Y68580
X40640Y68580
X38100Y68580
X133477Y99060
X111760Y68580
X111760Y58420
X132080Y81280
X132080Y91440
X124460Y8890
X127000Y8890
X143510Y8890
X146050Y8890
X137033Y99060
X140970Y81280
X152527Y99060
X109220Y78740
X5080Y88900
X15240Y88900
X5080Y86360
X15240Y86360
X121920Y81280
X121920Y91440
X78740Y66040
X35560Y60960
X160020Y92710
X170180Y92710
X170180Y90170
X160020Y90170
X119380Y91440
X119380Y81280
X25400Y50800
X25400Y60960
X35560Y50800
X78740Y55880
X33020Y60960
X33020Y50800
X15240Y93980
X5080Y93980
X5080Y96520
X15240Y96520
X101600Y68580
X101600Y58420
X140970Y91440
X27940Y50800
X86360Y40640
X93980Y48260
X91440Y48260
X96520Y48260
X99060Y48260
X86360Y48260
X88900Y48260
X101600Y48260
X104140Y48260
X88900Y40640
X27940Y60960
X27940Y63500
X25400Y63500
X104140Y71120
X106680Y71120
X104140Y78740
X106680Y78740
X111760Y71120
X109220Y71120
X38100Y99060
X27940Y91440
X38100Y91440
X53340Y86360
X55880Y86360
X60960Y86360
X58420Y86360
X54737Y91440
X59563Y91440
X27940Y99060
X38100Y88900
X27940Y88900
X5080Y101600
X104140Y40640
X101600Y40640
X99060Y40640
X96520Y40640
X93980Y40640
X91440Y40640
T18
X57150Y91440
X13080Y34095
X46100Y34095
X43560Y34095
X41020Y34095
X38480Y34095
X35940Y34095
X33400Y34095
X30860Y34095
X28320Y34095
X25780Y34095
X23240Y34095
X20700Y34095
X18160Y34095
X15620Y34095
X10540Y34095
X8000Y34095
T19
X144780Y64516
X147320Y64516
X123190Y52324
X125730Y52352
X128270Y52324
X123190Y64516
X125730Y64516
X128270Y64516
X142240Y52324
X144780Y52352
X147320Y52324
X142240Y64516
T20
X39370Y59690
M30