G04 #@! TF.GenerationSoftware,KiCad,Pcbnew,(5.1.2)-1*
G04 #@! TF.CreationDate,2019-05-25T00:00:56-05:00*
G04 #@! TF.ProjectId,mk312,6d6b3331-322e-46b6-9963-61645f706362,rev?*
G04 #@! TF.SameCoordinates,Original*
G04 #@! TF.FileFunction,Legend,Bot*
G04 #@! TF.FilePolarity,Positive*
%FSLAX46Y46*%
G04 Gerber Fmt 4.6, Leading zero omitted, Abs format (unit mm)*
G04 Created by KiCad (PCBNEW (5.1.2)-1) date 2019-05-25 00:00:56*
%MOMM*%
%LPD*%
G04 APERTURE LIST*
%ADD10C,0.150000*%
%ADD11C,0.120000*%
G04 APERTURE END LIST*
D10*
X78290000Y-93500000D02*
X78290000Y-86900000D01*
X78290000Y-86900000D02*
X105690000Y-86900000D01*
X105690000Y-86900000D02*
X105690000Y-93500000D01*
X105690000Y-93500000D02*
X78290000Y-93500000D01*
X78590000Y-93500000D02*
X79490000Y-92600000D01*
X79490000Y-92600000D02*
X80390000Y-93500000D01*
D11*
X114690000Y-91685000D02*
X111240000Y-91685000D01*
X114690000Y-91685000D02*
X116640000Y-91685000D01*
X114690000Y-82815000D02*
X112740000Y-82815000D01*
X114690000Y-82815000D02*
X116640000Y-82815000D01*
X131450000Y-86920000D02*
X129990000Y-86920000D01*
X131450000Y-90080000D02*
X129290000Y-90080000D01*
X131450000Y-90080000D02*
X131450000Y-89150000D01*
X131450000Y-86920000D02*
X131450000Y-87850000D01*
X126380000Y-91980000D02*
X127840000Y-91980000D01*
X126380000Y-88820000D02*
X128540000Y-88820000D01*
X126380000Y-88820000D02*
X126380000Y-89750000D01*
X126380000Y-91980000D02*
X126380000Y-91050000D01*
X127177221Y-92440000D02*
X127502779Y-92440000D01*
X127177221Y-93460000D02*
X127502779Y-93460000D01*
X130727221Y-82990000D02*
X131052779Y-82990000D01*
X130727221Y-84010000D02*
X131052779Y-84010000D01*
X124052779Y-90910000D02*
X123727221Y-90910000D01*
X124052779Y-89890000D02*
X123727221Y-89890000D01*
D10*
X80334523Y-94002380D02*
X80334523Y-94716666D01*
X80382142Y-94859523D01*
X80477380Y-94954761D01*
X80620238Y-95002380D01*
X80715476Y-95002380D01*
X79334523Y-95002380D02*
X79905952Y-95002380D01*
X79620238Y-95002380D02*
X79620238Y-94002380D01*
X79715476Y-94145238D01*
X79810714Y-94240476D01*
X79905952Y-94288095D01*
X78953571Y-94097619D02*
X78905952Y-94050000D01*
X78810714Y-94002380D01*
X78572619Y-94002380D01*
X78477380Y-94050000D01*
X78429761Y-94097619D01*
X78382142Y-94192857D01*
X78382142Y-94288095D01*
X78429761Y-94430952D01*
X79001190Y-95002380D01*
X78382142Y-95002380D01*
X117617857Y-94132142D02*
X117665476Y-94179761D01*
X117808333Y-94227380D01*
X117903571Y-94227380D01*
X118046428Y-94179761D01*
X118141666Y-94084523D01*
X118189285Y-93989285D01*
X118236904Y-93798809D01*
X118236904Y-93655952D01*
X118189285Y-93465476D01*
X118141666Y-93370238D01*
X118046428Y-93275000D01*
X117903571Y-93227380D01*
X117808333Y-93227380D01*
X117665476Y-93275000D01*
X117617857Y-93322619D01*
X116665476Y-94227380D02*
X117236904Y-94227380D01*
X116951190Y-94227380D02*
X116951190Y-93227380D01*
X117046428Y-93370238D01*
X117141666Y-93465476D01*
X117236904Y-93513095D01*
X116189285Y-94227380D02*
X115998809Y-94227380D01*
X115903571Y-94179761D01*
X115855952Y-94132142D01*
X115760714Y-93989285D01*
X115713095Y-93798809D01*
X115713095Y-93417857D01*
X115760714Y-93322619D01*
X115808333Y-93275000D01*
X115903571Y-93227380D01*
X116094047Y-93227380D01*
X116189285Y-93275000D01*
X116236904Y-93322619D01*
X116284523Y-93417857D01*
X116284523Y-93655952D01*
X116236904Y-93751190D01*
X116189285Y-93798809D01*
X116094047Y-93846428D01*
X115903571Y-93846428D01*
X115808333Y-93798809D01*
X115760714Y-93751190D01*
X115713095Y-93655952D01*
X114911904Y-92052380D02*
X114911904Y-92861904D01*
X114864285Y-92957142D01*
X114816666Y-93004761D01*
X114721428Y-93052380D01*
X114530952Y-93052380D01*
X114435714Y-93004761D01*
X114388095Y-92957142D01*
X114340476Y-92861904D01*
X114340476Y-92052380D01*
X113959523Y-92052380D02*
X113340476Y-92052380D01*
X113673809Y-92433333D01*
X113530952Y-92433333D01*
X113435714Y-92480952D01*
X113388095Y-92528571D01*
X113340476Y-92623809D01*
X113340476Y-92861904D01*
X113388095Y-92957142D01*
X113435714Y-93004761D01*
X113530952Y-93052380D01*
X113816666Y-93052380D01*
X113911904Y-93004761D01*
X113959523Y-92957142D01*
X130785238Y-91547619D02*
X130880476Y-91500000D01*
X130975714Y-91404761D01*
X131118571Y-91261904D01*
X131213809Y-91214285D01*
X131309047Y-91214285D01*
X131261428Y-91452380D02*
X131356666Y-91404761D01*
X131451904Y-91309523D01*
X131499523Y-91119047D01*
X131499523Y-90785714D01*
X131451904Y-90595238D01*
X131356666Y-90500000D01*
X131261428Y-90452380D01*
X131070952Y-90452380D01*
X130975714Y-90500000D01*
X130880476Y-90595238D01*
X130832857Y-90785714D01*
X130832857Y-91119047D01*
X130880476Y-91309523D01*
X130975714Y-91404761D01*
X131070952Y-91452380D01*
X131261428Y-91452380D01*
X130451904Y-90547619D02*
X130404285Y-90500000D01*
X130309047Y-90452380D01*
X130070952Y-90452380D01*
X129975714Y-90500000D01*
X129928095Y-90547619D01*
X129880476Y-90642857D01*
X129880476Y-90738095D01*
X129928095Y-90880952D01*
X130499523Y-91452380D01*
X129880476Y-91452380D01*
X127235238Y-88447619D02*
X127330476Y-88400000D01*
X127425714Y-88304761D01*
X127568571Y-88161904D01*
X127663809Y-88114285D01*
X127759047Y-88114285D01*
X127711428Y-88352380D02*
X127806666Y-88304761D01*
X127901904Y-88209523D01*
X127949523Y-88019047D01*
X127949523Y-87685714D01*
X127901904Y-87495238D01*
X127806666Y-87400000D01*
X127711428Y-87352380D01*
X127520952Y-87352380D01*
X127425714Y-87400000D01*
X127330476Y-87495238D01*
X127282857Y-87685714D01*
X127282857Y-88019047D01*
X127330476Y-88209523D01*
X127425714Y-88304761D01*
X127520952Y-88352380D01*
X127711428Y-88352380D01*
X126330476Y-88352380D02*
X126901904Y-88352380D01*
X126616190Y-88352380D02*
X126616190Y-87352380D01*
X126711428Y-87495238D01*
X126806666Y-87590476D01*
X126901904Y-87638095D01*
X127982857Y-94832380D02*
X128316190Y-94356190D01*
X128554285Y-94832380D02*
X128554285Y-93832380D01*
X128173333Y-93832380D01*
X128078095Y-93880000D01*
X128030476Y-93927619D01*
X127982857Y-94022857D01*
X127982857Y-94165714D01*
X128030476Y-94260952D01*
X128078095Y-94308571D01*
X128173333Y-94356190D01*
X128554285Y-94356190D01*
X127030476Y-94832380D02*
X127601904Y-94832380D01*
X127316190Y-94832380D02*
X127316190Y-93832380D01*
X127411428Y-93975238D01*
X127506666Y-94070476D01*
X127601904Y-94118095D01*
X126649523Y-93927619D02*
X126601904Y-93880000D01*
X126506666Y-93832380D01*
X126268571Y-93832380D01*
X126173333Y-93880000D01*
X126125714Y-93927619D01*
X126078095Y-94022857D01*
X126078095Y-94118095D01*
X126125714Y-94260952D01*
X126697142Y-94832380D01*
X126078095Y-94832380D01*
X131532857Y-85382380D02*
X131866190Y-84906190D01*
X132104285Y-85382380D02*
X132104285Y-84382380D01*
X131723333Y-84382380D01*
X131628095Y-84430000D01*
X131580476Y-84477619D01*
X131532857Y-84572857D01*
X131532857Y-84715714D01*
X131580476Y-84810952D01*
X131628095Y-84858571D01*
X131723333Y-84906190D01*
X132104285Y-84906190D01*
X130580476Y-85382380D02*
X131151904Y-85382380D01*
X130866190Y-85382380D02*
X130866190Y-84382380D01*
X130961428Y-84525238D01*
X131056666Y-84620476D01*
X131151904Y-84668095D01*
X129628095Y-85382380D02*
X130199523Y-85382380D01*
X129913809Y-85382380D02*
X129913809Y-84382380D01*
X130009047Y-84525238D01*
X130104285Y-84620476D01*
X130199523Y-84668095D01*
X124532857Y-89422380D02*
X124866190Y-88946190D01*
X125104285Y-89422380D02*
X125104285Y-88422380D01*
X124723333Y-88422380D01*
X124628095Y-88470000D01*
X124580476Y-88517619D01*
X124532857Y-88612857D01*
X124532857Y-88755714D01*
X124580476Y-88850952D01*
X124628095Y-88898571D01*
X124723333Y-88946190D01*
X125104285Y-88946190D01*
X123580476Y-89422380D02*
X124151904Y-89422380D01*
X123866190Y-89422380D02*
X123866190Y-88422380D01*
X123961428Y-88565238D01*
X124056666Y-88660476D01*
X124151904Y-88708095D01*
X123247142Y-88422380D02*
X122628095Y-88422380D01*
X122961428Y-88803333D01*
X122818571Y-88803333D01*
X122723333Y-88850952D01*
X122675714Y-88898571D01*
X122628095Y-88993809D01*
X122628095Y-89231904D01*
X122675714Y-89327142D01*
X122723333Y-89374761D01*
X122818571Y-89422380D01*
X123104285Y-89422380D01*
X123199523Y-89374761D01*
X123247142Y-89327142D01*
M02*
