G04 #@! TF.GenerationSoftware,KiCad,Pcbnew,(5.1.2)-1*
G04 #@! TF.CreationDate,2019-05-25T00:00:56-05:00*
G04 #@! TF.ProjectId,mk312,6d6b3331-322e-46b6-9963-61645f706362,rev?*
G04 #@! TF.SameCoordinates,Original*
G04 #@! TF.FileFunction,Copper,L3,Inr*
G04 #@! TF.FilePolarity,Positive*
%FSLAX46Y46*%
G04 Gerber Fmt 4.6, Leading zero omitted, Abs format (unit mm)*
G04 Created by KiCad (PCBNEW (5.1.2)-1) date 2019-05-25 00:00:56*
%MOMM*%
%LPD*%
G04 APERTURE LIST*
%ADD10C,1.524000*%
%ADD11C,1.800000*%
%ADD12C,4.000000*%
%ADD13C,2.800000*%
%ADD14C,1.200000*%
%ADD15C,2.000000*%
%ADD16C,0.100000*%
%ADD17C,3.500000*%
%ADD18C,3.000000*%
%ADD19R,3.500000X3.500000*%
%ADD20O,1.905000X2.000000*%
%ADD21R,1.905000X2.000000*%
%ADD22C,2.900000*%
%ADD23O,1.700000X1.700000*%
%ADD24R,1.700000X1.700000*%
%ADD25C,2.600000*%
%ADD26R,2.600000X2.600000*%
%ADD27C,0.800000*%
%ADD28C,1.600000*%
%ADD29C,0.250000*%
%ADD30C,0.254000*%
G04 APERTURE END LIST*
D10*
X143104000Y-60040000D03*
X143104000Y-57500000D03*
X143104000Y-54960000D03*
X155296000Y-54960000D03*
X155296000Y-57500000D03*
X155296000Y-60040000D03*
D11*
X193750000Y-82500000D03*
X198750000Y-82500000D03*
X198750000Y-85000000D03*
X196250000Y-85000000D03*
X193750000Y-85000000D03*
D12*
X200650000Y-92000000D03*
X191850000Y-92000000D03*
X173850000Y-92000000D03*
X182650000Y-92000000D03*
D11*
X175750000Y-85000000D03*
X178250000Y-85000000D03*
X180750000Y-85000000D03*
D12*
X155850000Y-92000000D03*
X164650000Y-92000000D03*
D11*
X157750000Y-85000000D03*
X160250000Y-85000000D03*
X162750000Y-85000000D03*
D13*
X134950000Y-88500000D03*
X134950000Y-83500000D03*
D14*
X93550000Y-102550000D03*
X95050000Y-102550000D03*
X96550000Y-102550000D03*
X98050000Y-102550000D03*
X99550000Y-102550000D03*
X101050000Y-102550000D03*
X102550000Y-102550000D03*
X104050000Y-102550000D03*
X105550000Y-102550000D03*
X107050000Y-102550000D03*
X108550000Y-102550000D03*
X110050000Y-102550000D03*
X111550000Y-102550000D03*
X113050000Y-102550000D03*
D15*
X137450000Y-79600000D03*
X137450000Y-86100000D03*
X141950000Y-79600000D03*
X141950000Y-86100000D03*
X150450000Y-86100000D03*
X150450000Y-79600000D03*
X145950000Y-86100000D03*
X145950000Y-79600000D03*
X137450000Y-94250000D03*
X137450000Y-100750000D03*
X141950000Y-94250000D03*
X141950000Y-100750000D03*
X150450000Y-100750000D03*
X150450000Y-94250000D03*
X145950000Y-100750000D03*
X145950000Y-94250000D03*
D16*
G36*
X198760765Y-63850213D02*
G01*
X198845704Y-63862813D01*
X198928999Y-63883677D01*
X199009848Y-63912605D01*
X199087472Y-63949319D01*
X199161124Y-63993464D01*
X199230094Y-64044616D01*
X199293718Y-64102282D01*
X199351384Y-64165906D01*
X199402536Y-64234876D01*
X199446681Y-64308528D01*
X199483395Y-64386152D01*
X199512323Y-64467001D01*
X199533187Y-64550296D01*
X199545787Y-64635235D01*
X199550000Y-64721000D01*
X199550000Y-66471000D01*
X199545787Y-66556765D01*
X199533187Y-66641704D01*
X199512323Y-66724999D01*
X199483395Y-66805848D01*
X199446681Y-66883472D01*
X199402536Y-66957124D01*
X199351384Y-67026094D01*
X199293718Y-67089718D01*
X199230094Y-67147384D01*
X199161124Y-67198536D01*
X199087472Y-67242681D01*
X199009848Y-67279395D01*
X198928999Y-67308323D01*
X198845704Y-67329187D01*
X198760765Y-67341787D01*
X198675000Y-67346000D01*
X196925000Y-67346000D01*
X196839235Y-67341787D01*
X196754296Y-67329187D01*
X196671001Y-67308323D01*
X196590152Y-67279395D01*
X196512528Y-67242681D01*
X196438876Y-67198536D01*
X196369906Y-67147384D01*
X196306282Y-67089718D01*
X196248616Y-67026094D01*
X196197464Y-66957124D01*
X196153319Y-66883472D01*
X196116605Y-66805848D01*
X196087677Y-66724999D01*
X196066813Y-66641704D01*
X196054213Y-66556765D01*
X196050000Y-66471000D01*
X196050000Y-64721000D01*
X196054213Y-64635235D01*
X196066813Y-64550296D01*
X196087677Y-64467001D01*
X196116605Y-64386152D01*
X196153319Y-64308528D01*
X196197464Y-64234876D01*
X196248616Y-64165906D01*
X196306282Y-64102282D01*
X196369906Y-64044616D01*
X196438876Y-63993464D01*
X196512528Y-63949319D01*
X196590152Y-63912605D01*
X196671001Y-63883677D01*
X196754296Y-63862813D01*
X196839235Y-63850213D01*
X196925000Y-63846000D01*
X198675000Y-63846000D01*
X198760765Y-63850213D01*
X198760765Y-63850213D01*
G37*
D17*
X197800000Y-65596000D03*
D16*
G36*
X194173513Y-67099611D02*
G01*
X194246318Y-67110411D01*
X194317714Y-67128295D01*
X194387013Y-67153090D01*
X194453548Y-67184559D01*
X194516678Y-67222398D01*
X194575795Y-67266242D01*
X194630330Y-67315670D01*
X194679758Y-67370205D01*
X194723602Y-67429322D01*
X194761441Y-67492452D01*
X194792910Y-67558987D01*
X194817705Y-67628286D01*
X194835589Y-67699682D01*
X194846389Y-67772487D01*
X194850000Y-67846000D01*
X194850000Y-69346000D01*
X194846389Y-69419513D01*
X194835589Y-69492318D01*
X194817705Y-69563714D01*
X194792910Y-69633013D01*
X194761441Y-69699548D01*
X194723602Y-69762678D01*
X194679758Y-69821795D01*
X194630330Y-69876330D01*
X194575795Y-69925758D01*
X194516678Y-69969602D01*
X194453548Y-70007441D01*
X194387013Y-70038910D01*
X194317714Y-70063705D01*
X194246318Y-70081589D01*
X194173513Y-70092389D01*
X194100000Y-70096000D01*
X192100000Y-70096000D01*
X192026487Y-70092389D01*
X191953682Y-70081589D01*
X191882286Y-70063705D01*
X191812987Y-70038910D01*
X191746452Y-70007441D01*
X191683322Y-69969602D01*
X191624205Y-69925758D01*
X191569670Y-69876330D01*
X191520242Y-69821795D01*
X191476398Y-69762678D01*
X191438559Y-69699548D01*
X191407090Y-69633013D01*
X191382295Y-69563714D01*
X191364411Y-69492318D01*
X191353611Y-69419513D01*
X191350000Y-69346000D01*
X191350000Y-67846000D01*
X191353611Y-67772487D01*
X191364411Y-67699682D01*
X191382295Y-67628286D01*
X191407090Y-67558987D01*
X191438559Y-67492452D01*
X191476398Y-67429322D01*
X191520242Y-67370205D01*
X191569670Y-67315670D01*
X191624205Y-67266242D01*
X191683322Y-67222398D01*
X191746452Y-67184559D01*
X191812987Y-67153090D01*
X191882286Y-67128295D01*
X191953682Y-67110411D01*
X192026487Y-67099611D01*
X192100000Y-67096000D01*
X194100000Y-67096000D01*
X194173513Y-67099611D01*
X194173513Y-67099611D01*
G37*
D18*
X193100000Y-68596000D03*
D19*
X193100000Y-62596000D03*
D20*
X177136200Y-27671000D03*
X179676200Y-27671000D03*
D21*
X182216200Y-27671000D03*
D20*
X154200000Y-27671000D03*
X156740000Y-27671000D03*
D21*
X159280000Y-27671000D03*
D20*
X131340000Y-27671000D03*
X133880000Y-27671000D03*
D21*
X136420000Y-27671000D03*
D22*
X206790000Y-74534000D03*
X201710000Y-74534000D03*
X204250000Y-54214000D03*
X204250000Y-58024000D03*
X204250000Y-61834000D03*
D23*
X158640000Y-58810000D03*
D24*
X158640000Y-61350000D03*
D23*
X181140000Y-58810000D03*
D24*
X181140000Y-61350000D03*
D23*
X187100000Y-28420000D03*
D24*
X187100000Y-25880000D03*
D23*
X120138600Y-28306000D03*
D24*
X120138600Y-25766000D03*
D23*
X95440000Y-61420000D03*
X97980000Y-61420000D03*
X100520000Y-61420000D03*
D24*
X103060000Y-61420000D03*
D23*
X134840000Y-60970000D03*
X134840000Y-58430000D03*
X134840000Y-55890000D03*
X134840000Y-53350000D03*
X134840000Y-50810000D03*
D24*
X134840000Y-48270000D03*
D23*
X88130000Y-31530000D03*
X85590000Y-31530000D03*
X88130000Y-28990000D03*
X85590000Y-28990000D03*
X88130000Y-26450000D03*
D24*
X85590000Y-26450000D03*
D25*
X194400000Y-29940000D03*
D26*
X190590000Y-29940000D03*
D10*
X165604000Y-60040000D03*
X165604000Y-57500000D03*
X165604000Y-54960000D03*
X177796000Y-54960000D03*
X177796000Y-57500000D03*
X177796000Y-60040000D03*
D27*
X86490000Y-95000000D03*
X191540000Y-88432792D03*
X132490000Y-90950000D03*
X173820000Y-78670000D03*
X193220000Y-78700000D03*
X84490000Y-95000000D03*
X80490000Y-97050000D03*
X82490000Y-96950000D03*
X119990000Y-93500000D03*
X123090000Y-89000000D03*
X130840000Y-98500000D03*
X128490000Y-83500000D03*
D14*
X98965000Y-90125000D03*
D27*
X164770000Y-80980000D03*
X182780000Y-81010000D03*
X190980000Y-81920000D03*
D14*
X107090000Y-97500000D03*
D27*
X107090000Y-100500000D03*
X105590000Y-99500000D03*
X98140000Y-98000000D03*
X109940000Y-89800000D03*
X96590000Y-97000000D03*
X109940000Y-88550000D03*
X95090000Y-96000000D03*
X119490000Y-84700000D03*
X93590000Y-95000000D03*
X115390000Y-85950000D03*
X88490000Y-82040790D03*
X90490000Y-82900000D03*
X88940000Y-37900000D03*
X128590000Y-59500000D03*
X89690000Y-37100000D03*
X128590000Y-58250000D03*
X119940000Y-90036410D03*
X114190000Y-91050000D03*
X120990000Y-89000000D03*
X114090000Y-88550000D03*
X81490000Y-95000000D03*
X109940000Y-84700000D03*
X89690000Y-38700000D03*
X110340000Y-51450000D03*
X92940000Y-41950000D03*
X117940000Y-51450000D03*
X95590000Y-34550000D03*
X124110000Y-40590000D03*
X123690000Y-37650000D03*
X89690000Y-31750000D03*
X123360000Y-41420000D03*
X90055000Y-28990000D03*
X94490000Y-51600000D03*
X94540000Y-42750000D03*
X92490000Y-51600000D03*
X95340000Y-41950000D03*
X97490000Y-51600000D03*
X96140000Y-42750000D03*
X103640000Y-43050000D03*
X119990000Y-55950000D03*
X104640000Y-43050000D03*
X108290000Y-55950000D03*
X90490000Y-51600000D03*
X98940000Y-38700000D03*
X88490000Y-51600000D03*
X98090000Y-37900000D03*
X113790000Y-59850000D03*
X84490000Y-51600000D03*
X97240000Y-37100000D03*
X136390000Y-35150000D03*
X98540000Y-30700000D03*
X96140000Y-26700000D03*
X181590000Y-35450000D03*
X95340000Y-27350000D03*
X167390000Y-35450000D03*
X94540000Y-26700000D03*
X157490000Y-35450000D03*
X93740000Y-27350000D03*
X143290000Y-35450000D03*
X151990000Y-87500000D03*
X163590000Y-87500000D03*
X96490000Y-78000000D03*
X94490000Y-81500000D03*
X92490000Y-78000000D03*
X119490000Y-82000000D03*
X124490000Y-92050000D03*
D14*
X145370000Y-27690000D03*
X168290000Y-27670000D03*
X136390000Y-40500000D03*
D27*
X101990000Y-24500000D03*
X114140000Y-51450000D03*
X107940000Y-61350000D03*
X130090000Y-45600000D03*
X123190000Y-51750000D03*
X120840000Y-59300000D03*
X93540000Y-34700000D03*
X97740000Y-38950000D03*
X105310000Y-34610000D03*
X77720000Y-37480000D03*
X79440000Y-61550000D03*
X112430000Y-72190000D03*
X127770000Y-73620000D03*
X123280000Y-46300000D03*
X86457500Y-59482500D03*
X102740000Y-51650000D03*
D14*
X205990000Y-39460000D03*
D27*
X109990000Y-46550000D03*
X100790000Y-47150000D03*
X107840000Y-63950000D03*
X126240000Y-51750000D03*
X132490000Y-50800000D03*
X92790000Y-33900000D03*
X96940000Y-38200000D03*
X80940000Y-59500000D03*
X97190000Y-58750000D03*
X101340000Y-58750000D03*
X114140000Y-53650000D03*
X101190000Y-32250000D03*
X125432100Y-36800000D03*
X97540000Y-31600000D03*
X82540000Y-57200000D03*
X86490000Y-55600000D03*
X110850000Y-61340000D03*
X93110000Y-57570000D03*
X82490000Y-51600000D03*
X105170000Y-57500000D03*
X80490000Y-51600000D03*
X99290000Y-25650000D03*
D28*
X191131600Y-48245530D03*
X193061600Y-52505530D03*
X191131600Y-50375530D03*
X193061600Y-48245530D03*
X189201600Y-48245530D03*
X193061600Y-50375530D03*
X189201600Y-52505530D03*
X191131600Y-52505530D03*
X189201600Y-50375530D03*
D27*
X106190000Y-25650000D03*
X131640000Y-37250000D03*
X125340000Y-42650000D03*
X124740000Y-51750000D03*
X116890000Y-61330000D03*
X112875000Y-53665000D03*
D28*
X156318000Y-40450000D03*
X158248000Y-40450000D03*
X160178000Y-40450000D03*
X156318000Y-42580000D03*
X156318000Y-44710000D03*
X158248000Y-44710000D03*
X160178000Y-42580000D03*
X160178000Y-44710000D03*
X158248000Y-42580000D03*
D27*
X160568000Y-48000000D03*
X160568000Y-50320000D03*
X158248000Y-50320000D03*
X157088000Y-49160000D03*
X159408000Y-49160000D03*
X158248000Y-48000000D03*
X155928000Y-48000000D03*
X157088000Y-50320000D03*
X155928000Y-50320000D03*
X159408000Y-50320000D03*
X157088000Y-48000000D03*
X159408000Y-48000000D03*
X158248000Y-49160000D03*
X160568000Y-49160000D03*
X155928000Y-49160000D03*
X160568000Y-46840000D03*
X157088000Y-46840000D03*
X159408000Y-46840000D03*
X158248000Y-46840000D03*
X155928000Y-46840000D03*
D28*
X149270000Y-40450000D03*
X153130000Y-42580000D03*
X151200000Y-40450000D03*
X153130000Y-40450000D03*
X149270000Y-42580000D03*
X149270000Y-44710000D03*
X151200000Y-44710000D03*
X153130000Y-44710000D03*
X151200000Y-42580000D03*
D27*
X151200000Y-48000000D03*
X152360000Y-48000000D03*
X153520000Y-48000000D03*
X150040000Y-48000000D03*
X148880000Y-48000000D03*
X153520000Y-49160000D03*
X151200000Y-49160000D03*
X148880000Y-49160000D03*
X150040000Y-49160000D03*
X152360000Y-49160000D03*
X150040000Y-50320000D03*
X152360000Y-50320000D03*
X151200000Y-50320000D03*
X153520000Y-50320000D03*
X148880000Y-50320000D03*
X153520000Y-46840000D03*
X151200000Y-46840000D03*
X148880000Y-46840000D03*
X150040000Y-46840000D03*
X152360000Y-46840000D03*
D28*
X144024000Y-42550000D03*
X144024000Y-40420000D03*
X144024000Y-44680000D03*
X142094000Y-42550000D03*
X145954000Y-42550000D03*
X142094000Y-40420000D03*
X145954000Y-40420000D03*
X145954000Y-44680000D03*
X142094000Y-44680000D03*
D27*
X146344000Y-48000000D03*
X146344000Y-50320000D03*
X144024000Y-50320000D03*
X142864000Y-49160000D03*
X145184000Y-49160000D03*
X144024000Y-48000000D03*
X141704000Y-48000000D03*
X142864000Y-50320000D03*
X141704000Y-50320000D03*
X145184000Y-50320000D03*
X142864000Y-48000000D03*
X145184000Y-48000000D03*
X144024000Y-49160000D03*
X146344000Y-49160000D03*
X141704000Y-49160000D03*
X146344000Y-46840000D03*
X142864000Y-46840000D03*
X145184000Y-46840000D03*
X144024000Y-46840000D03*
X141704000Y-46840000D03*
D28*
X180384000Y-42580000D03*
X180384000Y-44710000D03*
X184244000Y-42580000D03*
X184244000Y-44710000D03*
X180384000Y-40450000D03*
X182314000Y-44710000D03*
X184244000Y-40450000D03*
X182314000Y-40450000D03*
X182314000Y-42580000D03*
D27*
X184634000Y-49160000D03*
X181154000Y-50320000D03*
X182314000Y-48000000D03*
X184634000Y-48000000D03*
X181154000Y-46840000D03*
X184634000Y-50320000D03*
X183474000Y-49160000D03*
X179994000Y-49160000D03*
X183474000Y-46840000D03*
X183474000Y-48000000D03*
X181154000Y-48000000D03*
X184634000Y-46840000D03*
X179994000Y-50320000D03*
X181154000Y-49160000D03*
X179994000Y-46840000D03*
X182314000Y-49160000D03*
X179994000Y-48000000D03*
X182314000Y-50320000D03*
X182314000Y-46840000D03*
X183474000Y-50320000D03*
D28*
X175200000Y-42580000D03*
X173270000Y-44710000D03*
X177130000Y-42580000D03*
X177130000Y-44710000D03*
X173270000Y-40450000D03*
X175200000Y-40450000D03*
X173270000Y-42580000D03*
X175200000Y-44710000D03*
X177130000Y-40450000D03*
D27*
X175200000Y-50320000D03*
X174040000Y-48000000D03*
X176360000Y-49160000D03*
X174040000Y-49160000D03*
X172880000Y-50320000D03*
X177520000Y-48000000D03*
X177520000Y-50320000D03*
X175200000Y-46840000D03*
X172880000Y-48000000D03*
X172880000Y-49160000D03*
X176360000Y-48000000D03*
X174040000Y-46840000D03*
X174040000Y-50320000D03*
X177520000Y-46840000D03*
X175200000Y-48000000D03*
X172880000Y-46840000D03*
X176360000Y-50320000D03*
X175200000Y-49160000D03*
X176360000Y-46840000D03*
X177520000Y-49160000D03*
D28*
X166160000Y-40450000D03*
X168090000Y-40450000D03*
X170020000Y-40450000D03*
X166160000Y-42580000D03*
X170020000Y-44710000D03*
X168090000Y-42580000D03*
X168090000Y-44710000D03*
X170020000Y-42580000D03*
X166160000Y-44710000D03*
D27*
X169250000Y-50320000D03*
X169250000Y-48000000D03*
X170410000Y-49160000D03*
X170410000Y-46840000D03*
X168090000Y-46840000D03*
X165770000Y-50320000D03*
X165770000Y-46840000D03*
X168090000Y-50320000D03*
X165770000Y-48000000D03*
X168090000Y-49160000D03*
X166930000Y-46840000D03*
X166930000Y-50320000D03*
X165770000Y-49160000D03*
X170410000Y-48000000D03*
X166930000Y-48000000D03*
X166930000Y-49160000D03*
X169250000Y-46840000D03*
X170410000Y-50320000D03*
X169250000Y-49160000D03*
X168090000Y-48000000D03*
X151890000Y-35450000D03*
X126290000Y-45600000D03*
X175940000Y-35450000D03*
X127540000Y-43200000D03*
D29*
X94067180Y-37900000D02*
X88940000Y-37900000D01*
X98090018Y-35449982D02*
X96517198Y-35449982D01*
X98090020Y-35449980D02*
X98090018Y-35449982D01*
X128590000Y-59500000D02*
X125378505Y-59500000D01*
X96517198Y-35449982D02*
X94067180Y-37900000D01*
X119890018Y-54011513D02*
X119890018Y-50777198D01*
X119890018Y-50777198D02*
X118312800Y-49199980D01*
X125378505Y-59500000D02*
X119890018Y-54011513D01*
X118312800Y-49199980D02*
X109999210Y-49199980D01*
X109999210Y-49199980D02*
X105440000Y-44640770D01*
X101540037Y-38877035D02*
X101540036Y-37554396D01*
X105440000Y-44640770D02*
X105440000Y-42776998D01*
X105440000Y-42776998D02*
X101540037Y-38877035D01*
X99435620Y-35449980D02*
X99340020Y-35449980D01*
X101540036Y-37554396D02*
X99435620Y-35449980D01*
X99340020Y-35449980D02*
X98090020Y-35449980D01*
X97890028Y-34999972D02*
X96330797Y-34999973D01*
X97890030Y-34999970D02*
X97890028Y-34999972D01*
X96330797Y-34999973D02*
X94230770Y-37100000D01*
X124764915Y-58250000D02*
X120340028Y-53825113D01*
X128590000Y-58250000D02*
X124764915Y-58250000D01*
X120340028Y-53825113D02*
X120340027Y-50590797D01*
X120340027Y-50590797D02*
X118499200Y-48749970D01*
X94230770Y-37100000D02*
X89690000Y-37100000D01*
X118499200Y-48749970D02*
X110185610Y-48749970D01*
X110185610Y-48749970D02*
X105890010Y-44454370D01*
X105890010Y-44454370D02*
X105890009Y-42590597D01*
X101990045Y-38690633D02*
X101990045Y-37367995D01*
X105890009Y-42590597D02*
X101990045Y-38690633D01*
X99622020Y-34999970D02*
X97890030Y-34999970D01*
X101990045Y-37367995D02*
X99622020Y-34999970D01*
X93903590Y-38700000D02*
X89690000Y-38700000D01*
X96703599Y-35899991D02*
X93903590Y-38700000D01*
X99249222Y-35899992D02*
X96703599Y-35899991D01*
X101090027Y-37740797D02*
X99249222Y-35899992D01*
X101090027Y-42200027D02*
X101090027Y-37740797D01*
X110340000Y-51450000D02*
X101090027Y-42200027D01*
X92940000Y-40300000D02*
X92940000Y-41950000D01*
X96890000Y-36350000D02*
X92940000Y-40300000D01*
X99062820Y-36350000D02*
X96890000Y-36350000D01*
X117940000Y-51450000D02*
X117374315Y-51450000D01*
X117374315Y-51450000D02*
X116524315Y-52300000D01*
X116524315Y-52300000D02*
X109987905Y-52300000D01*
X109987905Y-52300000D02*
X100640019Y-42952114D01*
X100640019Y-42952114D02*
X100640018Y-37927198D01*
X100640018Y-37927198D02*
X99062820Y-36350000D01*
X96155685Y-34550000D02*
X95590000Y-34550000D01*
X123305685Y-39000000D02*
X104258459Y-38999999D01*
X104258459Y-38999999D02*
X99808420Y-34549960D01*
X99808420Y-34549960D02*
X96155725Y-34549960D01*
X96155725Y-34549960D02*
X96155685Y-34550000D01*
X123710001Y-39404316D02*
X123305685Y-39000000D01*
X123710001Y-40190001D02*
X123710001Y-39404316D01*
X124110000Y-40590000D02*
X123710001Y-40190001D01*
X93990000Y-31750000D02*
X89690000Y-31750000D01*
X96339950Y-34099950D02*
X93990000Y-31750000D01*
X99994820Y-34099950D02*
X96339950Y-34099950D01*
X104444860Y-38549990D02*
X99994820Y-34099950D01*
X122790010Y-38549990D02*
X104444860Y-38549990D01*
X123690000Y-37650000D02*
X122790010Y-38549990D01*
X123449301Y-41330699D02*
X123360000Y-41420000D01*
X124524999Y-41325001D02*
X124519301Y-41330699D01*
X124688001Y-41325001D02*
X124524999Y-41325001D01*
X125340000Y-40673002D02*
X124688001Y-41325001D01*
X125340000Y-37950000D02*
X125340000Y-40673002D01*
X124190000Y-36800000D02*
X125340000Y-37950000D01*
X124519301Y-41330699D02*
X123449301Y-41330699D01*
X121890020Y-38099980D02*
X123190000Y-36800000D01*
X90055000Y-28990000D02*
X92365000Y-31300000D01*
X123190000Y-36800000D02*
X124190000Y-36800000D01*
X92365000Y-31300000D02*
X94176410Y-31300000D01*
X96526350Y-33649940D02*
X100181220Y-33649940D01*
X100181220Y-33649940D02*
X104631260Y-38099980D01*
X94176410Y-31300000D02*
X96526350Y-33649940D01*
X104631260Y-38099980D02*
X121890020Y-38099980D01*
X94540000Y-51550000D02*
X94490000Y-51600000D01*
X94540000Y-42750000D02*
X94540000Y-51550000D01*
X95340000Y-41950000D02*
X95340000Y-51900000D01*
X95340000Y-51900000D02*
X94840000Y-52400000D01*
X93290000Y-52400000D02*
X92490000Y-51600000D01*
X94840000Y-52400000D02*
X93290000Y-52400000D01*
X96140000Y-50250000D02*
X97490000Y-51600000D01*
X96140000Y-42750000D02*
X96140000Y-50250000D01*
X103640000Y-44113590D02*
X103640000Y-43050000D01*
X119990000Y-55384315D02*
X118990000Y-54384315D01*
X119990000Y-55950000D02*
X119990000Y-55384315D01*
X118990000Y-54384315D02*
X118990000Y-51150000D01*
X118990000Y-51150000D02*
X117940000Y-50100000D01*
X117940000Y-50100000D02*
X109626410Y-50100000D01*
X109626410Y-50100000D02*
X103640000Y-44113590D01*
X104640000Y-44477180D02*
X104640000Y-43050000D01*
X109812810Y-49649990D02*
X104640000Y-44477180D01*
X118126400Y-49649990D02*
X109812810Y-49649990D01*
X119440009Y-50963599D02*
X118126400Y-49649990D01*
X119440010Y-54197915D02*
X119440009Y-50963599D01*
X120990000Y-55747905D02*
X119440010Y-54197915D01*
X120990000Y-56250000D02*
X120990000Y-55747905D01*
X108290000Y-55384315D02*
X110824315Y-52850000D01*
X108290000Y-55950000D02*
X108290000Y-55384315D01*
X110824315Y-52850000D02*
X115440000Y-52850000D01*
X115440000Y-52850000D02*
X119490000Y-56900000D01*
X119490000Y-56900000D02*
X120340000Y-56900000D01*
X120340000Y-56900000D02*
X120990000Y-56250000D01*
X98940000Y-39850000D02*
X98940000Y-38700000D01*
X98440000Y-40350000D02*
X98940000Y-39850000D01*
X98440000Y-51850000D02*
X98440000Y-40350000D01*
X97439990Y-52850010D02*
X98440000Y-51850000D01*
X90490000Y-51600000D02*
X91740010Y-52850010D01*
X91740010Y-52850010D02*
X97439990Y-52850010D01*
X99340000Y-37900000D02*
X98090000Y-37900000D01*
X99740000Y-38300000D02*
X99340000Y-37900000D01*
X90190020Y-53300020D02*
X97626390Y-53300020D01*
X88490000Y-51600000D02*
X90190020Y-53300020D01*
X98890009Y-52036401D02*
X98890010Y-40536400D01*
X97626390Y-53300020D02*
X98890009Y-52036401D01*
X98890010Y-40536400D02*
X99740000Y-39686410D01*
X99740000Y-39686410D02*
X99740000Y-38300000D01*
X99176410Y-37100000D02*
X97240000Y-37100000D01*
X100190009Y-38113599D02*
X99176410Y-37100000D01*
X86640030Y-53750030D02*
X97812790Y-53750030D01*
X84490000Y-51600000D02*
X86640030Y-53750030D01*
X97812790Y-53750030D02*
X99340018Y-52222802D01*
X99340018Y-52222802D02*
X99340019Y-40722801D01*
X99340019Y-40722801D02*
X100190010Y-39872810D01*
X100190010Y-39872810D02*
X100190009Y-38113599D01*
X84490000Y-54673002D02*
X84490000Y-51600000D01*
X93333600Y-56500010D02*
X86317008Y-56500010D01*
X103436420Y-57449990D02*
X94283579Y-57449989D01*
X104196400Y-56690010D02*
X103436420Y-57449990D01*
X86317008Y-56500010D02*
X84490000Y-54673002D01*
X113790000Y-61110000D02*
X112800000Y-62100000D01*
X94283579Y-57449989D02*
X93333600Y-56500010D01*
X113790000Y-59850000D02*
X113790000Y-61110000D01*
X112800000Y-62100000D02*
X110536998Y-62100000D01*
X110536998Y-62100000D02*
X108190000Y-59753002D01*
X106129285Y-56690010D02*
X104196400Y-56690010D01*
X108190000Y-59753002D02*
X108190000Y-58750725D01*
X108190000Y-58750725D02*
X106129285Y-56690010D01*
X136390000Y-35150000D02*
X134890010Y-33650010D01*
X112444370Y-33650010D02*
X108844399Y-30050039D01*
X134890010Y-33650010D02*
X112444370Y-33650010D01*
X99189961Y-30050039D02*
X98540000Y-30700000D01*
X108844399Y-30050039D02*
X99189961Y-30050039D01*
X96140000Y-27550000D02*
X96140000Y-26700000D01*
X96840000Y-28250000D02*
X96140000Y-27550000D01*
X109590000Y-28250000D02*
X96840000Y-28250000D01*
X113189970Y-31849970D02*
X109590000Y-28250000D01*
X181590000Y-35450000D02*
X177989970Y-31849970D01*
X177989970Y-31849970D02*
X113189970Y-31849970D01*
X113003569Y-32299979D02*
X109403600Y-28700010D01*
X167390000Y-35450000D02*
X164239980Y-32299980D01*
X164239980Y-32299980D02*
X113003569Y-32299979D01*
X95340000Y-27915685D02*
X95340000Y-27350000D01*
X96124325Y-28700010D02*
X95340000Y-27915685D01*
X97039990Y-28700010D02*
X96124325Y-28700010D01*
X109403600Y-28700010D02*
X97039990Y-28700010D01*
X157490000Y-35450000D02*
X154789990Y-32749990D01*
X112817168Y-32749988D02*
X109217200Y-29150020D01*
X113190010Y-32749990D02*
X112817168Y-32749988D01*
X154789990Y-32749990D02*
X113190010Y-32749990D01*
X95390020Y-29150020D02*
X94540000Y-28300000D01*
X109217200Y-29150020D02*
X95390020Y-29150020D01*
X94540000Y-28300000D02*
X94540000Y-26700000D01*
X143290000Y-35450000D02*
X142724315Y-35450000D01*
X142724315Y-35450000D02*
X140474315Y-33200000D01*
X113290000Y-33200000D02*
X112630767Y-33199997D01*
X140474315Y-33200000D02*
X113290000Y-33200000D01*
X112630767Y-33199997D02*
X109030800Y-29600030D01*
X93740000Y-27915685D02*
X93740000Y-27350000D01*
X93740000Y-28136410D02*
X93740000Y-27915685D01*
X95203619Y-29600029D02*
X93740000Y-28136410D01*
X109030800Y-29600030D02*
X95203619Y-29600029D01*
X92980588Y-59800000D02*
X91580609Y-58400021D01*
X107463002Y-59800000D02*
X92980588Y-59800000D01*
X131870000Y-48270000D02*
X130290000Y-49850000D01*
X83740021Y-58400021D02*
X82540000Y-57200000D01*
X134840000Y-48270000D02*
X131870000Y-48270000D01*
X130290000Y-49850000D02*
X130290000Y-59650000D01*
X130290000Y-59650000D02*
X127390000Y-62550000D01*
X127390000Y-62550000D02*
X110213002Y-62550000D01*
X91580609Y-58400021D02*
X83740021Y-58400021D01*
X110213002Y-62550000D02*
X107463002Y-59800000D01*
X110850000Y-61340000D02*
X110850000Y-60774315D01*
X86940000Y-56050000D02*
X86490000Y-55600000D01*
X110850000Y-60774315D02*
X106315686Y-56240000D01*
X106315686Y-56240000D02*
X104010000Y-56240000D01*
X104010000Y-56240000D02*
X103250020Y-56999980D01*
X103250020Y-56999980D02*
X94469980Y-56999980D01*
X93520000Y-56050000D02*
X86940000Y-56050000D01*
X94469980Y-56999980D02*
X93520000Y-56050000D01*
X82490000Y-53600000D02*
X82490000Y-51600000D01*
X86390001Y-57500001D02*
X82490000Y-53600000D01*
X92474316Y-57500001D02*
X86390001Y-57500001D01*
X92544315Y-57570000D02*
X92474316Y-57500001D01*
X93110000Y-57570000D02*
X92544315Y-57570000D01*
X80490000Y-53600000D02*
X80490000Y-51600000D01*
X93990000Y-57900000D02*
X93264999Y-58625001D01*
X92441999Y-58625001D02*
X91767009Y-57950011D01*
X93264999Y-58625001D02*
X92441999Y-58625001D01*
X84840011Y-57950011D02*
X83340000Y-56450000D01*
X91767009Y-57950011D02*
X84840011Y-57950011D01*
X83340000Y-56450000D02*
X80490000Y-53600000D01*
X104770001Y-57899999D02*
X105170000Y-57500000D01*
X104150000Y-57900000D02*
X104770001Y-57899999D01*
X104150000Y-57900000D02*
X93990000Y-57900000D01*
X182489990Y-23399990D02*
X101540010Y-23399990D01*
X189264000Y-62596000D02*
X187340000Y-60672000D01*
X193090000Y-62596000D02*
X189264000Y-62596000D01*
X101540010Y-23399990D02*
X99290000Y-25650000D01*
X187340000Y-60672000D02*
X187340000Y-32640000D01*
X187340000Y-32640000D02*
X184790000Y-30090000D01*
X184790000Y-30090000D02*
X184790000Y-25700000D01*
X184790000Y-25700000D02*
X182489990Y-23399990D01*
X112875000Y-57315000D02*
X116890000Y-61330000D01*
X112875000Y-53665000D02*
X112875000Y-57315000D01*
X151140000Y-36200000D02*
X151890000Y-35450000D01*
X134790000Y-36200000D02*
X151140000Y-36200000D01*
X134090000Y-35500000D02*
X134790000Y-36200000D01*
X130690000Y-35500000D02*
X134090000Y-35500000D01*
X126290000Y-39900000D02*
X130690000Y-35500000D01*
X126290000Y-45600000D02*
X126290000Y-39900000D01*
X134603599Y-36650009D02*
X174739990Y-36650010D01*
X174739990Y-36650010D02*
X175940000Y-35450000D01*
X127540000Y-43200000D02*
X127540000Y-39286410D01*
X130176400Y-36650010D02*
X130189990Y-36650010D01*
X130189990Y-36650010D02*
X130889990Y-35950010D01*
X127540000Y-39286410D02*
X130176400Y-36650010D01*
X130889990Y-35950010D02*
X133903600Y-35950010D01*
X133903600Y-35950010D02*
X134603599Y-36650009D01*
D30*
G36*
X91572795Y-77509744D02*
G01*
X91494774Y-77698102D01*
X91455000Y-77898061D01*
X91455000Y-78101939D01*
X91494774Y-78301898D01*
X91572795Y-78490256D01*
X91686063Y-78659774D01*
X91830226Y-78803937D01*
X91999744Y-78917205D01*
X92188102Y-78995226D01*
X92388061Y-79035000D01*
X92591939Y-79035000D01*
X92791898Y-78995226D01*
X92980256Y-78917205D01*
X93149774Y-78803937D01*
X93293937Y-78659774D01*
X93407205Y-78490256D01*
X93485226Y-78301898D01*
X93525000Y-78101939D01*
X93525000Y-77898061D01*
X93485226Y-77698102D01*
X93407205Y-77509744D01*
X93301804Y-77352000D01*
X95678196Y-77352000D01*
X95572795Y-77509744D01*
X95494774Y-77698102D01*
X95455000Y-77898061D01*
X95455000Y-78101939D01*
X95494774Y-78301898D01*
X95572795Y-78490256D01*
X95686063Y-78659774D01*
X95830226Y-78803937D01*
X95999744Y-78917205D01*
X96188102Y-78995226D01*
X96388061Y-79035000D01*
X96591939Y-79035000D01*
X96791898Y-78995226D01*
X96980256Y-78917205D01*
X97149774Y-78803937D01*
X97293937Y-78659774D01*
X97407205Y-78490256D01*
X97417837Y-78464587D01*
X136494192Y-78464587D01*
X137450000Y-79420395D01*
X138405808Y-78464587D01*
X138310044Y-78200186D01*
X138020429Y-78059296D01*
X137708892Y-77977616D01*
X137387405Y-77958282D01*
X137068325Y-78002039D01*
X136763912Y-78107205D01*
X136589956Y-78200186D01*
X136494192Y-78464587D01*
X97417837Y-78464587D01*
X97485226Y-78301898D01*
X97525000Y-78101939D01*
X97525000Y-77898061D01*
X97485226Y-77698102D01*
X97407205Y-77509744D01*
X97301804Y-77352000D01*
X209915000Y-77352000D01*
X209915000Y-105315000D01*
X76285000Y-105315000D01*
X76285000Y-102804495D01*
X76615000Y-102804495D01*
X76615000Y-103195505D01*
X76691282Y-103579003D01*
X76840915Y-103940250D01*
X77058149Y-104265364D01*
X77334636Y-104541851D01*
X77659750Y-104759085D01*
X78020997Y-104908718D01*
X78404495Y-104985000D01*
X78795505Y-104985000D01*
X79179003Y-104908718D01*
X79540250Y-104759085D01*
X79865364Y-104541851D01*
X80141851Y-104265364D01*
X80359085Y-103940250D01*
X80508718Y-103579003D01*
X80585000Y-103195505D01*
X80585000Y-102804495D01*
X80510184Y-102428363D01*
X92315000Y-102428363D01*
X92315000Y-102671637D01*
X92362460Y-102910236D01*
X92455557Y-103134992D01*
X92590713Y-103337267D01*
X92762733Y-103509287D01*
X92965008Y-103644443D01*
X93189764Y-103737540D01*
X93428363Y-103785000D01*
X93671637Y-103785000D01*
X93910236Y-103737540D01*
X94134992Y-103644443D01*
X94300000Y-103534188D01*
X94465008Y-103644443D01*
X94689764Y-103737540D01*
X94928363Y-103785000D01*
X95171637Y-103785000D01*
X95410236Y-103737540D01*
X95634992Y-103644443D01*
X95800000Y-103534188D01*
X95965008Y-103644443D01*
X96189764Y-103737540D01*
X96428363Y-103785000D01*
X96671637Y-103785000D01*
X96910236Y-103737540D01*
X97134992Y-103644443D01*
X97300000Y-103534188D01*
X97465008Y-103644443D01*
X97689764Y-103737540D01*
X97928363Y-103785000D01*
X98171637Y-103785000D01*
X98410236Y-103737540D01*
X98634992Y-103644443D01*
X98800000Y-103534188D01*
X98965008Y-103644443D01*
X99189764Y-103737540D01*
X99428363Y-103785000D01*
X99671637Y-103785000D01*
X99910236Y-103737540D01*
X100134992Y-103644443D01*
X100300000Y-103534188D01*
X100465008Y-103644443D01*
X100689764Y-103737540D01*
X100928363Y-103785000D01*
X101171637Y-103785000D01*
X101410236Y-103737540D01*
X101634992Y-103644443D01*
X101800000Y-103534188D01*
X101965008Y-103644443D01*
X102189764Y-103737540D01*
X102428363Y-103785000D01*
X102671637Y-103785000D01*
X102910236Y-103737540D01*
X103134992Y-103644443D01*
X103300000Y-103534188D01*
X103465008Y-103644443D01*
X103689764Y-103737540D01*
X103928363Y-103785000D01*
X104171637Y-103785000D01*
X104410236Y-103737540D01*
X104634992Y-103644443D01*
X104800000Y-103534188D01*
X104965008Y-103644443D01*
X105189764Y-103737540D01*
X105428363Y-103785000D01*
X105671637Y-103785000D01*
X105910236Y-103737540D01*
X106134992Y-103644443D01*
X106300000Y-103534188D01*
X106465008Y-103644443D01*
X106689764Y-103737540D01*
X106928363Y-103785000D01*
X107171637Y-103785000D01*
X107410236Y-103737540D01*
X107634992Y-103644443D01*
X107800000Y-103534188D01*
X107965008Y-103644443D01*
X108189764Y-103737540D01*
X108428363Y-103785000D01*
X108671637Y-103785000D01*
X108910236Y-103737540D01*
X109134992Y-103644443D01*
X109300000Y-103534188D01*
X109465008Y-103644443D01*
X109689764Y-103737540D01*
X109928363Y-103785000D01*
X110171637Y-103785000D01*
X110410236Y-103737540D01*
X110634992Y-103644443D01*
X110800000Y-103534188D01*
X110965008Y-103644443D01*
X111189764Y-103737540D01*
X111428363Y-103785000D01*
X111671637Y-103785000D01*
X111910236Y-103737540D01*
X112134992Y-103644443D01*
X112337267Y-103509287D01*
X112391533Y-103455021D01*
X112427148Y-103623348D01*
X112648516Y-103724237D01*
X112885313Y-103780000D01*
X113128438Y-103788495D01*
X113368549Y-103749395D01*
X113596418Y-103664202D01*
X113672852Y-103623348D01*
X113720159Y-103399764D01*
X113050000Y-102729605D01*
X113035858Y-102743748D01*
X112856253Y-102564143D01*
X112870395Y-102550000D01*
X113229605Y-102550000D01*
X113899764Y-103220159D01*
X114123348Y-103172852D01*
X114224237Y-102951484D01*
X114258851Y-102804495D01*
X152765000Y-102804495D01*
X152765000Y-103195505D01*
X152841282Y-103579003D01*
X152990915Y-103940250D01*
X153208149Y-104265364D01*
X153484636Y-104541851D01*
X153809750Y-104759085D01*
X154170997Y-104908718D01*
X154554495Y-104985000D01*
X154945505Y-104985000D01*
X155329003Y-104908718D01*
X155690250Y-104759085D01*
X156015364Y-104541851D01*
X156291851Y-104265364D01*
X156509085Y-103940250D01*
X156658718Y-103579003D01*
X156735000Y-103195505D01*
X156735000Y-102804495D01*
X205665000Y-102804495D01*
X205665000Y-103195505D01*
X205741282Y-103579003D01*
X205890915Y-103940250D01*
X206108149Y-104265364D01*
X206384636Y-104541851D01*
X206709750Y-104759085D01*
X207070997Y-104908718D01*
X207454495Y-104985000D01*
X207845505Y-104985000D01*
X208229003Y-104908718D01*
X208590250Y-104759085D01*
X208915364Y-104541851D01*
X209191851Y-104265364D01*
X209409085Y-103940250D01*
X209558718Y-103579003D01*
X209635000Y-103195505D01*
X209635000Y-102804495D01*
X209558718Y-102420997D01*
X209409085Y-102059750D01*
X209191851Y-101734636D01*
X208915364Y-101458149D01*
X208590250Y-101240915D01*
X208229003Y-101091282D01*
X207845505Y-101015000D01*
X207454495Y-101015000D01*
X207070997Y-101091282D01*
X206709750Y-101240915D01*
X206384636Y-101458149D01*
X206108149Y-101734636D01*
X205890915Y-102059750D01*
X205741282Y-102420997D01*
X205665000Y-102804495D01*
X156735000Y-102804495D01*
X156658718Y-102420997D01*
X156509085Y-102059750D01*
X156291851Y-101734636D01*
X156015364Y-101458149D01*
X155690250Y-101240915D01*
X155329003Y-101091282D01*
X154945505Y-101015000D01*
X154554495Y-101015000D01*
X154170997Y-101091282D01*
X153809750Y-101240915D01*
X153484636Y-101458149D01*
X153208149Y-101734636D01*
X152990915Y-102059750D01*
X152841282Y-102420997D01*
X152765000Y-102804495D01*
X114258851Y-102804495D01*
X114280000Y-102714687D01*
X114288495Y-102471562D01*
X114249395Y-102231451D01*
X114164202Y-102003582D01*
X114123348Y-101927148D01*
X113926099Y-101885413D01*
X136494192Y-101885413D01*
X136589956Y-102149814D01*
X136879571Y-102290704D01*
X137191108Y-102372384D01*
X137512595Y-102391718D01*
X137831675Y-102347961D01*
X138136088Y-102242795D01*
X138310044Y-102149814D01*
X138405808Y-101885413D01*
X137450000Y-100929605D01*
X136494192Y-101885413D01*
X113926099Y-101885413D01*
X113899764Y-101879841D01*
X113229605Y-102550000D01*
X112870395Y-102550000D01*
X112856253Y-102535858D01*
X113035858Y-102356253D01*
X113050000Y-102370395D01*
X113720159Y-101700236D01*
X113672852Y-101476652D01*
X113451484Y-101375763D01*
X113214687Y-101320000D01*
X112971562Y-101311505D01*
X112731451Y-101350605D01*
X112503582Y-101435798D01*
X112427148Y-101476652D01*
X112391533Y-101644979D01*
X112337267Y-101590713D01*
X112134992Y-101455557D01*
X111910236Y-101362460D01*
X111671637Y-101315000D01*
X111428363Y-101315000D01*
X111189764Y-101362460D01*
X110965008Y-101455557D01*
X110800000Y-101565812D01*
X110634992Y-101455557D01*
X110410236Y-101362460D01*
X110171637Y-101315000D01*
X109928363Y-101315000D01*
X109689764Y-101362460D01*
X109465008Y-101455557D01*
X109300000Y-101565812D01*
X109134992Y-101455557D01*
X108910236Y-101362460D01*
X108671637Y-101315000D01*
X108428363Y-101315000D01*
X108189764Y-101362460D01*
X107965008Y-101455557D01*
X107800000Y-101565812D01*
X107634992Y-101455557D01*
X107561329Y-101425045D01*
X107580256Y-101417205D01*
X107749774Y-101303937D01*
X107893937Y-101159774D01*
X108007205Y-100990256D01*
X108080795Y-100812595D01*
X135808282Y-100812595D01*
X135852039Y-101131675D01*
X135957205Y-101436088D01*
X136050186Y-101610044D01*
X136314587Y-101705808D01*
X137270395Y-100750000D01*
X137629605Y-100750000D01*
X138585413Y-101705808D01*
X138849814Y-101610044D01*
X138990704Y-101320429D01*
X139072384Y-101008892D01*
X139091718Y-100687405D01*
X139078219Y-100588967D01*
X140315000Y-100588967D01*
X140315000Y-100911033D01*
X140377832Y-101226912D01*
X140501082Y-101524463D01*
X140680013Y-101792252D01*
X140907748Y-102019987D01*
X141175537Y-102198918D01*
X141473088Y-102322168D01*
X141788967Y-102385000D01*
X142111033Y-102385000D01*
X142426912Y-102322168D01*
X142724463Y-102198918D01*
X142992252Y-102019987D01*
X143219987Y-101792252D01*
X143398918Y-101524463D01*
X143522168Y-101226912D01*
X143585000Y-100911033D01*
X143585000Y-100588967D01*
X144315000Y-100588967D01*
X144315000Y-100911033D01*
X144377832Y-101226912D01*
X144501082Y-101524463D01*
X144680013Y-101792252D01*
X144907748Y-102019987D01*
X145175537Y-102198918D01*
X145473088Y-102322168D01*
X145788967Y-102385000D01*
X146111033Y-102385000D01*
X146426912Y-102322168D01*
X146724463Y-102198918D01*
X146992252Y-102019987D01*
X147126826Y-101885413D01*
X149494192Y-101885413D01*
X149589956Y-102149814D01*
X149879571Y-102290704D01*
X150191108Y-102372384D01*
X150512595Y-102391718D01*
X150831675Y-102347961D01*
X151136088Y-102242795D01*
X151310044Y-102149814D01*
X151405808Y-101885413D01*
X150450000Y-100929605D01*
X149494192Y-101885413D01*
X147126826Y-101885413D01*
X147219987Y-101792252D01*
X147398918Y-101524463D01*
X147522168Y-101226912D01*
X147585000Y-100911033D01*
X147585000Y-100812595D01*
X148808282Y-100812595D01*
X148852039Y-101131675D01*
X148957205Y-101436088D01*
X149050186Y-101610044D01*
X149314587Y-101705808D01*
X150270395Y-100750000D01*
X150629605Y-100750000D01*
X151585413Y-101705808D01*
X151849814Y-101610044D01*
X151990704Y-101320429D01*
X152072384Y-101008892D01*
X152091718Y-100687405D01*
X152047961Y-100368325D01*
X151942795Y-100063912D01*
X151849814Y-99889956D01*
X151585413Y-99794192D01*
X150629605Y-100750000D01*
X150270395Y-100750000D01*
X149314587Y-99794192D01*
X149050186Y-99889956D01*
X148909296Y-100179571D01*
X148827616Y-100491108D01*
X148808282Y-100812595D01*
X147585000Y-100812595D01*
X147585000Y-100588967D01*
X147522168Y-100273088D01*
X147398918Y-99975537D01*
X147219987Y-99707748D01*
X147126826Y-99614587D01*
X149494192Y-99614587D01*
X150450000Y-100570395D01*
X151405808Y-99614587D01*
X151310044Y-99350186D01*
X151020429Y-99209296D01*
X150708892Y-99127616D01*
X150387405Y-99108282D01*
X150068325Y-99152039D01*
X149763912Y-99257205D01*
X149589956Y-99350186D01*
X149494192Y-99614587D01*
X147126826Y-99614587D01*
X146992252Y-99480013D01*
X146724463Y-99301082D01*
X146426912Y-99177832D01*
X146111033Y-99115000D01*
X145788967Y-99115000D01*
X145473088Y-99177832D01*
X145175537Y-99301082D01*
X144907748Y-99480013D01*
X144680013Y-99707748D01*
X144501082Y-99975537D01*
X144377832Y-100273088D01*
X144315000Y-100588967D01*
X143585000Y-100588967D01*
X143522168Y-100273088D01*
X143398918Y-99975537D01*
X143219987Y-99707748D01*
X142992252Y-99480013D01*
X142724463Y-99301082D01*
X142426912Y-99177832D01*
X142111033Y-99115000D01*
X141788967Y-99115000D01*
X141473088Y-99177832D01*
X141175537Y-99301082D01*
X140907748Y-99480013D01*
X140680013Y-99707748D01*
X140501082Y-99975537D01*
X140377832Y-100273088D01*
X140315000Y-100588967D01*
X139078219Y-100588967D01*
X139047961Y-100368325D01*
X138942795Y-100063912D01*
X138849814Y-99889956D01*
X138585413Y-99794192D01*
X137629605Y-100750000D01*
X137270395Y-100750000D01*
X136314587Y-99794192D01*
X136050186Y-99889956D01*
X135909296Y-100179571D01*
X135827616Y-100491108D01*
X135808282Y-100812595D01*
X108080795Y-100812595D01*
X108085226Y-100801898D01*
X108125000Y-100601939D01*
X108125000Y-100398061D01*
X108085226Y-100198102D01*
X108007205Y-100009744D01*
X107893937Y-99840226D01*
X107749774Y-99696063D01*
X107627837Y-99614587D01*
X136494192Y-99614587D01*
X137450000Y-100570395D01*
X138405808Y-99614587D01*
X138310044Y-99350186D01*
X138020429Y-99209296D01*
X137708892Y-99127616D01*
X137387405Y-99108282D01*
X137068325Y-99152039D01*
X136763912Y-99257205D01*
X136589956Y-99350186D01*
X136494192Y-99614587D01*
X107627837Y-99614587D01*
X107580256Y-99582795D01*
X107391898Y-99504774D01*
X107191939Y-99465000D01*
X106988061Y-99465000D01*
X106788102Y-99504774D01*
X106625000Y-99572334D01*
X106625000Y-99398061D01*
X106585226Y-99198102D01*
X106507205Y-99009744D01*
X106393937Y-98840226D01*
X106249774Y-98696063D01*
X106080256Y-98582795D01*
X105891898Y-98504774D01*
X105691939Y-98465000D01*
X105488061Y-98465000D01*
X105288102Y-98504774D01*
X105099744Y-98582795D01*
X104930226Y-98696063D01*
X104786063Y-98840226D01*
X104672795Y-99009744D01*
X104594774Y-99198102D01*
X104555000Y-99398061D01*
X104555000Y-99601939D01*
X104594774Y-99801898D01*
X104672795Y-99990256D01*
X104786063Y-100159774D01*
X104930226Y-100303937D01*
X105099744Y-100417205D01*
X105288102Y-100495226D01*
X105488061Y-100535000D01*
X105691939Y-100535000D01*
X105891898Y-100495226D01*
X106055000Y-100427666D01*
X106055000Y-100601939D01*
X106094774Y-100801898D01*
X106172795Y-100990256D01*
X106286063Y-101159774D01*
X106430226Y-101303937D01*
X106583615Y-101406428D01*
X106465008Y-101455557D01*
X106300000Y-101565812D01*
X106134992Y-101455557D01*
X105910236Y-101362460D01*
X105671637Y-101315000D01*
X105428363Y-101315000D01*
X105189764Y-101362460D01*
X104965008Y-101455557D01*
X104800000Y-101565812D01*
X104634992Y-101455557D01*
X104410236Y-101362460D01*
X104171637Y-101315000D01*
X103928363Y-101315000D01*
X103689764Y-101362460D01*
X103465008Y-101455557D01*
X103300000Y-101565812D01*
X103134992Y-101455557D01*
X102910236Y-101362460D01*
X102671637Y-101315000D01*
X102428363Y-101315000D01*
X102189764Y-101362460D01*
X101965008Y-101455557D01*
X101800000Y-101565812D01*
X101634992Y-101455557D01*
X101410236Y-101362460D01*
X101171637Y-101315000D01*
X100928363Y-101315000D01*
X100689764Y-101362460D01*
X100465008Y-101455557D01*
X100300000Y-101565812D01*
X100134992Y-101455557D01*
X99910236Y-101362460D01*
X99671637Y-101315000D01*
X99428363Y-101315000D01*
X99189764Y-101362460D01*
X98965008Y-101455557D01*
X98800000Y-101565812D01*
X98634992Y-101455557D01*
X98410236Y-101362460D01*
X98171637Y-101315000D01*
X97928363Y-101315000D01*
X97689764Y-101362460D01*
X97465008Y-101455557D01*
X97300000Y-101565812D01*
X97134992Y-101455557D01*
X96910236Y-101362460D01*
X96671637Y-101315000D01*
X96428363Y-101315000D01*
X96189764Y-101362460D01*
X95965008Y-101455557D01*
X95800000Y-101565812D01*
X95634992Y-101455557D01*
X95410236Y-101362460D01*
X95171637Y-101315000D01*
X94928363Y-101315000D01*
X94689764Y-101362460D01*
X94465008Y-101455557D01*
X94300000Y-101565812D01*
X94134992Y-101455557D01*
X93910236Y-101362460D01*
X93671637Y-101315000D01*
X93428363Y-101315000D01*
X93189764Y-101362460D01*
X92965008Y-101455557D01*
X92762733Y-101590713D01*
X92590713Y-101762733D01*
X92455557Y-101965008D01*
X92362460Y-102189764D01*
X92315000Y-102428363D01*
X80510184Y-102428363D01*
X80508718Y-102420997D01*
X80359085Y-102059750D01*
X80141851Y-101734636D01*
X79865364Y-101458149D01*
X79540250Y-101240915D01*
X79179003Y-101091282D01*
X78795505Y-101015000D01*
X78404495Y-101015000D01*
X78020997Y-101091282D01*
X77659750Y-101240915D01*
X77334636Y-101458149D01*
X77058149Y-101734636D01*
X76840915Y-102059750D01*
X76691282Y-102420997D01*
X76615000Y-102804495D01*
X76285000Y-102804495D01*
X76285000Y-96948061D01*
X79455000Y-96948061D01*
X79455000Y-97151939D01*
X79494774Y-97351898D01*
X79572795Y-97540256D01*
X79686063Y-97709774D01*
X79830226Y-97853937D01*
X79999744Y-97967205D01*
X80188102Y-98045226D01*
X80388061Y-98085000D01*
X80591939Y-98085000D01*
X80791898Y-98045226D01*
X80980256Y-97967205D01*
X81149774Y-97853937D01*
X81293937Y-97709774D01*
X81407205Y-97540256D01*
X81485226Y-97351898D01*
X81501762Y-97268767D01*
X81572795Y-97440256D01*
X81686063Y-97609774D01*
X81830226Y-97753937D01*
X81999744Y-97867205D01*
X82188102Y-97945226D01*
X82388061Y-97985000D01*
X82591939Y-97985000D01*
X82791898Y-97945226D01*
X82980256Y-97867205D01*
X83149774Y-97753937D01*
X83293937Y-97609774D01*
X83407205Y-97440256D01*
X83485226Y-97251898D01*
X83525000Y-97051939D01*
X83525000Y-96848061D01*
X83485226Y-96648102D01*
X83407205Y-96459744D01*
X83293937Y-96290226D01*
X83149774Y-96146063D01*
X82980256Y-96032795D01*
X82791898Y-95954774D01*
X82591939Y-95915000D01*
X82388061Y-95915000D01*
X82188102Y-95954774D01*
X81999744Y-96032795D01*
X81830226Y-96146063D01*
X81686063Y-96290226D01*
X81572795Y-96459744D01*
X81494774Y-96648102D01*
X81478238Y-96731233D01*
X81407205Y-96559744D01*
X81293937Y-96390226D01*
X81149774Y-96246063D01*
X80980256Y-96132795D01*
X80791898Y-96054774D01*
X80591939Y-96015000D01*
X80388061Y-96015000D01*
X80188102Y-96054774D01*
X79999744Y-96132795D01*
X79830226Y-96246063D01*
X79686063Y-96390226D01*
X79572795Y-96559744D01*
X79494774Y-96748102D01*
X79455000Y-96948061D01*
X76285000Y-96948061D01*
X76285000Y-94898061D01*
X80455000Y-94898061D01*
X80455000Y-95101939D01*
X80494774Y-95301898D01*
X80572795Y-95490256D01*
X80686063Y-95659774D01*
X80830226Y-95803937D01*
X80999744Y-95917205D01*
X81188102Y-95995226D01*
X81388061Y-96035000D01*
X81591939Y-96035000D01*
X81791898Y-95995226D01*
X81980256Y-95917205D01*
X82149774Y-95803937D01*
X82293937Y-95659774D01*
X82407205Y-95490256D01*
X82485226Y-95301898D01*
X82525000Y-95101939D01*
X82525000Y-94898061D01*
X83455000Y-94898061D01*
X83455000Y-95101939D01*
X83494774Y-95301898D01*
X83572795Y-95490256D01*
X83686063Y-95659774D01*
X83830226Y-95803937D01*
X83999744Y-95917205D01*
X84188102Y-95995226D01*
X84388061Y-96035000D01*
X84591939Y-96035000D01*
X84791898Y-95995226D01*
X84980256Y-95917205D01*
X85149774Y-95803937D01*
X85293937Y-95659774D01*
X85407205Y-95490256D01*
X85485226Y-95301898D01*
X85490000Y-95277897D01*
X85494774Y-95301898D01*
X85572795Y-95490256D01*
X85686063Y-95659774D01*
X85830226Y-95803937D01*
X85999744Y-95917205D01*
X86188102Y-95995226D01*
X86388061Y-96035000D01*
X86591939Y-96035000D01*
X86791898Y-95995226D01*
X86980256Y-95917205D01*
X87149774Y-95803937D01*
X87293937Y-95659774D01*
X87407205Y-95490256D01*
X87485226Y-95301898D01*
X87525000Y-95101939D01*
X87525000Y-94898061D01*
X92555000Y-94898061D01*
X92555000Y-95101939D01*
X92594774Y-95301898D01*
X92672795Y-95490256D01*
X92786063Y-95659774D01*
X92930226Y-95803937D01*
X93099744Y-95917205D01*
X93288102Y-95995226D01*
X93488061Y-96035000D01*
X93691939Y-96035000D01*
X93891898Y-95995226D01*
X94055000Y-95927666D01*
X94055000Y-96101939D01*
X94094774Y-96301898D01*
X94172795Y-96490256D01*
X94286063Y-96659774D01*
X94430226Y-96803937D01*
X94599744Y-96917205D01*
X94788102Y-96995226D01*
X94988061Y-97035000D01*
X95191939Y-97035000D01*
X95391898Y-96995226D01*
X95555000Y-96927666D01*
X95555000Y-97101939D01*
X95594774Y-97301898D01*
X95672795Y-97490256D01*
X95786063Y-97659774D01*
X95930226Y-97803937D01*
X96099744Y-97917205D01*
X96288102Y-97995226D01*
X96488061Y-98035000D01*
X96691939Y-98035000D01*
X96891898Y-97995226D01*
X97080256Y-97917205D01*
X97105000Y-97900672D01*
X97105000Y-98101939D01*
X97144774Y-98301898D01*
X97222795Y-98490256D01*
X97336063Y-98659774D01*
X97480226Y-98803937D01*
X97649744Y-98917205D01*
X97838102Y-98995226D01*
X98038061Y-99035000D01*
X98241939Y-99035000D01*
X98441898Y-98995226D01*
X98630256Y-98917205D01*
X98799774Y-98803937D01*
X98943937Y-98659774D01*
X99057205Y-98490256D01*
X99135226Y-98301898D01*
X99175000Y-98101939D01*
X99175000Y-97898061D01*
X99135226Y-97698102D01*
X99057205Y-97509744D01*
X98969420Y-97378363D01*
X105855000Y-97378363D01*
X105855000Y-97621637D01*
X105902460Y-97860236D01*
X105995557Y-98084992D01*
X106130713Y-98287267D01*
X106302733Y-98459287D01*
X106505008Y-98594443D01*
X106729764Y-98687540D01*
X106968363Y-98735000D01*
X107211637Y-98735000D01*
X107450236Y-98687540D01*
X107674992Y-98594443D01*
X107877267Y-98459287D01*
X107938493Y-98398061D01*
X129805000Y-98398061D01*
X129805000Y-98601939D01*
X129844774Y-98801898D01*
X129922795Y-98990256D01*
X130036063Y-99159774D01*
X130180226Y-99303937D01*
X130349744Y-99417205D01*
X130538102Y-99495226D01*
X130738061Y-99535000D01*
X130941939Y-99535000D01*
X131141898Y-99495226D01*
X131330256Y-99417205D01*
X131499774Y-99303937D01*
X131643937Y-99159774D01*
X131757205Y-98990256D01*
X131835226Y-98801898D01*
X131875000Y-98601939D01*
X131875000Y-98398061D01*
X131835226Y-98198102D01*
X131757205Y-98009744D01*
X131643937Y-97840226D01*
X131499774Y-97696063D01*
X131330256Y-97582795D01*
X131141898Y-97504774D01*
X130941939Y-97465000D01*
X130738061Y-97465000D01*
X130538102Y-97504774D01*
X130349744Y-97582795D01*
X130180226Y-97696063D01*
X130036063Y-97840226D01*
X129922795Y-98009744D01*
X129844774Y-98198102D01*
X129805000Y-98398061D01*
X107938493Y-98398061D01*
X108049287Y-98287267D01*
X108184443Y-98084992D01*
X108277540Y-97860236D01*
X108325000Y-97621637D01*
X108325000Y-97378363D01*
X108277540Y-97139764D01*
X108184443Y-96915008D01*
X108049287Y-96712733D01*
X107877267Y-96540713D01*
X107674992Y-96405557D01*
X107450236Y-96312460D01*
X107211637Y-96265000D01*
X106968363Y-96265000D01*
X106729764Y-96312460D01*
X106505008Y-96405557D01*
X106302733Y-96540713D01*
X106130713Y-96712733D01*
X105995557Y-96915008D01*
X105902460Y-97139764D01*
X105855000Y-97378363D01*
X98969420Y-97378363D01*
X98943937Y-97340226D01*
X98799774Y-97196063D01*
X98630256Y-97082795D01*
X98441898Y-97004774D01*
X98241939Y-96965000D01*
X98038061Y-96965000D01*
X97838102Y-97004774D01*
X97649744Y-97082795D01*
X97625000Y-97099328D01*
X97625000Y-96898061D01*
X97585226Y-96698102D01*
X97507205Y-96509744D01*
X97393937Y-96340226D01*
X97249774Y-96196063D01*
X97080256Y-96082795D01*
X96891898Y-96004774D01*
X96691939Y-95965000D01*
X96488061Y-95965000D01*
X96288102Y-96004774D01*
X96125000Y-96072334D01*
X96125000Y-95898061D01*
X96085226Y-95698102D01*
X96007205Y-95509744D01*
X95924130Y-95385413D01*
X136494192Y-95385413D01*
X136589956Y-95649814D01*
X136879571Y-95790704D01*
X137191108Y-95872384D01*
X137512595Y-95891718D01*
X137831675Y-95847961D01*
X138136088Y-95742795D01*
X138310044Y-95649814D01*
X138405808Y-95385413D01*
X137450000Y-94429605D01*
X136494192Y-95385413D01*
X95924130Y-95385413D01*
X95893937Y-95340226D01*
X95749774Y-95196063D01*
X95580256Y-95082795D01*
X95391898Y-95004774D01*
X95191939Y-94965000D01*
X94988061Y-94965000D01*
X94788102Y-95004774D01*
X94625000Y-95072334D01*
X94625000Y-94898061D01*
X94585226Y-94698102D01*
X94507205Y-94509744D01*
X94393937Y-94340226D01*
X94249774Y-94196063D01*
X94080256Y-94082795D01*
X93891898Y-94004774D01*
X93691939Y-93965000D01*
X93488061Y-93965000D01*
X93288102Y-94004774D01*
X93099744Y-94082795D01*
X92930226Y-94196063D01*
X92786063Y-94340226D01*
X92672795Y-94509744D01*
X92594774Y-94698102D01*
X92555000Y-94898061D01*
X87525000Y-94898061D01*
X87485226Y-94698102D01*
X87407205Y-94509744D01*
X87293937Y-94340226D01*
X87149774Y-94196063D01*
X86980256Y-94082795D01*
X86791898Y-94004774D01*
X86591939Y-93965000D01*
X86388061Y-93965000D01*
X86188102Y-94004774D01*
X85999744Y-94082795D01*
X85830226Y-94196063D01*
X85686063Y-94340226D01*
X85572795Y-94509744D01*
X85494774Y-94698102D01*
X85490000Y-94722103D01*
X85485226Y-94698102D01*
X85407205Y-94509744D01*
X85293937Y-94340226D01*
X85149774Y-94196063D01*
X84980256Y-94082795D01*
X84791898Y-94004774D01*
X84591939Y-93965000D01*
X84388061Y-93965000D01*
X84188102Y-94004774D01*
X83999744Y-94082795D01*
X83830226Y-94196063D01*
X83686063Y-94340226D01*
X83572795Y-94509744D01*
X83494774Y-94698102D01*
X83455000Y-94898061D01*
X82525000Y-94898061D01*
X82485226Y-94698102D01*
X82407205Y-94509744D01*
X82293937Y-94340226D01*
X82149774Y-94196063D01*
X81980256Y-94082795D01*
X81791898Y-94004774D01*
X81591939Y-93965000D01*
X81388061Y-93965000D01*
X81188102Y-94004774D01*
X80999744Y-94082795D01*
X80830226Y-94196063D01*
X80686063Y-94340226D01*
X80572795Y-94509744D01*
X80494774Y-94698102D01*
X80455000Y-94898061D01*
X76285000Y-94898061D01*
X76285000Y-93398061D01*
X118955000Y-93398061D01*
X118955000Y-93601939D01*
X118994774Y-93801898D01*
X119072795Y-93990256D01*
X119186063Y-94159774D01*
X119330226Y-94303937D01*
X119499744Y-94417205D01*
X119688102Y-94495226D01*
X119888061Y-94535000D01*
X120091939Y-94535000D01*
X120291898Y-94495226D01*
X120480256Y-94417205D01*
X120636816Y-94312595D01*
X135808282Y-94312595D01*
X135852039Y-94631675D01*
X135957205Y-94936088D01*
X136050186Y-95110044D01*
X136314587Y-95205808D01*
X137270395Y-94250000D01*
X137629605Y-94250000D01*
X138585413Y-95205808D01*
X138849814Y-95110044D01*
X138990704Y-94820429D01*
X139072384Y-94508892D01*
X139091718Y-94187405D01*
X139078219Y-94088967D01*
X140315000Y-94088967D01*
X140315000Y-94411033D01*
X140377832Y-94726912D01*
X140501082Y-95024463D01*
X140680013Y-95292252D01*
X140907748Y-95519987D01*
X141175537Y-95698918D01*
X141473088Y-95822168D01*
X141788967Y-95885000D01*
X142111033Y-95885000D01*
X142426912Y-95822168D01*
X142724463Y-95698918D01*
X142992252Y-95519987D01*
X143219987Y-95292252D01*
X143398918Y-95024463D01*
X143522168Y-94726912D01*
X143585000Y-94411033D01*
X143585000Y-94088967D01*
X144315000Y-94088967D01*
X144315000Y-94411033D01*
X144377832Y-94726912D01*
X144501082Y-95024463D01*
X144680013Y-95292252D01*
X144907748Y-95519987D01*
X145175537Y-95698918D01*
X145473088Y-95822168D01*
X145788967Y-95885000D01*
X146111033Y-95885000D01*
X146426912Y-95822168D01*
X146724463Y-95698918D01*
X146992252Y-95519987D01*
X147126826Y-95385413D01*
X149494192Y-95385413D01*
X149589956Y-95649814D01*
X149879571Y-95790704D01*
X150191108Y-95872384D01*
X150512595Y-95891718D01*
X150831675Y-95847961D01*
X151136088Y-95742795D01*
X151310044Y-95649814D01*
X151405808Y-95385413D01*
X150450000Y-94429605D01*
X149494192Y-95385413D01*
X147126826Y-95385413D01*
X147219987Y-95292252D01*
X147398918Y-95024463D01*
X147522168Y-94726912D01*
X147585000Y-94411033D01*
X147585000Y-94312595D01*
X148808282Y-94312595D01*
X148852039Y-94631675D01*
X148957205Y-94936088D01*
X149050186Y-95110044D01*
X149314587Y-95205808D01*
X150270395Y-94250000D01*
X150629605Y-94250000D01*
X151585413Y-95205808D01*
X151849814Y-95110044D01*
X151990704Y-94820429D01*
X152072384Y-94508892D01*
X152091718Y-94187405D01*
X152047961Y-93868325D01*
X151942795Y-93563912D01*
X151849814Y-93389956D01*
X151585413Y-93294192D01*
X150629605Y-94250000D01*
X150270395Y-94250000D01*
X149314587Y-93294192D01*
X149050186Y-93389956D01*
X148909296Y-93679571D01*
X148827616Y-93991108D01*
X148808282Y-94312595D01*
X147585000Y-94312595D01*
X147585000Y-94088967D01*
X147522168Y-93773088D01*
X147398918Y-93475537D01*
X147219987Y-93207748D01*
X147126826Y-93114587D01*
X149494192Y-93114587D01*
X150450000Y-94070395D01*
X151405808Y-93114587D01*
X151310044Y-92850186D01*
X151020429Y-92709296D01*
X150708892Y-92627616D01*
X150387405Y-92608282D01*
X150068325Y-92652039D01*
X149763912Y-92757205D01*
X149589956Y-92850186D01*
X149494192Y-93114587D01*
X147126826Y-93114587D01*
X146992252Y-92980013D01*
X146724463Y-92801082D01*
X146426912Y-92677832D01*
X146111033Y-92615000D01*
X145788967Y-92615000D01*
X145473088Y-92677832D01*
X145175537Y-92801082D01*
X144907748Y-92980013D01*
X144680013Y-93207748D01*
X144501082Y-93475537D01*
X144377832Y-93773088D01*
X144315000Y-94088967D01*
X143585000Y-94088967D01*
X143522168Y-93773088D01*
X143398918Y-93475537D01*
X143219987Y-93207748D01*
X142992252Y-92980013D01*
X142724463Y-92801082D01*
X142426912Y-92677832D01*
X142111033Y-92615000D01*
X141788967Y-92615000D01*
X141473088Y-92677832D01*
X141175537Y-92801082D01*
X140907748Y-92980013D01*
X140680013Y-93207748D01*
X140501082Y-93475537D01*
X140377832Y-93773088D01*
X140315000Y-94088967D01*
X139078219Y-94088967D01*
X139047961Y-93868325D01*
X138942795Y-93563912D01*
X138849814Y-93389956D01*
X138585413Y-93294192D01*
X137629605Y-94250000D01*
X137270395Y-94250000D01*
X136314587Y-93294192D01*
X136050186Y-93389956D01*
X135909296Y-93679571D01*
X135827616Y-93991108D01*
X135808282Y-94312595D01*
X120636816Y-94312595D01*
X120649774Y-94303937D01*
X120793937Y-94159774D01*
X120907205Y-93990256D01*
X120985226Y-93801898D01*
X121025000Y-93601939D01*
X121025000Y-93398061D01*
X120985226Y-93198102D01*
X120950633Y-93114587D01*
X136494192Y-93114587D01*
X137450000Y-94070395D01*
X138405808Y-93114587D01*
X138310044Y-92850186D01*
X138020429Y-92709296D01*
X137708892Y-92627616D01*
X137387405Y-92608282D01*
X137068325Y-92652039D01*
X136763912Y-92757205D01*
X136589956Y-92850186D01*
X136494192Y-93114587D01*
X120950633Y-93114587D01*
X120907205Y-93009744D01*
X120793937Y-92840226D01*
X120649774Y-92696063D01*
X120480256Y-92582795D01*
X120291898Y-92504774D01*
X120091939Y-92465000D01*
X119888061Y-92465000D01*
X119688102Y-92504774D01*
X119499744Y-92582795D01*
X119330226Y-92696063D01*
X119186063Y-92840226D01*
X119072795Y-93009744D01*
X118994774Y-93198102D01*
X118955000Y-93398061D01*
X76285000Y-93398061D01*
X76285000Y-90003363D01*
X97730000Y-90003363D01*
X97730000Y-90246637D01*
X97777460Y-90485236D01*
X97870557Y-90709992D01*
X98005713Y-90912267D01*
X98177733Y-91084287D01*
X98380008Y-91219443D01*
X98604764Y-91312540D01*
X98843363Y-91360000D01*
X99086637Y-91360000D01*
X99325236Y-91312540D01*
X99549992Y-91219443D01*
X99752267Y-91084287D01*
X99888493Y-90948061D01*
X113155000Y-90948061D01*
X113155000Y-91151939D01*
X113194774Y-91351898D01*
X113272795Y-91540256D01*
X113386063Y-91709774D01*
X113530226Y-91853937D01*
X113699744Y-91967205D01*
X113888102Y-92045226D01*
X114088061Y-92085000D01*
X114291939Y-92085000D01*
X114491898Y-92045226D01*
X114680256Y-91967205D01*
X114708907Y-91948061D01*
X123455000Y-91948061D01*
X123455000Y-92151939D01*
X123494774Y-92351898D01*
X123572795Y-92540256D01*
X123686063Y-92709774D01*
X123830226Y-92853937D01*
X123999744Y-92967205D01*
X124188102Y-93045226D01*
X124388061Y-93085000D01*
X124591939Y-93085000D01*
X124791898Y-93045226D01*
X124980256Y-92967205D01*
X125149774Y-92853937D01*
X125293937Y-92709774D01*
X125407205Y-92540256D01*
X125485226Y-92351898D01*
X125525000Y-92151939D01*
X125525000Y-91948061D01*
X125485226Y-91748102D01*
X125482067Y-91740475D01*
X153215000Y-91740475D01*
X153215000Y-92259525D01*
X153316261Y-92768601D01*
X153514893Y-93248141D01*
X153803262Y-93679715D01*
X154170285Y-94046738D01*
X154601859Y-94335107D01*
X155081399Y-94533739D01*
X155590475Y-94635000D01*
X156109525Y-94635000D01*
X156618601Y-94533739D01*
X157098141Y-94335107D01*
X157529715Y-94046738D01*
X157896738Y-93679715D01*
X158185107Y-93248141D01*
X158383739Y-92768601D01*
X158485000Y-92259525D01*
X158485000Y-91740475D01*
X162015000Y-91740475D01*
X162015000Y-92259525D01*
X162116261Y-92768601D01*
X162314893Y-93248141D01*
X162603262Y-93679715D01*
X162970285Y-94046738D01*
X163401859Y-94335107D01*
X163881399Y-94533739D01*
X164390475Y-94635000D01*
X164909525Y-94635000D01*
X165418601Y-94533739D01*
X165898141Y-94335107D01*
X166329715Y-94046738D01*
X166696738Y-93679715D01*
X166985107Y-93248141D01*
X167183739Y-92768601D01*
X167285000Y-92259525D01*
X167285000Y-91740475D01*
X171215000Y-91740475D01*
X171215000Y-92259525D01*
X171316261Y-92768601D01*
X171514893Y-93248141D01*
X171803262Y-93679715D01*
X172170285Y-94046738D01*
X172601859Y-94335107D01*
X173081399Y-94533739D01*
X173590475Y-94635000D01*
X174109525Y-94635000D01*
X174618601Y-94533739D01*
X175098141Y-94335107D01*
X175529715Y-94046738D01*
X175896738Y-93679715D01*
X176185107Y-93248141D01*
X176383739Y-92768601D01*
X176485000Y-92259525D01*
X176485000Y-91740475D01*
X180015000Y-91740475D01*
X180015000Y-92259525D01*
X180116261Y-92768601D01*
X180314893Y-93248141D01*
X180603262Y-93679715D01*
X180970285Y-94046738D01*
X181401859Y-94335107D01*
X181881399Y-94533739D01*
X182390475Y-94635000D01*
X182909525Y-94635000D01*
X183418601Y-94533739D01*
X183898141Y-94335107D01*
X184329715Y-94046738D01*
X184696738Y-93679715D01*
X184985107Y-93248141D01*
X185183739Y-92768601D01*
X185285000Y-92259525D01*
X185285000Y-91740475D01*
X189215000Y-91740475D01*
X189215000Y-92259525D01*
X189316261Y-92768601D01*
X189514893Y-93248141D01*
X189803262Y-93679715D01*
X190170285Y-94046738D01*
X190601859Y-94335107D01*
X191081399Y-94533739D01*
X191590475Y-94635000D01*
X192109525Y-94635000D01*
X192618601Y-94533739D01*
X193098141Y-94335107D01*
X193529715Y-94046738D01*
X193896738Y-93679715D01*
X194185107Y-93248141D01*
X194383739Y-92768601D01*
X194485000Y-92259525D01*
X194485000Y-91740475D01*
X198015000Y-91740475D01*
X198015000Y-92259525D01*
X198116261Y-92768601D01*
X198314893Y-93248141D01*
X198603262Y-93679715D01*
X198970285Y-94046738D01*
X199401859Y-94335107D01*
X199881399Y-94533739D01*
X200390475Y-94635000D01*
X200909525Y-94635000D01*
X201418601Y-94533739D01*
X201898141Y-94335107D01*
X202329715Y-94046738D01*
X202696738Y-93679715D01*
X202985107Y-93248141D01*
X203183739Y-92768601D01*
X203285000Y-92259525D01*
X203285000Y-91740475D01*
X203183739Y-91231399D01*
X202985107Y-90751859D01*
X202696738Y-90320285D01*
X202329715Y-89953262D01*
X201898141Y-89664893D01*
X201418601Y-89466261D01*
X200909525Y-89365000D01*
X200390475Y-89365000D01*
X199881399Y-89466261D01*
X199401859Y-89664893D01*
X198970285Y-89953262D01*
X198603262Y-90320285D01*
X198314893Y-90751859D01*
X198116261Y-91231399D01*
X198015000Y-91740475D01*
X194485000Y-91740475D01*
X194383739Y-91231399D01*
X194185107Y-90751859D01*
X193896738Y-90320285D01*
X193529715Y-89953262D01*
X193098141Y-89664893D01*
X192618601Y-89466261D01*
X192109525Y-89365000D01*
X191994036Y-89365000D01*
X192030256Y-89349997D01*
X192199774Y-89236729D01*
X192343937Y-89092566D01*
X192457205Y-88923048D01*
X192535226Y-88734690D01*
X192575000Y-88534731D01*
X192575000Y-88330853D01*
X192535226Y-88130894D01*
X192457205Y-87942536D01*
X192343937Y-87773018D01*
X192199774Y-87628855D01*
X192030256Y-87515587D01*
X191841898Y-87437566D01*
X191641939Y-87397792D01*
X191438061Y-87397792D01*
X191238102Y-87437566D01*
X191049744Y-87515587D01*
X190880226Y-87628855D01*
X190736063Y-87773018D01*
X190622795Y-87942536D01*
X190544774Y-88130894D01*
X190505000Y-88330853D01*
X190505000Y-88534731D01*
X190544774Y-88734690D01*
X190622795Y-88923048D01*
X190736063Y-89092566D01*
X190880226Y-89236729D01*
X191049744Y-89349997D01*
X191238102Y-89428018D01*
X191255881Y-89431554D01*
X191081399Y-89466261D01*
X190601859Y-89664893D01*
X190170285Y-89953262D01*
X189803262Y-90320285D01*
X189514893Y-90751859D01*
X189316261Y-91231399D01*
X189215000Y-91740475D01*
X185285000Y-91740475D01*
X185183739Y-91231399D01*
X184985107Y-90751859D01*
X184696738Y-90320285D01*
X184329715Y-89953262D01*
X183898141Y-89664893D01*
X183418601Y-89466261D01*
X182909525Y-89365000D01*
X182390475Y-89365000D01*
X181881399Y-89466261D01*
X181401859Y-89664893D01*
X180970285Y-89953262D01*
X180603262Y-90320285D01*
X180314893Y-90751859D01*
X180116261Y-91231399D01*
X180015000Y-91740475D01*
X176485000Y-91740475D01*
X176383739Y-91231399D01*
X176185107Y-90751859D01*
X175896738Y-90320285D01*
X175529715Y-89953262D01*
X175098141Y-89664893D01*
X174618601Y-89466261D01*
X174109525Y-89365000D01*
X173590475Y-89365000D01*
X173081399Y-89466261D01*
X172601859Y-89664893D01*
X172170285Y-89953262D01*
X171803262Y-90320285D01*
X171514893Y-90751859D01*
X171316261Y-91231399D01*
X171215000Y-91740475D01*
X167285000Y-91740475D01*
X167183739Y-91231399D01*
X166985107Y-90751859D01*
X166696738Y-90320285D01*
X166329715Y-89953262D01*
X165898141Y-89664893D01*
X165418601Y-89466261D01*
X164909525Y-89365000D01*
X164390475Y-89365000D01*
X163881399Y-89466261D01*
X163401859Y-89664893D01*
X162970285Y-89953262D01*
X162603262Y-90320285D01*
X162314893Y-90751859D01*
X162116261Y-91231399D01*
X162015000Y-91740475D01*
X158485000Y-91740475D01*
X158383739Y-91231399D01*
X158185107Y-90751859D01*
X157896738Y-90320285D01*
X157529715Y-89953262D01*
X157098141Y-89664893D01*
X156618601Y-89466261D01*
X156109525Y-89365000D01*
X155590475Y-89365000D01*
X155081399Y-89466261D01*
X154601859Y-89664893D01*
X154170285Y-89953262D01*
X153803262Y-90320285D01*
X153514893Y-90751859D01*
X153316261Y-91231399D01*
X153215000Y-91740475D01*
X125482067Y-91740475D01*
X125407205Y-91559744D01*
X125293937Y-91390226D01*
X125149774Y-91246063D01*
X124980256Y-91132795D01*
X124791898Y-91054774D01*
X124591939Y-91015000D01*
X124388061Y-91015000D01*
X124188102Y-91054774D01*
X123999744Y-91132795D01*
X123830226Y-91246063D01*
X123686063Y-91390226D01*
X123572795Y-91559744D01*
X123494774Y-91748102D01*
X123455000Y-91948061D01*
X114708907Y-91948061D01*
X114849774Y-91853937D01*
X114993937Y-91709774D01*
X115107205Y-91540256D01*
X115185226Y-91351898D01*
X115225000Y-91151939D01*
X115225000Y-90948061D01*
X115185226Y-90748102D01*
X115107205Y-90559744D01*
X114993937Y-90390226D01*
X114849774Y-90246063D01*
X114680256Y-90132795D01*
X114491898Y-90054774D01*
X114291939Y-90015000D01*
X114088061Y-90015000D01*
X113888102Y-90054774D01*
X113699744Y-90132795D01*
X113530226Y-90246063D01*
X113386063Y-90390226D01*
X113272795Y-90559744D01*
X113194774Y-90748102D01*
X113155000Y-90948061D01*
X99888493Y-90948061D01*
X99924287Y-90912267D01*
X100059443Y-90709992D01*
X100152540Y-90485236D01*
X100200000Y-90246637D01*
X100200000Y-90003363D01*
X100152540Y-89764764D01*
X100059443Y-89540008D01*
X99924287Y-89337733D01*
X99752267Y-89165713D01*
X99549992Y-89030557D01*
X99325236Y-88937460D01*
X99086637Y-88890000D01*
X98843363Y-88890000D01*
X98604764Y-88937460D01*
X98380008Y-89030557D01*
X98177733Y-89165713D01*
X98005713Y-89337733D01*
X97870557Y-89540008D01*
X97777460Y-89764764D01*
X97730000Y-90003363D01*
X76285000Y-90003363D01*
X76285000Y-88448061D01*
X108905000Y-88448061D01*
X108905000Y-88651939D01*
X108944774Y-88851898D01*
X109022795Y-89040256D01*
X109112828Y-89175000D01*
X109022795Y-89309744D01*
X108944774Y-89498102D01*
X108905000Y-89698061D01*
X108905000Y-89901939D01*
X108944774Y-90101898D01*
X109022795Y-90290256D01*
X109136063Y-90459774D01*
X109280226Y-90603937D01*
X109449744Y-90717205D01*
X109638102Y-90795226D01*
X109838061Y-90835000D01*
X110041939Y-90835000D01*
X110241898Y-90795226D01*
X110430256Y-90717205D01*
X110599774Y-90603937D01*
X110743937Y-90459774D01*
X110857205Y-90290256D01*
X110935226Y-90101898D01*
X110968529Y-89934471D01*
X118905000Y-89934471D01*
X118905000Y-90138349D01*
X118944774Y-90338308D01*
X119022795Y-90526666D01*
X119136063Y-90696184D01*
X119280226Y-90840347D01*
X119449744Y-90953615D01*
X119638102Y-91031636D01*
X119838061Y-91071410D01*
X120041939Y-91071410D01*
X120241898Y-91031636D01*
X120430256Y-90953615D01*
X120599774Y-90840347D01*
X120743937Y-90696184D01*
X120857205Y-90526666D01*
X120935226Y-90338308D01*
X120975000Y-90138349D01*
X120975000Y-90035000D01*
X121091939Y-90035000D01*
X121291898Y-89995226D01*
X121480256Y-89917205D01*
X121649774Y-89803937D01*
X121793937Y-89659774D01*
X121907205Y-89490256D01*
X121985226Y-89301898D01*
X122025000Y-89101939D01*
X122025000Y-88898061D01*
X122055000Y-88898061D01*
X122055000Y-89101939D01*
X122094774Y-89301898D01*
X122172795Y-89490256D01*
X122286063Y-89659774D01*
X122430226Y-89803937D01*
X122599744Y-89917205D01*
X122788102Y-89995226D01*
X122988061Y-90035000D01*
X123191939Y-90035000D01*
X123391898Y-89995226D01*
X123580256Y-89917205D01*
X123749774Y-89803937D01*
X123893937Y-89659774D01*
X124007205Y-89490256D01*
X124085226Y-89301898D01*
X124125000Y-89101939D01*
X124125000Y-88898061D01*
X124085226Y-88698102D01*
X124007205Y-88509744D01*
X123893937Y-88340226D01*
X123749774Y-88196063D01*
X123580256Y-88082795D01*
X123391898Y-88004774D01*
X123191939Y-87965000D01*
X122988061Y-87965000D01*
X122788102Y-88004774D01*
X122599744Y-88082795D01*
X122430226Y-88196063D01*
X122286063Y-88340226D01*
X122172795Y-88509744D01*
X122094774Y-88698102D01*
X122055000Y-88898061D01*
X122025000Y-88898061D01*
X121985226Y-88698102D01*
X121907205Y-88509744D01*
X121793937Y-88340226D01*
X121649774Y-88196063D01*
X121480256Y-88082795D01*
X121291898Y-88004774D01*
X121091939Y-87965000D01*
X120888061Y-87965000D01*
X120688102Y-88004774D01*
X120499744Y-88082795D01*
X120330226Y-88196063D01*
X120186063Y-88340226D01*
X120072795Y-88509744D01*
X119994774Y-88698102D01*
X119955000Y-88898061D01*
X119955000Y-89001410D01*
X119838061Y-89001410D01*
X119638102Y-89041184D01*
X119449744Y-89119205D01*
X119280226Y-89232473D01*
X119136063Y-89376636D01*
X119022795Y-89546154D01*
X118944774Y-89734512D01*
X118905000Y-89934471D01*
X110968529Y-89934471D01*
X110975000Y-89901939D01*
X110975000Y-89698061D01*
X110935226Y-89498102D01*
X110857205Y-89309744D01*
X110767172Y-89175000D01*
X110857205Y-89040256D01*
X110935226Y-88851898D01*
X110975000Y-88651939D01*
X110975000Y-88448061D01*
X113055000Y-88448061D01*
X113055000Y-88651939D01*
X113094774Y-88851898D01*
X113172795Y-89040256D01*
X113286063Y-89209774D01*
X113430226Y-89353937D01*
X113599744Y-89467205D01*
X113788102Y-89545226D01*
X113988061Y-89585000D01*
X114191939Y-89585000D01*
X114391898Y-89545226D01*
X114580256Y-89467205D01*
X114749774Y-89353937D01*
X114893937Y-89209774D01*
X115007205Y-89040256D01*
X115085226Y-88851898D01*
X115125000Y-88651939D01*
X115125000Y-88448061D01*
X115085226Y-88248102D01*
X115007205Y-88059744D01*
X114893937Y-87890226D01*
X114749774Y-87746063D01*
X114580256Y-87632795D01*
X114391898Y-87554774D01*
X114191939Y-87515000D01*
X113988061Y-87515000D01*
X113788102Y-87554774D01*
X113599744Y-87632795D01*
X113430226Y-87746063D01*
X113286063Y-87890226D01*
X113172795Y-88059744D01*
X113094774Y-88248102D01*
X113055000Y-88448061D01*
X110975000Y-88448061D01*
X110935226Y-88248102D01*
X110857205Y-88059744D01*
X110743937Y-87890226D01*
X110599774Y-87746063D01*
X110430256Y-87632795D01*
X110241898Y-87554774D01*
X110041939Y-87515000D01*
X109838061Y-87515000D01*
X109638102Y-87554774D01*
X109449744Y-87632795D01*
X109280226Y-87746063D01*
X109136063Y-87890226D01*
X109022795Y-88059744D01*
X108944774Y-88248102D01*
X108905000Y-88448061D01*
X76285000Y-88448061D01*
X76285000Y-85848061D01*
X114355000Y-85848061D01*
X114355000Y-86051939D01*
X114394774Y-86251898D01*
X114472795Y-86440256D01*
X114586063Y-86609774D01*
X114730226Y-86753937D01*
X114899744Y-86867205D01*
X115088102Y-86945226D01*
X115288061Y-86985000D01*
X115491939Y-86985000D01*
X115691898Y-86945226D01*
X115880256Y-86867205D01*
X116049774Y-86753937D01*
X116193937Y-86609774D01*
X116307205Y-86440256D01*
X116385226Y-86251898D01*
X116425000Y-86051939D01*
X116425000Y-85848061D01*
X116385226Y-85648102D01*
X116307205Y-85459744D01*
X116193937Y-85290226D01*
X116049774Y-85146063D01*
X115880256Y-85032795D01*
X115691898Y-84954774D01*
X115491939Y-84915000D01*
X115288061Y-84915000D01*
X115088102Y-84954774D01*
X114899744Y-85032795D01*
X114730226Y-85146063D01*
X114586063Y-85290226D01*
X114472795Y-85459744D01*
X114394774Y-85648102D01*
X114355000Y-85848061D01*
X76285000Y-85848061D01*
X76285000Y-84598061D01*
X108905000Y-84598061D01*
X108905000Y-84801939D01*
X108944774Y-85001898D01*
X109022795Y-85190256D01*
X109136063Y-85359774D01*
X109280226Y-85503937D01*
X109449744Y-85617205D01*
X109638102Y-85695226D01*
X109838061Y-85735000D01*
X110041939Y-85735000D01*
X110241898Y-85695226D01*
X110430256Y-85617205D01*
X110599774Y-85503937D01*
X110743937Y-85359774D01*
X110857205Y-85190256D01*
X110935226Y-85001898D01*
X110975000Y-84801939D01*
X110975000Y-84598061D01*
X118455000Y-84598061D01*
X118455000Y-84801939D01*
X118494774Y-85001898D01*
X118572795Y-85190256D01*
X118686063Y-85359774D01*
X118830226Y-85503937D01*
X118999744Y-85617205D01*
X119188102Y-85695226D01*
X119388061Y-85735000D01*
X119591939Y-85735000D01*
X119791898Y-85695226D01*
X119980256Y-85617205D01*
X120149774Y-85503937D01*
X120293937Y-85359774D01*
X120407205Y-85190256D01*
X120485226Y-85001898D01*
X120525000Y-84801939D01*
X120525000Y-84598061D01*
X120485226Y-84398102D01*
X120407205Y-84209744D01*
X120293937Y-84040226D01*
X120149774Y-83896063D01*
X119980256Y-83782795D01*
X119791898Y-83704774D01*
X119591939Y-83665000D01*
X119388061Y-83665000D01*
X119188102Y-83704774D01*
X118999744Y-83782795D01*
X118830226Y-83896063D01*
X118686063Y-84040226D01*
X118572795Y-84209744D01*
X118494774Y-84398102D01*
X118455000Y-84598061D01*
X110975000Y-84598061D01*
X110935226Y-84398102D01*
X110857205Y-84209744D01*
X110743937Y-84040226D01*
X110599774Y-83896063D01*
X110430256Y-83782795D01*
X110241898Y-83704774D01*
X110041939Y-83665000D01*
X109838061Y-83665000D01*
X109638102Y-83704774D01*
X109449744Y-83782795D01*
X109280226Y-83896063D01*
X109136063Y-84040226D01*
X109022795Y-84209744D01*
X108944774Y-84398102D01*
X108905000Y-84598061D01*
X76285000Y-84598061D01*
X76285000Y-81938851D01*
X87455000Y-81938851D01*
X87455000Y-82142729D01*
X87494774Y-82342688D01*
X87572795Y-82531046D01*
X87686063Y-82700564D01*
X87830226Y-82844727D01*
X87999744Y-82957995D01*
X88188102Y-83036016D01*
X88388061Y-83075790D01*
X88591939Y-83075790D01*
X88791898Y-83036016D01*
X88980256Y-82957995D01*
X89149774Y-82844727D01*
X89196440Y-82798061D01*
X89455000Y-82798061D01*
X89455000Y-83001939D01*
X89494774Y-83201898D01*
X89572795Y-83390256D01*
X89686063Y-83559774D01*
X89830226Y-83703937D01*
X89999744Y-83817205D01*
X90188102Y-83895226D01*
X90388061Y-83935000D01*
X90591939Y-83935000D01*
X90791898Y-83895226D01*
X90980256Y-83817205D01*
X91149774Y-83703937D01*
X91293937Y-83559774D01*
X91401989Y-83398061D01*
X127455000Y-83398061D01*
X127455000Y-83601939D01*
X127494774Y-83801898D01*
X127572795Y-83990256D01*
X127686063Y-84159774D01*
X127830226Y-84303937D01*
X127999744Y-84417205D01*
X128188102Y-84495226D01*
X128388061Y-84535000D01*
X128591939Y-84535000D01*
X128791898Y-84495226D01*
X128980256Y-84417205D01*
X129149774Y-84303937D01*
X129293937Y-84159774D01*
X129407205Y-83990256D01*
X129485226Y-83801898D01*
X129525000Y-83601939D01*
X129525000Y-83398061D01*
X129505410Y-83299570D01*
X132915000Y-83299570D01*
X132915000Y-83700430D01*
X132993204Y-84093587D01*
X133146607Y-84463934D01*
X133369313Y-84797237D01*
X133652763Y-85080687D01*
X133986066Y-85303393D01*
X134356413Y-85456796D01*
X134749570Y-85535000D01*
X135150430Y-85535000D01*
X135543587Y-85456796D01*
X135913934Y-85303393D01*
X136247237Y-85080687D01*
X136249158Y-85078766D01*
X136314585Y-85144193D01*
X136050186Y-85239956D01*
X135909296Y-85529571D01*
X135827616Y-85841108D01*
X135808282Y-86162595D01*
X135852039Y-86481675D01*
X135930001Y-86707342D01*
X135913934Y-86696607D01*
X135543587Y-86543204D01*
X135150430Y-86465000D01*
X134749570Y-86465000D01*
X134356413Y-86543204D01*
X133986066Y-86696607D01*
X133652763Y-86919313D01*
X133369313Y-87202763D01*
X133146607Y-87536066D01*
X132993204Y-87906413D01*
X132915000Y-88299570D01*
X132915000Y-88700430D01*
X132993204Y-89093587D01*
X133146607Y-89463934D01*
X133369313Y-89797237D01*
X133652763Y-90080687D01*
X133986066Y-90303393D01*
X134356413Y-90456796D01*
X134749570Y-90535000D01*
X135150430Y-90535000D01*
X135543587Y-90456796D01*
X135913934Y-90303393D01*
X136247237Y-90080687D01*
X136530687Y-89797237D01*
X136753393Y-89463934D01*
X136906796Y-89093587D01*
X136985000Y-88700430D01*
X136985000Y-88299570D01*
X136906796Y-87906413D01*
X136775832Y-87590238D01*
X136879571Y-87640704D01*
X137191108Y-87722384D01*
X137512595Y-87741718D01*
X137831675Y-87697961D01*
X138136088Y-87592795D01*
X138310044Y-87499814D01*
X138405808Y-87235413D01*
X137450000Y-86279605D01*
X137435858Y-86293748D01*
X137256253Y-86114143D01*
X137270395Y-86100000D01*
X137629605Y-86100000D01*
X138585413Y-87055808D01*
X138849814Y-86960044D01*
X138990704Y-86670429D01*
X139072384Y-86358892D01*
X139091718Y-86037405D01*
X139078219Y-85938967D01*
X140315000Y-85938967D01*
X140315000Y-86261033D01*
X140377832Y-86576912D01*
X140501082Y-86874463D01*
X140680013Y-87142252D01*
X140907748Y-87369987D01*
X141175537Y-87548918D01*
X141473088Y-87672168D01*
X141788967Y-87735000D01*
X142111033Y-87735000D01*
X142426912Y-87672168D01*
X142724463Y-87548918D01*
X142992252Y-87369987D01*
X143219987Y-87142252D01*
X143398918Y-86874463D01*
X143522168Y-86576912D01*
X143585000Y-86261033D01*
X143585000Y-85938967D01*
X144315000Y-85938967D01*
X144315000Y-86261033D01*
X144377832Y-86576912D01*
X144501082Y-86874463D01*
X144680013Y-87142252D01*
X144907748Y-87369987D01*
X145175537Y-87548918D01*
X145473088Y-87672168D01*
X145788967Y-87735000D01*
X146111033Y-87735000D01*
X146426912Y-87672168D01*
X146724463Y-87548918D01*
X146992252Y-87369987D01*
X147126826Y-87235413D01*
X149494192Y-87235413D01*
X149589956Y-87499814D01*
X149879571Y-87640704D01*
X150191108Y-87722384D01*
X150512595Y-87741718D01*
X150831675Y-87697961D01*
X150964942Y-87651921D01*
X150994774Y-87801898D01*
X151072795Y-87990256D01*
X151186063Y-88159774D01*
X151330226Y-88303937D01*
X151499744Y-88417205D01*
X151688102Y-88495226D01*
X151888061Y-88535000D01*
X152091939Y-88535000D01*
X152291898Y-88495226D01*
X152480256Y-88417205D01*
X152649774Y-88303937D01*
X152793937Y-88159774D01*
X152907205Y-87990256D01*
X152985226Y-87801898D01*
X153025000Y-87601939D01*
X153025000Y-87398061D01*
X162555000Y-87398061D01*
X162555000Y-87601939D01*
X162594774Y-87801898D01*
X162672795Y-87990256D01*
X162786063Y-88159774D01*
X162930226Y-88303937D01*
X163099744Y-88417205D01*
X163288102Y-88495226D01*
X163488061Y-88535000D01*
X163691939Y-88535000D01*
X163891898Y-88495226D01*
X164080256Y-88417205D01*
X164249774Y-88303937D01*
X164393937Y-88159774D01*
X164507205Y-87990256D01*
X164585226Y-87801898D01*
X164625000Y-87601939D01*
X164625000Y-87398061D01*
X164585226Y-87198102D01*
X164507205Y-87009744D01*
X164393937Y-86840226D01*
X164249774Y-86696063D01*
X164080256Y-86582795D01*
X163891898Y-86504774D01*
X163691939Y-86465000D01*
X163488061Y-86465000D01*
X163288102Y-86504774D01*
X163099744Y-86582795D01*
X162930226Y-86696063D01*
X162786063Y-86840226D01*
X162672795Y-87009744D01*
X162594774Y-87198102D01*
X162555000Y-87398061D01*
X153025000Y-87398061D01*
X152985226Y-87198102D01*
X152907205Y-87009744D01*
X152793937Y-86840226D01*
X152649774Y-86696063D01*
X152480256Y-86582795D01*
X152291898Y-86504774D01*
X152091939Y-86465000D01*
X152044564Y-86465000D01*
X152072384Y-86358892D01*
X152091718Y-86037405D01*
X152047961Y-85718325D01*
X151942795Y-85413912D01*
X151849814Y-85239956D01*
X151585413Y-85144192D01*
X150629605Y-86100000D01*
X150643748Y-86114143D01*
X150464143Y-86293748D01*
X150450000Y-86279605D01*
X149494192Y-87235413D01*
X147126826Y-87235413D01*
X147219987Y-87142252D01*
X147398918Y-86874463D01*
X147522168Y-86576912D01*
X147585000Y-86261033D01*
X147585000Y-86162595D01*
X148808282Y-86162595D01*
X148852039Y-86481675D01*
X148957205Y-86786088D01*
X149050186Y-86960044D01*
X149314587Y-87055808D01*
X150270395Y-86100000D01*
X149314587Y-85144192D01*
X149050186Y-85239956D01*
X148909296Y-85529571D01*
X148827616Y-85841108D01*
X148808282Y-86162595D01*
X147585000Y-86162595D01*
X147585000Y-85938967D01*
X147522168Y-85623088D01*
X147398918Y-85325537D01*
X147219987Y-85057748D01*
X147126826Y-84964587D01*
X149494192Y-84964587D01*
X150450000Y-85920395D01*
X151405808Y-84964587D01*
X151363877Y-84848816D01*
X156215000Y-84848816D01*
X156215000Y-85151184D01*
X156273989Y-85447743D01*
X156389701Y-85727095D01*
X156557688Y-85978505D01*
X156771495Y-86192312D01*
X157022905Y-86360299D01*
X157302257Y-86476011D01*
X157598816Y-86535000D01*
X157901184Y-86535000D01*
X158197743Y-86476011D01*
X158477095Y-86360299D01*
X158728505Y-86192312D01*
X158942312Y-85978505D01*
X159000000Y-85892169D01*
X159057688Y-85978505D01*
X159271495Y-86192312D01*
X159522905Y-86360299D01*
X159802257Y-86476011D01*
X160098816Y-86535000D01*
X160401184Y-86535000D01*
X160697743Y-86476011D01*
X160977095Y-86360299D01*
X161228505Y-86192312D01*
X161356737Y-86064080D01*
X161865525Y-86064080D01*
X161949208Y-86318261D01*
X162221775Y-86449158D01*
X162514642Y-86524365D01*
X162816553Y-86540991D01*
X163115907Y-86498397D01*
X163401199Y-86398222D01*
X163550792Y-86318261D01*
X163634475Y-86064080D01*
X162750000Y-85179605D01*
X161865525Y-86064080D01*
X161356737Y-86064080D01*
X161442312Y-85978505D01*
X161537738Y-85835690D01*
X161685920Y-85884475D01*
X162570395Y-85000000D01*
X162929605Y-85000000D01*
X163814080Y-85884475D01*
X164068261Y-85800792D01*
X164199158Y-85528225D01*
X164274365Y-85235358D01*
X164290991Y-84933447D01*
X164278950Y-84848816D01*
X174215000Y-84848816D01*
X174215000Y-85151184D01*
X174273989Y-85447743D01*
X174389701Y-85727095D01*
X174557688Y-85978505D01*
X174771495Y-86192312D01*
X175022905Y-86360299D01*
X175302257Y-86476011D01*
X175598816Y-86535000D01*
X175901184Y-86535000D01*
X176197743Y-86476011D01*
X176477095Y-86360299D01*
X176728505Y-86192312D01*
X176942312Y-85978505D01*
X177000000Y-85892169D01*
X177057688Y-85978505D01*
X177271495Y-86192312D01*
X177522905Y-86360299D01*
X177802257Y-86476011D01*
X178098816Y-86535000D01*
X178401184Y-86535000D01*
X178697743Y-86476011D01*
X178977095Y-86360299D01*
X179228505Y-86192312D01*
X179356737Y-86064080D01*
X179865525Y-86064080D01*
X179949208Y-86318261D01*
X180221775Y-86449158D01*
X180514642Y-86524365D01*
X180816553Y-86540991D01*
X181115907Y-86498397D01*
X181401199Y-86398222D01*
X181550792Y-86318261D01*
X181634475Y-86064080D01*
X180750000Y-85179605D01*
X179865525Y-86064080D01*
X179356737Y-86064080D01*
X179442312Y-85978505D01*
X179537738Y-85835690D01*
X179685920Y-85884475D01*
X180570395Y-85000000D01*
X180929605Y-85000000D01*
X181814080Y-85884475D01*
X182068261Y-85800792D01*
X182199158Y-85528225D01*
X182274365Y-85235358D01*
X182290991Y-84933447D01*
X182248397Y-84634093D01*
X182148222Y-84348801D01*
X182068261Y-84199208D01*
X181814080Y-84115525D01*
X180929605Y-85000000D01*
X180570395Y-85000000D01*
X179685920Y-84115525D01*
X179537738Y-84164310D01*
X179442312Y-84021495D01*
X179356737Y-83935920D01*
X179865525Y-83935920D01*
X180750000Y-84820395D01*
X181634475Y-83935920D01*
X181550792Y-83681739D01*
X181278225Y-83550842D01*
X180985358Y-83475635D01*
X180683447Y-83459009D01*
X180384093Y-83501603D01*
X180098801Y-83601778D01*
X179949208Y-83681739D01*
X179865525Y-83935920D01*
X179356737Y-83935920D01*
X179228505Y-83807688D01*
X178977095Y-83639701D01*
X178697743Y-83523989D01*
X178401184Y-83465000D01*
X178098816Y-83465000D01*
X177802257Y-83523989D01*
X177522905Y-83639701D01*
X177271495Y-83807688D01*
X177057688Y-84021495D01*
X177000000Y-84107831D01*
X176942312Y-84021495D01*
X176728505Y-83807688D01*
X176477095Y-83639701D01*
X176197743Y-83523989D01*
X175901184Y-83465000D01*
X175598816Y-83465000D01*
X175302257Y-83523989D01*
X175022905Y-83639701D01*
X174771495Y-83807688D01*
X174557688Y-84021495D01*
X174389701Y-84272905D01*
X174273989Y-84552257D01*
X174215000Y-84848816D01*
X164278950Y-84848816D01*
X164248397Y-84634093D01*
X164148222Y-84348801D01*
X164068261Y-84199208D01*
X163814080Y-84115525D01*
X162929605Y-85000000D01*
X162570395Y-85000000D01*
X161685920Y-84115525D01*
X161537738Y-84164310D01*
X161442312Y-84021495D01*
X161356737Y-83935920D01*
X161865525Y-83935920D01*
X162750000Y-84820395D01*
X163634475Y-83935920D01*
X163550792Y-83681739D01*
X163278225Y-83550842D01*
X162985358Y-83475635D01*
X162683447Y-83459009D01*
X162384093Y-83501603D01*
X162098801Y-83601778D01*
X161949208Y-83681739D01*
X161865525Y-83935920D01*
X161356737Y-83935920D01*
X161228505Y-83807688D01*
X160977095Y-83639701D01*
X160697743Y-83523989D01*
X160401184Y-83465000D01*
X160098816Y-83465000D01*
X159802257Y-83523989D01*
X159522905Y-83639701D01*
X159271495Y-83807688D01*
X159057688Y-84021495D01*
X159000000Y-84107831D01*
X158942312Y-84021495D01*
X158728505Y-83807688D01*
X158477095Y-83639701D01*
X158197743Y-83523989D01*
X157901184Y-83465000D01*
X157598816Y-83465000D01*
X157302257Y-83523989D01*
X157022905Y-83639701D01*
X156771495Y-83807688D01*
X156557688Y-84021495D01*
X156389701Y-84272905D01*
X156273989Y-84552257D01*
X156215000Y-84848816D01*
X151363877Y-84848816D01*
X151310044Y-84700186D01*
X151020429Y-84559296D01*
X150708892Y-84477616D01*
X150387405Y-84458282D01*
X150068325Y-84502039D01*
X149763912Y-84607205D01*
X149589956Y-84700186D01*
X149494192Y-84964587D01*
X147126826Y-84964587D01*
X146992252Y-84830013D01*
X146724463Y-84651082D01*
X146426912Y-84527832D01*
X146111033Y-84465000D01*
X145788967Y-84465000D01*
X145473088Y-84527832D01*
X145175537Y-84651082D01*
X144907748Y-84830013D01*
X144680013Y-85057748D01*
X144501082Y-85325537D01*
X144377832Y-85623088D01*
X144315000Y-85938967D01*
X143585000Y-85938967D01*
X143522168Y-85623088D01*
X143398918Y-85325537D01*
X143219987Y-85057748D01*
X142992252Y-84830013D01*
X142724463Y-84651082D01*
X142426912Y-84527832D01*
X142111033Y-84465000D01*
X141788967Y-84465000D01*
X141473088Y-84527832D01*
X141175537Y-84651082D01*
X140907748Y-84830013D01*
X140680013Y-85057748D01*
X140501082Y-85325537D01*
X140377832Y-85623088D01*
X140315000Y-85938967D01*
X139078219Y-85938967D01*
X139047961Y-85718325D01*
X138942795Y-85413912D01*
X138849814Y-85239956D01*
X138585413Y-85144192D01*
X137629605Y-86100000D01*
X137270395Y-86100000D01*
X137256253Y-86085858D01*
X137435858Y-85906253D01*
X137450000Y-85920395D01*
X138405808Y-84964587D01*
X138310044Y-84700186D01*
X138020429Y-84559296D01*
X137708892Y-84477616D01*
X137387405Y-84458282D01*
X137068325Y-84502039D01*
X136763912Y-84607205D01*
X136598634Y-84695548D01*
X136753393Y-84463934D01*
X136906796Y-84093587D01*
X136985000Y-83700430D01*
X136985000Y-83299570D01*
X136906796Y-82906413D01*
X136753393Y-82536066D01*
X136530687Y-82202763D01*
X136247237Y-81919313D01*
X135913934Y-81696607D01*
X135543587Y-81543204D01*
X135150430Y-81465000D01*
X134749570Y-81465000D01*
X134356413Y-81543204D01*
X133986066Y-81696607D01*
X133652763Y-81919313D01*
X133369313Y-82202763D01*
X133146607Y-82536066D01*
X132993204Y-82906413D01*
X132915000Y-83299570D01*
X129505410Y-83299570D01*
X129485226Y-83198102D01*
X129407205Y-83009744D01*
X129293937Y-82840226D01*
X129149774Y-82696063D01*
X128980256Y-82582795D01*
X128791898Y-82504774D01*
X128591939Y-82465000D01*
X128388061Y-82465000D01*
X128188102Y-82504774D01*
X127999744Y-82582795D01*
X127830226Y-82696063D01*
X127686063Y-82840226D01*
X127572795Y-83009744D01*
X127494774Y-83198102D01*
X127455000Y-83398061D01*
X91401989Y-83398061D01*
X91407205Y-83390256D01*
X91485226Y-83201898D01*
X91525000Y-83001939D01*
X91525000Y-82798061D01*
X91485226Y-82598102D01*
X91407205Y-82409744D01*
X91293937Y-82240226D01*
X91149774Y-82096063D01*
X90980256Y-81982795D01*
X90791898Y-81904774D01*
X90591939Y-81865000D01*
X90388061Y-81865000D01*
X90188102Y-81904774D01*
X89999744Y-81982795D01*
X89830226Y-82096063D01*
X89686063Y-82240226D01*
X89572795Y-82409744D01*
X89494774Y-82598102D01*
X89455000Y-82798061D01*
X89196440Y-82798061D01*
X89293937Y-82700564D01*
X89407205Y-82531046D01*
X89485226Y-82342688D01*
X89525000Y-82142729D01*
X89525000Y-81938851D01*
X89485226Y-81738892D01*
X89407205Y-81550534D01*
X89305327Y-81398061D01*
X93455000Y-81398061D01*
X93455000Y-81601939D01*
X93494774Y-81801898D01*
X93572795Y-81990256D01*
X93686063Y-82159774D01*
X93830226Y-82303937D01*
X93999744Y-82417205D01*
X94188102Y-82495226D01*
X94388061Y-82535000D01*
X94591939Y-82535000D01*
X94791898Y-82495226D01*
X94980256Y-82417205D01*
X95149774Y-82303937D01*
X95293937Y-82159774D01*
X95407205Y-81990256D01*
X95445393Y-81898061D01*
X118455000Y-81898061D01*
X118455000Y-82101939D01*
X118494774Y-82301898D01*
X118572795Y-82490256D01*
X118686063Y-82659774D01*
X118830226Y-82803937D01*
X118999744Y-82917205D01*
X119188102Y-82995226D01*
X119388061Y-83035000D01*
X119591939Y-83035000D01*
X119791898Y-82995226D01*
X119980256Y-82917205D01*
X120149774Y-82803937D01*
X120293937Y-82659774D01*
X120407205Y-82490256D01*
X120485226Y-82301898D01*
X120525000Y-82101939D01*
X120525000Y-81898061D01*
X120485226Y-81698102D01*
X120407205Y-81509744D01*
X120293937Y-81340226D01*
X120149774Y-81196063D01*
X119980256Y-81082795D01*
X119791898Y-81004774D01*
X119591939Y-80965000D01*
X119388061Y-80965000D01*
X119188102Y-81004774D01*
X118999744Y-81082795D01*
X118830226Y-81196063D01*
X118686063Y-81340226D01*
X118572795Y-81509744D01*
X118494774Y-81698102D01*
X118455000Y-81898061D01*
X95445393Y-81898061D01*
X95485226Y-81801898D01*
X95525000Y-81601939D01*
X95525000Y-81398061D01*
X95485226Y-81198102D01*
X95407205Y-81009744D01*
X95293937Y-80840226D01*
X95189124Y-80735413D01*
X136494192Y-80735413D01*
X136589956Y-80999814D01*
X136879571Y-81140704D01*
X137191108Y-81222384D01*
X137512595Y-81241718D01*
X137831675Y-81197961D01*
X138136088Y-81092795D01*
X138310044Y-80999814D01*
X138405808Y-80735413D01*
X137450000Y-79779605D01*
X136494192Y-80735413D01*
X95189124Y-80735413D01*
X95149774Y-80696063D01*
X94980256Y-80582795D01*
X94791898Y-80504774D01*
X94591939Y-80465000D01*
X94388061Y-80465000D01*
X94188102Y-80504774D01*
X93999744Y-80582795D01*
X93830226Y-80696063D01*
X93686063Y-80840226D01*
X93572795Y-81009744D01*
X93494774Y-81198102D01*
X93455000Y-81398061D01*
X89305327Y-81398061D01*
X89293937Y-81381016D01*
X89149774Y-81236853D01*
X88980256Y-81123585D01*
X88791898Y-81045564D01*
X88591939Y-81005790D01*
X88388061Y-81005790D01*
X88188102Y-81045564D01*
X87999744Y-81123585D01*
X87830226Y-81236853D01*
X87686063Y-81381016D01*
X87572795Y-81550534D01*
X87494774Y-81738892D01*
X87455000Y-81938851D01*
X76285000Y-81938851D01*
X76285000Y-79304495D01*
X76615000Y-79304495D01*
X76615000Y-79695505D01*
X76691282Y-80079003D01*
X76840915Y-80440250D01*
X77058149Y-80765364D01*
X77334636Y-81041851D01*
X77659750Y-81259085D01*
X78020997Y-81408718D01*
X78404495Y-81485000D01*
X78795505Y-81485000D01*
X79179003Y-81408718D01*
X79540250Y-81259085D01*
X79865364Y-81041851D01*
X80141851Y-80765364D01*
X80359085Y-80440250D01*
X80508718Y-80079003D01*
X80585000Y-79695505D01*
X80585000Y-79662595D01*
X135808282Y-79662595D01*
X135852039Y-79981675D01*
X135957205Y-80286088D01*
X136050186Y-80460044D01*
X136314587Y-80555808D01*
X137270395Y-79600000D01*
X137629605Y-79600000D01*
X138585413Y-80555808D01*
X138849814Y-80460044D01*
X138990704Y-80170429D01*
X139072384Y-79858892D01*
X139091718Y-79537405D01*
X139078219Y-79438967D01*
X140315000Y-79438967D01*
X140315000Y-79761033D01*
X140377832Y-80076912D01*
X140501082Y-80374463D01*
X140680013Y-80642252D01*
X140907748Y-80869987D01*
X141175537Y-81048918D01*
X141473088Y-81172168D01*
X141788967Y-81235000D01*
X142111033Y-81235000D01*
X142426912Y-81172168D01*
X142724463Y-81048918D01*
X142992252Y-80869987D01*
X143219987Y-80642252D01*
X143398918Y-80374463D01*
X143522168Y-80076912D01*
X143585000Y-79761033D01*
X143585000Y-79438967D01*
X144315000Y-79438967D01*
X144315000Y-79761033D01*
X144377832Y-80076912D01*
X144501082Y-80374463D01*
X144680013Y-80642252D01*
X144907748Y-80869987D01*
X145175537Y-81048918D01*
X145473088Y-81172168D01*
X145788967Y-81235000D01*
X146111033Y-81235000D01*
X146426912Y-81172168D01*
X146724463Y-81048918D01*
X146992252Y-80869987D01*
X147126826Y-80735413D01*
X149494192Y-80735413D01*
X149589956Y-80999814D01*
X149879571Y-81140704D01*
X150191108Y-81222384D01*
X150512595Y-81241718D01*
X150831675Y-81197961D01*
X151136088Y-81092795D01*
X151310044Y-80999814D01*
X151405808Y-80735413D01*
X150450000Y-79779605D01*
X149494192Y-80735413D01*
X147126826Y-80735413D01*
X147219987Y-80642252D01*
X147398918Y-80374463D01*
X147522168Y-80076912D01*
X147585000Y-79761033D01*
X147585000Y-79662595D01*
X148808282Y-79662595D01*
X148852039Y-79981675D01*
X148957205Y-80286088D01*
X149050186Y-80460044D01*
X149314587Y-80555808D01*
X150270395Y-79600000D01*
X150629605Y-79600000D01*
X151585413Y-80555808D01*
X151849814Y-80460044D01*
X151990704Y-80170429D01*
X152072384Y-79858892D01*
X152091718Y-79537405D01*
X152059778Y-79304495D01*
X152765000Y-79304495D01*
X152765000Y-79695505D01*
X152841282Y-80079003D01*
X152990915Y-80440250D01*
X153208149Y-80765364D01*
X153484636Y-81041851D01*
X153809750Y-81259085D01*
X154170997Y-81408718D01*
X154554495Y-81485000D01*
X154945505Y-81485000D01*
X155329003Y-81408718D01*
X155690250Y-81259085D01*
X156015364Y-81041851D01*
X156179154Y-80878061D01*
X163735000Y-80878061D01*
X163735000Y-81081939D01*
X163774774Y-81281898D01*
X163852795Y-81470256D01*
X163966063Y-81639774D01*
X164110226Y-81783937D01*
X164279744Y-81897205D01*
X164468102Y-81975226D01*
X164668061Y-82015000D01*
X164871939Y-82015000D01*
X165071898Y-81975226D01*
X165260256Y-81897205D01*
X165429774Y-81783937D01*
X165573937Y-81639774D01*
X165687205Y-81470256D01*
X165765226Y-81281898D01*
X165805000Y-81081939D01*
X165805000Y-80908061D01*
X181745000Y-80908061D01*
X181745000Y-81111939D01*
X181784774Y-81311898D01*
X181862795Y-81500256D01*
X181976063Y-81669774D01*
X182120226Y-81813937D01*
X182289744Y-81927205D01*
X182478102Y-82005226D01*
X182678061Y-82045000D01*
X182881939Y-82045000D01*
X183081898Y-82005226D01*
X183270256Y-81927205D01*
X183433601Y-81818061D01*
X189945000Y-81818061D01*
X189945000Y-82021939D01*
X189984774Y-82221898D01*
X190062795Y-82410256D01*
X190176063Y-82579774D01*
X190320226Y-82723937D01*
X190489744Y-82837205D01*
X190678102Y-82915226D01*
X190878061Y-82955000D01*
X191081939Y-82955000D01*
X191281898Y-82915226D01*
X191470256Y-82837205D01*
X191639774Y-82723937D01*
X191783937Y-82579774D01*
X191897205Y-82410256D01*
X191922654Y-82348816D01*
X192215000Y-82348816D01*
X192215000Y-82651184D01*
X192273989Y-82947743D01*
X192389701Y-83227095D01*
X192557688Y-83478505D01*
X192771495Y-83692312D01*
X192857831Y-83750000D01*
X192771495Y-83807688D01*
X192557688Y-84021495D01*
X192389701Y-84272905D01*
X192273989Y-84552257D01*
X192215000Y-84848816D01*
X192215000Y-85151184D01*
X192273989Y-85447743D01*
X192389701Y-85727095D01*
X192557688Y-85978505D01*
X192771495Y-86192312D01*
X193022905Y-86360299D01*
X193302257Y-86476011D01*
X193598816Y-86535000D01*
X193901184Y-86535000D01*
X194197743Y-86476011D01*
X194477095Y-86360299D01*
X194728505Y-86192312D01*
X194942312Y-85978505D01*
X195000000Y-85892169D01*
X195057688Y-85978505D01*
X195271495Y-86192312D01*
X195522905Y-86360299D01*
X195802257Y-86476011D01*
X196098816Y-86535000D01*
X196401184Y-86535000D01*
X196697743Y-86476011D01*
X196977095Y-86360299D01*
X197228505Y-86192312D01*
X197356737Y-86064080D01*
X197865525Y-86064080D01*
X197949208Y-86318261D01*
X198221775Y-86449158D01*
X198514642Y-86524365D01*
X198816553Y-86540991D01*
X199115907Y-86498397D01*
X199401199Y-86398222D01*
X199550792Y-86318261D01*
X199634475Y-86064080D01*
X198750000Y-85179605D01*
X197865525Y-86064080D01*
X197356737Y-86064080D01*
X197442312Y-85978505D01*
X197537738Y-85835690D01*
X197685920Y-85884475D01*
X198570395Y-85000000D01*
X198929605Y-85000000D01*
X199814080Y-85884475D01*
X200068261Y-85800792D01*
X200199158Y-85528225D01*
X200274365Y-85235358D01*
X200290991Y-84933447D01*
X200248397Y-84634093D01*
X200148222Y-84348801D01*
X200068261Y-84199208D01*
X199814080Y-84115525D01*
X198929605Y-85000000D01*
X198570395Y-85000000D01*
X197685920Y-84115525D01*
X197537738Y-84164310D01*
X197442312Y-84021495D01*
X197228505Y-83807688D01*
X196977095Y-83639701D01*
X196697743Y-83523989D01*
X196401184Y-83465000D01*
X196098816Y-83465000D01*
X195802257Y-83523989D01*
X195522905Y-83639701D01*
X195271495Y-83807688D01*
X195057688Y-84021495D01*
X195000000Y-84107831D01*
X194942312Y-84021495D01*
X194728505Y-83807688D01*
X194642169Y-83750000D01*
X194728505Y-83692312D01*
X194942312Y-83478505D01*
X195110299Y-83227095D01*
X195226011Y-82947743D01*
X195285000Y-82651184D01*
X195285000Y-82348816D01*
X197215000Y-82348816D01*
X197215000Y-82651184D01*
X197273989Y-82947743D01*
X197389701Y-83227095D01*
X197557688Y-83478505D01*
X197771495Y-83692312D01*
X197914310Y-83787738D01*
X197865525Y-83935920D01*
X198750000Y-84820395D01*
X199634475Y-83935920D01*
X199585690Y-83787738D01*
X199728505Y-83692312D01*
X199942312Y-83478505D01*
X200110299Y-83227095D01*
X200226011Y-82947743D01*
X200285000Y-82651184D01*
X200285000Y-82348816D01*
X200226011Y-82052257D01*
X200110299Y-81772905D01*
X199942312Y-81521495D01*
X199728505Y-81307688D01*
X199477095Y-81139701D01*
X199197743Y-81023989D01*
X198901184Y-80965000D01*
X198598816Y-80965000D01*
X198302257Y-81023989D01*
X198022905Y-81139701D01*
X197771495Y-81307688D01*
X197557688Y-81521495D01*
X197389701Y-81772905D01*
X197273989Y-82052257D01*
X197215000Y-82348816D01*
X195285000Y-82348816D01*
X195226011Y-82052257D01*
X195110299Y-81772905D01*
X194942312Y-81521495D01*
X194728505Y-81307688D01*
X194477095Y-81139701D01*
X194197743Y-81023989D01*
X193901184Y-80965000D01*
X193598816Y-80965000D01*
X193302257Y-81023989D01*
X193022905Y-81139701D01*
X192771495Y-81307688D01*
X192557688Y-81521495D01*
X192389701Y-81772905D01*
X192273989Y-82052257D01*
X192215000Y-82348816D01*
X191922654Y-82348816D01*
X191975226Y-82221898D01*
X192015000Y-82021939D01*
X192015000Y-81818061D01*
X191975226Y-81618102D01*
X191897205Y-81429744D01*
X191783937Y-81260226D01*
X191639774Y-81116063D01*
X191470256Y-81002795D01*
X191281898Y-80924774D01*
X191081939Y-80885000D01*
X190878061Y-80885000D01*
X190678102Y-80924774D01*
X190489744Y-81002795D01*
X190320226Y-81116063D01*
X190176063Y-81260226D01*
X190062795Y-81429744D01*
X189984774Y-81618102D01*
X189945000Y-81818061D01*
X183433601Y-81818061D01*
X183439774Y-81813937D01*
X183583937Y-81669774D01*
X183697205Y-81500256D01*
X183775226Y-81311898D01*
X183815000Y-81111939D01*
X183815000Y-80908061D01*
X183775226Y-80708102D01*
X183697205Y-80519744D01*
X183583937Y-80350226D01*
X183439774Y-80206063D01*
X183270256Y-80092795D01*
X183081898Y-80014774D01*
X182881939Y-79975000D01*
X182678061Y-79975000D01*
X182478102Y-80014774D01*
X182289744Y-80092795D01*
X182120226Y-80206063D01*
X181976063Y-80350226D01*
X181862795Y-80519744D01*
X181784774Y-80708102D01*
X181745000Y-80908061D01*
X165805000Y-80908061D01*
X165805000Y-80878061D01*
X165765226Y-80678102D01*
X165687205Y-80489744D01*
X165573937Y-80320226D01*
X165429774Y-80176063D01*
X165260256Y-80062795D01*
X165071898Y-79984774D01*
X164871939Y-79945000D01*
X164668061Y-79945000D01*
X164468102Y-79984774D01*
X164279744Y-80062795D01*
X164110226Y-80176063D01*
X163966063Y-80320226D01*
X163852795Y-80489744D01*
X163774774Y-80678102D01*
X163735000Y-80878061D01*
X156179154Y-80878061D01*
X156291851Y-80765364D01*
X156509085Y-80440250D01*
X156658718Y-80079003D01*
X156735000Y-79695505D01*
X156735000Y-79304495D01*
X205665000Y-79304495D01*
X205665000Y-79695505D01*
X205741282Y-80079003D01*
X205890915Y-80440250D01*
X206108149Y-80765364D01*
X206384636Y-81041851D01*
X206709750Y-81259085D01*
X207070997Y-81408718D01*
X207454495Y-81485000D01*
X207845505Y-81485000D01*
X208229003Y-81408718D01*
X208590250Y-81259085D01*
X208915364Y-81041851D01*
X209191851Y-80765364D01*
X209409085Y-80440250D01*
X209558718Y-80079003D01*
X209635000Y-79695505D01*
X209635000Y-79304495D01*
X209558718Y-78920997D01*
X209409085Y-78559750D01*
X209191851Y-78234636D01*
X208915364Y-77958149D01*
X208590250Y-77740915D01*
X208229003Y-77591282D01*
X207845505Y-77515000D01*
X207454495Y-77515000D01*
X207070997Y-77591282D01*
X206709750Y-77740915D01*
X206384636Y-77958149D01*
X206108149Y-78234636D01*
X205890915Y-78559750D01*
X205741282Y-78920997D01*
X205665000Y-79304495D01*
X156735000Y-79304495D01*
X156658718Y-78920997D01*
X156509085Y-78559750D01*
X156291851Y-78234636D01*
X156015364Y-77958149D01*
X155690250Y-77740915D01*
X155329003Y-77591282D01*
X154945505Y-77515000D01*
X154554495Y-77515000D01*
X154170997Y-77591282D01*
X153809750Y-77740915D01*
X153484636Y-77958149D01*
X153208149Y-78234636D01*
X152990915Y-78559750D01*
X152841282Y-78920997D01*
X152765000Y-79304495D01*
X152059778Y-79304495D01*
X152047961Y-79218325D01*
X151942795Y-78913912D01*
X151849814Y-78739956D01*
X151585413Y-78644192D01*
X150629605Y-79600000D01*
X150270395Y-79600000D01*
X149314587Y-78644192D01*
X149050186Y-78739956D01*
X148909296Y-79029571D01*
X148827616Y-79341108D01*
X148808282Y-79662595D01*
X147585000Y-79662595D01*
X147585000Y-79438967D01*
X147522168Y-79123088D01*
X147398918Y-78825537D01*
X147219987Y-78557748D01*
X147126826Y-78464587D01*
X149494192Y-78464587D01*
X150450000Y-79420395D01*
X151405808Y-78464587D01*
X151310044Y-78200186D01*
X151020429Y-78059296D01*
X150708892Y-77977616D01*
X150387405Y-77958282D01*
X150068325Y-78002039D01*
X149763912Y-78107205D01*
X149589956Y-78200186D01*
X149494192Y-78464587D01*
X147126826Y-78464587D01*
X146992252Y-78330013D01*
X146724463Y-78151082D01*
X146426912Y-78027832D01*
X146111033Y-77965000D01*
X145788967Y-77965000D01*
X145473088Y-78027832D01*
X145175537Y-78151082D01*
X144907748Y-78330013D01*
X144680013Y-78557748D01*
X144501082Y-78825537D01*
X144377832Y-79123088D01*
X144315000Y-79438967D01*
X143585000Y-79438967D01*
X143522168Y-79123088D01*
X143398918Y-78825537D01*
X143219987Y-78557748D01*
X142992252Y-78330013D01*
X142724463Y-78151082D01*
X142426912Y-78027832D01*
X142111033Y-77965000D01*
X141788967Y-77965000D01*
X141473088Y-78027832D01*
X141175537Y-78151082D01*
X140907748Y-78330013D01*
X140680013Y-78557748D01*
X140501082Y-78825537D01*
X140377832Y-79123088D01*
X140315000Y-79438967D01*
X139078219Y-79438967D01*
X139047961Y-79218325D01*
X138942795Y-78913912D01*
X138849814Y-78739956D01*
X138585413Y-78644192D01*
X137629605Y-79600000D01*
X137270395Y-79600000D01*
X136314587Y-78644192D01*
X136050186Y-78739956D01*
X135909296Y-79029571D01*
X135827616Y-79341108D01*
X135808282Y-79662595D01*
X80585000Y-79662595D01*
X80585000Y-79304495D01*
X80508718Y-78920997D01*
X80359085Y-78559750D01*
X80141851Y-78234636D01*
X79865364Y-77958149D01*
X79540250Y-77740915D01*
X79179003Y-77591282D01*
X78795505Y-77515000D01*
X78404495Y-77515000D01*
X78020997Y-77591282D01*
X77659750Y-77740915D01*
X77334636Y-77958149D01*
X77058149Y-78234636D01*
X76840915Y-78559750D01*
X76691282Y-78920997D01*
X76615000Y-79304495D01*
X76285000Y-79304495D01*
X76285000Y-77352000D01*
X91678196Y-77352000D01*
X91572795Y-77509744D01*
X91572795Y-77509744D01*
G37*
X91572795Y-77509744D02*
X91494774Y-77698102D01*
X91455000Y-77898061D01*
X91455000Y-78101939D01*
X91494774Y-78301898D01*
X91572795Y-78490256D01*
X91686063Y-78659774D01*
X91830226Y-78803937D01*
X91999744Y-78917205D01*
X92188102Y-78995226D01*
X92388061Y-79035000D01*
X92591939Y-79035000D01*
X92791898Y-78995226D01*
X92980256Y-78917205D01*
X93149774Y-78803937D01*
X93293937Y-78659774D01*
X93407205Y-78490256D01*
X93485226Y-78301898D01*
X93525000Y-78101939D01*
X93525000Y-77898061D01*
X93485226Y-77698102D01*
X93407205Y-77509744D01*
X93301804Y-77352000D01*
X95678196Y-77352000D01*
X95572795Y-77509744D01*
X95494774Y-77698102D01*
X95455000Y-77898061D01*
X95455000Y-78101939D01*
X95494774Y-78301898D01*
X95572795Y-78490256D01*
X95686063Y-78659774D01*
X95830226Y-78803937D01*
X95999744Y-78917205D01*
X96188102Y-78995226D01*
X96388061Y-79035000D01*
X96591939Y-79035000D01*
X96791898Y-78995226D01*
X96980256Y-78917205D01*
X97149774Y-78803937D01*
X97293937Y-78659774D01*
X97407205Y-78490256D01*
X97417837Y-78464587D01*
X136494192Y-78464587D01*
X137450000Y-79420395D01*
X138405808Y-78464587D01*
X138310044Y-78200186D01*
X138020429Y-78059296D01*
X137708892Y-77977616D01*
X137387405Y-77958282D01*
X137068325Y-78002039D01*
X136763912Y-78107205D01*
X136589956Y-78200186D01*
X136494192Y-78464587D01*
X97417837Y-78464587D01*
X97485226Y-78301898D01*
X97525000Y-78101939D01*
X97525000Y-77898061D01*
X97485226Y-77698102D01*
X97407205Y-77509744D01*
X97301804Y-77352000D01*
X209915000Y-77352000D01*
X209915000Y-105315000D01*
X76285000Y-105315000D01*
X76285000Y-102804495D01*
X76615000Y-102804495D01*
X76615000Y-103195505D01*
X76691282Y-103579003D01*
X76840915Y-103940250D01*
X77058149Y-104265364D01*
X77334636Y-104541851D01*
X77659750Y-104759085D01*
X78020997Y-104908718D01*
X78404495Y-104985000D01*
X78795505Y-104985000D01*
X79179003Y-104908718D01*
X79540250Y-104759085D01*
X79865364Y-104541851D01*
X80141851Y-104265364D01*
X80359085Y-103940250D01*
X80508718Y-103579003D01*
X80585000Y-103195505D01*
X80585000Y-102804495D01*
X80510184Y-102428363D01*
X92315000Y-102428363D01*
X92315000Y-102671637D01*
X92362460Y-102910236D01*
X92455557Y-103134992D01*
X92590713Y-103337267D01*
X92762733Y-103509287D01*
X92965008Y-103644443D01*
X93189764Y-103737540D01*
X93428363Y-103785000D01*
X93671637Y-103785000D01*
X93910236Y-103737540D01*
X94134992Y-103644443D01*
X94300000Y-103534188D01*
X94465008Y-103644443D01*
X94689764Y-103737540D01*
X94928363Y-103785000D01*
X95171637Y-103785000D01*
X95410236Y-103737540D01*
X95634992Y-103644443D01*
X95800000Y-103534188D01*
X95965008Y-103644443D01*
X96189764Y-103737540D01*
X96428363Y-103785000D01*
X96671637Y-103785000D01*
X96910236Y-103737540D01*
X97134992Y-103644443D01*
X97300000Y-103534188D01*
X97465008Y-103644443D01*
X97689764Y-103737540D01*
X97928363Y-103785000D01*
X98171637Y-103785000D01*
X98410236Y-103737540D01*
X98634992Y-103644443D01*
X98800000Y-103534188D01*
X98965008Y-103644443D01*
X99189764Y-103737540D01*
X99428363Y-103785000D01*
X99671637Y-103785000D01*
X99910236Y-103737540D01*
X100134992Y-103644443D01*
X100300000Y-103534188D01*
X100465008Y-103644443D01*
X100689764Y-103737540D01*
X100928363Y-103785000D01*
X101171637Y-103785000D01*
X101410236Y-103737540D01*
X101634992Y-103644443D01*
X101800000Y-103534188D01*
X101965008Y-103644443D01*
X102189764Y-103737540D01*
X102428363Y-103785000D01*
X102671637Y-103785000D01*
X102910236Y-103737540D01*
X103134992Y-103644443D01*
X103300000Y-103534188D01*
X103465008Y-103644443D01*
X103689764Y-103737540D01*
X103928363Y-103785000D01*
X104171637Y-103785000D01*
X104410236Y-103737540D01*
X104634992Y-103644443D01*
X104800000Y-103534188D01*
X104965008Y-103644443D01*
X105189764Y-103737540D01*
X105428363Y-103785000D01*
X105671637Y-103785000D01*
X105910236Y-103737540D01*
X106134992Y-103644443D01*
X106300000Y-103534188D01*
X106465008Y-103644443D01*
X106689764Y-103737540D01*
X106928363Y-103785000D01*
X107171637Y-103785000D01*
X107410236Y-103737540D01*
X107634992Y-103644443D01*
X107800000Y-103534188D01*
X107965008Y-103644443D01*
X108189764Y-103737540D01*
X108428363Y-103785000D01*
X108671637Y-103785000D01*
X108910236Y-103737540D01*
X109134992Y-103644443D01*
X109300000Y-103534188D01*
X109465008Y-103644443D01*
X109689764Y-103737540D01*
X109928363Y-103785000D01*
X110171637Y-103785000D01*
X110410236Y-103737540D01*
X110634992Y-103644443D01*
X110800000Y-103534188D01*
X110965008Y-103644443D01*
X111189764Y-103737540D01*
X111428363Y-103785000D01*
X111671637Y-103785000D01*
X111910236Y-103737540D01*
X112134992Y-103644443D01*
X112337267Y-103509287D01*
X112391533Y-103455021D01*
X112427148Y-103623348D01*
X112648516Y-103724237D01*
X112885313Y-103780000D01*
X113128438Y-103788495D01*
X113368549Y-103749395D01*
X113596418Y-103664202D01*
X113672852Y-103623348D01*
X113720159Y-103399764D01*
X113050000Y-102729605D01*
X113035858Y-102743748D01*
X112856253Y-102564143D01*
X112870395Y-102550000D01*
X113229605Y-102550000D01*
X113899764Y-103220159D01*
X114123348Y-103172852D01*
X114224237Y-102951484D01*
X114258851Y-102804495D01*
X152765000Y-102804495D01*
X152765000Y-103195505D01*
X152841282Y-103579003D01*
X152990915Y-103940250D01*
X153208149Y-104265364D01*
X153484636Y-104541851D01*
X153809750Y-104759085D01*
X154170997Y-104908718D01*
X154554495Y-104985000D01*
X154945505Y-104985000D01*
X155329003Y-104908718D01*
X155690250Y-104759085D01*
X156015364Y-104541851D01*
X156291851Y-104265364D01*
X156509085Y-103940250D01*
X156658718Y-103579003D01*
X156735000Y-103195505D01*
X156735000Y-102804495D01*
X205665000Y-102804495D01*
X205665000Y-103195505D01*
X205741282Y-103579003D01*
X205890915Y-103940250D01*
X206108149Y-104265364D01*
X206384636Y-104541851D01*
X206709750Y-104759085D01*
X207070997Y-104908718D01*
X207454495Y-104985000D01*
X207845505Y-104985000D01*
X208229003Y-104908718D01*
X208590250Y-104759085D01*
X208915364Y-104541851D01*
X209191851Y-104265364D01*
X209409085Y-103940250D01*
X209558718Y-103579003D01*
X209635000Y-103195505D01*
X209635000Y-102804495D01*
X209558718Y-102420997D01*
X209409085Y-102059750D01*
X209191851Y-101734636D01*
X208915364Y-101458149D01*
X208590250Y-101240915D01*
X208229003Y-101091282D01*
X207845505Y-101015000D01*
X207454495Y-101015000D01*
X207070997Y-101091282D01*
X206709750Y-101240915D01*
X206384636Y-101458149D01*
X206108149Y-101734636D01*
X205890915Y-102059750D01*
X205741282Y-102420997D01*
X205665000Y-102804495D01*
X156735000Y-102804495D01*
X156658718Y-102420997D01*
X156509085Y-102059750D01*
X156291851Y-101734636D01*
X156015364Y-101458149D01*
X155690250Y-101240915D01*
X155329003Y-101091282D01*
X154945505Y-101015000D01*
X154554495Y-101015000D01*
X154170997Y-101091282D01*
X153809750Y-101240915D01*
X153484636Y-101458149D01*
X153208149Y-101734636D01*
X152990915Y-102059750D01*
X152841282Y-102420997D01*
X152765000Y-102804495D01*
X114258851Y-102804495D01*
X114280000Y-102714687D01*
X114288495Y-102471562D01*
X114249395Y-102231451D01*
X114164202Y-102003582D01*
X114123348Y-101927148D01*
X113926099Y-101885413D01*
X136494192Y-101885413D01*
X136589956Y-102149814D01*
X136879571Y-102290704D01*
X137191108Y-102372384D01*
X137512595Y-102391718D01*
X137831675Y-102347961D01*
X138136088Y-102242795D01*
X138310044Y-102149814D01*
X138405808Y-101885413D01*
X137450000Y-100929605D01*
X136494192Y-101885413D01*
X113926099Y-101885413D01*
X113899764Y-101879841D01*
X113229605Y-102550000D01*
X112870395Y-102550000D01*
X112856253Y-102535858D01*
X113035858Y-102356253D01*
X113050000Y-102370395D01*
X113720159Y-101700236D01*
X113672852Y-101476652D01*
X113451484Y-101375763D01*
X113214687Y-101320000D01*
X112971562Y-101311505D01*
X112731451Y-101350605D01*
X112503582Y-101435798D01*
X112427148Y-101476652D01*
X112391533Y-101644979D01*
X112337267Y-101590713D01*
X112134992Y-101455557D01*
X111910236Y-101362460D01*
X111671637Y-101315000D01*
X111428363Y-101315000D01*
X111189764Y-101362460D01*
X110965008Y-101455557D01*
X110800000Y-101565812D01*
X110634992Y-101455557D01*
X110410236Y-101362460D01*
X110171637Y-101315000D01*
X109928363Y-101315000D01*
X109689764Y-101362460D01*
X109465008Y-101455557D01*
X109300000Y-101565812D01*
X109134992Y-101455557D01*
X108910236Y-101362460D01*
X108671637Y-101315000D01*
X108428363Y-101315000D01*
X108189764Y-101362460D01*
X107965008Y-101455557D01*
X107800000Y-101565812D01*
X107634992Y-101455557D01*
X107561329Y-101425045D01*
X107580256Y-101417205D01*
X107749774Y-101303937D01*
X107893937Y-101159774D01*
X108007205Y-100990256D01*
X108080795Y-100812595D01*
X135808282Y-100812595D01*
X135852039Y-101131675D01*
X135957205Y-101436088D01*
X136050186Y-101610044D01*
X136314587Y-101705808D01*
X137270395Y-100750000D01*
X137629605Y-100750000D01*
X138585413Y-101705808D01*
X138849814Y-101610044D01*
X138990704Y-101320429D01*
X139072384Y-101008892D01*
X139091718Y-100687405D01*
X139078219Y-100588967D01*
X140315000Y-100588967D01*
X140315000Y-100911033D01*
X140377832Y-101226912D01*
X140501082Y-101524463D01*
X140680013Y-101792252D01*
X140907748Y-102019987D01*
X141175537Y-102198918D01*
X141473088Y-102322168D01*
X141788967Y-102385000D01*
X142111033Y-102385000D01*
X142426912Y-102322168D01*
X142724463Y-102198918D01*
X142992252Y-102019987D01*
X143219987Y-101792252D01*
X143398918Y-101524463D01*
X143522168Y-101226912D01*
X143585000Y-100911033D01*
X143585000Y-100588967D01*
X144315000Y-100588967D01*
X144315000Y-100911033D01*
X144377832Y-101226912D01*
X144501082Y-101524463D01*
X144680013Y-101792252D01*
X144907748Y-102019987D01*
X145175537Y-102198918D01*
X145473088Y-102322168D01*
X145788967Y-102385000D01*
X146111033Y-102385000D01*
X146426912Y-102322168D01*
X146724463Y-102198918D01*
X146992252Y-102019987D01*
X147126826Y-101885413D01*
X149494192Y-101885413D01*
X149589956Y-102149814D01*
X149879571Y-102290704D01*
X150191108Y-102372384D01*
X150512595Y-102391718D01*
X150831675Y-102347961D01*
X151136088Y-102242795D01*
X151310044Y-102149814D01*
X151405808Y-101885413D01*
X150450000Y-100929605D01*
X149494192Y-101885413D01*
X147126826Y-101885413D01*
X147219987Y-101792252D01*
X147398918Y-101524463D01*
X147522168Y-101226912D01*
X147585000Y-100911033D01*
X147585000Y-100812595D01*
X148808282Y-100812595D01*
X148852039Y-101131675D01*
X148957205Y-101436088D01*
X149050186Y-101610044D01*
X149314587Y-101705808D01*
X150270395Y-100750000D01*
X150629605Y-100750000D01*
X151585413Y-101705808D01*
X151849814Y-101610044D01*
X151990704Y-101320429D01*
X152072384Y-101008892D01*
X152091718Y-100687405D01*
X152047961Y-100368325D01*
X151942795Y-100063912D01*
X151849814Y-99889956D01*
X151585413Y-99794192D01*
X150629605Y-100750000D01*
X150270395Y-100750000D01*
X149314587Y-99794192D01*
X149050186Y-99889956D01*
X148909296Y-100179571D01*
X148827616Y-100491108D01*
X148808282Y-100812595D01*
X147585000Y-100812595D01*
X147585000Y-100588967D01*
X147522168Y-100273088D01*
X147398918Y-99975537D01*
X147219987Y-99707748D01*
X147126826Y-99614587D01*
X149494192Y-99614587D01*
X150450000Y-100570395D01*
X151405808Y-99614587D01*
X151310044Y-99350186D01*
X151020429Y-99209296D01*
X150708892Y-99127616D01*
X150387405Y-99108282D01*
X150068325Y-99152039D01*
X149763912Y-99257205D01*
X149589956Y-99350186D01*
X149494192Y-99614587D01*
X147126826Y-99614587D01*
X146992252Y-99480013D01*
X146724463Y-99301082D01*
X146426912Y-99177832D01*
X146111033Y-99115000D01*
X145788967Y-99115000D01*
X145473088Y-99177832D01*
X145175537Y-99301082D01*
X144907748Y-99480013D01*
X144680013Y-99707748D01*
X144501082Y-99975537D01*
X144377832Y-100273088D01*
X144315000Y-100588967D01*
X143585000Y-100588967D01*
X143522168Y-100273088D01*
X143398918Y-99975537D01*
X143219987Y-99707748D01*
X142992252Y-99480013D01*
X142724463Y-99301082D01*
X142426912Y-99177832D01*
X142111033Y-99115000D01*
X141788967Y-99115000D01*
X141473088Y-99177832D01*
X141175537Y-99301082D01*
X140907748Y-99480013D01*
X140680013Y-99707748D01*
X140501082Y-99975537D01*
X140377832Y-100273088D01*
X140315000Y-100588967D01*
X139078219Y-100588967D01*
X139047961Y-100368325D01*
X138942795Y-100063912D01*
X138849814Y-99889956D01*
X138585413Y-99794192D01*
X137629605Y-100750000D01*
X137270395Y-100750000D01*
X136314587Y-99794192D01*
X136050186Y-99889956D01*
X135909296Y-100179571D01*
X135827616Y-100491108D01*
X135808282Y-100812595D01*
X108080795Y-100812595D01*
X108085226Y-100801898D01*
X108125000Y-100601939D01*
X108125000Y-100398061D01*
X108085226Y-100198102D01*
X108007205Y-100009744D01*
X107893937Y-99840226D01*
X107749774Y-99696063D01*
X107627837Y-99614587D01*
X136494192Y-99614587D01*
X137450000Y-100570395D01*
X138405808Y-99614587D01*
X138310044Y-99350186D01*
X138020429Y-99209296D01*
X137708892Y-99127616D01*
X137387405Y-99108282D01*
X137068325Y-99152039D01*
X136763912Y-99257205D01*
X136589956Y-99350186D01*
X136494192Y-99614587D01*
X107627837Y-99614587D01*
X107580256Y-99582795D01*
X107391898Y-99504774D01*
X107191939Y-99465000D01*
X106988061Y-99465000D01*
X106788102Y-99504774D01*
X106625000Y-99572334D01*
X106625000Y-99398061D01*
X106585226Y-99198102D01*
X106507205Y-99009744D01*
X106393937Y-98840226D01*
X106249774Y-98696063D01*
X106080256Y-98582795D01*
X105891898Y-98504774D01*
X105691939Y-98465000D01*
X105488061Y-98465000D01*
X105288102Y-98504774D01*
X105099744Y-98582795D01*
X104930226Y-98696063D01*
X104786063Y-98840226D01*
X104672795Y-99009744D01*
X104594774Y-99198102D01*
X104555000Y-99398061D01*
X104555000Y-99601939D01*
X104594774Y-99801898D01*
X104672795Y-99990256D01*
X104786063Y-100159774D01*
X104930226Y-100303937D01*
X105099744Y-100417205D01*
X105288102Y-100495226D01*
X105488061Y-100535000D01*
X105691939Y-100535000D01*
X105891898Y-100495226D01*
X106055000Y-100427666D01*
X106055000Y-100601939D01*
X106094774Y-100801898D01*
X106172795Y-100990256D01*
X106286063Y-101159774D01*
X106430226Y-101303937D01*
X106583615Y-101406428D01*
X106465008Y-101455557D01*
X106300000Y-101565812D01*
X106134992Y-101455557D01*
X105910236Y-101362460D01*
X105671637Y-101315000D01*
X105428363Y-101315000D01*
X105189764Y-101362460D01*
X104965008Y-101455557D01*
X104800000Y-101565812D01*
X104634992Y-101455557D01*
X104410236Y-101362460D01*
X104171637Y-101315000D01*
X103928363Y-101315000D01*
X103689764Y-101362460D01*
X103465008Y-101455557D01*
X103300000Y-101565812D01*
X103134992Y-101455557D01*
X102910236Y-101362460D01*
X102671637Y-101315000D01*
X102428363Y-101315000D01*
X102189764Y-101362460D01*
X101965008Y-101455557D01*
X101800000Y-101565812D01*
X101634992Y-101455557D01*
X101410236Y-101362460D01*
X101171637Y-101315000D01*
X100928363Y-101315000D01*
X100689764Y-101362460D01*
X100465008Y-101455557D01*
X100300000Y-101565812D01*
X100134992Y-101455557D01*
X99910236Y-101362460D01*
X99671637Y-101315000D01*
X99428363Y-101315000D01*
X99189764Y-101362460D01*
X98965008Y-101455557D01*
X98800000Y-101565812D01*
X98634992Y-101455557D01*
X98410236Y-101362460D01*
X98171637Y-101315000D01*
X97928363Y-101315000D01*
X97689764Y-101362460D01*
X97465008Y-101455557D01*
X97300000Y-101565812D01*
X97134992Y-101455557D01*
X96910236Y-101362460D01*
X96671637Y-101315000D01*
X96428363Y-101315000D01*
X96189764Y-101362460D01*
X95965008Y-101455557D01*
X95800000Y-101565812D01*
X95634992Y-101455557D01*
X95410236Y-101362460D01*
X95171637Y-101315000D01*
X94928363Y-101315000D01*
X94689764Y-101362460D01*
X94465008Y-101455557D01*
X94300000Y-101565812D01*
X94134992Y-101455557D01*
X93910236Y-101362460D01*
X93671637Y-101315000D01*
X93428363Y-101315000D01*
X93189764Y-101362460D01*
X92965008Y-101455557D01*
X92762733Y-101590713D01*
X92590713Y-101762733D01*
X92455557Y-101965008D01*
X92362460Y-102189764D01*
X92315000Y-102428363D01*
X80510184Y-102428363D01*
X80508718Y-102420997D01*
X80359085Y-102059750D01*
X80141851Y-101734636D01*
X79865364Y-101458149D01*
X79540250Y-101240915D01*
X79179003Y-101091282D01*
X78795505Y-101015000D01*
X78404495Y-101015000D01*
X78020997Y-101091282D01*
X77659750Y-101240915D01*
X77334636Y-101458149D01*
X77058149Y-101734636D01*
X76840915Y-102059750D01*
X76691282Y-102420997D01*
X76615000Y-102804495D01*
X76285000Y-102804495D01*
X76285000Y-96948061D01*
X79455000Y-96948061D01*
X79455000Y-97151939D01*
X79494774Y-97351898D01*
X79572795Y-97540256D01*
X79686063Y-97709774D01*
X79830226Y-97853937D01*
X79999744Y-97967205D01*
X80188102Y-98045226D01*
X80388061Y-98085000D01*
X80591939Y-98085000D01*
X80791898Y-98045226D01*
X80980256Y-97967205D01*
X81149774Y-97853937D01*
X81293937Y-97709774D01*
X81407205Y-97540256D01*
X81485226Y-97351898D01*
X81501762Y-97268767D01*
X81572795Y-97440256D01*
X81686063Y-97609774D01*
X81830226Y-97753937D01*
X81999744Y-97867205D01*
X82188102Y-97945226D01*
X82388061Y-97985000D01*
X82591939Y-97985000D01*
X82791898Y-97945226D01*
X82980256Y-97867205D01*
X83149774Y-97753937D01*
X83293937Y-97609774D01*
X83407205Y-97440256D01*
X83485226Y-97251898D01*
X83525000Y-97051939D01*
X83525000Y-96848061D01*
X83485226Y-96648102D01*
X83407205Y-96459744D01*
X83293937Y-96290226D01*
X83149774Y-96146063D01*
X82980256Y-96032795D01*
X82791898Y-95954774D01*
X82591939Y-95915000D01*
X82388061Y-95915000D01*
X82188102Y-95954774D01*
X81999744Y-96032795D01*
X81830226Y-96146063D01*
X81686063Y-96290226D01*
X81572795Y-96459744D01*
X81494774Y-96648102D01*
X81478238Y-96731233D01*
X81407205Y-96559744D01*
X81293937Y-96390226D01*
X81149774Y-96246063D01*
X80980256Y-96132795D01*
X80791898Y-96054774D01*
X80591939Y-96015000D01*
X80388061Y-96015000D01*
X80188102Y-96054774D01*
X79999744Y-96132795D01*
X79830226Y-96246063D01*
X79686063Y-96390226D01*
X79572795Y-96559744D01*
X79494774Y-96748102D01*
X79455000Y-96948061D01*
X76285000Y-96948061D01*
X76285000Y-94898061D01*
X80455000Y-94898061D01*
X80455000Y-95101939D01*
X80494774Y-95301898D01*
X80572795Y-95490256D01*
X80686063Y-95659774D01*
X80830226Y-95803937D01*
X80999744Y-95917205D01*
X81188102Y-95995226D01*
X81388061Y-96035000D01*
X81591939Y-96035000D01*
X81791898Y-95995226D01*
X81980256Y-95917205D01*
X82149774Y-95803937D01*
X82293937Y-95659774D01*
X82407205Y-95490256D01*
X82485226Y-95301898D01*
X82525000Y-95101939D01*
X82525000Y-94898061D01*
X83455000Y-94898061D01*
X83455000Y-95101939D01*
X83494774Y-95301898D01*
X83572795Y-95490256D01*
X83686063Y-95659774D01*
X83830226Y-95803937D01*
X83999744Y-95917205D01*
X84188102Y-95995226D01*
X84388061Y-96035000D01*
X84591939Y-96035000D01*
X84791898Y-95995226D01*
X84980256Y-95917205D01*
X85149774Y-95803937D01*
X85293937Y-95659774D01*
X85407205Y-95490256D01*
X85485226Y-95301898D01*
X85490000Y-95277897D01*
X85494774Y-95301898D01*
X85572795Y-95490256D01*
X85686063Y-95659774D01*
X85830226Y-95803937D01*
X85999744Y-95917205D01*
X86188102Y-95995226D01*
X86388061Y-96035000D01*
X86591939Y-96035000D01*
X86791898Y-95995226D01*
X86980256Y-95917205D01*
X87149774Y-95803937D01*
X87293937Y-95659774D01*
X87407205Y-95490256D01*
X87485226Y-95301898D01*
X87525000Y-95101939D01*
X87525000Y-94898061D01*
X92555000Y-94898061D01*
X92555000Y-95101939D01*
X92594774Y-95301898D01*
X92672795Y-95490256D01*
X92786063Y-95659774D01*
X92930226Y-95803937D01*
X93099744Y-95917205D01*
X93288102Y-95995226D01*
X93488061Y-96035000D01*
X93691939Y-96035000D01*
X93891898Y-95995226D01*
X94055000Y-95927666D01*
X94055000Y-96101939D01*
X94094774Y-96301898D01*
X94172795Y-96490256D01*
X94286063Y-96659774D01*
X94430226Y-96803937D01*
X94599744Y-96917205D01*
X94788102Y-96995226D01*
X94988061Y-97035000D01*
X95191939Y-97035000D01*
X95391898Y-96995226D01*
X95555000Y-96927666D01*
X95555000Y-97101939D01*
X95594774Y-97301898D01*
X95672795Y-97490256D01*
X95786063Y-97659774D01*
X95930226Y-97803937D01*
X96099744Y-97917205D01*
X96288102Y-97995226D01*
X96488061Y-98035000D01*
X96691939Y-98035000D01*
X96891898Y-97995226D01*
X97080256Y-97917205D01*
X97105000Y-97900672D01*
X97105000Y-98101939D01*
X97144774Y-98301898D01*
X97222795Y-98490256D01*
X97336063Y-98659774D01*
X97480226Y-98803937D01*
X97649744Y-98917205D01*
X97838102Y-98995226D01*
X98038061Y-99035000D01*
X98241939Y-99035000D01*
X98441898Y-98995226D01*
X98630256Y-98917205D01*
X98799774Y-98803937D01*
X98943937Y-98659774D01*
X99057205Y-98490256D01*
X99135226Y-98301898D01*
X99175000Y-98101939D01*
X99175000Y-97898061D01*
X99135226Y-97698102D01*
X99057205Y-97509744D01*
X98969420Y-97378363D01*
X105855000Y-97378363D01*
X105855000Y-97621637D01*
X105902460Y-97860236D01*
X105995557Y-98084992D01*
X106130713Y-98287267D01*
X106302733Y-98459287D01*
X106505008Y-98594443D01*
X106729764Y-98687540D01*
X106968363Y-98735000D01*
X107211637Y-98735000D01*
X107450236Y-98687540D01*
X107674992Y-98594443D01*
X107877267Y-98459287D01*
X107938493Y-98398061D01*
X129805000Y-98398061D01*
X129805000Y-98601939D01*
X129844774Y-98801898D01*
X129922795Y-98990256D01*
X130036063Y-99159774D01*
X130180226Y-99303937D01*
X130349744Y-99417205D01*
X130538102Y-99495226D01*
X130738061Y-99535000D01*
X130941939Y-99535000D01*
X131141898Y-99495226D01*
X131330256Y-99417205D01*
X131499774Y-99303937D01*
X131643937Y-99159774D01*
X131757205Y-98990256D01*
X131835226Y-98801898D01*
X131875000Y-98601939D01*
X131875000Y-98398061D01*
X131835226Y-98198102D01*
X131757205Y-98009744D01*
X131643937Y-97840226D01*
X131499774Y-97696063D01*
X131330256Y-97582795D01*
X131141898Y-97504774D01*
X130941939Y-97465000D01*
X130738061Y-97465000D01*
X130538102Y-97504774D01*
X130349744Y-97582795D01*
X130180226Y-97696063D01*
X130036063Y-97840226D01*
X129922795Y-98009744D01*
X129844774Y-98198102D01*
X129805000Y-98398061D01*
X107938493Y-98398061D01*
X108049287Y-98287267D01*
X108184443Y-98084992D01*
X108277540Y-97860236D01*
X108325000Y-97621637D01*
X108325000Y-97378363D01*
X108277540Y-97139764D01*
X108184443Y-96915008D01*
X108049287Y-96712733D01*
X107877267Y-96540713D01*
X107674992Y-96405557D01*
X107450236Y-96312460D01*
X107211637Y-96265000D01*
X106968363Y-96265000D01*
X106729764Y-96312460D01*
X106505008Y-96405557D01*
X106302733Y-96540713D01*
X106130713Y-96712733D01*
X105995557Y-96915008D01*
X105902460Y-97139764D01*
X105855000Y-97378363D01*
X98969420Y-97378363D01*
X98943937Y-97340226D01*
X98799774Y-97196063D01*
X98630256Y-97082795D01*
X98441898Y-97004774D01*
X98241939Y-96965000D01*
X98038061Y-96965000D01*
X97838102Y-97004774D01*
X97649744Y-97082795D01*
X97625000Y-97099328D01*
X97625000Y-96898061D01*
X97585226Y-96698102D01*
X97507205Y-96509744D01*
X97393937Y-96340226D01*
X97249774Y-96196063D01*
X97080256Y-96082795D01*
X96891898Y-96004774D01*
X96691939Y-95965000D01*
X96488061Y-95965000D01*
X96288102Y-96004774D01*
X96125000Y-96072334D01*
X96125000Y-95898061D01*
X96085226Y-95698102D01*
X96007205Y-95509744D01*
X95924130Y-95385413D01*
X136494192Y-95385413D01*
X136589956Y-95649814D01*
X136879571Y-95790704D01*
X137191108Y-95872384D01*
X137512595Y-95891718D01*
X137831675Y-95847961D01*
X138136088Y-95742795D01*
X138310044Y-95649814D01*
X138405808Y-95385413D01*
X137450000Y-94429605D01*
X136494192Y-95385413D01*
X95924130Y-95385413D01*
X95893937Y-95340226D01*
X95749774Y-95196063D01*
X95580256Y-95082795D01*
X95391898Y-95004774D01*
X95191939Y-94965000D01*
X94988061Y-94965000D01*
X94788102Y-95004774D01*
X94625000Y-95072334D01*
X94625000Y-94898061D01*
X94585226Y-94698102D01*
X94507205Y-94509744D01*
X94393937Y-94340226D01*
X94249774Y-94196063D01*
X94080256Y-94082795D01*
X93891898Y-94004774D01*
X93691939Y-93965000D01*
X93488061Y-93965000D01*
X93288102Y-94004774D01*
X93099744Y-94082795D01*
X92930226Y-94196063D01*
X92786063Y-94340226D01*
X92672795Y-94509744D01*
X92594774Y-94698102D01*
X92555000Y-94898061D01*
X87525000Y-94898061D01*
X87485226Y-94698102D01*
X87407205Y-94509744D01*
X87293937Y-94340226D01*
X87149774Y-94196063D01*
X86980256Y-94082795D01*
X86791898Y-94004774D01*
X86591939Y-93965000D01*
X86388061Y-93965000D01*
X86188102Y-94004774D01*
X85999744Y-94082795D01*
X85830226Y-94196063D01*
X85686063Y-94340226D01*
X85572795Y-94509744D01*
X85494774Y-94698102D01*
X85490000Y-94722103D01*
X85485226Y-94698102D01*
X85407205Y-94509744D01*
X85293937Y-94340226D01*
X85149774Y-94196063D01*
X84980256Y-94082795D01*
X84791898Y-94004774D01*
X84591939Y-93965000D01*
X84388061Y-93965000D01*
X84188102Y-94004774D01*
X83999744Y-94082795D01*
X83830226Y-94196063D01*
X83686063Y-94340226D01*
X83572795Y-94509744D01*
X83494774Y-94698102D01*
X83455000Y-94898061D01*
X82525000Y-94898061D01*
X82485226Y-94698102D01*
X82407205Y-94509744D01*
X82293937Y-94340226D01*
X82149774Y-94196063D01*
X81980256Y-94082795D01*
X81791898Y-94004774D01*
X81591939Y-93965000D01*
X81388061Y-93965000D01*
X81188102Y-94004774D01*
X80999744Y-94082795D01*
X80830226Y-94196063D01*
X80686063Y-94340226D01*
X80572795Y-94509744D01*
X80494774Y-94698102D01*
X80455000Y-94898061D01*
X76285000Y-94898061D01*
X76285000Y-93398061D01*
X118955000Y-93398061D01*
X118955000Y-93601939D01*
X118994774Y-93801898D01*
X119072795Y-93990256D01*
X119186063Y-94159774D01*
X119330226Y-94303937D01*
X119499744Y-94417205D01*
X119688102Y-94495226D01*
X119888061Y-94535000D01*
X120091939Y-94535000D01*
X120291898Y-94495226D01*
X120480256Y-94417205D01*
X120636816Y-94312595D01*
X135808282Y-94312595D01*
X135852039Y-94631675D01*
X135957205Y-94936088D01*
X136050186Y-95110044D01*
X136314587Y-95205808D01*
X137270395Y-94250000D01*
X137629605Y-94250000D01*
X138585413Y-95205808D01*
X138849814Y-95110044D01*
X138990704Y-94820429D01*
X139072384Y-94508892D01*
X139091718Y-94187405D01*
X139078219Y-94088967D01*
X140315000Y-94088967D01*
X140315000Y-94411033D01*
X140377832Y-94726912D01*
X140501082Y-95024463D01*
X140680013Y-95292252D01*
X140907748Y-95519987D01*
X141175537Y-95698918D01*
X141473088Y-95822168D01*
X141788967Y-95885000D01*
X142111033Y-95885000D01*
X142426912Y-95822168D01*
X142724463Y-95698918D01*
X142992252Y-95519987D01*
X143219987Y-95292252D01*
X143398918Y-95024463D01*
X143522168Y-94726912D01*
X143585000Y-94411033D01*
X143585000Y-94088967D01*
X144315000Y-94088967D01*
X144315000Y-94411033D01*
X144377832Y-94726912D01*
X144501082Y-95024463D01*
X144680013Y-95292252D01*
X144907748Y-95519987D01*
X145175537Y-95698918D01*
X145473088Y-95822168D01*
X145788967Y-95885000D01*
X146111033Y-95885000D01*
X146426912Y-95822168D01*
X146724463Y-95698918D01*
X146992252Y-95519987D01*
X147126826Y-95385413D01*
X149494192Y-95385413D01*
X149589956Y-95649814D01*
X149879571Y-95790704D01*
X150191108Y-95872384D01*
X150512595Y-95891718D01*
X150831675Y-95847961D01*
X151136088Y-95742795D01*
X151310044Y-95649814D01*
X151405808Y-95385413D01*
X150450000Y-94429605D01*
X149494192Y-95385413D01*
X147126826Y-95385413D01*
X147219987Y-95292252D01*
X147398918Y-95024463D01*
X147522168Y-94726912D01*
X147585000Y-94411033D01*
X147585000Y-94312595D01*
X148808282Y-94312595D01*
X148852039Y-94631675D01*
X148957205Y-94936088D01*
X149050186Y-95110044D01*
X149314587Y-95205808D01*
X150270395Y-94250000D01*
X150629605Y-94250000D01*
X151585413Y-95205808D01*
X151849814Y-95110044D01*
X151990704Y-94820429D01*
X152072384Y-94508892D01*
X152091718Y-94187405D01*
X152047961Y-93868325D01*
X151942795Y-93563912D01*
X151849814Y-93389956D01*
X151585413Y-93294192D01*
X150629605Y-94250000D01*
X150270395Y-94250000D01*
X149314587Y-93294192D01*
X149050186Y-93389956D01*
X148909296Y-93679571D01*
X148827616Y-93991108D01*
X148808282Y-94312595D01*
X147585000Y-94312595D01*
X147585000Y-94088967D01*
X147522168Y-93773088D01*
X147398918Y-93475537D01*
X147219987Y-93207748D01*
X147126826Y-93114587D01*
X149494192Y-93114587D01*
X150450000Y-94070395D01*
X151405808Y-93114587D01*
X151310044Y-92850186D01*
X151020429Y-92709296D01*
X150708892Y-92627616D01*
X150387405Y-92608282D01*
X150068325Y-92652039D01*
X149763912Y-92757205D01*
X149589956Y-92850186D01*
X149494192Y-93114587D01*
X147126826Y-93114587D01*
X146992252Y-92980013D01*
X146724463Y-92801082D01*
X146426912Y-92677832D01*
X146111033Y-92615000D01*
X145788967Y-92615000D01*
X145473088Y-92677832D01*
X145175537Y-92801082D01*
X144907748Y-92980013D01*
X144680013Y-93207748D01*
X144501082Y-93475537D01*
X144377832Y-93773088D01*
X144315000Y-94088967D01*
X143585000Y-94088967D01*
X143522168Y-93773088D01*
X143398918Y-93475537D01*
X143219987Y-93207748D01*
X142992252Y-92980013D01*
X142724463Y-92801082D01*
X142426912Y-92677832D01*
X142111033Y-92615000D01*
X141788967Y-92615000D01*
X141473088Y-92677832D01*
X141175537Y-92801082D01*
X140907748Y-92980013D01*
X140680013Y-93207748D01*
X140501082Y-93475537D01*
X140377832Y-93773088D01*
X140315000Y-94088967D01*
X139078219Y-94088967D01*
X139047961Y-93868325D01*
X138942795Y-93563912D01*
X138849814Y-93389956D01*
X138585413Y-93294192D01*
X137629605Y-94250000D01*
X137270395Y-94250000D01*
X136314587Y-93294192D01*
X136050186Y-93389956D01*
X135909296Y-93679571D01*
X135827616Y-93991108D01*
X135808282Y-94312595D01*
X120636816Y-94312595D01*
X120649774Y-94303937D01*
X120793937Y-94159774D01*
X120907205Y-93990256D01*
X120985226Y-93801898D01*
X121025000Y-93601939D01*
X121025000Y-93398061D01*
X120985226Y-93198102D01*
X120950633Y-93114587D01*
X136494192Y-93114587D01*
X137450000Y-94070395D01*
X138405808Y-93114587D01*
X138310044Y-92850186D01*
X138020429Y-92709296D01*
X137708892Y-92627616D01*
X137387405Y-92608282D01*
X137068325Y-92652039D01*
X136763912Y-92757205D01*
X136589956Y-92850186D01*
X136494192Y-93114587D01*
X120950633Y-93114587D01*
X120907205Y-93009744D01*
X120793937Y-92840226D01*
X120649774Y-92696063D01*
X120480256Y-92582795D01*
X120291898Y-92504774D01*
X120091939Y-92465000D01*
X119888061Y-92465000D01*
X119688102Y-92504774D01*
X119499744Y-92582795D01*
X119330226Y-92696063D01*
X119186063Y-92840226D01*
X119072795Y-93009744D01*
X118994774Y-93198102D01*
X118955000Y-93398061D01*
X76285000Y-93398061D01*
X76285000Y-90003363D01*
X97730000Y-90003363D01*
X97730000Y-90246637D01*
X97777460Y-90485236D01*
X97870557Y-90709992D01*
X98005713Y-90912267D01*
X98177733Y-91084287D01*
X98380008Y-91219443D01*
X98604764Y-91312540D01*
X98843363Y-91360000D01*
X99086637Y-91360000D01*
X99325236Y-91312540D01*
X99549992Y-91219443D01*
X99752267Y-91084287D01*
X99888493Y-90948061D01*
X113155000Y-90948061D01*
X113155000Y-91151939D01*
X113194774Y-91351898D01*
X113272795Y-91540256D01*
X113386063Y-91709774D01*
X113530226Y-91853937D01*
X113699744Y-91967205D01*
X113888102Y-92045226D01*
X114088061Y-92085000D01*
X114291939Y-92085000D01*
X114491898Y-92045226D01*
X114680256Y-91967205D01*
X114708907Y-91948061D01*
X123455000Y-91948061D01*
X123455000Y-92151939D01*
X123494774Y-92351898D01*
X123572795Y-92540256D01*
X123686063Y-92709774D01*
X123830226Y-92853937D01*
X123999744Y-92967205D01*
X124188102Y-93045226D01*
X124388061Y-93085000D01*
X124591939Y-93085000D01*
X124791898Y-93045226D01*
X124980256Y-92967205D01*
X125149774Y-92853937D01*
X125293937Y-92709774D01*
X125407205Y-92540256D01*
X125485226Y-92351898D01*
X125525000Y-92151939D01*
X125525000Y-91948061D01*
X125485226Y-91748102D01*
X125482067Y-91740475D01*
X153215000Y-91740475D01*
X153215000Y-92259525D01*
X153316261Y-92768601D01*
X153514893Y-93248141D01*
X153803262Y-93679715D01*
X154170285Y-94046738D01*
X154601859Y-94335107D01*
X155081399Y-94533739D01*
X155590475Y-94635000D01*
X156109525Y-94635000D01*
X156618601Y-94533739D01*
X157098141Y-94335107D01*
X157529715Y-94046738D01*
X157896738Y-93679715D01*
X158185107Y-93248141D01*
X158383739Y-92768601D01*
X158485000Y-92259525D01*
X158485000Y-91740475D01*
X162015000Y-91740475D01*
X162015000Y-92259525D01*
X162116261Y-92768601D01*
X162314893Y-93248141D01*
X162603262Y-93679715D01*
X162970285Y-94046738D01*
X163401859Y-94335107D01*
X163881399Y-94533739D01*
X164390475Y-94635000D01*
X164909525Y-94635000D01*
X165418601Y-94533739D01*
X165898141Y-94335107D01*
X166329715Y-94046738D01*
X166696738Y-93679715D01*
X166985107Y-93248141D01*
X167183739Y-92768601D01*
X167285000Y-92259525D01*
X167285000Y-91740475D01*
X171215000Y-91740475D01*
X171215000Y-92259525D01*
X171316261Y-92768601D01*
X171514893Y-93248141D01*
X171803262Y-93679715D01*
X172170285Y-94046738D01*
X172601859Y-94335107D01*
X173081399Y-94533739D01*
X173590475Y-94635000D01*
X174109525Y-94635000D01*
X174618601Y-94533739D01*
X175098141Y-94335107D01*
X175529715Y-94046738D01*
X175896738Y-93679715D01*
X176185107Y-93248141D01*
X176383739Y-92768601D01*
X176485000Y-92259525D01*
X176485000Y-91740475D01*
X180015000Y-91740475D01*
X180015000Y-92259525D01*
X180116261Y-92768601D01*
X180314893Y-93248141D01*
X180603262Y-93679715D01*
X180970285Y-94046738D01*
X181401859Y-94335107D01*
X181881399Y-94533739D01*
X182390475Y-94635000D01*
X182909525Y-94635000D01*
X183418601Y-94533739D01*
X183898141Y-94335107D01*
X184329715Y-94046738D01*
X184696738Y-93679715D01*
X184985107Y-93248141D01*
X185183739Y-92768601D01*
X185285000Y-92259525D01*
X185285000Y-91740475D01*
X189215000Y-91740475D01*
X189215000Y-92259525D01*
X189316261Y-92768601D01*
X189514893Y-93248141D01*
X189803262Y-93679715D01*
X190170285Y-94046738D01*
X190601859Y-94335107D01*
X191081399Y-94533739D01*
X191590475Y-94635000D01*
X192109525Y-94635000D01*
X192618601Y-94533739D01*
X193098141Y-94335107D01*
X193529715Y-94046738D01*
X193896738Y-93679715D01*
X194185107Y-93248141D01*
X194383739Y-92768601D01*
X194485000Y-92259525D01*
X194485000Y-91740475D01*
X198015000Y-91740475D01*
X198015000Y-92259525D01*
X198116261Y-92768601D01*
X198314893Y-93248141D01*
X198603262Y-93679715D01*
X198970285Y-94046738D01*
X199401859Y-94335107D01*
X199881399Y-94533739D01*
X200390475Y-94635000D01*
X200909525Y-94635000D01*
X201418601Y-94533739D01*
X201898141Y-94335107D01*
X202329715Y-94046738D01*
X202696738Y-93679715D01*
X202985107Y-93248141D01*
X203183739Y-92768601D01*
X203285000Y-92259525D01*
X203285000Y-91740475D01*
X203183739Y-91231399D01*
X202985107Y-90751859D01*
X202696738Y-90320285D01*
X202329715Y-89953262D01*
X201898141Y-89664893D01*
X201418601Y-89466261D01*
X200909525Y-89365000D01*
X200390475Y-89365000D01*
X199881399Y-89466261D01*
X199401859Y-89664893D01*
X198970285Y-89953262D01*
X198603262Y-90320285D01*
X198314893Y-90751859D01*
X198116261Y-91231399D01*
X198015000Y-91740475D01*
X194485000Y-91740475D01*
X194383739Y-91231399D01*
X194185107Y-90751859D01*
X193896738Y-90320285D01*
X193529715Y-89953262D01*
X193098141Y-89664893D01*
X192618601Y-89466261D01*
X192109525Y-89365000D01*
X191994036Y-89365000D01*
X192030256Y-89349997D01*
X192199774Y-89236729D01*
X192343937Y-89092566D01*
X192457205Y-88923048D01*
X192535226Y-88734690D01*
X192575000Y-88534731D01*
X192575000Y-88330853D01*
X192535226Y-88130894D01*
X192457205Y-87942536D01*
X192343937Y-87773018D01*
X192199774Y-87628855D01*
X192030256Y-87515587D01*
X191841898Y-87437566D01*
X191641939Y-87397792D01*
X191438061Y-87397792D01*
X191238102Y-87437566D01*
X191049744Y-87515587D01*
X190880226Y-87628855D01*
X190736063Y-87773018D01*
X190622795Y-87942536D01*
X190544774Y-88130894D01*
X190505000Y-88330853D01*
X190505000Y-88534731D01*
X190544774Y-88734690D01*
X190622795Y-88923048D01*
X190736063Y-89092566D01*
X190880226Y-89236729D01*
X191049744Y-89349997D01*
X191238102Y-89428018D01*
X191255881Y-89431554D01*
X191081399Y-89466261D01*
X190601859Y-89664893D01*
X190170285Y-89953262D01*
X189803262Y-90320285D01*
X189514893Y-90751859D01*
X189316261Y-91231399D01*
X189215000Y-91740475D01*
X185285000Y-91740475D01*
X185183739Y-91231399D01*
X184985107Y-90751859D01*
X184696738Y-90320285D01*
X184329715Y-89953262D01*
X183898141Y-89664893D01*
X183418601Y-89466261D01*
X182909525Y-89365000D01*
X182390475Y-89365000D01*
X181881399Y-89466261D01*
X181401859Y-89664893D01*
X180970285Y-89953262D01*
X180603262Y-90320285D01*
X180314893Y-90751859D01*
X180116261Y-91231399D01*
X180015000Y-91740475D01*
X176485000Y-91740475D01*
X176383739Y-91231399D01*
X176185107Y-90751859D01*
X175896738Y-90320285D01*
X175529715Y-89953262D01*
X175098141Y-89664893D01*
X174618601Y-89466261D01*
X174109525Y-89365000D01*
X173590475Y-89365000D01*
X173081399Y-89466261D01*
X172601859Y-89664893D01*
X172170285Y-89953262D01*
X171803262Y-90320285D01*
X171514893Y-90751859D01*
X171316261Y-91231399D01*
X171215000Y-91740475D01*
X167285000Y-91740475D01*
X167183739Y-91231399D01*
X166985107Y-90751859D01*
X166696738Y-90320285D01*
X166329715Y-89953262D01*
X165898141Y-89664893D01*
X165418601Y-89466261D01*
X164909525Y-89365000D01*
X164390475Y-89365000D01*
X163881399Y-89466261D01*
X163401859Y-89664893D01*
X162970285Y-89953262D01*
X162603262Y-90320285D01*
X162314893Y-90751859D01*
X162116261Y-91231399D01*
X162015000Y-91740475D01*
X158485000Y-91740475D01*
X158383739Y-91231399D01*
X158185107Y-90751859D01*
X157896738Y-90320285D01*
X157529715Y-89953262D01*
X157098141Y-89664893D01*
X156618601Y-89466261D01*
X156109525Y-89365000D01*
X155590475Y-89365000D01*
X155081399Y-89466261D01*
X154601859Y-89664893D01*
X154170285Y-89953262D01*
X153803262Y-90320285D01*
X153514893Y-90751859D01*
X153316261Y-91231399D01*
X153215000Y-91740475D01*
X125482067Y-91740475D01*
X125407205Y-91559744D01*
X125293937Y-91390226D01*
X125149774Y-91246063D01*
X124980256Y-91132795D01*
X124791898Y-91054774D01*
X124591939Y-91015000D01*
X124388061Y-91015000D01*
X124188102Y-91054774D01*
X123999744Y-91132795D01*
X123830226Y-91246063D01*
X123686063Y-91390226D01*
X123572795Y-91559744D01*
X123494774Y-91748102D01*
X123455000Y-91948061D01*
X114708907Y-91948061D01*
X114849774Y-91853937D01*
X114993937Y-91709774D01*
X115107205Y-91540256D01*
X115185226Y-91351898D01*
X115225000Y-91151939D01*
X115225000Y-90948061D01*
X115185226Y-90748102D01*
X115107205Y-90559744D01*
X114993937Y-90390226D01*
X114849774Y-90246063D01*
X114680256Y-90132795D01*
X114491898Y-90054774D01*
X114291939Y-90015000D01*
X114088061Y-90015000D01*
X113888102Y-90054774D01*
X113699744Y-90132795D01*
X113530226Y-90246063D01*
X113386063Y-90390226D01*
X113272795Y-90559744D01*
X113194774Y-90748102D01*
X113155000Y-90948061D01*
X99888493Y-90948061D01*
X99924287Y-90912267D01*
X100059443Y-90709992D01*
X100152540Y-90485236D01*
X100200000Y-90246637D01*
X100200000Y-90003363D01*
X100152540Y-89764764D01*
X100059443Y-89540008D01*
X99924287Y-89337733D01*
X99752267Y-89165713D01*
X99549992Y-89030557D01*
X99325236Y-88937460D01*
X99086637Y-88890000D01*
X98843363Y-88890000D01*
X98604764Y-88937460D01*
X98380008Y-89030557D01*
X98177733Y-89165713D01*
X98005713Y-89337733D01*
X97870557Y-89540008D01*
X97777460Y-89764764D01*
X97730000Y-90003363D01*
X76285000Y-90003363D01*
X76285000Y-88448061D01*
X108905000Y-88448061D01*
X108905000Y-88651939D01*
X108944774Y-88851898D01*
X109022795Y-89040256D01*
X109112828Y-89175000D01*
X109022795Y-89309744D01*
X108944774Y-89498102D01*
X108905000Y-89698061D01*
X108905000Y-89901939D01*
X108944774Y-90101898D01*
X109022795Y-90290256D01*
X109136063Y-90459774D01*
X109280226Y-90603937D01*
X109449744Y-90717205D01*
X109638102Y-90795226D01*
X109838061Y-90835000D01*
X110041939Y-90835000D01*
X110241898Y-90795226D01*
X110430256Y-90717205D01*
X110599774Y-90603937D01*
X110743937Y-90459774D01*
X110857205Y-90290256D01*
X110935226Y-90101898D01*
X110968529Y-89934471D01*
X118905000Y-89934471D01*
X118905000Y-90138349D01*
X118944774Y-90338308D01*
X119022795Y-90526666D01*
X119136063Y-90696184D01*
X119280226Y-90840347D01*
X119449744Y-90953615D01*
X119638102Y-91031636D01*
X119838061Y-91071410D01*
X120041939Y-91071410D01*
X120241898Y-91031636D01*
X120430256Y-90953615D01*
X120599774Y-90840347D01*
X120743937Y-90696184D01*
X120857205Y-90526666D01*
X120935226Y-90338308D01*
X120975000Y-90138349D01*
X120975000Y-90035000D01*
X121091939Y-90035000D01*
X121291898Y-89995226D01*
X121480256Y-89917205D01*
X121649774Y-89803937D01*
X121793937Y-89659774D01*
X121907205Y-89490256D01*
X121985226Y-89301898D01*
X122025000Y-89101939D01*
X122025000Y-88898061D01*
X122055000Y-88898061D01*
X122055000Y-89101939D01*
X122094774Y-89301898D01*
X122172795Y-89490256D01*
X122286063Y-89659774D01*
X122430226Y-89803937D01*
X122599744Y-89917205D01*
X122788102Y-89995226D01*
X122988061Y-90035000D01*
X123191939Y-90035000D01*
X123391898Y-89995226D01*
X123580256Y-89917205D01*
X123749774Y-89803937D01*
X123893937Y-89659774D01*
X124007205Y-89490256D01*
X124085226Y-89301898D01*
X124125000Y-89101939D01*
X124125000Y-88898061D01*
X124085226Y-88698102D01*
X124007205Y-88509744D01*
X123893937Y-88340226D01*
X123749774Y-88196063D01*
X123580256Y-88082795D01*
X123391898Y-88004774D01*
X123191939Y-87965000D01*
X122988061Y-87965000D01*
X122788102Y-88004774D01*
X122599744Y-88082795D01*
X122430226Y-88196063D01*
X122286063Y-88340226D01*
X122172795Y-88509744D01*
X122094774Y-88698102D01*
X122055000Y-88898061D01*
X122025000Y-88898061D01*
X121985226Y-88698102D01*
X121907205Y-88509744D01*
X121793937Y-88340226D01*
X121649774Y-88196063D01*
X121480256Y-88082795D01*
X121291898Y-88004774D01*
X121091939Y-87965000D01*
X120888061Y-87965000D01*
X120688102Y-88004774D01*
X120499744Y-88082795D01*
X120330226Y-88196063D01*
X120186063Y-88340226D01*
X120072795Y-88509744D01*
X119994774Y-88698102D01*
X119955000Y-88898061D01*
X119955000Y-89001410D01*
X119838061Y-89001410D01*
X119638102Y-89041184D01*
X119449744Y-89119205D01*
X119280226Y-89232473D01*
X119136063Y-89376636D01*
X119022795Y-89546154D01*
X118944774Y-89734512D01*
X118905000Y-89934471D01*
X110968529Y-89934471D01*
X110975000Y-89901939D01*
X110975000Y-89698061D01*
X110935226Y-89498102D01*
X110857205Y-89309744D01*
X110767172Y-89175000D01*
X110857205Y-89040256D01*
X110935226Y-88851898D01*
X110975000Y-88651939D01*
X110975000Y-88448061D01*
X113055000Y-88448061D01*
X113055000Y-88651939D01*
X113094774Y-88851898D01*
X113172795Y-89040256D01*
X113286063Y-89209774D01*
X113430226Y-89353937D01*
X113599744Y-89467205D01*
X113788102Y-89545226D01*
X113988061Y-89585000D01*
X114191939Y-89585000D01*
X114391898Y-89545226D01*
X114580256Y-89467205D01*
X114749774Y-89353937D01*
X114893937Y-89209774D01*
X115007205Y-89040256D01*
X115085226Y-88851898D01*
X115125000Y-88651939D01*
X115125000Y-88448061D01*
X115085226Y-88248102D01*
X115007205Y-88059744D01*
X114893937Y-87890226D01*
X114749774Y-87746063D01*
X114580256Y-87632795D01*
X114391898Y-87554774D01*
X114191939Y-87515000D01*
X113988061Y-87515000D01*
X113788102Y-87554774D01*
X113599744Y-87632795D01*
X113430226Y-87746063D01*
X113286063Y-87890226D01*
X113172795Y-88059744D01*
X113094774Y-88248102D01*
X113055000Y-88448061D01*
X110975000Y-88448061D01*
X110935226Y-88248102D01*
X110857205Y-88059744D01*
X110743937Y-87890226D01*
X110599774Y-87746063D01*
X110430256Y-87632795D01*
X110241898Y-87554774D01*
X110041939Y-87515000D01*
X109838061Y-87515000D01*
X109638102Y-87554774D01*
X109449744Y-87632795D01*
X109280226Y-87746063D01*
X109136063Y-87890226D01*
X109022795Y-88059744D01*
X108944774Y-88248102D01*
X108905000Y-88448061D01*
X76285000Y-88448061D01*
X76285000Y-85848061D01*
X114355000Y-85848061D01*
X114355000Y-86051939D01*
X114394774Y-86251898D01*
X114472795Y-86440256D01*
X114586063Y-86609774D01*
X114730226Y-86753937D01*
X114899744Y-86867205D01*
X115088102Y-86945226D01*
X115288061Y-86985000D01*
X115491939Y-86985000D01*
X115691898Y-86945226D01*
X115880256Y-86867205D01*
X116049774Y-86753937D01*
X116193937Y-86609774D01*
X116307205Y-86440256D01*
X116385226Y-86251898D01*
X116425000Y-86051939D01*
X116425000Y-85848061D01*
X116385226Y-85648102D01*
X116307205Y-85459744D01*
X116193937Y-85290226D01*
X116049774Y-85146063D01*
X115880256Y-85032795D01*
X115691898Y-84954774D01*
X115491939Y-84915000D01*
X115288061Y-84915000D01*
X115088102Y-84954774D01*
X114899744Y-85032795D01*
X114730226Y-85146063D01*
X114586063Y-85290226D01*
X114472795Y-85459744D01*
X114394774Y-85648102D01*
X114355000Y-85848061D01*
X76285000Y-85848061D01*
X76285000Y-84598061D01*
X108905000Y-84598061D01*
X108905000Y-84801939D01*
X108944774Y-85001898D01*
X109022795Y-85190256D01*
X109136063Y-85359774D01*
X109280226Y-85503937D01*
X109449744Y-85617205D01*
X109638102Y-85695226D01*
X109838061Y-85735000D01*
X110041939Y-85735000D01*
X110241898Y-85695226D01*
X110430256Y-85617205D01*
X110599774Y-85503937D01*
X110743937Y-85359774D01*
X110857205Y-85190256D01*
X110935226Y-85001898D01*
X110975000Y-84801939D01*
X110975000Y-84598061D01*
X118455000Y-84598061D01*
X118455000Y-84801939D01*
X118494774Y-85001898D01*
X118572795Y-85190256D01*
X118686063Y-85359774D01*
X118830226Y-85503937D01*
X118999744Y-85617205D01*
X119188102Y-85695226D01*
X119388061Y-85735000D01*
X119591939Y-85735000D01*
X119791898Y-85695226D01*
X119980256Y-85617205D01*
X120149774Y-85503937D01*
X120293937Y-85359774D01*
X120407205Y-85190256D01*
X120485226Y-85001898D01*
X120525000Y-84801939D01*
X120525000Y-84598061D01*
X120485226Y-84398102D01*
X120407205Y-84209744D01*
X120293937Y-84040226D01*
X120149774Y-83896063D01*
X119980256Y-83782795D01*
X119791898Y-83704774D01*
X119591939Y-83665000D01*
X119388061Y-83665000D01*
X119188102Y-83704774D01*
X118999744Y-83782795D01*
X118830226Y-83896063D01*
X118686063Y-84040226D01*
X118572795Y-84209744D01*
X118494774Y-84398102D01*
X118455000Y-84598061D01*
X110975000Y-84598061D01*
X110935226Y-84398102D01*
X110857205Y-84209744D01*
X110743937Y-84040226D01*
X110599774Y-83896063D01*
X110430256Y-83782795D01*
X110241898Y-83704774D01*
X110041939Y-83665000D01*
X109838061Y-83665000D01*
X109638102Y-83704774D01*
X109449744Y-83782795D01*
X109280226Y-83896063D01*
X109136063Y-84040226D01*
X109022795Y-84209744D01*
X108944774Y-84398102D01*
X108905000Y-84598061D01*
X76285000Y-84598061D01*
X76285000Y-81938851D01*
X87455000Y-81938851D01*
X87455000Y-82142729D01*
X87494774Y-82342688D01*
X87572795Y-82531046D01*
X87686063Y-82700564D01*
X87830226Y-82844727D01*
X87999744Y-82957995D01*
X88188102Y-83036016D01*
X88388061Y-83075790D01*
X88591939Y-83075790D01*
X88791898Y-83036016D01*
X88980256Y-82957995D01*
X89149774Y-82844727D01*
X89196440Y-82798061D01*
X89455000Y-82798061D01*
X89455000Y-83001939D01*
X89494774Y-83201898D01*
X89572795Y-83390256D01*
X89686063Y-83559774D01*
X89830226Y-83703937D01*
X89999744Y-83817205D01*
X90188102Y-83895226D01*
X90388061Y-83935000D01*
X90591939Y-83935000D01*
X90791898Y-83895226D01*
X90980256Y-83817205D01*
X91149774Y-83703937D01*
X91293937Y-83559774D01*
X91401989Y-83398061D01*
X127455000Y-83398061D01*
X127455000Y-83601939D01*
X127494774Y-83801898D01*
X127572795Y-83990256D01*
X127686063Y-84159774D01*
X127830226Y-84303937D01*
X127999744Y-84417205D01*
X128188102Y-84495226D01*
X128388061Y-84535000D01*
X128591939Y-84535000D01*
X128791898Y-84495226D01*
X128980256Y-84417205D01*
X129149774Y-84303937D01*
X129293937Y-84159774D01*
X129407205Y-83990256D01*
X129485226Y-83801898D01*
X129525000Y-83601939D01*
X129525000Y-83398061D01*
X129505410Y-83299570D01*
X132915000Y-83299570D01*
X132915000Y-83700430D01*
X132993204Y-84093587D01*
X133146607Y-84463934D01*
X133369313Y-84797237D01*
X133652763Y-85080687D01*
X133986066Y-85303393D01*
X134356413Y-85456796D01*
X134749570Y-85535000D01*
X135150430Y-85535000D01*
X135543587Y-85456796D01*
X135913934Y-85303393D01*
X136247237Y-85080687D01*
X136249158Y-85078766D01*
X136314585Y-85144193D01*
X136050186Y-85239956D01*
X135909296Y-85529571D01*
X135827616Y-85841108D01*
X135808282Y-86162595D01*
X135852039Y-86481675D01*
X135930001Y-86707342D01*
X135913934Y-86696607D01*
X135543587Y-86543204D01*
X135150430Y-86465000D01*
X134749570Y-86465000D01*
X134356413Y-86543204D01*
X133986066Y-86696607D01*
X133652763Y-86919313D01*
X133369313Y-87202763D01*
X133146607Y-87536066D01*
X132993204Y-87906413D01*
X132915000Y-88299570D01*
X132915000Y-88700430D01*
X132993204Y-89093587D01*
X133146607Y-89463934D01*
X133369313Y-89797237D01*
X133652763Y-90080687D01*
X133986066Y-90303393D01*
X134356413Y-90456796D01*
X134749570Y-90535000D01*
X135150430Y-90535000D01*
X135543587Y-90456796D01*
X135913934Y-90303393D01*
X136247237Y-90080687D01*
X136530687Y-89797237D01*
X136753393Y-89463934D01*
X136906796Y-89093587D01*
X136985000Y-88700430D01*
X136985000Y-88299570D01*
X136906796Y-87906413D01*
X136775832Y-87590238D01*
X136879571Y-87640704D01*
X137191108Y-87722384D01*
X137512595Y-87741718D01*
X137831675Y-87697961D01*
X138136088Y-87592795D01*
X138310044Y-87499814D01*
X138405808Y-87235413D01*
X137450000Y-86279605D01*
X137435858Y-86293748D01*
X137256253Y-86114143D01*
X137270395Y-86100000D01*
X137629605Y-86100000D01*
X138585413Y-87055808D01*
X138849814Y-86960044D01*
X138990704Y-86670429D01*
X139072384Y-86358892D01*
X139091718Y-86037405D01*
X139078219Y-85938967D01*
X140315000Y-85938967D01*
X140315000Y-86261033D01*
X140377832Y-86576912D01*
X140501082Y-86874463D01*
X140680013Y-87142252D01*
X140907748Y-87369987D01*
X141175537Y-87548918D01*
X141473088Y-87672168D01*
X141788967Y-87735000D01*
X142111033Y-87735000D01*
X142426912Y-87672168D01*
X142724463Y-87548918D01*
X142992252Y-87369987D01*
X143219987Y-87142252D01*
X143398918Y-86874463D01*
X143522168Y-86576912D01*
X143585000Y-86261033D01*
X143585000Y-85938967D01*
X144315000Y-85938967D01*
X144315000Y-86261033D01*
X144377832Y-86576912D01*
X144501082Y-86874463D01*
X144680013Y-87142252D01*
X144907748Y-87369987D01*
X145175537Y-87548918D01*
X145473088Y-87672168D01*
X145788967Y-87735000D01*
X146111033Y-87735000D01*
X146426912Y-87672168D01*
X146724463Y-87548918D01*
X146992252Y-87369987D01*
X147126826Y-87235413D01*
X149494192Y-87235413D01*
X149589956Y-87499814D01*
X149879571Y-87640704D01*
X150191108Y-87722384D01*
X150512595Y-87741718D01*
X150831675Y-87697961D01*
X150964942Y-87651921D01*
X150994774Y-87801898D01*
X151072795Y-87990256D01*
X151186063Y-88159774D01*
X151330226Y-88303937D01*
X151499744Y-88417205D01*
X151688102Y-88495226D01*
X151888061Y-88535000D01*
X152091939Y-88535000D01*
X152291898Y-88495226D01*
X152480256Y-88417205D01*
X152649774Y-88303937D01*
X152793937Y-88159774D01*
X152907205Y-87990256D01*
X152985226Y-87801898D01*
X153025000Y-87601939D01*
X153025000Y-87398061D01*
X162555000Y-87398061D01*
X162555000Y-87601939D01*
X162594774Y-87801898D01*
X162672795Y-87990256D01*
X162786063Y-88159774D01*
X162930226Y-88303937D01*
X163099744Y-88417205D01*
X163288102Y-88495226D01*
X163488061Y-88535000D01*
X163691939Y-88535000D01*
X163891898Y-88495226D01*
X164080256Y-88417205D01*
X164249774Y-88303937D01*
X164393937Y-88159774D01*
X164507205Y-87990256D01*
X164585226Y-87801898D01*
X164625000Y-87601939D01*
X164625000Y-87398061D01*
X164585226Y-87198102D01*
X164507205Y-87009744D01*
X164393937Y-86840226D01*
X164249774Y-86696063D01*
X164080256Y-86582795D01*
X163891898Y-86504774D01*
X163691939Y-86465000D01*
X163488061Y-86465000D01*
X163288102Y-86504774D01*
X163099744Y-86582795D01*
X162930226Y-86696063D01*
X162786063Y-86840226D01*
X162672795Y-87009744D01*
X162594774Y-87198102D01*
X162555000Y-87398061D01*
X153025000Y-87398061D01*
X152985226Y-87198102D01*
X152907205Y-87009744D01*
X152793937Y-86840226D01*
X152649774Y-86696063D01*
X152480256Y-86582795D01*
X152291898Y-86504774D01*
X152091939Y-86465000D01*
X152044564Y-86465000D01*
X152072384Y-86358892D01*
X152091718Y-86037405D01*
X152047961Y-85718325D01*
X151942795Y-85413912D01*
X151849814Y-85239956D01*
X151585413Y-85144192D01*
X150629605Y-86100000D01*
X150643748Y-86114143D01*
X150464143Y-86293748D01*
X150450000Y-86279605D01*
X149494192Y-87235413D01*
X147126826Y-87235413D01*
X147219987Y-87142252D01*
X147398918Y-86874463D01*
X147522168Y-86576912D01*
X147585000Y-86261033D01*
X147585000Y-86162595D01*
X148808282Y-86162595D01*
X148852039Y-86481675D01*
X148957205Y-86786088D01*
X149050186Y-86960044D01*
X149314587Y-87055808D01*
X150270395Y-86100000D01*
X149314587Y-85144192D01*
X149050186Y-85239956D01*
X148909296Y-85529571D01*
X148827616Y-85841108D01*
X148808282Y-86162595D01*
X147585000Y-86162595D01*
X147585000Y-85938967D01*
X147522168Y-85623088D01*
X147398918Y-85325537D01*
X147219987Y-85057748D01*
X147126826Y-84964587D01*
X149494192Y-84964587D01*
X150450000Y-85920395D01*
X151405808Y-84964587D01*
X151363877Y-84848816D01*
X156215000Y-84848816D01*
X156215000Y-85151184D01*
X156273989Y-85447743D01*
X156389701Y-85727095D01*
X156557688Y-85978505D01*
X156771495Y-86192312D01*
X157022905Y-86360299D01*
X157302257Y-86476011D01*
X157598816Y-86535000D01*
X157901184Y-86535000D01*
X158197743Y-86476011D01*
X158477095Y-86360299D01*
X158728505Y-86192312D01*
X158942312Y-85978505D01*
X159000000Y-85892169D01*
X159057688Y-85978505D01*
X159271495Y-86192312D01*
X159522905Y-86360299D01*
X159802257Y-86476011D01*
X160098816Y-86535000D01*
X160401184Y-86535000D01*
X160697743Y-86476011D01*
X160977095Y-86360299D01*
X161228505Y-86192312D01*
X161356737Y-86064080D01*
X161865525Y-86064080D01*
X161949208Y-86318261D01*
X162221775Y-86449158D01*
X162514642Y-86524365D01*
X162816553Y-86540991D01*
X163115907Y-86498397D01*
X163401199Y-86398222D01*
X163550792Y-86318261D01*
X163634475Y-86064080D01*
X162750000Y-85179605D01*
X161865525Y-86064080D01*
X161356737Y-86064080D01*
X161442312Y-85978505D01*
X161537738Y-85835690D01*
X161685920Y-85884475D01*
X162570395Y-85000000D01*
X162929605Y-85000000D01*
X163814080Y-85884475D01*
X164068261Y-85800792D01*
X164199158Y-85528225D01*
X164274365Y-85235358D01*
X164290991Y-84933447D01*
X164278950Y-84848816D01*
X174215000Y-84848816D01*
X174215000Y-85151184D01*
X174273989Y-85447743D01*
X174389701Y-85727095D01*
X174557688Y-85978505D01*
X174771495Y-86192312D01*
X175022905Y-86360299D01*
X175302257Y-86476011D01*
X175598816Y-86535000D01*
X175901184Y-86535000D01*
X176197743Y-86476011D01*
X176477095Y-86360299D01*
X176728505Y-86192312D01*
X176942312Y-85978505D01*
X177000000Y-85892169D01*
X177057688Y-85978505D01*
X177271495Y-86192312D01*
X177522905Y-86360299D01*
X177802257Y-86476011D01*
X178098816Y-86535000D01*
X178401184Y-86535000D01*
X178697743Y-86476011D01*
X178977095Y-86360299D01*
X179228505Y-86192312D01*
X179356737Y-86064080D01*
X179865525Y-86064080D01*
X179949208Y-86318261D01*
X180221775Y-86449158D01*
X180514642Y-86524365D01*
X180816553Y-86540991D01*
X181115907Y-86498397D01*
X181401199Y-86398222D01*
X181550792Y-86318261D01*
X181634475Y-86064080D01*
X180750000Y-85179605D01*
X179865525Y-86064080D01*
X179356737Y-86064080D01*
X179442312Y-85978505D01*
X179537738Y-85835690D01*
X179685920Y-85884475D01*
X180570395Y-85000000D01*
X180929605Y-85000000D01*
X181814080Y-85884475D01*
X182068261Y-85800792D01*
X182199158Y-85528225D01*
X182274365Y-85235358D01*
X182290991Y-84933447D01*
X182248397Y-84634093D01*
X182148222Y-84348801D01*
X182068261Y-84199208D01*
X181814080Y-84115525D01*
X180929605Y-85000000D01*
X180570395Y-85000000D01*
X179685920Y-84115525D01*
X179537738Y-84164310D01*
X179442312Y-84021495D01*
X179356737Y-83935920D01*
X179865525Y-83935920D01*
X180750000Y-84820395D01*
X181634475Y-83935920D01*
X181550792Y-83681739D01*
X181278225Y-83550842D01*
X180985358Y-83475635D01*
X180683447Y-83459009D01*
X180384093Y-83501603D01*
X180098801Y-83601778D01*
X179949208Y-83681739D01*
X179865525Y-83935920D01*
X179356737Y-83935920D01*
X179228505Y-83807688D01*
X178977095Y-83639701D01*
X178697743Y-83523989D01*
X178401184Y-83465000D01*
X178098816Y-83465000D01*
X177802257Y-83523989D01*
X177522905Y-83639701D01*
X177271495Y-83807688D01*
X177057688Y-84021495D01*
X177000000Y-84107831D01*
X176942312Y-84021495D01*
X176728505Y-83807688D01*
X176477095Y-83639701D01*
X176197743Y-83523989D01*
X175901184Y-83465000D01*
X175598816Y-83465000D01*
X175302257Y-83523989D01*
X175022905Y-83639701D01*
X174771495Y-83807688D01*
X174557688Y-84021495D01*
X174389701Y-84272905D01*
X174273989Y-84552257D01*
X174215000Y-84848816D01*
X164278950Y-84848816D01*
X164248397Y-84634093D01*
X164148222Y-84348801D01*
X164068261Y-84199208D01*
X163814080Y-84115525D01*
X162929605Y-85000000D01*
X162570395Y-85000000D01*
X161685920Y-84115525D01*
X161537738Y-84164310D01*
X161442312Y-84021495D01*
X161356737Y-83935920D01*
X161865525Y-83935920D01*
X162750000Y-84820395D01*
X163634475Y-83935920D01*
X163550792Y-83681739D01*
X163278225Y-83550842D01*
X162985358Y-83475635D01*
X162683447Y-83459009D01*
X162384093Y-83501603D01*
X162098801Y-83601778D01*
X161949208Y-83681739D01*
X161865525Y-83935920D01*
X161356737Y-83935920D01*
X161228505Y-83807688D01*
X160977095Y-83639701D01*
X160697743Y-83523989D01*
X160401184Y-83465000D01*
X160098816Y-83465000D01*
X159802257Y-83523989D01*
X159522905Y-83639701D01*
X159271495Y-83807688D01*
X159057688Y-84021495D01*
X159000000Y-84107831D01*
X158942312Y-84021495D01*
X158728505Y-83807688D01*
X158477095Y-83639701D01*
X158197743Y-83523989D01*
X157901184Y-83465000D01*
X157598816Y-83465000D01*
X157302257Y-83523989D01*
X157022905Y-83639701D01*
X156771495Y-83807688D01*
X156557688Y-84021495D01*
X156389701Y-84272905D01*
X156273989Y-84552257D01*
X156215000Y-84848816D01*
X151363877Y-84848816D01*
X151310044Y-84700186D01*
X151020429Y-84559296D01*
X150708892Y-84477616D01*
X150387405Y-84458282D01*
X150068325Y-84502039D01*
X149763912Y-84607205D01*
X149589956Y-84700186D01*
X149494192Y-84964587D01*
X147126826Y-84964587D01*
X146992252Y-84830013D01*
X146724463Y-84651082D01*
X146426912Y-84527832D01*
X146111033Y-84465000D01*
X145788967Y-84465000D01*
X145473088Y-84527832D01*
X145175537Y-84651082D01*
X144907748Y-84830013D01*
X144680013Y-85057748D01*
X144501082Y-85325537D01*
X144377832Y-85623088D01*
X144315000Y-85938967D01*
X143585000Y-85938967D01*
X143522168Y-85623088D01*
X143398918Y-85325537D01*
X143219987Y-85057748D01*
X142992252Y-84830013D01*
X142724463Y-84651082D01*
X142426912Y-84527832D01*
X142111033Y-84465000D01*
X141788967Y-84465000D01*
X141473088Y-84527832D01*
X141175537Y-84651082D01*
X140907748Y-84830013D01*
X140680013Y-85057748D01*
X140501082Y-85325537D01*
X140377832Y-85623088D01*
X140315000Y-85938967D01*
X139078219Y-85938967D01*
X139047961Y-85718325D01*
X138942795Y-85413912D01*
X138849814Y-85239956D01*
X138585413Y-85144192D01*
X137629605Y-86100000D01*
X137270395Y-86100000D01*
X137256253Y-86085858D01*
X137435858Y-85906253D01*
X137450000Y-85920395D01*
X138405808Y-84964587D01*
X138310044Y-84700186D01*
X138020429Y-84559296D01*
X137708892Y-84477616D01*
X137387405Y-84458282D01*
X137068325Y-84502039D01*
X136763912Y-84607205D01*
X136598634Y-84695548D01*
X136753393Y-84463934D01*
X136906796Y-84093587D01*
X136985000Y-83700430D01*
X136985000Y-83299570D01*
X136906796Y-82906413D01*
X136753393Y-82536066D01*
X136530687Y-82202763D01*
X136247237Y-81919313D01*
X135913934Y-81696607D01*
X135543587Y-81543204D01*
X135150430Y-81465000D01*
X134749570Y-81465000D01*
X134356413Y-81543204D01*
X133986066Y-81696607D01*
X133652763Y-81919313D01*
X133369313Y-82202763D01*
X133146607Y-82536066D01*
X132993204Y-82906413D01*
X132915000Y-83299570D01*
X129505410Y-83299570D01*
X129485226Y-83198102D01*
X129407205Y-83009744D01*
X129293937Y-82840226D01*
X129149774Y-82696063D01*
X128980256Y-82582795D01*
X128791898Y-82504774D01*
X128591939Y-82465000D01*
X128388061Y-82465000D01*
X128188102Y-82504774D01*
X127999744Y-82582795D01*
X127830226Y-82696063D01*
X127686063Y-82840226D01*
X127572795Y-83009744D01*
X127494774Y-83198102D01*
X127455000Y-83398061D01*
X91401989Y-83398061D01*
X91407205Y-83390256D01*
X91485226Y-83201898D01*
X91525000Y-83001939D01*
X91525000Y-82798061D01*
X91485226Y-82598102D01*
X91407205Y-82409744D01*
X91293937Y-82240226D01*
X91149774Y-82096063D01*
X90980256Y-81982795D01*
X90791898Y-81904774D01*
X90591939Y-81865000D01*
X90388061Y-81865000D01*
X90188102Y-81904774D01*
X89999744Y-81982795D01*
X89830226Y-82096063D01*
X89686063Y-82240226D01*
X89572795Y-82409744D01*
X89494774Y-82598102D01*
X89455000Y-82798061D01*
X89196440Y-82798061D01*
X89293937Y-82700564D01*
X89407205Y-82531046D01*
X89485226Y-82342688D01*
X89525000Y-82142729D01*
X89525000Y-81938851D01*
X89485226Y-81738892D01*
X89407205Y-81550534D01*
X89305327Y-81398061D01*
X93455000Y-81398061D01*
X93455000Y-81601939D01*
X93494774Y-81801898D01*
X93572795Y-81990256D01*
X93686063Y-82159774D01*
X93830226Y-82303937D01*
X93999744Y-82417205D01*
X94188102Y-82495226D01*
X94388061Y-82535000D01*
X94591939Y-82535000D01*
X94791898Y-82495226D01*
X94980256Y-82417205D01*
X95149774Y-82303937D01*
X95293937Y-82159774D01*
X95407205Y-81990256D01*
X95445393Y-81898061D01*
X118455000Y-81898061D01*
X118455000Y-82101939D01*
X118494774Y-82301898D01*
X118572795Y-82490256D01*
X118686063Y-82659774D01*
X118830226Y-82803937D01*
X118999744Y-82917205D01*
X119188102Y-82995226D01*
X119388061Y-83035000D01*
X119591939Y-83035000D01*
X119791898Y-82995226D01*
X119980256Y-82917205D01*
X120149774Y-82803937D01*
X120293937Y-82659774D01*
X120407205Y-82490256D01*
X120485226Y-82301898D01*
X120525000Y-82101939D01*
X120525000Y-81898061D01*
X120485226Y-81698102D01*
X120407205Y-81509744D01*
X120293937Y-81340226D01*
X120149774Y-81196063D01*
X119980256Y-81082795D01*
X119791898Y-81004774D01*
X119591939Y-80965000D01*
X119388061Y-80965000D01*
X119188102Y-81004774D01*
X118999744Y-81082795D01*
X118830226Y-81196063D01*
X118686063Y-81340226D01*
X118572795Y-81509744D01*
X118494774Y-81698102D01*
X118455000Y-81898061D01*
X95445393Y-81898061D01*
X95485226Y-81801898D01*
X95525000Y-81601939D01*
X95525000Y-81398061D01*
X95485226Y-81198102D01*
X95407205Y-81009744D01*
X95293937Y-80840226D01*
X95189124Y-80735413D01*
X136494192Y-80735413D01*
X136589956Y-80999814D01*
X136879571Y-81140704D01*
X137191108Y-81222384D01*
X137512595Y-81241718D01*
X137831675Y-81197961D01*
X138136088Y-81092795D01*
X138310044Y-80999814D01*
X138405808Y-80735413D01*
X137450000Y-79779605D01*
X136494192Y-80735413D01*
X95189124Y-80735413D01*
X95149774Y-80696063D01*
X94980256Y-80582795D01*
X94791898Y-80504774D01*
X94591939Y-80465000D01*
X94388061Y-80465000D01*
X94188102Y-80504774D01*
X93999744Y-80582795D01*
X93830226Y-80696063D01*
X93686063Y-80840226D01*
X93572795Y-81009744D01*
X93494774Y-81198102D01*
X93455000Y-81398061D01*
X89305327Y-81398061D01*
X89293937Y-81381016D01*
X89149774Y-81236853D01*
X88980256Y-81123585D01*
X88791898Y-81045564D01*
X88591939Y-81005790D01*
X88388061Y-81005790D01*
X88188102Y-81045564D01*
X87999744Y-81123585D01*
X87830226Y-81236853D01*
X87686063Y-81381016D01*
X87572795Y-81550534D01*
X87494774Y-81738892D01*
X87455000Y-81938851D01*
X76285000Y-81938851D01*
X76285000Y-79304495D01*
X76615000Y-79304495D01*
X76615000Y-79695505D01*
X76691282Y-80079003D01*
X76840915Y-80440250D01*
X77058149Y-80765364D01*
X77334636Y-81041851D01*
X77659750Y-81259085D01*
X78020997Y-81408718D01*
X78404495Y-81485000D01*
X78795505Y-81485000D01*
X79179003Y-81408718D01*
X79540250Y-81259085D01*
X79865364Y-81041851D01*
X80141851Y-80765364D01*
X80359085Y-80440250D01*
X80508718Y-80079003D01*
X80585000Y-79695505D01*
X80585000Y-79662595D01*
X135808282Y-79662595D01*
X135852039Y-79981675D01*
X135957205Y-80286088D01*
X136050186Y-80460044D01*
X136314587Y-80555808D01*
X137270395Y-79600000D01*
X137629605Y-79600000D01*
X138585413Y-80555808D01*
X138849814Y-80460044D01*
X138990704Y-80170429D01*
X139072384Y-79858892D01*
X139091718Y-79537405D01*
X139078219Y-79438967D01*
X140315000Y-79438967D01*
X140315000Y-79761033D01*
X140377832Y-80076912D01*
X140501082Y-80374463D01*
X140680013Y-80642252D01*
X140907748Y-80869987D01*
X141175537Y-81048918D01*
X141473088Y-81172168D01*
X141788967Y-81235000D01*
X142111033Y-81235000D01*
X142426912Y-81172168D01*
X142724463Y-81048918D01*
X142992252Y-80869987D01*
X143219987Y-80642252D01*
X143398918Y-80374463D01*
X143522168Y-80076912D01*
X143585000Y-79761033D01*
X143585000Y-79438967D01*
X144315000Y-79438967D01*
X144315000Y-79761033D01*
X144377832Y-80076912D01*
X144501082Y-80374463D01*
X144680013Y-80642252D01*
X144907748Y-80869987D01*
X145175537Y-81048918D01*
X145473088Y-81172168D01*
X145788967Y-81235000D01*
X146111033Y-81235000D01*
X146426912Y-81172168D01*
X146724463Y-81048918D01*
X146992252Y-80869987D01*
X147126826Y-80735413D01*
X149494192Y-80735413D01*
X149589956Y-80999814D01*
X149879571Y-81140704D01*
X150191108Y-81222384D01*
X150512595Y-81241718D01*
X150831675Y-81197961D01*
X151136088Y-81092795D01*
X151310044Y-80999814D01*
X151405808Y-80735413D01*
X150450000Y-79779605D01*
X149494192Y-80735413D01*
X147126826Y-80735413D01*
X147219987Y-80642252D01*
X147398918Y-80374463D01*
X147522168Y-80076912D01*
X147585000Y-79761033D01*
X147585000Y-79662595D01*
X148808282Y-79662595D01*
X148852039Y-79981675D01*
X148957205Y-80286088D01*
X149050186Y-80460044D01*
X149314587Y-80555808D01*
X150270395Y-79600000D01*
X150629605Y-79600000D01*
X151585413Y-80555808D01*
X151849814Y-80460044D01*
X151990704Y-80170429D01*
X152072384Y-79858892D01*
X152091718Y-79537405D01*
X152059778Y-79304495D01*
X152765000Y-79304495D01*
X152765000Y-79695505D01*
X152841282Y-80079003D01*
X152990915Y-80440250D01*
X153208149Y-80765364D01*
X153484636Y-81041851D01*
X153809750Y-81259085D01*
X154170997Y-81408718D01*
X154554495Y-81485000D01*
X154945505Y-81485000D01*
X155329003Y-81408718D01*
X155690250Y-81259085D01*
X156015364Y-81041851D01*
X156179154Y-80878061D01*
X163735000Y-80878061D01*
X163735000Y-81081939D01*
X163774774Y-81281898D01*
X163852795Y-81470256D01*
X163966063Y-81639774D01*
X164110226Y-81783937D01*
X164279744Y-81897205D01*
X164468102Y-81975226D01*
X164668061Y-82015000D01*
X164871939Y-82015000D01*
X165071898Y-81975226D01*
X165260256Y-81897205D01*
X165429774Y-81783937D01*
X165573937Y-81639774D01*
X165687205Y-81470256D01*
X165765226Y-81281898D01*
X165805000Y-81081939D01*
X165805000Y-80908061D01*
X181745000Y-80908061D01*
X181745000Y-81111939D01*
X181784774Y-81311898D01*
X181862795Y-81500256D01*
X181976063Y-81669774D01*
X182120226Y-81813937D01*
X182289744Y-81927205D01*
X182478102Y-82005226D01*
X182678061Y-82045000D01*
X182881939Y-82045000D01*
X183081898Y-82005226D01*
X183270256Y-81927205D01*
X183433601Y-81818061D01*
X189945000Y-81818061D01*
X189945000Y-82021939D01*
X189984774Y-82221898D01*
X190062795Y-82410256D01*
X190176063Y-82579774D01*
X190320226Y-82723937D01*
X190489744Y-82837205D01*
X190678102Y-82915226D01*
X190878061Y-82955000D01*
X191081939Y-82955000D01*
X191281898Y-82915226D01*
X191470256Y-82837205D01*
X191639774Y-82723937D01*
X191783937Y-82579774D01*
X191897205Y-82410256D01*
X191922654Y-82348816D01*
X192215000Y-82348816D01*
X192215000Y-82651184D01*
X192273989Y-82947743D01*
X192389701Y-83227095D01*
X192557688Y-83478505D01*
X192771495Y-83692312D01*
X192857831Y-83750000D01*
X192771495Y-83807688D01*
X192557688Y-84021495D01*
X192389701Y-84272905D01*
X192273989Y-84552257D01*
X192215000Y-84848816D01*
X192215000Y-85151184D01*
X192273989Y-85447743D01*
X192389701Y-85727095D01*
X192557688Y-85978505D01*
X192771495Y-86192312D01*
X193022905Y-86360299D01*
X193302257Y-86476011D01*
X193598816Y-86535000D01*
X193901184Y-86535000D01*
X194197743Y-86476011D01*
X194477095Y-86360299D01*
X194728505Y-86192312D01*
X194942312Y-85978505D01*
X195000000Y-85892169D01*
X195057688Y-85978505D01*
X195271495Y-86192312D01*
X195522905Y-86360299D01*
X195802257Y-86476011D01*
X196098816Y-86535000D01*
X196401184Y-86535000D01*
X196697743Y-86476011D01*
X196977095Y-86360299D01*
X197228505Y-86192312D01*
X197356737Y-86064080D01*
X197865525Y-86064080D01*
X197949208Y-86318261D01*
X198221775Y-86449158D01*
X198514642Y-86524365D01*
X198816553Y-86540991D01*
X199115907Y-86498397D01*
X199401199Y-86398222D01*
X199550792Y-86318261D01*
X199634475Y-86064080D01*
X198750000Y-85179605D01*
X197865525Y-86064080D01*
X197356737Y-86064080D01*
X197442312Y-85978505D01*
X197537738Y-85835690D01*
X197685920Y-85884475D01*
X198570395Y-85000000D01*
X198929605Y-85000000D01*
X199814080Y-85884475D01*
X200068261Y-85800792D01*
X200199158Y-85528225D01*
X200274365Y-85235358D01*
X200290991Y-84933447D01*
X200248397Y-84634093D01*
X200148222Y-84348801D01*
X200068261Y-84199208D01*
X199814080Y-84115525D01*
X198929605Y-85000000D01*
X198570395Y-85000000D01*
X197685920Y-84115525D01*
X197537738Y-84164310D01*
X197442312Y-84021495D01*
X197228505Y-83807688D01*
X196977095Y-83639701D01*
X196697743Y-83523989D01*
X196401184Y-83465000D01*
X196098816Y-83465000D01*
X195802257Y-83523989D01*
X195522905Y-83639701D01*
X195271495Y-83807688D01*
X195057688Y-84021495D01*
X195000000Y-84107831D01*
X194942312Y-84021495D01*
X194728505Y-83807688D01*
X194642169Y-83750000D01*
X194728505Y-83692312D01*
X194942312Y-83478505D01*
X195110299Y-83227095D01*
X195226011Y-82947743D01*
X195285000Y-82651184D01*
X195285000Y-82348816D01*
X197215000Y-82348816D01*
X197215000Y-82651184D01*
X197273989Y-82947743D01*
X197389701Y-83227095D01*
X197557688Y-83478505D01*
X197771495Y-83692312D01*
X197914310Y-83787738D01*
X197865525Y-83935920D01*
X198750000Y-84820395D01*
X199634475Y-83935920D01*
X199585690Y-83787738D01*
X199728505Y-83692312D01*
X199942312Y-83478505D01*
X200110299Y-83227095D01*
X200226011Y-82947743D01*
X200285000Y-82651184D01*
X200285000Y-82348816D01*
X200226011Y-82052257D01*
X200110299Y-81772905D01*
X199942312Y-81521495D01*
X199728505Y-81307688D01*
X199477095Y-81139701D01*
X199197743Y-81023989D01*
X198901184Y-80965000D01*
X198598816Y-80965000D01*
X198302257Y-81023989D01*
X198022905Y-81139701D01*
X197771495Y-81307688D01*
X197557688Y-81521495D01*
X197389701Y-81772905D01*
X197273989Y-82052257D01*
X197215000Y-82348816D01*
X195285000Y-82348816D01*
X195226011Y-82052257D01*
X195110299Y-81772905D01*
X194942312Y-81521495D01*
X194728505Y-81307688D01*
X194477095Y-81139701D01*
X194197743Y-81023989D01*
X193901184Y-80965000D01*
X193598816Y-80965000D01*
X193302257Y-81023989D01*
X193022905Y-81139701D01*
X192771495Y-81307688D01*
X192557688Y-81521495D01*
X192389701Y-81772905D01*
X192273989Y-82052257D01*
X192215000Y-82348816D01*
X191922654Y-82348816D01*
X191975226Y-82221898D01*
X192015000Y-82021939D01*
X192015000Y-81818061D01*
X191975226Y-81618102D01*
X191897205Y-81429744D01*
X191783937Y-81260226D01*
X191639774Y-81116063D01*
X191470256Y-81002795D01*
X191281898Y-80924774D01*
X191081939Y-80885000D01*
X190878061Y-80885000D01*
X190678102Y-80924774D01*
X190489744Y-81002795D01*
X190320226Y-81116063D01*
X190176063Y-81260226D01*
X190062795Y-81429744D01*
X189984774Y-81618102D01*
X189945000Y-81818061D01*
X183433601Y-81818061D01*
X183439774Y-81813937D01*
X183583937Y-81669774D01*
X183697205Y-81500256D01*
X183775226Y-81311898D01*
X183815000Y-81111939D01*
X183815000Y-80908061D01*
X183775226Y-80708102D01*
X183697205Y-80519744D01*
X183583937Y-80350226D01*
X183439774Y-80206063D01*
X183270256Y-80092795D01*
X183081898Y-80014774D01*
X182881939Y-79975000D01*
X182678061Y-79975000D01*
X182478102Y-80014774D01*
X182289744Y-80092795D01*
X182120226Y-80206063D01*
X181976063Y-80350226D01*
X181862795Y-80519744D01*
X181784774Y-80708102D01*
X181745000Y-80908061D01*
X165805000Y-80908061D01*
X165805000Y-80878061D01*
X165765226Y-80678102D01*
X165687205Y-80489744D01*
X165573937Y-80320226D01*
X165429774Y-80176063D01*
X165260256Y-80062795D01*
X165071898Y-79984774D01*
X164871939Y-79945000D01*
X164668061Y-79945000D01*
X164468102Y-79984774D01*
X164279744Y-80062795D01*
X164110226Y-80176063D01*
X163966063Y-80320226D01*
X163852795Y-80489744D01*
X163774774Y-80678102D01*
X163735000Y-80878061D01*
X156179154Y-80878061D01*
X156291851Y-80765364D01*
X156509085Y-80440250D01*
X156658718Y-80079003D01*
X156735000Y-79695505D01*
X156735000Y-79304495D01*
X205665000Y-79304495D01*
X205665000Y-79695505D01*
X205741282Y-80079003D01*
X205890915Y-80440250D01*
X206108149Y-80765364D01*
X206384636Y-81041851D01*
X206709750Y-81259085D01*
X207070997Y-81408718D01*
X207454495Y-81485000D01*
X207845505Y-81485000D01*
X208229003Y-81408718D01*
X208590250Y-81259085D01*
X208915364Y-81041851D01*
X209191851Y-80765364D01*
X209409085Y-80440250D01*
X209558718Y-80079003D01*
X209635000Y-79695505D01*
X209635000Y-79304495D01*
X209558718Y-78920997D01*
X209409085Y-78559750D01*
X209191851Y-78234636D01*
X208915364Y-77958149D01*
X208590250Y-77740915D01*
X208229003Y-77591282D01*
X207845505Y-77515000D01*
X207454495Y-77515000D01*
X207070997Y-77591282D01*
X206709750Y-77740915D01*
X206384636Y-77958149D01*
X206108149Y-78234636D01*
X205890915Y-78559750D01*
X205741282Y-78920997D01*
X205665000Y-79304495D01*
X156735000Y-79304495D01*
X156658718Y-78920997D01*
X156509085Y-78559750D01*
X156291851Y-78234636D01*
X156015364Y-77958149D01*
X155690250Y-77740915D01*
X155329003Y-77591282D01*
X154945505Y-77515000D01*
X154554495Y-77515000D01*
X154170997Y-77591282D01*
X153809750Y-77740915D01*
X153484636Y-77958149D01*
X153208149Y-78234636D01*
X152990915Y-78559750D01*
X152841282Y-78920997D01*
X152765000Y-79304495D01*
X152059778Y-79304495D01*
X152047961Y-79218325D01*
X151942795Y-78913912D01*
X151849814Y-78739956D01*
X151585413Y-78644192D01*
X150629605Y-79600000D01*
X150270395Y-79600000D01*
X149314587Y-78644192D01*
X149050186Y-78739956D01*
X148909296Y-79029571D01*
X148827616Y-79341108D01*
X148808282Y-79662595D01*
X147585000Y-79662595D01*
X147585000Y-79438967D01*
X147522168Y-79123088D01*
X147398918Y-78825537D01*
X147219987Y-78557748D01*
X147126826Y-78464587D01*
X149494192Y-78464587D01*
X150450000Y-79420395D01*
X151405808Y-78464587D01*
X151310044Y-78200186D01*
X151020429Y-78059296D01*
X150708892Y-77977616D01*
X150387405Y-77958282D01*
X150068325Y-78002039D01*
X149763912Y-78107205D01*
X149589956Y-78200186D01*
X149494192Y-78464587D01*
X147126826Y-78464587D01*
X146992252Y-78330013D01*
X146724463Y-78151082D01*
X146426912Y-78027832D01*
X146111033Y-77965000D01*
X145788967Y-77965000D01*
X145473088Y-78027832D01*
X145175537Y-78151082D01*
X144907748Y-78330013D01*
X144680013Y-78557748D01*
X144501082Y-78825537D01*
X144377832Y-79123088D01*
X144315000Y-79438967D01*
X143585000Y-79438967D01*
X143522168Y-79123088D01*
X143398918Y-78825537D01*
X143219987Y-78557748D01*
X142992252Y-78330013D01*
X142724463Y-78151082D01*
X142426912Y-78027832D01*
X142111033Y-77965000D01*
X141788967Y-77965000D01*
X141473088Y-78027832D01*
X141175537Y-78151082D01*
X140907748Y-78330013D01*
X140680013Y-78557748D01*
X140501082Y-78825537D01*
X140377832Y-79123088D01*
X140315000Y-79438967D01*
X139078219Y-79438967D01*
X139047961Y-79218325D01*
X138942795Y-78913912D01*
X138849814Y-78739956D01*
X138585413Y-78644192D01*
X137629605Y-79600000D01*
X137270395Y-79600000D01*
X136314587Y-78644192D01*
X136050186Y-78739956D01*
X135909296Y-79029571D01*
X135827616Y-79341108D01*
X135808282Y-79662595D01*
X80585000Y-79662595D01*
X80585000Y-79304495D01*
X80508718Y-78920997D01*
X80359085Y-78559750D01*
X80141851Y-78234636D01*
X79865364Y-77958149D01*
X79540250Y-77740915D01*
X79179003Y-77591282D01*
X78795505Y-77515000D01*
X78404495Y-77515000D01*
X78020997Y-77591282D01*
X77659750Y-77740915D01*
X77334636Y-77958149D01*
X77058149Y-78234636D01*
X76840915Y-78559750D01*
X76691282Y-78920997D01*
X76615000Y-79304495D01*
X76285000Y-79304495D01*
X76285000Y-77352000D01*
X91678196Y-77352000D01*
X91572795Y-77509744D01*
M02*
