M48
; DRILL file {KiCad (5.1.2)-1} date 5/25/2019 12:00:51 AM
; FORMAT={3:3/ absolute / metric / suppress leading zeros}
; #@! TF.CreationDate,2019-05-25T00:00:51-05:00
; #@! TF.GenerationSoftware,Kicad,Pcbnew,(5.1.2)-1
FMAT,2
METRIC,TZ
T1C0.400
T2C0.600
T3C0.762
T4C1.000
T5C1.100
T6C1.200
T7C1.600
T8C1.800
T9C1.850
T10C1.700
T11C1.850
T12C2.000
T13C2.700
T14C3.500
%
G90
G05
T1
X77720Y-37480
X79440Y-61550
X80490Y-51600
X80490Y-97050
X80940Y-59500
X81490Y-95000
X82490Y-51600
X82490Y-96950
X82540Y-57200
X84490Y-51600
X84490Y-95000
X86458Y-59482
X86490Y-55600
X86490Y-95000
X88490Y-51600
X88490Y-82041
X88940Y-37900
X89690Y-31750
X89690Y-37100
X89690Y-38700
X90055Y-28990
X90490Y-51600
X90490Y-82900
X92490Y-51600
X92490Y-78000
X92790Y-33900
X92940Y-41950
X93110Y-57570
X93540Y-34700
X93590Y-95000
X93740Y-27350
X94490Y-51600
X94490Y-81500
X94540Y-26700
X94540Y-42750
X95090Y-96000
X95340Y-27350
X95340Y-41950
X95590Y-34550
X96140Y-26700
X96140Y-42750
X96490Y-78000
X96590Y-97000
X96940Y-38200
X97190Y-58750
X97240Y-37100
X97490Y-51600
X97540Y-31600
X97740Y-38950
X98090Y-37900
X98140Y-98000
X98540Y-30700
X98940Y-38700
X99290Y-25650
X100790Y-47150
X101190Y-32250
X101340Y-58750
X101990Y-24500
X102740Y-51650
X103640Y-43050
X104640Y-43050
X105170Y-57500
X105310Y-34610
X105590Y-99500
X106190Y-25650
X107090Y-100500
X107840Y-63950
X107940Y-61350
X108290Y-55950
X109940Y-84700
X109940Y-88550
X109940Y-89800
X109990Y-46550
X110340Y-51450
X110850Y-61340
X112430Y-72190
X112875Y-53665
X113790Y-59850
X114090Y-88550
X114140Y-51450
X114140Y-53650
X114190Y-91050
X115390Y-85950
X116890Y-61330
X117940Y-51450
X119490Y-82000
X119490Y-84700
X119940Y-90036
X119990Y-55950
X119990Y-93500
X120840Y-59300
X120990Y-89000
X123090Y-89000
X123190Y-51750
X123280Y-46300
X123360Y-41420
X123690Y-37650
X124110Y-40590
X124490Y-92050
X124740Y-51750
X125340Y-42650
X125432Y-36800
X126240Y-51750
X126290Y-45600
X127540Y-43200
X127770Y-73620
X128490Y-83500
X128590Y-58250
X128590Y-59500
X130090Y-45600
X130840Y-98500
X131640Y-37250
X132490Y-50800
X132490Y-90950
X136390Y-35150
X141704Y-46840
X141704Y-48000
X141704Y-49160
X141704Y-50320
X142864Y-46840
X142864Y-48000
X142864Y-49160
X142864Y-50320
X143290Y-35450
X144024Y-46840
X144024Y-48000
X144024Y-49160
X144024Y-50320
X145184Y-46840
X145184Y-48000
X145184Y-49160
X145184Y-50320
X146344Y-46840
X146344Y-48000
X146344Y-49160
X146344Y-50320
X148880Y-46840
X148880Y-48000
X148880Y-49160
X148880Y-50320
X150040Y-46840
X150040Y-48000
X150040Y-49160
X150040Y-50320
X151200Y-46840
X151200Y-48000
X151200Y-49160
X151200Y-50320
X151890Y-35450
X151990Y-87500
X152360Y-46840
X152360Y-48000
X152360Y-49160
X152360Y-50320
X153520Y-46840
X153520Y-48000
X153520Y-49160
X153520Y-50320
X155928Y-46840
X155928Y-48000
X155928Y-49160
X155928Y-50320
X157088Y-46840
X157088Y-48000
X157088Y-49160
X157088Y-50320
X157490Y-35450
X158248Y-46840
X158248Y-48000
X158248Y-49160
X158248Y-50320
X159408Y-46840
X159408Y-48000
X159408Y-49160
X159408Y-50320
X160568Y-46840
X160568Y-48000
X160568Y-49160
X160568Y-50320
X163590Y-87500
X164770Y-80980
X165770Y-46840
X165770Y-48000
X165770Y-49160
X165770Y-50320
X166930Y-46840
X166930Y-48000
X166930Y-49160
X166930Y-50320
X167390Y-35450
X168090Y-46840
X168090Y-48000
X168090Y-49160
X168090Y-50320
X169250Y-46840
X169250Y-48000
X169250Y-49160
X169250Y-50320
X170410Y-46840
X170410Y-48000
X170410Y-49160
X170410Y-50320
X172880Y-46840
X172880Y-48000
X172880Y-49160
X172880Y-50320
X173820Y-78670
X174040Y-46840
X174040Y-48000
X174040Y-49160
X174040Y-50320
X175200Y-46840
X175200Y-48000
X175200Y-49160
X175200Y-50320
X175940Y-35450
X176360Y-46840
X176360Y-48000
X176360Y-49160
X176360Y-50320
X177520Y-46840
X177520Y-48000
X177520Y-49160
X177520Y-50320
X179994Y-46840
X179994Y-48000
X179994Y-49160
X179994Y-50320
X181154Y-46840
X181154Y-48000
X181154Y-49160
X181154Y-50320
X181590Y-35450
X182314Y-46840
X182314Y-48000
X182314Y-49160
X182314Y-50320
X182780Y-81010
X183474Y-46840
X183474Y-48000
X183474Y-49160
X183474Y-50320
X184634Y-46840
X184634Y-48000
X184634Y-49160
X184634Y-50320
X190980Y-81920
X191540Y-88433
X193220Y-78700
T2
X98965Y-90125
X107090Y-97500
X136390Y-40500
X145370Y-27690
X168290Y-27670
X205990Y-39460
X93550Y-102550
X95050Y-102550
X96550Y-102550
X98050Y-102550
X99550Y-102550
X101050Y-102550
X102550Y-102550
X104050Y-102550
X105550Y-102550
X107050Y-102550
X108550Y-102550
X110050Y-102550
X111550Y-102550
X113050Y-102550
T3
X143104Y-54960
X143104Y-57500
X143104Y-60040
X155296Y-54960
X155296Y-57500
X155296Y-60040
X165604Y-54960
X165604Y-57500
X165604Y-60040
X177796Y-54960
X177796Y-57500
X177796Y-60040
T4
X181140Y-58810
X181140Y-61350
X85590Y-26450
X85590Y-28990
X85590Y-31530
X88130Y-26450
X88130Y-28990
X88130Y-31530
X145950Y-94250
X145950Y-100750
X150450Y-94250
X150450Y-100750
X145950Y-79600
X145950Y-86100
X150450Y-79600
X150450Y-86100
X157750Y-85000
X160250Y-85000
X162750Y-85000
X95440Y-61420
X97980Y-61420
X100520Y-61420
X103060Y-61420
X193750Y-82500
X193750Y-85000
X196250Y-85000
X198750Y-82500
X198750Y-85000
X158640Y-58810
X158640Y-61350
X187100Y-25880
X187100Y-28420
X175750Y-85000
X178250Y-85000
X180750Y-85000
X134840Y-48270
X134840Y-50810
X134840Y-53350
X134840Y-55890
X134840Y-58430
X134840Y-60970
X137450Y-79600
X137450Y-86100
X141950Y-79600
X141950Y-86100
X137450Y-94250
X137450Y-100750
X141950Y-94250
X141950Y-100750
X120139Y-25766
X120139Y-28306
T5
X154200Y-27671
X156740Y-27671
X159280Y-27671
X177136Y-27671
X179676Y-27671
X182216Y-27671
X131340Y-27671
X133880Y-27671
X136420Y-27671
T6
X142094Y-40420
X142094Y-42550
X142094Y-44680
X144024Y-40420
X144024Y-42550
X144024Y-44680
X145954Y-40420
X145954Y-42550
X145954Y-44680
X149270Y-40450
X149270Y-42580
X149270Y-44710
X151200Y-40450
X151200Y-42580
X151200Y-44710
X153130Y-40450
X153130Y-42580
X153130Y-44710
X156318Y-40450
X156318Y-42580
X156318Y-44710
X158248Y-40450
X158248Y-42580
X158248Y-44710
X160178Y-40450
X160178Y-42580
X160178Y-44710
X166160Y-40450
X166160Y-42580
X166160Y-44710
X168090Y-40450
X168090Y-42580
X168090Y-44710
X170020Y-40450
X170020Y-42580
X170020Y-44710
X173270Y-40450
X173270Y-42580
X173270Y-44710
X175200Y-40450
X175200Y-42580
X175200Y-44710
X177130Y-40450
X177130Y-42580
X177130Y-44710
X180384Y-40450
X180384Y-42580
X180384Y-44710
X182314Y-40450
X182314Y-42580
X182314Y-44710
X184244Y-40450
X184244Y-42580
X184244Y-44710
X189202Y-48246
X189202Y-50376
X189202Y-52506
X191132Y-48246
X191132Y-50376
X191132Y-52506
X193062Y-48246
X193062Y-50376
X193062Y-52506
T7
X134950Y-83500
X134950Y-88500
T8
X190590Y-29940
X194400Y-29940
T9
X204250Y-54214
X204250Y-58024
X204250Y-61834
T10
X130250Y-67420
X130250Y-73420
X178250Y-67420
X178250Y-73420
X160250Y-67420
X160250Y-73420
X83750Y-67420
X83750Y-73420
X114750Y-67420
X114750Y-73420
X99250Y-67420
X99250Y-73420
T11
X201710Y-74534
X206790Y-74534
T12
X155850Y-92000
X164650Y-92000
X191850Y-92000
X200650Y-92000
X173850Y-92000
X182650Y-92000
T13
X154750Y-79500
X78600Y-79500
X207650Y-103000
X154750Y-103000
X207650Y-79500
X78600Y-103000
T14
X206770Y-26330
X79430Y-26330
T4
G00X192100Y-62596
M15
G01X194100Y-62596
M16
G05
G00X192100Y-68596
M15
G01X194100Y-68596
M16
G05
G00X197800Y-66596
M15
G01X197800Y-64596
M16
G05
T0
M30
