M48
; DRILL file {KiCad (5.1.2)-1} date 7/27/2019 1:44:38 PM
; FORMAT={3:3/ absolute / metric / suppress leading zeros}
; #@! TF.CreationDate,2019-07-27T13:44:38-05:00
; #@! TF.GenerationSoftware,Kicad,Pcbnew,(5.1.2)-1
FMAT,2
METRIC,TZ
T1C0.300
T2C0.400
T3C0.600
T4C0.762
T5C0.950
T6C1.000
T7C1.100
T8C1.200
T9C1.600
T10C1.850
T11C2.700
T12C1.700
T13C1.850
T14C2.000
T15C2.700
T16C3.500
%
G90
G05
T1
X186890Y-32470
X186890Y-33270
X186890Y-34070
X186890Y-34870
X186890Y-35670
X186890Y-36470
X186890Y-37270
X186890Y-38070
X186890Y-38870
X186890Y-39670
X186890Y-40470
X186890Y-41270
X186890Y-42070
X187690Y-32470
X187690Y-33270
X187690Y-34070
X187690Y-34870
X187690Y-35670
X187690Y-36470
X187690Y-37270
X187690Y-38070
X187690Y-38870
X187690Y-39670
X187690Y-40470
X187690Y-41270
X187690Y-42070
X190660Y-32480
X190660Y-33280
X190660Y-34080
X190660Y-34880
X190660Y-35680
X190660Y-36480
X190660Y-37280
X190660Y-38080
X190660Y-38880
X190660Y-39680
X190660Y-40480
X190660Y-41280
X190660Y-42080
X191460Y-32480
X191460Y-33280
X191460Y-34080
X191460Y-34880
X191460Y-35680
X191460Y-36480
X191460Y-37280
X191460Y-38080
X191460Y-38880
X191460Y-39680
X191460Y-40480
X191460Y-41280
X191460Y-42080
X192170Y-52190
X192170Y-52990
X192170Y-53790
X192170Y-54590
X192170Y-55390
X192170Y-56190
X192170Y-56990
X192170Y-57790
X192170Y-58590
X192170Y-59390
X192620Y-39310
X192620Y-40110
X192620Y-40910
X192620Y-41710
X192620Y-42510
X192630Y-33680
X192630Y-34480
X192630Y-35280
X192630Y-36080
X192630Y-36880
X192930Y-52180
X192940Y-59390
X193420Y-39310
X193420Y-40110
X193420Y-40910
X193420Y-41710
X193420Y-42510
X193430Y-33680
X193430Y-34480
X193430Y-35280
X193430Y-36080
X193430Y-36880
X193730Y-52180
X193740Y-59390
X194530Y-52180
X194540Y-59390
X195330Y-51410
X195330Y-52180
X195340Y-49130
X195340Y-49890
X195340Y-50650
X195340Y-59390
X196130Y-51410
X196130Y-52180
X196140Y-49130
X196140Y-49890
X196140Y-50650
X196140Y-59390
X196930Y-51410
X196930Y-52180
X196940Y-49130
X196940Y-49890
X196940Y-50650
X196940Y-59390
X197730Y-51410
X197730Y-52180
X197740Y-49130
X197740Y-49890
X197740Y-50650
X197740Y-59390
X198530Y-52180
X198540Y-59390
X199330Y-52180
X199340Y-59390
X200130Y-52170
X200130Y-52970
X200130Y-53770
X200130Y-54570
X200130Y-55370
X200130Y-56170
X200130Y-56970
X200130Y-57770
X200130Y-58570
X200140Y-59390
T2
X77720Y-37480
X79440Y-61550
X80490Y-51600
X80490Y-97050
X80940Y-59500
X81490Y-95000
X82490Y-51600
X82490Y-96950
X82540Y-57200
X84490Y-51600
X84490Y-95000
X86458Y-59482
X86490Y-55600
X86490Y-95000
X88490Y-51600
X88490Y-82041
X88940Y-37900
X89690Y-31750
X89690Y-37100
X89690Y-38700
X90055Y-28990
X90490Y-51600
X90490Y-82900
X92490Y-51600
X92490Y-78000
X92790Y-33900
X92940Y-41950
X93110Y-57570
X93540Y-34700
X93590Y-95000
X93740Y-27350
X94490Y-51600
X94490Y-81500
X94540Y-26700
X94540Y-42750
X95090Y-96000
X95340Y-27350
X95340Y-41950
X95590Y-34550
X96140Y-26700
X96140Y-42750
X96490Y-78000
X96590Y-97000
X96940Y-38200
X97190Y-58750
X97240Y-37100
X97490Y-51600
X97540Y-31600
X97740Y-38950
X98090Y-37900
X98140Y-98000
X98540Y-30700
X98940Y-38700
X99290Y-25650
X100790Y-47150
X101190Y-32250
X101340Y-58750
X101990Y-24500
X102740Y-51650
X103640Y-43050
X104640Y-43050
X105170Y-57500
X105310Y-34610
X105590Y-99500
X106190Y-25650
X107090Y-100500
X107840Y-63950
X107940Y-61350
X108290Y-55950
X109940Y-84700
X109940Y-88550
X109940Y-89800
X109990Y-46550
X110340Y-51450
X110850Y-61340
X112430Y-72190
X112875Y-53665
X113790Y-59850
X114090Y-88550
X114140Y-51450
X114140Y-53650
X114190Y-91050
X115390Y-85950
X116890Y-61330
X117940Y-51450
X119490Y-82000
X119490Y-84700
X119940Y-90036
X119990Y-55950
X119990Y-93500
X120840Y-59300
X120990Y-89000
X123090Y-89000
X123190Y-51750
X123280Y-46300
X123360Y-41420
X123690Y-37650
X124110Y-40590
X124490Y-92050
X124740Y-51750
X125340Y-42650
X125432Y-36800
X126240Y-51750
X126290Y-45600
X127540Y-43200
X127770Y-73620
X128490Y-83500
X128590Y-58250
X128590Y-59500
X130090Y-45600
X130840Y-98500
X131640Y-37250
X132490Y-50800
X132490Y-90950
X136390Y-35150
X141704Y-46840
X141704Y-48000
X141704Y-49160
X141704Y-50320
X142864Y-46840
X142864Y-48000
X142864Y-49160
X142864Y-50320
X143290Y-35450
X144024Y-46840
X144024Y-48000
X144024Y-49160
X144024Y-50320
X145184Y-46840
X145184Y-48000
X145184Y-49160
X145184Y-50320
X146344Y-46840
X146344Y-48000
X146344Y-49160
X146344Y-50320
X148880Y-46840
X148880Y-48000
X148880Y-49160
X148880Y-50320
X150040Y-46840
X150040Y-48000
X150040Y-49160
X150040Y-50320
X151200Y-46840
X151200Y-48000
X151200Y-49160
X151200Y-50320
X151890Y-35450
X151990Y-87500
X152360Y-46840
X152360Y-48000
X152360Y-49160
X152360Y-50320
X153520Y-46840
X153520Y-48000
X153520Y-49160
X153520Y-50320
X155928Y-46840
X155928Y-48000
X155928Y-49160
X155928Y-50320
X157088Y-46840
X157088Y-48000
X157088Y-49160
X157088Y-50320
X157490Y-35450
X158248Y-46840
X158248Y-48000
X158248Y-49160
X158248Y-50320
X159408Y-46840
X159408Y-48000
X159408Y-49160
X159408Y-50320
X160568Y-46840
X160568Y-48000
X160568Y-49160
X160568Y-50320
X163590Y-87500
X164770Y-80980
X165770Y-46840
X165770Y-48000
X165770Y-49160
X165770Y-50320
X166930Y-46840
X166930Y-48000
X166930Y-49160
X166930Y-50320
X167390Y-35450
X168090Y-46840
X168090Y-48000
X168090Y-49160
X168090Y-50320
X169250Y-46840
X169250Y-48000
X169250Y-49160
X169250Y-50320
X170410Y-46840
X170410Y-48000
X170410Y-49160
X170410Y-50320
X172880Y-46840
X172880Y-48000
X172880Y-49160
X172880Y-50320
X173820Y-78670
X174040Y-46840
X174040Y-48000
X174040Y-49160
X174040Y-50320
X174120Y-33070
X175200Y-46840
X175200Y-48000
X175200Y-49160
X175200Y-50320
X175940Y-35450
X176360Y-46840
X176360Y-48000
X176360Y-49160
X176360Y-50320
X177520Y-46840
X177520Y-48000
X177520Y-49160
X177520Y-50320
X178790Y-34140
X179994Y-46840
X179994Y-48000
X179994Y-49160
X179994Y-50320
X181154Y-46840
X181154Y-48000
X181154Y-49160
X181154Y-50320
X182314Y-46840
X182314Y-48000
X182314Y-49160
X182314Y-50320
X182780Y-81010
X183474Y-46840
X183474Y-48000
X183474Y-49160
X183474Y-50320
X184634Y-46840
X184634Y-48000
X184634Y-49160
X184634Y-50320
X190980Y-81920
X191540Y-88433
X193220Y-78700
X198780Y-25000
T3
X98965Y-90125
X107090Y-97500
X135930Y-27720
X136390Y-40500
X155170Y-27720
X203030Y-45090
X93550Y-102550
X95050Y-102550
X96550Y-102550
X98050Y-102550
X99550Y-102550
X101050Y-102550
X102550Y-102550
X104050Y-102550
X105550Y-102550
X107050Y-102550
X108550Y-102550
X110050Y-102550
X111550Y-102550
X113050Y-102550
T4
X143104Y-54960
X143104Y-57500
X143104Y-60040
X155296Y-54960
X155296Y-57500
X155296Y-60040
X165604Y-54960
X165604Y-57500
X165604Y-60040
X177796Y-54960
X177796Y-57500
X177796Y-60040
T5
X182740Y-26380
X185240Y-26380
X187740Y-26380
X190240Y-26380
T6
X137450Y-79600
X137450Y-86100
X141950Y-79600
X141950Y-86100
X181140Y-58810
X181140Y-61350
X157750Y-85000
X160250Y-85000
X162750Y-85000
X95440Y-61420
X97980Y-61420
X100520Y-61420
X103060Y-61420
X145950Y-94250
X145950Y-100750
X150450Y-94250
X150450Y-100750
X85590Y-26450
X85590Y-28990
X85590Y-31530
X88130Y-26450
X88130Y-28990
X88130Y-31530
X137450Y-94250
X137450Y-100750
X141950Y-94250
X141950Y-100750
X145950Y-79600
X145950Y-86100
X150450Y-79600
X150450Y-86100
X158640Y-58810
X158640Y-61350
X193750Y-82500
X193750Y-85000
X196250Y-85000
X198750Y-82500
X198750Y-85000
X175750Y-85000
X178250Y-85000
X180750Y-85000
X114299Y-25796
X114299Y-28336
X134840Y-48270
X134840Y-50810
X134840Y-53350
X134840Y-55890
X134840Y-58430
X134840Y-60970
T7
X143861Y-25340
X143861Y-27880
X143861Y-30420
X163101Y-25344
X163101Y-27884
X163101Y-30424
X124591Y-25350
X124591Y-27890
X124591Y-30430
T8
X142094Y-40420
X142094Y-42550
X142094Y-44680
X144024Y-40420
X144024Y-42550
X144024Y-44680
X145954Y-40420
X145954Y-42550
X145954Y-44680
X149270Y-40450
X149270Y-42580
X149270Y-44710
X151200Y-40450
X151200Y-42580
X151200Y-44710
X153130Y-40450
X153130Y-42580
X153130Y-44710
X156318Y-40450
X156318Y-42580
X156318Y-44710
X158248Y-40450
X158248Y-42580
X158248Y-44710
X160178Y-40450
X160178Y-42580
X160178Y-44710
X166160Y-40450
X166160Y-42580
X166160Y-44710
X168090Y-40450
X168090Y-42580
X168090Y-44710
X170020Y-40450
X170020Y-42580
X170020Y-44710
X173270Y-40450
X173270Y-42580
X173270Y-44710
X175200Y-40450
X175200Y-42580
X175200Y-44710
X177130Y-40450
X177130Y-42580
X177130Y-44710
X180384Y-40450
X180384Y-42580
X180384Y-44710
X182314Y-40450
X182314Y-42580
X182314Y-44710
X184244Y-40450
X184244Y-42580
X184244Y-44710
X194194Y-53912
X194194Y-55842
X194194Y-57772
X196324Y-53912
X196324Y-55842
X196324Y-57772
X198454Y-53912
X198454Y-55842
X198454Y-57772
T9
X134950Y-83500
X134950Y-88500
T10
X204250Y-54214
X204250Y-58024
X204250Y-61834
T11
X171360Y-26650
X176360Y-26650
T12
X99250Y-67420
X99250Y-73420
X178250Y-67420
X178250Y-73420
X130250Y-67420
X130250Y-73420
X160250Y-67420
X160250Y-73420
X114750Y-67420
X114750Y-73420
X83750Y-67420
X83750Y-73420
T13
X201710Y-74534
X206790Y-74534
T14
X155850Y-92000
X164650Y-92000
X191850Y-92000
X200650Y-92000
X173850Y-92000
X182650Y-92000
T15
X207650Y-103000
X207650Y-79500
X78600Y-103000
X78600Y-79500
X154750Y-103000
X154750Y-79500
T16
X206770Y-26330
X79430Y-26330
T6
G00X192100Y-62596
M15
G01X194100Y-62596
M16
G05
G00X192100Y-68596
M15
G01X194100Y-68596
M16
G05
G00X197800Y-66596
M15
G01X197800Y-64596
M16
G05
T0
M30
