G04 #@! TF.GenerationSoftware,KiCad,Pcbnew,(5.1.2)-1*
G04 #@! TF.CreationDate,2019-07-27T13:44:34-05:00*
G04 #@! TF.ProjectId,mk312,6d6b3331-322e-46b6-9963-61645f706362,rev?*
G04 #@! TF.SameCoordinates,Original*
G04 #@! TF.FileFunction,Legend,Top*
G04 #@! TF.FilePolarity,Positive*
%FSLAX46Y46*%
G04 Gerber Fmt 4.6, Leading zero omitted, Abs format (unit mm)*
G04 Created by KiCad (PCBNEW (5.1.2)-1) date 2019-07-27 13:44:34*
%MOMM*%
%LPD*%
G04 APERTURE LIST*
%ADD10C,0.150000*%
%ADD11C,0.120000*%
%ADD12C,0.200000*%
%ADD13C,0.050000*%
%ADD14C,0.100000*%
%ADD15C,0.254000*%
G04 APERTURE END LIST*
D10*
X175548095Y-57952380D02*
X175548095Y-56952380D01*
X175929047Y-56952380D01*
X176024285Y-57000000D01*
X176071904Y-57047619D01*
X176119523Y-57142857D01*
X176119523Y-57285714D01*
X176071904Y-57380952D01*
X176024285Y-57428571D01*
X175929047Y-57476190D01*
X175548095Y-57476190D01*
X152938095Y-57952380D02*
X152938095Y-56952380D01*
X153319047Y-56952380D01*
X153414285Y-57000000D01*
X153461904Y-57047619D01*
X153509523Y-57142857D01*
X153509523Y-57285714D01*
X153461904Y-57380952D01*
X153414285Y-57428571D01*
X153319047Y-57476190D01*
X152938095Y-57476190D01*
X133220000Y-37170000D02*
X133410000Y-37170000D01*
X133220000Y-35870000D02*
X133220000Y-37170000D01*
X127630000Y-35890000D02*
X133220000Y-35870000D01*
X127590000Y-32970000D02*
X127630000Y-35890000D01*
X136140000Y-32900000D02*
X127590000Y-32970000D01*
X136160000Y-37110000D02*
X136140000Y-32900000D01*
X133460000Y-37170000D02*
X136160000Y-37110000D01*
X118610000Y-36120000D02*
X106610000Y-36050000D01*
X118630000Y-30100000D02*
X118610000Y-36120000D01*
X106610000Y-30110000D02*
X118630000Y-30100000D01*
X160307142Y-101786904D02*
X160307142Y-100986904D01*
X160573809Y-101558333D01*
X160840476Y-100986904D01*
X160840476Y-101786904D01*
X161221428Y-101786904D02*
X161221428Y-100986904D01*
X161678571Y-101786904D02*
X161335714Y-101329761D01*
X161678571Y-100986904D02*
X161221428Y-101444047D01*
X161945238Y-100986904D02*
X162440476Y-100986904D01*
X162173809Y-101291666D01*
X162288095Y-101291666D01*
X162364285Y-101329761D01*
X162402380Y-101367857D01*
X162440476Y-101444047D01*
X162440476Y-101634523D01*
X162402380Y-101710714D01*
X162364285Y-101748809D01*
X162288095Y-101786904D01*
X162059523Y-101786904D01*
X161983333Y-101748809D01*
X161945238Y-101710714D01*
X163202380Y-101786904D02*
X162745238Y-101786904D01*
X162973809Y-101786904D02*
X162973809Y-100986904D01*
X162897619Y-101101190D01*
X162821428Y-101177380D01*
X162745238Y-101215476D01*
X163507142Y-101063095D02*
X163545238Y-101025000D01*
X163621428Y-100986904D01*
X163811904Y-100986904D01*
X163888095Y-101025000D01*
X163926190Y-101063095D01*
X163964285Y-101139285D01*
X163964285Y-101215476D01*
X163926190Y-101329761D01*
X163469047Y-101786904D01*
X163964285Y-101786904D01*
X164307142Y-101482142D02*
X164916666Y-101482142D01*
X165564285Y-101367857D02*
X165678571Y-101405952D01*
X165716666Y-101444047D01*
X165754761Y-101520238D01*
X165754761Y-101634523D01*
X165716666Y-101710714D01*
X165678571Y-101748809D01*
X165602380Y-101786904D01*
X165297619Y-101786904D01*
X165297619Y-100986904D01*
X165564285Y-100986904D01*
X165640476Y-101025000D01*
X165678571Y-101063095D01*
X165716666Y-101139285D01*
X165716666Y-101215476D01*
X165678571Y-101291666D01*
X165640476Y-101329761D01*
X165564285Y-101367857D01*
X165297619Y-101367857D01*
X165983333Y-100986904D02*
X166440476Y-100986904D01*
X166211904Y-101786904D02*
X166211904Y-100986904D01*
X166707142Y-101482142D02*
X167316666Y-101482142D01*
X167659523Y-101748809D02*
X167773809Y-101786904D01*
X167964285Y-101786904D01*
X168040476Y-101748809D01*
X168078571Y-101710714D01*
X168116666Y-101634523D01*
X168116666Y-101558333D01*
X168078571Y-101482142D01*
X168040476Y-101444047D01*
X167964285Y-101405952D01*
X167811904Y-101367857D01*
X167735714Y-101329761D01*
X167697619Y-101291666D01*
X167659523Y-101215476D01*
X167659523Y-101139285D01*
X167697619Y-101063095D01*
X167735714Y-101025000D01*
X167811904Y-100986904D01*
X168002380Y-100986904D01*
X168116666Y-101025000D01*
X168459523Y-101786904D02*
X168459523Y-100986904D01*
X168726190Y-101558333D01*
X168992857Y-100986904D01*
X168992857Y-101786904D01*
X169373809Y-101786904D02*
X169373809Y-100986904D01*
X169564285Y-100986904D01*
X169678571Y-101025000D01*
X169754761Y-101101190D01*
X169792857Y-101177380D01*
X169830952Y-101329761D01*
X169830952Y-101444047D01*
X169792857Y-101596428D01*
X169754761Y-101672619D01*
X169678571Y-101748809D01*
X169564285Y-101786904D01*
X169373809Y-101786904D01*
X160307142Y-103136904D02*
X160040476Y-102755952D01*
X159850000Y-103136904D02*
X159850000Y-102336904D01*
X160154761Y-102336904D01*
X160230952Y-102375000D01*
X160269047Y-102413095D01*
X160307142Y-102489285D01*
X160307142Y-102603571D01*
X160269047Y-102679761D01*
X160230952Y-102717857D01*
X160154761Y-102755952D01*
X159850000Y-102755952D01*
X160954761Y-103098809D02*
X160878571Y-103136904D01*
X160726190Y-103136904D01*
X160650000Y-103098809D01*
X160611904Y-103022619D01*
X160611904Y-102717857D01*
X160650000Y-102641666D01*
X160726190Y-102603571D01*
X160878571Y-102603571D01*
X160954761Y-102641666D01*
X160992857Y-102717857D01*
X160992857Y-102794047D01*
X160611904Y-102870238D01*
X161259523Y-102603571D02*
X161450000Y-103136904D01*
X161640476Y-102603571D01*
X162364285Y-103136904D02*
X161907142Y-103136904D01*
X162135714Y-103136904D02*
X162135714Y-102336904D01*
X162059523Y-102451190D01*
X161983333Y-102527380D01*
X161907142Y-102565476D01*
X163278571Y-102413095D02*
X163316666Y-102375000D01*
X163392857Y-102336904D01*
X163583333Y-102336904D01*
X163659523Y-102375000D01*
X163697619Y-102413095D01*
X163735714Y-102489285D01*
X163735714Y-102565476D01*
X163697619Y-102679761D01*
X163240476Y-103136904D01*
X163735714Y-103136904D01*
X164230952Y-102336904D02*
X164307142Y-102336904D01*
X164383333Y-102375000D01*
X164421428Y-102413095D01*
X164459523Y-102489285D01*
X164497619Y-102641666D01*
X164497619Y-102832142D01*
X164459523Y-102984523D01*
X164421428Y-103060714D01*
X164383333Y-103098809D01*
X164307142Y-103136904D01*
X164230952Y-103136904D01*
X164154761Y-103098809D01*
X164116666Y-103060714D01*
X164078571Y-102984523D01*
X164040476Y-102832142D01*
X164040476Y-102641666D01*
X164078571Y-102489285D01*
X164116666Y-102413095D01*
X164154761Y-102375000D01*
X164230952Y-102336904D01*
X165259523Y-103136904D02*
X164802380Y-103136904D01*
X165030952Y-103136904D02*
X165030952Y-102336904D01*
X164954761Y-102451190D01*
X164878571Y-102527380D01*
X164802380Y-102565476D01*
X165640476Y-103136904D02*
X165792857Y-103136904D01*
X165869047Y-103098809D01*
X165907142Y-103060714D01*
X165983333Y-102946428D01*
X166021428Y-102794047D01*
X166021428Y-102489285D01*
X165983333Y-102413095D01*
X165945238Y-102375000D01*
X165869047Y-102336904D01*
X165716666Y-102336904D01*
X165640476Y-102375000D01*
X165602380Y-102413095D01*
X165564285Y-102489285D01*
X165564285Y-102679761D01*
X165602380Y-102755952D01*
X165640476Y-102794047D01*
X165716666Y-102832142D01*
X165869047Y-102832142D01*
X165945238Y-102794047D01*
X165983333Y-102755952D01*
X166021428Y-102679761D01*
X166364285Y-102832142D02*
X166973809Y-102832142D01*
X167735714Y-102336904D02*
X167354761Y-102336904D01*
X167316666Y-102717857D01*
X167354761Y-102679761D01*
X167430952Y-102641666D01*
X167621428Y-102641666D01*
X167697619Y-102679761D01*
X167735714Y-102717857D01*
X167773809Y-102794047D01*
X167773809Y-102984523D01*
X167735714Y-103060714D01*
X167697619Y-103098809D01*
X167621428Y-103136904D01*
X167430952Y-103136904D01*
X167354761Y-103098809D01*
X167316666Y-103060714D01*
X168116666Y-102832142D02*
X168726190Y-102832142D01*
X169069047Y-102413095D02*
X169107142Y-102375000D01*
X169183333Y-102336904D01*
X169373809Y-102336904D01*
X169450000Y-102375000D01*
X169488095Y-102413095D01*
X169526190Y-102489285D01*
X169526190Y-102565476D01*
X169488095Y-102679761D01*
X169030952Y-103136904D01*
X169526190Y-103136904D01*
X170211904Y-102603571D02*
X170211904Y-103136904D01*
X170021428Y-102298809D02*
X169830952Y-102870238D01*
X170326190Y-102870238D01*
X85767142Y-44776904D02*
X85767142Y-43976904D01*
X86033809Y-44548333D01*
X86300476Y-43976904D01*
X86300476Y-44776904D01*
X86681428Y-44776904D02*
X86681428Y-43976904D01*
X87138571Y-44776904D02*
X86795714Y-44319761D01*
X87138571Y-43976904D02*
X86681428Y-44434047D01*
X87405238Y-43976904D02*
X87900476Y-43976904D01*
X87633809Y-44281666D01*
X87748095Y-44281666D01*
X87824285Y-44319761D01*
X87862380Y-44357857D01*
X87900476Y-44434047D01*
X87900476Y-44624523D01*
X87862380Y-44700714D01*
X87824285Y-44738809D01*
X87748095Y-44776904D01*
X87519523Y-44776904D01*
X87443333Y-44738809D01*
X87405238Y-44700714D01*
X88662380Y-44776904D02*
X88205238Y-44776904D01*
X88433809Y-44776904D02*
X88433809Y-43976904D01*
X88357619Y-44091190D01*
X88281428Y-44167380D01*
X88205238Y-44205476D01*
X88967142Y-44053095D02*
X89005238Y-44015000D01*
X89081428Y-43976904D01*
X89271904Y-43976904D01*
X89348095Y-44015000D01*
X89386190Y-44053095D01*
X89424285Y-44129285D01*
X89424285Y-44205476D01*
X89386190Y-44319761D01*
X88929047Y-44776904D01*
X89424285Y-44776904D01*
X89767142Y-44472142D02*
X90376666Y-44472142D01*
X91024285Y-44357857D02*
X91138571Y-44395952D01*
X91176666Y-44434047D01*
X91214761Y-44510238D01*
X91214761Y-44624523D01*
X91176666Y-44700714D01*
X91138571Y-44738809D01*
X91062380Y-44776904D01*
X90757619Y-44776904D01*
X90757619Y-43976904D01*
X91024285Y-43976904D01*
X91100476Y-44015000D01*
X91138571Y-44053095D01*
X91176666Y-44129285D01*
X91176666Y-44205476D01*
X91138571Y-44281666D01*
X91100476Y-44319761D01*
X91024285Y-44357857D01*
X90757619Y-44357857D01*
X91443333Y-43976904D02*
X91900476Y-43976904D01*
X91671904Y-44776904D02*
X91671904Y-43976904D01*
X92167142Y-44472142D02*
X92776666Y-44472142D01*
X93119523Y-44738809D02*
X93233809Y-44776904D01*
X93424285Y-44776904D01*
X93500476Y-44738809D01*
X93538571Y-44700714D01*
X93576666Y-44624523D01*
X93576666Y-44548333D01*
X93538571Y-44472142D01*
X93500476Y-44434047D01*
X93424285Y-44395952D01*
X93271904Y-44357857D01*
X93195714Y-44319761D01*
X93157619Y-44281666D01*
X93119523Y-44205476D01*
X93119523Y-44129285D01*
X93157619Y-44053095D01*
X93195714Y-44015000D01*
X93271904Y-43976904D01*
X93462380Y-43976904D01*
X93576666Y-44015000D01*
X93919523Y-44776904D02*
X93919523Y-43976904D01*
X94186190Y-44548333D01*
X94452857Y-43976904D01*
X94452857Y-44776904D01*
X94833809Y-44776904D02*
X94833809Y-43976904D01*
X95024285Y-43976904D01*
X95138571Y-44015000D01*
X95214761Y-44091190D01*
X95252857Y-44167380D01*
X95290952Y-44319761D01*
X95290952Y-44434047D01*
X95252857Y-44586428D01*
X95214761Y-44662619D01*
X95138571Y-44738809D01*
X95024285Y-44776904D01*
X94833809Y-44776904D01*
X85767142Y-46126904D02*
X85500476Y-45745952D01*
X85310000Y-46126904D02*
X85310000Y-45326904D01*
X85614761Y-45326904D01*
X85690952Y-45365000D01*
X85729047Y-45403095D01*
X85767142Y-45479285D01*
X85767142Y-45593571D01*
X85729047Y-45669761D01*
X85690952Y-45707857D01*
X85614761Y-45745952D01*
X85310000Y-45745952D01*
X86414761Y-46088809D02*
X86338571Y-46126904D01*
X86186190Y-46126904D01*
X86110000Y-46088809D01*
X86071904Y-46012619D01*
X86071904Y-45707857D01*
X86110000Y-45631666D01*
X86186190Y-45593571D01*
X86338571Y-45593571D01*
X86414761Y-45631666D01*
X86452857Y-45707857D01*
X86452857Y-45784047D01*
X86071904Y-45860238D01*
X86719523Y-45593571D02*
X86910000Y-46126904D01*
X87100476Y-45593571D01*
X87824285Y-46126904D02*
X87367142Y-46126904D01*
X87595714Y-46126904D02*
X87595714Y-45326904D01*
X87519523Y-45441190D01*
X87443333Y-45517380D01*
X87367142Y-45555476D01*
X88738571Y-45403095D02*
X88776666Y-45365000D01*
X88852857Y-45326904D01*
X89043333Y-45326904D01*
X89119523Y-45365000D01*
X89157619Y-45403095D01*
X89195714Y-45479285D01*
X89195714Y-45555476D01*
X89157619Y-45669761D01*
X88700476Y-46126904D01*
X89195714Y-46126904D01*
X89690952Y-45326904D02*
X89767142Y-45326904D01*
X89843333Y-45365000D01*
X89881428Y-45403095D01*
X89919523Y-45479285D01*
X89957619Y-45631666D01*
X89957619Y-45822142D01*
X89919523Y-45974523D01*
X89881428Y-46050714D01*
X89843333Y-46088809D01*
X89767142Y-46126904D01*
X89690952Y-46126904D01*
X89614761Y-46088809D01*
X89576666Y-46050714D01*
X89538571Y-45974523D01*
X89500476Y-45822142D01*
X89500476Y-45631666D01*
X89538571Y-45479285D01*
X89576666Y-45403095D01*
X89614761Y-45365000D01*
X89690952Y-45326904D01*
X90719523Y-46126904D02*
X90262380Y-46126904D01*
X90490952Y-46126904D02*
X90490952Y-45326904D01*
X90414761Y-45441190D01*
X90338571Y-45517380D01*
X90262380Y-45555476D01*
X91100476Y-46126904D02*
X91252857Y-46126904D01*
X91329047Y-46088809D01*
X91367142Y-46050714D01*
X91443333Y-45936428D01*
X91481428Y-45784047D01*
X91481428Y-45479285D01*
X91443333Y-45403095D01*
X91405238Y-45365000D01*
X91329047Y-45326904D01*
X91176666Y-45326904D01*
X91100476Y-45365000D01*
X91062380Y-45403095D01*
X91024285Y-45479285D01*
X91024285Y-45669761D01*
X91062380Y-45745952D01*
X91100476Y-45784047D01*
X91176666Y-45822142D01*
X91329047Y-45822142D01*
X91405238Y-45784047D01*
X91443333Y-45745952D01*
X91481428Y-45669761D01*
X91824285Y-45822142D02*
X92433809Y-45822142D01*
X93195714Y-45326904D02*
X92814761Y-45326904D01*
X92776666Y-45707857D01*
X92814761Y-45669761D01*
X92890952Y-45631666D01*
X93081428Y-45631666D01*
X93157619Y-45669761D01*
X93195714Y-45707857D01*
X93233809Y-45784047D01*
X93233809Y-45974523D01*
X93195714Y-46050714D01*
X93157619Y-46088809D01*
X93081428Y-46126904D01*
X92890952Y-46126904D01*
X92814761Y-46088809D01*
X92776666Y-46050714D01*
X93576666Y-45822142D02*
X94186190Y-45822142D01*
X94529047Y-45403095D02*
X94567142Y-45365000D01*
X94643333Y-45326904D01*
X94833809Y-45326904D01*
X94910000Y-45365000D01*
X94948095Y-45403095D01*
X94986190Y-45479285D01*
X94986190Y-45555476D01*
X94948095Y-45669761D01*
X94490952Y-46126904D01*
X94986190Y-46126904D01*
X95671904Y-45593571D02*
X95671904Y-46126904D01*
X95481428Y-45288809D02*
X95290952Y-45860238D01*
X95786190Y-45860238D01*
X120200000Y-44675000D02*
X120200000Y-37000000D01*
X121975000Y-47450000D02*
X120200000Y-44675000D01*
X103725000Y-56525000D02*
X106075000Y-56525000D01*
X106600000Y-55525000D02*
X104850000Y-56525000D01*
X106610000Y-30110000D02*
X106600000Y-55525000D01*
X120000000Y-52625000D02*
X121025000Y-52625000D01*
X120000000Y-52625000D02*
X118975000Y-52625000D01*
X120000000Y-47925000D02*
X120000000Y-52625000D01*
X117400000Y-45250000D02*
X120000000Y-47925000D01*
X118875000Y-37250000D02*
X118875000Y-45275000D01*
X107575000Y-37250000D02*
X118875000Y-37250000D01*
X107575000Y-45300000D02*
X107575000Y-37250000D01*
X118875000Y-45275000D02*
X107575000Y-45300000D01*
X136525000Y-45500000D02*
X138675000Y-48400000D01*
X135900000Y-45500000D02*
X136525000Y-45500000D01*
X132900000Y-45500000D02*
X135900000Y-45500000D01*
X131775000Y-46425000D02*
X132900000Y-45500000D01*
X131775000Y-49825000D02*
X131775000Y-46425000D01*
X130625000Y-49850000D02*
X132850000Y-49850000D01*
X137100000Y-50050000D02*
X137100000Y-48425000D01*
X138675000Y-50050000D02*
X137100000Y-50050000D01*
X138675000Y-61150000D02*
X138675000Y-50050000D01*
X140175000Y-61150000D02*
X138675000Y-61150000D01*
X140125000Y-48425000D02*
X140175000Y-61150000D01*
X137100000Y-48425000D02*
X140125000Y-48425000D01*
X121975000Y-48750000D02*
X121975000Y-46275000D01*
X120200000Y-37000000D02*
X120200000Y-31525000D01*
X127300000Y-37000000D02*
X120200000Y-37000000D01*
X127300000Y-33975000D02*
X127300000Y-37000000D01*
X123150000Y-33975000D02*
X127300000Y-33975000D01*
X123150000Y-31525000D02*
X123150000Y-33975000D01*
X120225000Y-31525000D02*
X123150000Y-31525000D01*
D11*
X195937936Y-26720000D02*
X200042064Y-26720000D01*
X195937936Y-23300000D02*
X200042064Y-23300000D01*
D10*
X199600000Y-39985000D02*
X199600000Y-34010000D01*
X205125000Y-38410000D02*
X205125000Y-34010000D01*
D11*
X206597221Y-33500000D02*
X206922779Y-33500000D01*
X206597221Y-32480000D02*
X206922779Y-32480000D01*
X205342779Y-30950000D02*
X205017221Y-30950000D01*
X205342779Y-31970000D02*
X205017221Y-31970000D01*
X202110000Y-30157221D02*
X202110000Y-30482779D01*
X203130000Y-30157221D02*
X203130000Y-30482779D01*
X200600000Y-30147221D02*
X200600000Y-30472779D01*
X201620000Y-30147221D02*
X201620000Y-30472779D01*
X199080000Y-30147221D02*
X199080000Y-30472779D01*
X200100000Y-30147221D02*
X200100000Y-30472779D01*
X206922779Y-34000000D02*
X206597221Y-34000000D01*
X206922779Y-35020000D02*
X206597221Y-35020000D01*
X195337221Y-31410000D02*
X195662779Y-31410000D01*
X195337221Y-30390000D02*
X195662779Y-30390000D01*
X199200000Y-40092779D02*
X199200000Y-39767221D01*
X198180000Y-40092779D02*
X198180000Y-39767221D01*
X207550000Y-39617221D02*
X207550000Y-39942779D01*
X208570000Y-39617221D02*
X208570000Y-39942779D01*
X199307221Y-42720000D02*
X199632779Y-42720000D01*
X199307221Y-41700000D02*
X199632779Y-41700000D01*
X179890000Y-23630000D02*
X179890000Y-24880000D01*
X181140000Y-23630000D02*
X179890000Y-23630000D01*
X192040000Y-29130000D02*
X186490000Y-29130000D01*
X192040000Y-26180000D02*
X192040000Y-29130000D01*
X192790000Y-26180000D02*
X192040000Y-26180000D01*
X180940000Y-29130000D02*
X186490000Y-29130000D01*
X180940000Y-26180000D02*
X180940000Y-29130000D01*
X180190000Y-26180000D02*
X180940000Y-26180000D01*
X192790000Y-23930000D02*
X190990000Y-23930000D01*
X192790000Y-24680000D02*
X192790000Y-23930000D01*
X190990000Y-24680000D02*
X192790000Y-24680000D01*
X190990000Y-23930000D02*
X190990000Y-24680000D01*
X181990000Y-23930000D02*
X180190000Y-23930000D01*
X181990000Y-24680000D02*
X181990000Y-23930000D01*
X180190000Y-24680000D02*
X181990000Y-24680000D01*
X180190000Y-23930000D02*
X180190000Y-24680000D01*
X189490000Y-23930000D02*
X183490000Y-23930000D01*
X189490000Y-24680000D02*
X189490000Y-23930000D01*
X183490000Y-24680000D02*
X189490000Y-24680000D01*
X183490000Y-23930000D02*
X183490000Y-24680000D01*
X192800000Y-23920000D02*
X180180000Y-23920000D01*
X192800000Y-29890000D02*
X192800000Y-23920000D01*
X180180000Y-29890000D02*
X192800000Y-29890000D01*
X180180000Y-23920000D02*
X180180000Y-29890000D01*
X168650000Y-25240000D02*
X168650000Y-28060000D01*
X168650000Y-28060000D02*
X170350000Y-29360000D01*
X168650000Y-25240000D02*
X170350000Y-23940000D01*
X170350000Y-29360000D02*
X179070000Y-29360000D01*
X179070000Y-23940000D02*
X179070000Y-29360000D01*
X170350000Y-23940000D02*
X179070000Y-23940000D01*
D12*
X195485000Y-37115000D02*
X193960000Y-37115000D01*
X193610000Y-32060000D02*
X193610000Y-36960000D01*
X190410000Y-32060000D02*
X193610000Y-32060000D01*
X190410000Y-36960000D02*
X190410000Y-32060000D01*
X193610000Y-36960000D02*
X190410000Y-36960000D01*
X195485000Y-42745000D02*
X193960000Y-42745000D01*
X193610000Y-37690000D02*
X193610000Y-42590000D01*
X190410000Y-37690000D02*
X193610000Y-37690000D01*
X190410000Y-42590000D02*
X190410000Y-37690000D01*
X193610000Y-42590000D02*
X190410000Y-42590000D01*
D11*
X206597221Y-37070000D02*
X206922779Y-37070000D01*
X206597221Y-36050000D02*
X206922779Y-36050000D01*
X208955563Y-51050000D02*
X210020000Y-49985563D01*
X204264437Y-51050000D02*
X203200000Y-49985563D01*
X204264437Y-51050000D02*
X205550000Y-51050000D01*
X208955563Y-51050000D02*
X207670000Y-51050000D01*
X210020000Y-49985563D02*
X210020000Y-44230000D01*
X203200000Y-49985563D02*
X203200000Y-44230000D01*
X203200000Y-44230000D02*
X205550000Y-44230000D01*
X210020000Y-44230000D02*
X207670000Y-44230000D01*
X201765563Y-51050000D02*
X202830000Y-49985563D01*
X197074437Y-51050000D02*
X196010000Y-49985563D01*
X197074437Y-51050000D02*
X198360000Y-51050000D01*
X201765563Y-51050000D02*
X200480000Y-51050000D01*
X202830000Y-49985563D02*
X202830000Y-44230000D01*
X196010000Y-49985563D02*
X196010000Y-44230000D01*
X196010000Y-44230000D02*
X198360000Y-44230000D01*
X202830000Y-44230000D02*
X200480000Y-44230000D01*
X171200000Y-80100000D02*
X171200000Y-80900000D01*
X171200000Y-80900000D02*
X167300000Y-80900000D01*
X171200000Y-77900000D02*
X167300000Y-77900000D01*
X162200000Y-80100000D02*
X162200000Y-80900000D01*
X162200000Y-80900000D02*
X158300000Y-80900000D01*
X162200000Y-77900000D02*
X158300000Y-77900000D01*
X180200000Y-80100000D02*
X180200000Y-80900000D01*
X180200000Y-80900000D02*
X176300000Y-80900000D01*
X180200000Y-77900000D02*
X176300000Y-77900000D01*
X194300000Y-78700000D02*
X194300000Y-77900000D01*
X194300000Y-77900000D02*
X198200000Y-77900000D01*
X194300000Y-80900000D02*
X198200000Y-80900000D01*
D10*
X156705700Y-51873900D02*
X156705700Y-63126100D01*
X156705700Y-51873900D02*
X141694300Y-51873900D01*
X141694300Y-51873900D02*
X141694300Y-63126100D01*
X156705700Y-63126100D02*
X141694300Y-63126100D01*
D11*
X201271000Y-85880000D02*
X201271000Y-89817000D01*
X201271000Y-94184000D02*
X201271000Y-97620000D01*
X191230000Y-85880000D02*
X191230000Y-89817000D01*
X191230000Y-94184000D02*
X191230000Y-97620000D01*
X201271000Y-85880000D02*
X199621000Y-85880000D01*
X197879000Y-85880000D02*
X197120000Y-85880000D01*
X195379000Y-85880000D02*
X194620000Y-85880000D01*
X192880000Y-85880000D02*
X191230000Y-85880000D01*
X201271000Y-97620000D02*
X191230000Y-97620000D01*
X183271000Y-97620000D02*
X173230000Y-97620000D01*
X174880000Y-85880000D02*
X173230000Y-85880000D01*
X177379000Y-85880000D02*
X176620000Y-85880000D01*
X179879000Y-85880000D02*
X179120000Y-85880000D01*
X183271000Y-85880000D02*
X181621000Y-85880000D01*
X173230000Y-94184000D02*
X173230000Y-97620000D01*
X173230000Y-85880000D02*
X173230000Y-89817000D01*
X183271000Y-94184000D02*
X183271000Y-97620000D01*
X183271000Y-85880000D02*
X183271000Y-89817000D01*
X165271000Y-97620000D02*
X155230000Y-97620000D01*
X156880000Y-85880000D02*
X155230000Y-85880000D01*
X159379000Y-85880000D02*
X158620000Y-85880000D01*
X161879000Y-85880000D02*
X161120000Y-85880000D01*
X165271000Y-85880000D02*
X163621000Y-85880000D01*
X155230000Y-94184000D02*
X155230000Y-97620000D01*
X155230000Y-85880000D02*
X155230000Y-89817000D01*
X165271000Y-94184000D02*
X165271000Y-97620000D01*
X165271000Y-85880000D02*
X165271000Y-89817000D01*
X136150000Y-79850000D02*
X136150000Y-92150000D01*
X136150000Y-79850000D02*
X136150000Y-92150000D01*
X114000000Y-102150000D02*
X131000000Y-102150000D01*
X84870000Y-91660000D02*
X127730000Y-91660000D01*
X127730000Y-80340000D02*
X127730000Y-91660000D01*
X84870000Y-80340000D02*
X84870000Y-91660000D01*
X84870000Y-80340000D02*
X127730000Y-80340000D01*
X83450000Y-93150000D02*
X129150000Y-93150000D01*
X129150000Y-78850000D02*
X129150000Y-93150000D01*
X83450000Y-78850000D02*
X83450000Y-93150000D01*
X83450000Y-78850000D02*
X129150000Y-78850000D01*
X132000000Y-95150000D02*
X136150000Y-92150000D01*
X136150000Y-79850000D02*
X132000000Y-76850000D01*
X131000000Y-95150000D02*
X81600000Y-95150000D01*
X131000000Y-95150000D02*
X132000000Y-95150000D01*
X131000000Y-76850000D02*
X132000000Y-76850000D01*
X136150000Y-79850000D02*
X136150000Y-92150000D01*
X81600000Y-76850000D02*
X81600000Y-102150000D01*
X81600000Y-102150000D02*
X92600000Y-102150000D01*
X131000000Y-76850000D02*
X131000000Y-102150000D01*
X81600000Y-76850000D02*
X131000000Y-76850000D01*
D10*
X136700000Y-80550000D02*
X136700000Y-85150000D01*
X140800000Y-79850000D02*
X138600000Y-79850000D01*
X142700000Y-80550000D02*
X142700000Y-85150000D01*
X140800000Y-85850000D02*
X138600000Y-85850000D01*
X137200000Y-78450000D02*
X137200000Y-77900000D01*
X137450000Y-78450000D02*
X137450000Y-78150000D01*
D13*
X141950000Y-78150000D02*
X141950000Y-87550000D01*
D10*
X141950000Y-80750000D02*
X141950000Y-84950000D01*
X142200000Y-80750000D02*
X142200000Y-84950000D01*
X142200000Y-87250000D02*
X142200000Y-87800000D01*
X141950000Y-87250000D02*
X141950000Y-87550000D01*
X137200000Y-84950000D02*
X137200000Y-80750000D01*
X137450000Y-84950000D02*
X137450000Y-80750000D01*
D13*
X142200000Y-77900000D02*
X142200000Y-87800000D01*
D10*
X137450000Y-78150000D02*
X141950000Y-78150000D01*
X137450000Y-87550000D02*
X137450000Y-87250000D01*
X141950000Y-87550000D02*
X137450000Y-87550000D01*
X141950000Y-78150000D02*
X141950000Y-78450000D01*
X142200000Y-77900000D02*
X142200000Y-78450000D01*
X137200000Y-77900000D02*
X142200000Y-77900000D01*
X137200000Y-87800000D02*
X137200000Y-87250000D01*
X142200000Y-87800000D02*
X137200000Y-87800000D01*
X151200000Y-85150000D02*
X151200000Y-80550000D01*
X147100000Y-85850000D02*
X149300000Y-85850000D01*
X145200000Y-85150000D02*
X145200000Y-80550000D01*
X147100000Y-79850000D02*
X149300000Y-79850000D01*
X150700000Y-87250000D02*
X150700000Y-87800000D01*
X150450000Y-87250000D02*
X150450000Y-87550000D01*
D13*
X145950000Y-87550000D02*
X145950000Y-78150000D01*
D10*
X145950000Y-84950000D02*
X145950000Y-80750000D01*
X145700000Y-84950000D02*
X145700000Y-80750000D01*
X145700000Y-78450000D02*
X145700000Y-77900000D01*
X145950000Y-78450000D02*
X145950000Y-78150000D01*
X150700000Y-80750000D02*
X150700000Y-84950000D01*
X150450000Y-80750000D02*
X150450000Y-84950000D01*
D13*
X145700000Y-87800000D02*
X145700000Y-77900000D01*
D10*
X150450000Y-87550000D02*
X145950000Y-87550000D01*
X150450000Y-78150000D02*
X150450000Y-78450000D01*
X145950000Y-78150000D02*
X150450000Y-78150000D01*
X145950000Y-87550000D02*
X145950000Y-87250000D01*
X145700000Y-87800000D02*
X145700000Y-87250000D01*
X150700000Y-87800000D02*
X145700000Y-87800000D01*
X150700000Y-77900000D02*
X150700000Y-78450000D01*
X145700000Y-77900000D02*
X150700000Y-77900000D01*
X136700000Y-95200000D02*
X136700000Y-99800000D01*
X140800000Y-94500000D02*
X138600000Y-94500000D01*
X142700000Y-95200000D02*
X142700000Y-99800000D01*
X140800000Y-100500000D02*
X138600000Y-100500000D01*
X137200000Y-93100000D02*
X137200000Y-92550000D01*
X137450000Y-93100000D02*
X137450000Y-92800000D01*
D13*
X141950000Y-92800000D02*
X141950000Y-102200000D01*
D10*
X141950000Y-95400000D02*
X141950000Y-99600000D01*
X142200000Y-95400000D02*
X142200000Y-99600000D01*
X142200000Y-101900000D02*
X142200000Y-102450000D01*
X141950000Y-101900000D02*
X141950000Y-102200000D01*
X137200000Y-99600000D02*
X137200000Y-95400000D01*
X137450000Y-99600000D02*
X137450000Y-95400000D01*
D13*
X142200000Y-92550000D02*
X142200000Y-102450000D01*
D10*
X137450000Y-92800000D02*
X141950000Y-92800000D01*
X137450000Y-102200000D02*
X137450000Y-101900000D01*
X141950000Y-102200000D02*
X137450000Y-102200000D01*
X141950000Y-92800000D02*
X141950000Y-93100000D01*
X142200000Y-92550000D02*
X142200000Y-93100000D01*
X137200000Y-92550000D02*
X142200000Y-92550000D01*
X137200000Y-102450000D02*
X137200000Y-101900000D01*
X142200000Y-102450000D02*
X137200000Y-102450000D01*
X151200000Y-99800000D02*
X151200000Y-95200000D01*
X147100000Y-100500000D02*
X149300000Y-100500000D01*
X145200000Y-99800000D02*
X145200000Y-95200000D01*
X147100000Y-94500000D02*
X149300000Y-94500000D01*
X150700000Y-101900000D02*
X150700000Y-102450000D01*
X150450000Y-101900000D02*
X150450000Y-102200000D01*
D13*
X145950000Y-102200000D02*
X145950000Y-92800000D01*
D10*
X145950000Y-99600000D02*
X145950000Y-95400000D01*
X145700000Y-99600000D02*
X145700000Y-95400000D01*
X145700000Y-93100000D02*
X145700000Y-92550000D01*
X145950000Y-93100000D02*
X145950000Y-92800000D01*
X150700000Y-95400000D02*
X150700000Y-99600000D01*
X150450000Y-95400000D02*
X150450000Y-99600000D01*
D13*
X145700000Y-102450000D02*
X145700000Y-92550000D01*
D10*
X150450000Y-102200000D02*
X145950000Y-102200000D01*
X150450000Y-92800000D02*
X150450000Y-93100000D01*
X145950000Y-92800000D02*
X150450000Y-92800000D01*
X145950000Y-102200000D02*
X145950000Y-101900000D01*
X145700000Y-102450000D02*
X145700000Y-101900000D01*
X150700000Y-102450000D02*
X145700000Y-102450000D01*
X150700000Y-92550000D02*
X150700000Y-93100000D01*
X145700000Y-92550000D02*
X150700000Y-92550000D01*
D11*
X89550000Y-59810000D02*
X87100000Y-59810000D01*
X87750000Y-63030000D02*
X89550000Y-63030000D01*
X188500000Y-61696000D02*
X191100000Y-61696000D01*
X188500000Y-76396000D02*
X188500000Y-61696000D01*
X197700000Y-61696000D02*
X197700000Y-63596000D01*
X195000000Y-61696000D02*
X197700000Y-61696000D01*
X197700000Y-76396000D02*
X188500000Y-76396000D01*
X197700000Y-67596000D02*
X197700000Y-76396000D01*
X188300000Y-62546000D02*
X188300000Y-61496000D01*
X189350000Y-61496000D02*
X188300000Y-61496000D01*
X127745000Y-52530000D02*
X124295000Y-52530000D01*
X127745000Y-52530000D02*
X129695000Y-52530000D01*
X127745000Y-62650000D02*
X125795000Y-62650000D01*
X127745000Y-62650000D02*
X129695000Y-62650000D01*
X164910000Y-37980000D02*
X164910000Y-36880000D01*
X164640000Y-37980000D02*
X164910000Y-37980000D01*
X164640000Y-39480000D02*
X164640000Y-37980000D01*
X171270000Y-37980000D02*
X171270000Y-35150000D01*
X171540000Y-37980000D02*
X171270000Y-37980000D01*
X171540000Y-39480000D02*
X171540000Y-37980000D01*
X172020000Y-37980000D02*
X172020000Y-36880000D01*
X171750000Y-37980000D02*
X172020000Y-37980000D01*
X171750000Y-39480000D02*
X171750000Y-37980000D01*
X178380000Y-37980000D02*
X178380000Y-35150000D01*
X178650000Y-37980000D02*
X178380000Y-37980000D01*
X178650000Y-39480000D02*
X178650000Y-37980000D01*
X179134000Y-37980000D02*
X179134000Y-36880000D01*
X178864000Y-37980000D02*
X179134000Y-37980000D01*
X178864000Y-39480000D02*
X178864000Y-37980000D01*
X185494000Y-37980000D02*
X185494000Y-35150000D01*
X185764000Y-37980000D02*
X185494000Y-37980000D01*
X185764000Y-39480000D02*
X185764000Y-37980000D01*
X140844000Y-37980000D02*
X140844000Y-36880000D01*
X140574000Y-37980000D02*
X140844000Y-37980000D01*
X140574000Y-39480000D02*
X140574000Y-37980000D01*
X147204000Y-37980000D02*
X147204000Y-35150000D01*
X147474000Y-37980000D02*
X147204000Y-37980000D01*
X147474000Y-39480000D02*
X147474000Y-37980000D01*
X148020000Y-37980000D02*
X148020000Y-36880000D01*
X147750000Y-37980000D02*
X148020000Y-37980000D01*
X147750000Y-39480000D02*
X147750000Y-37980000D01*
X154380000Y-37980000D02*
X154380000Y-35150000D01*
X154650000Y-37980000D02*
X154380000Y-37980000D01*
X154650000Y-39480000D02*
X154650000Y-37980000D01*
X155068000Y-37980000D02*
X155068000Y-36880000D01*
X154798000Y-37980000D02*
X155068000Y-37980000D01*
X154798000Y-39480000D02*
X154798000Y-37980000D01*
X161428000Y-37980000D02*
X161428000Y-35150000D01*
X161698000Y-37980000D02*
X161428000Y-37980000D01*
X161698000Y-39480000D02*
X161698000Y-37980000D01*
X166371000Y-29734800D02*
X164861000Y-29734800D01*
X166371000Y-26033800D02*
X164861000Y-26033800D01*
X164861000Y-22763800D02*
X164861000Y-33003800D01*
X166371000Y-33003800D02*
X161730000Y-33003800D01*
X166371000Y-22763800D02*
X161730000Y-22763800D01*
X161730000Y-22763800D02*
X161730000Y-33003800D01*
X166371000Y-22763800D02*
X166371000Y-33003800D01*
X147131000Y-29731000D02*
X145621000Y-29731000D01*
X147131000Y-26030000D02*
X145621000Y-26030000D01*
X145621000Y-22760000D02*
X145621000Y-33000000D01*
X147131000Y-33000000D02*
X142490000Y-33000000D01*
X147131000Y-22760000D02*
X142490000Y-22760000D01*
X142490000Y-22760000D02*
X142490000Y-33000000D01*
X147131000Y-22760000D02*
X147131000Y-33000000D01*
X127861000Y-29741000D02*
X126351000Y-29741000D01*
X127861000Y-26040000D02*
X126351000Y-26040000D01*
X126351000Y-22770000D02*
X126351000Y-33010000D01*
X127861000Y-33010000D02*
X123220000Y-33010000D01*
X127861000Y-22770000D02*
X123220000Y-22770000D01*
X123220000Y-22770000D02*
X123220000Y-33010000D01*
X127861000Y-22770000D02*
X127861000Y-33010000D01*
X191717800Y-59041600D02*
X190617800Y-59041600D01*
X191717800Y-59311600D02*
X191717800Y-59041600D01*
X193217800Y-59311600D02*
X191717800Y-59311600D01*
X191717800Y-52681600D02*
X188887800Y-52681600D01*
X191717800Y-52411600D02*
X191717800Y-52681600D01*
X193217800Y-52411600D02*
X191717800Y-52411600D01*
D10*
X207450000Y-81834000D02*
X206850000Y-82434000D01*
X201650000Y-82434000D02*
X201050000Y-81834000D01*
X205650000Y-87834000D02*
G75*
G02X202850000Y-87834000I-1400000J0D01*
G01*
X205450000Y-82434000D02*
X205650000Y-87834000D01*
X203050000Y-82434000D02*
X202850000Y-87834000D01*
X207450000Y-81834000D02*
X207450000Y-76334000D01*
X201650000Y-82434000D02*
X206850000Y-82434000D01*
X201050000Y-76334000D02*
X201050000Y-81834000D01*
X208550000Y-76334000D02*
X199950000Y-76334000D01*
X208550000Y-52434000D02*
X208550000Y-76334000D01*
X199950000Y-52434000D02*
X208550000Y-52434000D01*
X199950000Y-76334000D02*
X199950000Y-52434000D01*
X78290000Y-48400000D02*
X78290000Y-55000000D01*
X78290000Y-55000000D02*
X105690000Y-55000000D01*
X105690000Y-55000000D02*
X105690000Y-48400000D01*
X105690000Y-48400000D02*
X78290000Y-48400000D01*
X78590000Y-48400000D02*
X79490000Y-49300000D01*
X79490000Y-49300000D02*
X80390000Y-48400000D01*
D11*
X131850000Y-101100000D02*
X132550000Y-101100000D01*
X131850000Y-100400000D02*
X131850000Y-101100000D01*
X135250000Y-96600000D02*
X134650000Y-96600000D01*
X135250000Y-99500000D02*
X135250000Y-96600000D01*
X132050000Y-96600000D02*
X132650000Y-96600000D01*
X132050000Y-99500000D02*
X132050000Y-96600000D01*
X133450000Y-100600000D02*
X133850000Y-100600000D01*
X188158578Y-59700000D02*
X187641422Y-59700000D01*
X188158578Y-61120000D02*
X187641422Y-61120000D01*
X121689400Y-26505437D02*
X120624963Y-25441000D01*
X121689400Y-28896563D02*
X120624963Y-29961000D01*
X121689400Y-28896563D02*
X121689400Y-28761000D01*
X121689400Y-26505437D02*
X121689400Y-26641000D01*
X120624963Y-25441000D02*
X117169400Y-25441000D01*
X120624963Y-29961000D02*
X117169400Y-29961000D01*
X117169400Y-29961000D02*
X117169400Y-28761000D01*
X117169400Y-25441000D02*
X117169400Y-26641000D01*
X140130000Y-24505437D02*
X139065563Y-23441000D01*
X140130000Y-30896563D02*
X139065563Y-31961000D01*
X140130000Y-30896563D02*
X140130000Y-29011000D01*
X140130000Y-24505437D02*
X140130000Y-26391000D01*
X139065563Y-23441000D02*
X131610000Y-23441000D01*
X139065563Y-31961000D02*
X131610000Y-31961000D01*
X131610000Y-31961000D02*
X131610000Y-29011000D01*
X131610000Y-23441000D02*
X131610000Y-26391000D01*
X159386200Y-24525437D02*
X158321763Y-23461000D01*
X159386200Y-30916563D02*
X158321763Y-31981000D01*
X159386200Y-30916563D02*
X159386200Y-29031000D01*
X159386200Y-24525437D02*
X159386200Y-26411000D01*
X158321763Y-23461000D02*
X150866200Y-23461000D01*
X158321763Y-31981000D02*
X150866200Y-31981000D01*
X150866200Y-31981000D02*
X150866200Y-29031000D01*
X150866200Y-23461000D02*
X150866200Y-26411000D01*
X159970000Y-62680000D02*
X158640000Y-62680000D01*
X159970000Y-61350000D02*
X159970000Y-62680000D01*
X159970000Y-60080000D02*
X157310000Y-60080000D01*
X157310000Y-60080000D02*
X157310000Y-57480000D01*
X159970000Y-60080000D02*
X159970000Y-57480000D01*
X159970000Y-57480000D02*
X157310000Y-57480000D01*
X182470000Y-62680000D02*
X181140000Y-62680000D01*
X182470000Y-61350000D02*
X182470000Y-62680000D01*
X182470000Y-60080000D02*
X179810000Y-60080000D01*
X179810000Y-60080000D02*
X179810000Y-57480000D01*
X182470000Y-60080000D02*
X182470000Y-57480000D01*
X182470000Y-57480000D02*
X179810000Y-57480000D01*
X112968600Y-24466000D02*
X114298600Y-24466000D01*
X112968600Y-25796000D02*
X112968600Y-24466000D01*
X112968600Y-27066000D02*
X115628600Y-27066000D01*
X115628600Y-27066000D02*
X115628600Y-29666000D01*
X112968600Y-27066000D02*
X112968600Y-29666000D01*
X112968600Y-29666000D02*
X115628600Y-29666000D01*
X104390000Y-60090000D02*
X104390000Y-61420000D01*
X103060000Y-60090000D02*
X104390000Y-60090000D01*
X101790000Y-60090000D02*
X101790000Y-62750000D01*
X101790000Y-62750000D02*
X94110000Y-62750000D01*
X101790000Y-60090000D02*
X94110000Y-60090000D01*
X94110000Y-60090000D02*
X94110000Y-62750000D01*
X133510000Y-46940000D02*
X134840000Y-46940000D01*
X133510000Y-48270000D02*
X133510000Y-46940000D01*
X133510000Y-49540000D02*
X136170000Y-49540000D01*
X136170000Y-49540000D02*
X136170000Y-62300000D01*
X133510000Y-49540000D02*
X133510000Y-62300000D01*
X133510000Y-62300000D02*
X136170000Y-62300000D01*
X84260000Y-25120000D02*
X85590000Y-25120000D01*
X84260000Y-26450000D02*
X84260000Y-25120000D01*
X86860000Y-25120000D02*
X89460000Y-25120000D01*
X86860000Y-27720000D02*
X86860000Y-25120000D01*
X84260000Y-27720000D02*
X86860000Y-27720000D01*
X89460000Y-25120000D02*
X89460000Y-32860000D01*
X84260000Y-27720000D02*
X84260000Y-32860000D01*
X84260000Y-32860000D02*
X89460000Y-32860000D01*
X83420000Y-44230000D02*
X83420000Y-31630000D01*
X78320000Y-44230000D02*
X83420000Y-44230000D01*
X78320000Y-31630000D02*
X78320000Y-44230000D01*
X107290000Y-57690000D02*
X107290000Y-53790000D01*
X109290000Y-57690000D02*
X109290000Y-53790000D01*
X107290000Y-57690000D02*
X109290000Y-57690000D01*
X119000000Y-57690000D02*
X119000000Y-53790000D01*
X121000000Y-57690000D02*
X121000000Y-53790000D01*
X119000000Y-57690000D02*
X121000000Y-57690000D01*
D10*
X91765000Y-30100000D02*
X90490000Y-30100000D01*
X102115000Y-29525000D02*
X101440000Y-29525000D01*
X102115000Y-39875000D02*
X101440000Y-39875000D01*
X91765000Y-39875000D02*
X92440000Y-39875000D01*
X91765000Y-29525000D02*
X92440000Y-29525000D01*
X91765000Y-39875000D02*
X91765000Y-39200000D01*
X102115000Y-39875000D02*
X102115000Y-39200000D01*
X102115000Y-29525000D02*
X102115000Y-30200000D01*
X91765000Y-29525000D02*
X91765000Y-30100000D01*
X124864400Y-39712000D02*
X124864400Y-38462000D01*
X121689400Y-39712000D02*
X121689400Y-43062000D01*
X125039400Y-39712000D02*
X125039400Y-43062000D01*
X121689400Y-39712000D02*
X121939400Y-39712000D01*
X121689400Y-43062000D02*
X121939400Y-43062000D01*
X125039400Y-43062000D02*
X124789400Y-43062000D01*
X125039400Y-39712000D02*
X124864400Y-39712000D01*
D11*
X109710000Y-52565000D02*
X109710000Y-56015000D01*
X109710000Y-52565000D02*
X109710000Y-50615000D01*
X118580000Y-52565000D02*
X118580000Y-54515000D01*
X118580000Y-52565000D02*
X118580000Y-50615000D01*
X125605000Y-44384200D02*
X125605000Y-47834200D01*
X125605000Y-44384200D02*
X125605000Y-42434200D01*
X130725000Y-44384200D02*
X130725000Y-46334200D01*
X130725000Y-44384200D02*
X130725000Y-42434200D01*
X182132779Y-78190000D02*
X181807221Y-78190000D01*
X182132779Y-79210000D02*
X181807221Y-79210000D01*
X131109400Y-38963621D02*
X131109400Y-39289179D01*
X132129400Y-38963621D02*
X132129400Y-39289179D01*
X132244021Y-41897000D02*
X132569579Y-41897000D01*
X132244021Y-40877000D02*
X132569579Y-40877000D01*
X110730000Y-59492779D02*
X110730000Y-59167221D01*
X109710000Y-59492779D02*
X109710000Y-59167221D01*
X118580000Y-59492779D02*
X118580000Y-59167221D01*
X117560000Y-59492779D02*
X117560000Y-59167221D01*
X113992779Y-47580000D02*
X113667221Y-47580000D01*
X113992779Y-48600000D02*
X113667221Y-48600000D01*
X110972779Y-47570000D02*
X110647221Y-47570000D01*
X110972779Y-48590000D02*
X110647221Y-48590000D01*
X110817221Y-57575000D02*
X111142779Y-57575000D01*
X110817221Y-56555000D02*
X111142779Y-56555000D01*
X159902779Y-33638000D02*
X159577221Y-33638000D01*
X159902779Y-34658000D02*
X159577221Y-34658000D01*
X145680779Y-33638000D02*
X145355221Y-33638000D01*
X145680779Y-34658000D02*
X145355221Y-34658000D01*
X183969779Y-33638000D02*
X183644221Y-33638000D01*
X183969779Y-34658000D02*
X183644221Y-34658000D01*
X169742779Y-33638000D02*
X169417221Y-33638000D01*
X169742779Y-34658000D02*
X169417221Y-34658000D01*
X129818000Y-49804779D02*
X129818000Y-49479221D01*
X128798000Y-49804779D02*
X128798000Y-49479221D01*
X133628000Y-39289179D02*
X133628000Y-38963621D01*
X132608000Y-39289179D02*
X132608000Y-38963621D01*
X117477779Y-56555000D02*
X117152221Y-56555000D01*
X117477779Y-57575000D02*
X117152221Y-57575000D01*
X99980000Y-26287221D02*
X99980000Y-26612779D01*
X101000000Y-26287221D02*
X101000000Y-26612779D01*
X124085979Y-46871400D02*
X123760421Y-46871400D01*
X124085979Y-47891400D02*
X123760421Y-47891400D01*
X156892779Y-33638000D02*
X156567221Y-33638000D01*
X156892779Y-34658000D02*
X156567221Y-34658000D01*
X142672779Y-33638000D02*
X142347221Y-33638000D01*
X142672779Y-34658000D02*
X142347221Y-34658000D01*
X180962779Y-33638000D02*
X180637221Y-33638000D01*
X180962779Y-34658000D02*
X180637221Y-34658000D01*
X166742779Y-33638000D02*
X166417221Y-33638000D01*
X166742779Y-34658000D02*
X166417221Y-34658000D01*
X152852779Y-33638000D02*
X152527221Y-33638000D01*
X152852779Y-34658000D02*
X152527221Y-34658000D01*
X176857779Y-33638000D02*
X176532221Y-33638000D01*
X176857779Y-34658000D02*
X176532221Y-34658000D01*
X126884621Y-50939400D02*
X127210179Y-50939400D01*
X126884621Y-49919400D02*
X127210179Y-49919400D01*
X130580000Y-39263779D02*
X130580000Y-38938221D01*
X129560000Y-39263779D02*
X129560000Y-38938221D01*
X127646621Y-38899800D02*
X127972179Y-38899800D01*
X127646621Y-37879800D02*
X127972179Y-37879800D01*
X122702000Y-49479221D02*
X122702000Y-49804779D01*
X123722000Y-49479221D02*
X123722000Y-49804779D01*
X105500000Y-26612779D02*
X105500000Y-26287221D01*
X104480000Y-26612779D02*
X104480000Y-26287221D01*
X125220600Y-49804879D02*
X125220600Y-49479321D01*
X124200600Y-49804879D02*
X124200600Y-49479321D01*
X126884621Y-49440800D02*
X127210179Y-49440800D01*
X126884621Y-48420800D02*
X127210179Y-48420800D01*
X83215000Y-60107221D02*
X83215000Y-60432779D01*
X84235000Y-60107221D02*
X84235000Y-60432779D01*
X111807779Y-62085000D02*
X111482221Y-62085000D01*
X111807779Y-63105000D02*
X111482221Y-63105000D01*
X108782779Y-62085000D02*
X108457221Y-62085000D01*
X108782779Y-63105000D02*
X108457221Y-63105000D01*
X82849221Y-63030000D02*
X83174779Y-63030000D01*
X82849221Y-62010000D02*
X83174779Y-62010000D01*
X117517221Y-63110000D02*
X117842779Y-63110000D01*
X117517221Y-62090000D02*
X117842779Y-62090000D01*
X92290000Y-61577221D02*
X92290000Y-61902779D01*
X93310000Y-61577221D02*
X93310000Y-61902779D01*
X105190000Y-61577221D02*
X105190000Y-61902779D01*
X106210000Y-61577221D02*
X106210000Y-61902779D01*
X188340000Y-54012779D02*
X188340000Y-53687221D01*
X187320000Y-54012779D02*
X187320000Y-53687221D01*
X173192779Y-79590000D02*
X172867221Y-79590000D01*
X173192779Y-80610000D02*
X172867221Y-80610000D01*
X164152779Y-78180000D02*
X163827221Y-78180000D01*
X164152779Y-79200000D02*
X163827221Y-79200000D01*
X104000000Y-26612779D02*
X104000000Y-26287221D01*
X102980000Y-26612779D02*
X102980000Y-26287221D01*
X81715000Y-60107221D02*
X81715000Y-60432779D01*
X82735000Y-60107221D02*
X82735000Y-60432779D01*
X84715000Y-60107221D02*
X84715000Y-60432779D01*
X85735000Y-60107221D02*
X85735000Y-60432779D01*
X127646621Y-40398400D02*
X127972179Y-40398400D01*
X127646621Y-39378400D02*
X127972179Y-39378400D01*
X100662221Y-57755000D02*
X100987779Y-57755000D01*
X100662221Y-56735000D02*
X100987779Y-56735000D01*
X132750000Y-61422779D02*
X132750000Y-61097221D01*
X131730000Y-61422779D02*
X131730000Y-61097221D01*
X187320000Y-56717221D02*
X187320000Y-57042779D01*
X188340000Y-56717221D02*
X188340000Y-57042779D01*
X132750000Y-58392779D02*
X132750000Y-58067221D01*
X131730000Y-58392779D02*
X131730000Y-58067221D01*
X94977221Y-59295000D02*
X95302779Y-59295000D01*
X94977221Y-58275000D02*
X95302779Y-58275000D01*
X102500000Y-26612779D02*
X102500000Y-26287221D01*
X101480000Y-26612779D02*
X101480000Y-26287221D01*
X99087221Y-59295000D02*
X99412779Y-59295000D01*
X99087221Y-58275000D02*
X99412779Y-58275000D01*
X97837779Y-56735000D02*
X97512221Y-56735000D01*
X97837779Y-57755000D02*
X97512221Y-57755000D01*
X114540000Y-58597221D02*
X114540000Y-58922779D01*
X115560000Y-58597221D02*
X115560000Y-58922779D01*
X114822779Y-62090000D02*
X114497221Y-62090000D01*
X114822779Y-63110000D02*
X114497221Y-63110000D01*
X116050000Y-59167221D02*
X116050000Y-59492779D01*
X117070000Y-59167221D02*
X117070000Y-59492779D01*
X111220000Y-59167221D02*
X111220000Y-59492779D01*
X112240000Y-59167221D02*
X112240000Y-59492779D01*
X192377221Y-80610000D02*
X192702779Y-80610000D01*
X192377221Y-79590000D02*
X192702779Y-79590000D01*
X103217221Y-59295000D02*
X103542779Y-59295000D01*
X103217221Y-58275000D02*
X103542779Y-58275000D01*
X135030000Y-39047936D02*
X135030000Y-41852064D01*
X137750000Y-39047936D02*
X137750000Y-41852064D01*
D10*
X179205700Y-51873900D02*
X179205700Y-63126100D01*
X179205700Y-51873900D02*
X164194300Y-51873900D01*
X164194300Y-51873900D02*
X164194300Y-63126100D01*
X179205700Y-63126100D02*
X164194300Y-63126100D01*
X186750000Y-50200000D02*
X186750000Y-45700000D01*
X190650000Y-45700000D02*
X190650000Y-50200000D01*
X190250000Y-46750000D02*
X190650000Y-46750000D01*
X190250000Y-46600000D02*
X190250000Y-46750000D01*
X190650000Y-46600000D02*
X190250000Y-46600000D01*
X187150000Y-46750000D02*
X186750000Y-46750000D01*
X187150000Y-46600000D02*
X187150000Y-46750000D01*
X186750000Y-46600000D02*
X187150000Y-46600000D01*
X190650000Y-50200000D02*
X190250000Y-50200000D01*
X186750000Y-50200000D02*
X187150000Y-50200000D01*
X186750000Y-45700000D02*
X187150000Y-45700000D01*
X190650000Y-45700000D02*
X190250000Y-45700000D01*
X191390000Y-50200000D02*
X191390000Y-45700000D01*
X195290000Y-45700000D02*
X195290000Y-50200000D01*
X194890000Y-46750000D02*
X195290000Y-46750000D01*
X194890000Y-46600000D02*
X194890000Y-46750000D01*
X195290000Y-46600000D02*
X194890000Y-46600000D01*
X191790000Y-46750000D02*
X191390000Y-46750000D01*
X191790000Y-46600000D02*
X191790000Y-46750000D01*
X191390000Y-46600000D02*
X191790000Y-46600000D01*
X195290000Y-50200000D02*
X194890000Y-50200000D01*
X191390000Y-50200000D02*
X191790000Y-50200000D01*
X191390000Y-45700000D02*
X191790000Y-45700000D01*
X195290000Y-45700000D02*
X194890000Y-45700000D01*
D14*
X183000000Y-64420000D02*
X183000000Y-65420000D01*
X173500000Y-64420000D02*
X183000000Y-64420000D01*
X173500000Y-65420000D02*
X173500000Y-64420000D01*
X183000000Y-76420000D02*
X183000000Y-73620000D01*
X173500000Y-76420000D02*
X183000000Y-76420000D01*
X173500000Y-75920000D02*
X173500000Y-76420000D01*
X104000000Y-64420000D02*
X104000000Y-65420000D01*
X94500000Y-64420000D02*
X104000000Y-64420000D01*
X94500000Y-65420000D02*
X94500000Y-64420000D01*
X104000000Y-76420000D02*
X104000000Y-73620000D01*
X94500000Y-76420000D02*
X104000000Y-76420000D01*
X94500000Y-75920000D02*
X94500000Y-76420000D01*
X88500000Y-64420000D02*
X88500000Y-65420000D01*
X79000000Y-64420000D02*
X88500000Y-64420000D01*
X79000000Y-65420000D02*
X79000000Y-64420000D01*
X88500000Y-76420000D02*
X88500000Y-73620000D01*
X79000000Y-76420000D02*
X88500000Y-76420000D01*
X79000000Y-75920000D02*
X79000000Y-76420000D01*
X119500000Y-64420000D02*
X119500000Y-65420000D01*
X110000000Y-64420000D02*
X119500000Y-64420000D01*
X110000000Y-65420000D02*
X110000000Y-64420000D01*
X119500000Y-76420000D02*
X119500000Y-73620000D01*
X110000000Y-76420000D02*
X119500000Y-76420000D01*
X110000000Y-75920000D02*
X110000000Y-76420000D01*
X135000000Y-64420000D02*
X135000000Y-65420000D01*
X125500000Y-64420000D02*
X135000000Y-64420000D01*
X125500000Y-65420000D02*
X125500000Y-64420000D01*
X135000000Y-76420000D02*
X135000000Y-73620000D01*
X125500000Y-76420000D02*
X135000000Y-76420000D01*
X125500000Y-75920000D02*
X125500000Y-76420000D01*
X165000000Y-64420000D02*
X165000000Y-65420000D01*
X155500000Y-64420000D02*
X165000000Y-64420000D01*
X155500000Y-65420000D02*
X155500000Y-64420000D01*
X165000000Y-76420000D02*
X165000000Y-73620000D01*
X155500000Y-76420000D02*
X165000000Y-76420000D01*
X155500000Y-75920000D02*
X155500000Y-76420000D01*
D10*
X199763142Y-28392380D02*
X199429809Y-27916190D01*
X199191714Y-28392380D02*
X199191714Y-27392380D01*
X199572666Y-27392380D01*
X199667904Y-27440000D01*
X199715523Y-27487619D01*
X199763142Y-27582857D01*
X199763142Y-27725714D01*
X199715523Y-27820952D01*
X199667904Y-27868571D01*
X199572666Y-27916190D01*
X199191714Y-27916190D01*
X200096476Y-27392380D02*
X200763142Y-27392380D01*
X200334571Y-28392380D01*
X201048857Y-27392380D02*
X201667904Y-27392380D01*
X201334571Y-27773333D01*
X201477428Y-27773333D01*
X201572666Y-27820952D01*
X201620285Y-27868571D01*
X201667904Y-27963809D01*
X201667904Y-28201904D01*
X201620285Y-28297142D01*
X201572666Y-28344761D01*
X201477428Y-28392380D01*
X201191714Y-28392380D01*
X201096476Y-28344761D01*
X201048857Y-28297142D01*
X196302380Y-36829904D02*
X197111904Y-36829904D01*
X197207142Y-36782285D01*
X197254761Y-36734666D01*
X197302380Y-36639428D01*
X197302380Y-36448952D01*
X197254761Y-36353714D01*
X197207142Y-36306095D01*
X197111904Y-36258476D01*
X196302380Y-36258476D01*
X196302380Y-35306095D02*
X196302380Y-35782285D01*
X196778571Y-35829904D01*
X196730952Y-35782285D01*
X196683333Y-35687047D01*
X196683333Y-35448952D01*
X196730952Y-35353714D01*
X196778571Y-35306095D01*
X196873809Y-35258476D01*
X197111904Y-35258476D01*
X197207142Y-35306095D01*
X197254761Y-35353714D01*
X197302380Y-35448952D01*
X197302380Y-35687047D01*
X197254761Y-35782285D01*
X197207142Y-35829904D01*
X208145142Y-29662380D02*
X207811809Y-29186190D01*
X207573714Y-29662380D02*
X207573714Y-28662380D01*
X207954666Y-28662380D01*
X208049904Y-28710000D01*
X208097523Y-28757619D01*
X208145142Y-28852857D01*
X208145142Y-28995714D01*
X208097523Y-29090952D01*
X208049904Y-29138571D01*
X207954666Y-29186190D01*
X207573714Y-29186190D01*
X208478476Y-28662380D02*
X209145142Y-28662380D01*
X208716571Y-29662380D01*
X209478476Y-28757619D02*
X209526095Y-28710000D01*
X209621333Y-28662380D01*
X209859428Y-28662380D01*
X209954666Y-28710000D01*
X210002285Y-28757619D01*
X210049904Y-28852857D01*
X210049904Y-28948095D01*
X210002285Y-29090952D01*
X209430857Y-29662380D01*
X210049904Y-29662380D01*
X204589142Y-30424380D02*
X204255809Y-29948190D01*
X204017714Y-30424380D02*
X204017714Y-29424380D01*
X204398666Y-29424380D01*
X204493904Y-29472000D01*
X204541523Y-29519619D01*
X204589142Y-29614857D01*
X204589142Y-29757714D01*
X204541523Y-29852952D01*
X204493904Y-29900571D01*
X204398666Y-29948190D01*
X204017714Y-29948190D01*
X204922476Y-29424380D02*
X205589142Y-29424380D01*
X205160571Y-30424380D01*
X206493904Y-30424380D02*
X205922476Y-30424380D01*
X206208190Y-30424380D02*
X206208190Y-29424380D01*
X206112952Y-29567238D01*
X206017714Y-29662476D01*
X205922476Y-29710095D01*
X198572380Y-29090857D02*
X198096190Y-29424190D01*
X198572380Y-29662285D02*
X197572380Y-29662285D01*
X197572380Y-29281333D01*
X197620000Y-29186095D01*
X197667619Y-29138476D01*
X197762857Y-29090857D01*
X197905714Y-29090857D01*
X198000952Y-29138476D01*
X198048571Y-29186095D01*
X198096190Y-29281333D01*
X198096190Y-29662285D01*
X197572380Y-28757523D02*
X197572380Y-28090857D01*
X198572380Y-28519428D01*
X197572380Y-27519428D02*
X197572380Y-27424190D01*
X197620000Y-27328952D01*
X197667619Y-27281333D01*
X197762857Y-27233714D01*
X197953333Y-27186095D01*
X198191428Y-27186095D01*
X198381904Y-27233714D01*
X198477142Y-27281333D01*
X198524761Y-27328952D01*
X198572380Y-27424190D01*
X198572380Y-27519428D01*
X198524761Y-27614666D01*
X198477142Y-27662285D01*
X198381904Y-27709904D01*
X198191428Y-27757523D01*
X197953333Y-27757523D01*
X197762857Y-27709904D01*
X197667619Y-27662285D01*
X197620000Y-27614666D01*
X197572380Y-27519428D01*
X197302380Y-29090857D02*
X196826190Y-29424190D01*
X197302380Y-29662285D02*
X196302380Y-29662285D01*
X196302380Y-29281333D01*
X196350000Y-29186095D01*
X196397619Y-29138476D01*
X196492857Y-29090857D01*
X196635714Y-29090857D01*
X196730952Y-29138476D01*
X196778571Y-29186095D01*
X196826190Y-29281333D01*
X196826190Y-29662285D01*
X196302380Y-28233714D02*
X196302380Y-28424190D01*
X196350000Y-28519428D01*
X196397619Y-28567047D01*
X196540476Y-28662285D01*
X196730952Y-28709904D01*
X197111904Y-28709904D01*
X197207142Y-28662285D01*
X197254761Y-28614666D01*
X197302380Y-28519428D01*
X197302380Y-28328952D01*
X197254761Y-28233714D01*
X197207142Y-28186095D01*
X197111904Y-28138476D01*
X196873809Y-28138476D01*
X196778571Y-28186095D01*
X196730952Y-28233714D01*
X196683333Y-28328952D01*
X196683333Y-28519428D01*
X196730952Y-28614666D01*
X196778571Y-28662285D01*
X196873809Y-28709904D01*
X197302380Y-27662285D02*
X197302380Y-27471809D01*
X197254761Y-27376571D01*
X197207142Y-27328952D01*
X197064285Y-27233714D01*
X196873809Y-27186095D01*
X196492857Y-27186095D01*
X196397619Y-27233714D01*
X196350000Y-27281333D01*
X196302380Y-27376571D01*
X196302380Y-27567047D01*
X196350000Y-27662285D01*
X196397619Y-27709904D01*
X196492857Y-27757523D01*
X196730952Y-27757523D01*
X196826190Y-27709904D01*
X196873809Y-27662285D01*
X196921428Y-27567047D01*
X196921428Y-27376571D01*
X196873809Y-27281333D01*
X196826190Y-27233714D01*
X196730952Y-27186095D01*
X196032380Y-29090857D02*
X195556190Y-29424190D01*
X196032380Y-29662285D02*
X195032380Y-29662285D01*
X195032380Y-29281333D01*
X195080000Y-29186095D01*
X195127619Y-29138476D01*
X195222857Y-29090857D01*
X195365714Y-29090857D01*
X195460952Y-29138476D01*
X195508571Y-29186095D01*
X195556190Y-29281333D01*
X195556190Y-29662285D01*
X195032380Y-28233714D02*
X195032380Y-28424190D01*
X195080000Y-28519428D01*
X195127619Y-28567047D01*
X195270476Y-28662285D01*
X195460952Y-28709904D01*
X195841904Y-28709904D01*
X195937142Y-28662285D01*
X195984761Y-28614666D01*
X196032380Y-28519428D01*
X196032380Y-28328952D01*
X195984761Y-28233714D01*
X195937142Y-28186095D01*
X195841904Y-28138476D01*
X195603809Y-28138476D01*
X195508571Y-28186095D01*
X195460952Y-28233714D01*
X195413333Y-28328952D01*
X195413333Y-28519428D01*
X195460952Y-28614666D01*
X195508571Y-28662285D01*
X195603809Y-28709904D01*
X195460952Y-27567047D02*
X195413333Y-27662285D01*
X195365714Y-27709904D01*
X195270476Y-27757523D01*
X195222857Y-27757523D01*
X195127619Y-27709904D01*
X195080000Y-27662285D01*
X195032380Y-27567047D01*
X195032380Y-27376571D01*
X195080000Y-27281333D01*
X195127619Y-27233714D01*
X195222857Y-27186095D01*
X195270476Y-27186095D01*
X195365714Y-27233714D01*
X195413333Y-27281333D01*
X195460952Y-27376571D01*
X195460952Y-27567047D01*
X195508571Y-27662285D01*
X195556190Y-27709904D01*
X195651428Y-27757523D01*
X195841904Y-27757523D01*
X195937142Y-27709904D01*
X195984761Y-27662285D01*
X196032380Y-27567047D01*
X196032380Y-27376571D01*
X195984761Y-27281333D01*
X195937142Y-27233714D01*
X195841904Y-27186095D01*
X195651428Y-27186095D01*
X195556190Y-27233714D01*
X195508571Y-27281333D01*
X195460952Y-27376571D01*
X208145142Y-30932380D02*
X207811809Y-30456190D01*
X207573714Y-30932380D02*
X207573714Y-29932380D01*
X207954666Y-29932380D01*
X208049904Y-29980000D01*
X208097523Y-30027619D01*
X208145142Y-30122857D01*
X208145142Y-30265714D01*
X208097523Y-30360952D01*
X208049904Y-30408571D01*
X207954666Y-30456190D01*
X207573714Y-30456190D01*
X209002285Y-29932380D02*
X208811809Y-29932380D01*
X208716571Y-29980000D01*
X208668952Y-30027619D01*
X208573714Y-30170476D01*
X208526095Y-30360952D01*
X208526095Y-30741904D01*
X208573714Y-30837142D01*
X208621333Y-30884761D01*
X208716571Y-30932380D01*
X208907047Y-30932380D01*
X209002285Y-30884761D01*
X209049904Y-30837142D01*
X209097523Y-30741904D01*
X209097523Y-30503809D01*
X209049904Y-30408571D01*
X209002285Y-30360952D01*
X208907047Y-30313333D01*
X208716571Y-30313333D01*
X208621333Y-30360952D01*
X208573714Y-30408571D01*
X208526095Y-30503809D01*
X209430857Y-29932380D02*
X210097523Y-29932380D01*
X209668952Y-30932380D01*
X191889142Y-31440380D02*
X191555809Y-30964190D01*
X191317714Y-31440380D02*
X191317714Y-30440380D01*
X191698666Y-30440380D01*
X191793904Y-30488000D01*
X191841523Y-30535619D01*
X191889142Y-30630857D01*
X191889142Y-30773714D01*
X191841523Y-30868952D01*
X191793904Y-30916571D01*
X191698666Y-30964190D01*
X191317714Y-30964190D01*
X192746285Y-30440380D02*
X192555809Y-30440380D01*
X192460571Y-30488000D01*
X192412952Y-30535619D01*
X192317714Y-30678476D01*
X192270095Y-30868952D01*
X192270095Y-31249904D01*
X192317714Y-31345142D01*
X192365333Y-31392761D01*
X192460571Y-31440380D01*
X192651047Y-31440380D01*
X192746285Y-31392761D01*
X192793904Y-31345142D01*
X192841523Y-31249904D01*
X192841523Y-31011809D01*
X192793904Y-30916571D01*
X192746285Y-30868952D01*
X192651047Y-30821333D01*
X192460571Y-30821333D01*
X192365333Y-30868952D01*
X192317714Y-30916571D01*
X192270095Y-31011809D01*
X193698666Y-30440380D02*
X193508190Y-30440380D01*
X193412952Y-30488000D01*
X193365333Y-30535619D01*
X193270095Y-30678476D01*
X193222476Y-30868952D01*
X193222476Y-31249904D01*
X193270095Y-31345142D01*
X193317714Y-31392761D01*
X193412952Y-31440380D01*
X193603428Y-31440380D01*
X193698666Y-31392761D01*
X193746285Y-31345142D01*
X193793904Y-31249904D01*
X193793904Y-31011809D01*
X193746285Y-30916571D01*
X193698666Y-30868952D01*
X193603428Y-30821333D01*
X193412952Y-30821333D01*
X193317714Y-30868952D01*
X193270095Y-30916571D01*
X193222476Y-31011809D01*
X197810380Y-40520857D02*
X197334190Y-40854190D01*
X197810380Y-41092285D02*
X196810380Y-41092285D01*
X196810380Y-40711333D01*
X196858000Y-40616095D01*
X196905619Y-40568476D01*
X197000857Y-40520857D01*
X197143714Y-40520857D01*
X197238952Y-40568476D01*
X197286571Y-40616095D01*
X197334190Y-40711333D01*
X197334190Y-41092285D01*
X196810380Y-39663714D02*
X196810380Y-39854190D01*
X196858000Y-39949428D01*
X196905619Y-39997047D01*
X197048476Y-40092285D01*
X197238952Y-40139904D01*
X197619904Y-40139904D01*
X197715142Y-40092285D01*
X197762761Y-40044666D01*
X197810380Y-39949428D01*
X197810380Y-39758952D01*
X197762761Y-39663714D01*
X197715142Y-39616095D01*
X197619904Y-39568476D01*
X197381809Y-39568476D01*
X197286571Y-39616095D01*
X197238952Y-39663714D01*
X197191333Y-39758952D01*
X197191333Y-39949428D01*
X197238952Y-40044666D01*
X197286571Y-40092285D01*
X197381809Y-40139904D01*
X196810380Y-38663714D02*
X196810380Y-39139904D01*
X197286571Y-39187523D01*
X197238952Y-39139904D01*
X197191333Y-39044666D01*
X197191333Y-38806571D01*
X197238952Y-38711333D01*
X197286571Y-38663714D01*
X197381809Y-38616095D01*
X197619904Y-38616095D01*
X197715142Y-38663714D01*
X197762761Y-38711333D01*
X197810380Y-38806571D01*
X197810380Y-39044666D01*
X197762761Y-39139904D01*
X197715142Y-39187523D01*
X210002380Y-40520857D02*
X209526190Y-40854190D01*
X210002380Y-41092285D02*
X209002380Y-41092285D01*
X209002380Y-40711333D01*
X209050000Y-40616095D01*
X209097619Y-40568476D01*
X209192857Y-40520857D01*
X209335714Y-40520857D01*
X209430952Y-40568476D01*
X209478571Y-40616095D01*
X209526190Y-40711333D01*
X209526190Y-41092285D01*
X209002380Y-39663714D02*
X209002380Y-39854190D01*
X209050000Y-39949428D01*
X209097619Y-39997047D01*
X209240476Y-40092285D01*
X209430952Y-40139904D01*
X209811904Y-40139904D01*
X209907142Y-40092285D01*
X209954761Y-40044666D01*
X210002380Y-39949428D01*
X210002380Y-39758952D01*
X209954761Y-39663714D01*
X209907142Y-39616095D01*
X209811904Y-39568476D01*
X209573809Y-39568476D01*
X209478571Y-39616095D01*
X209430952Y-39663714D01*
X209383333Y-39758952D01*
X209383333Y-39949428D01*
X209430952Y-40044666D01*
X209478571Y-40092285D01*
X209573809Y-40139904D01*
X209335714Y-38711333D02*
X210002380Y-38711333D01*
X208954761Y-38949428D02*
X209669047Y-39187523D01*
X209669047Y-38568476D01*
X196207142Y-43886380D02*
X195873809Y-43410190D01*
X195635714Y-43886380D02*
X195635714Y-42886380D01*
X196016666Y-42886380D01*
X196111904Y-42934000D01*
X196159523Y-42981619D01*
X196207142Y-43076857D01*
X196207142Y-43219714D01*
X196159523Y-43314952D01*
X196111904Y-43362571D01*
X196016666Y-43410190D01*
X195635714Y-43410190D01*
X197064285Y-42886380D02*
X196873809Y-42886380D01*
X196778571Y-42934000D01*
X196730952Y-42981619D01*
X196635714Y-43124476D01*
X196588095Y-43314952D01*
X196588095Y-43695904D01*
X196635714Y-43791142D01*
X196683333Y-43838761D01*
X196778571Y-43886380D01*
X196969047Y-43886380D01*
X197064285Y-43838761D01*
X197111904Y-43791142D01*
X197159523Y-43695904D01*
X197159523Y-43457809D01*
X197111904Y-43362571D01*
X197064285Y-43314952D01*
X196969047Y-43267333D01*
X196778571Y-43267333D01*
X196683333Y-43314952D01*
X196635714Y-43362571D01*
X196588095Y-43457809D01*
X197492857Y-42886380D02*
X198111904Y-42886380D01*
X197778571Y-43267333D01*
X197921428Y-43267333D01*
X198016666Y-43314952D01*
X198064285Y-43362571D01*
X198111904Y-43457809D01*
X198111904Y-43695904D01*
X198064285Y-43791142D01*
X198016666Y-43838761D01*
X197921428Y-43886380D01*
X197635714Y-43886380D01*
X197540476Y-43838761D01*
X197492857Y-43791142D01*
X185118476Y-30694380D02*
X185118476Y-31408666D01*
X185070857Y-31551523D01*
X184975619Y-31646761D01*
X184832761Y-31694380D01*
X184737523Y-31694380D01*
X186118476Y-31694380D02*
X185547047Y-31694380D01*
X185832761Y-31694380D02*
X185832761Y-30694380D01*
X185737523Y-30837238D01*
X185642285Y-30932476D01*
X185547047Y-30980095D01*
X186451809Y-30694380D02*
X187070857Y-30694380D01*
X186737523Y-31075333D01*
X186880380Y-31075333D01*
X186975619Y-31122952D01*
X187023238Y-31170571D01*
X187070857Y-31265809D01*
X187070857Y-31503904D01*
X187023238Y-31599142D01*
X186975619Y-31646761D01*
X186880380Y-31694380D01*
X186594666Y-31694380D01*
X186499428Y-31646761D01*
X186451809Y-31599142D01*
X173656666Y-29932380D02*
X173656666Y-30646666D01*
X173609047Y-30789523D01*
X173513809Y-30884761D01*
X173370952Y-30932380D01*
X173275714Y-30932380D01*
X174085238Y-30027619D02*
X174132857Y-29980000D01*
X174228095Y-29932380D01*
X174466190Y-29932380D01*
X174561428Y-29980000D01*
X174609047Y-30027619D01*
X174656666Y-30122857D01*
X174656666Y-30218095D01*
X174609047Y-30360952D01*
X174037619Y-30932380D01*
X174656666Y-30932380D01*
X170878571Y-30587142D02*
X172021428Y-30587142D01*
X175958571Y-30587142D02*
X177101428Y-30587142D01*
X176530000Y-31158571D02*
X176530000Y-30015714D01*
D15*
X187772523Y-35783761D02*
X186502523Y-35783761D01*
X187651571Y-34453285D02*
X187712047Y-34513761D01*
X187772523Y-34695190D01*
X187772523Y-34816142D01*
X187712047Y-34997571D01*
X187591095Y-35118523D01*
X187470142Y-35179000D01*
X187228238Y-35239476D01*
X187046809Y-35239476D01*
X186804904Y-35179000D01*
X186683952Y-35118523D01*
X186563000Y-34997571D01*
X186502523Y-34816142D01*
X186502523Y-34695190D01*
X186563000Y-34513761D01*
X186623476Y-34453285D01*
X186502523Y-33364714D02*
X186502523Y-33606619D01*
X186563000Y-33727571D01*
X186623476Y-33788047D01*
X186804904Y-33909000D01*
X187046809Y-33969476D01*
X187530619Y-33969476D01*
X187651571Y-33909000D01*
X187712047Y-33848523D01*
X187772523Y-33727571D01*
X187772523Y-33485666D01*
X187712047Y-33364714D01*
X187651571Y-33304238D01*
X187530619Y-33243761D01*
X187228238Y-33243761D01*
X187107285Y-33304238D01*
X187046809Y-33364714D01*
X186986333Y-33485666D01*
X186986333Y-33727571D01*
X187046809Y-33848523D01*
X187107285Y-33909000D01*
X187228238Y-33969476D01*
X187772523Y-41371761D02*
X186502523Y-41371761D01*
X187651571Y-40041285D02*
X187712047Y-40101761D01*
X187772523Y-40283190D01*
X187772523Y-40404142D01*
X187712047Y-40585571D01*
X187591095Y-40706523D01*
X187470142Y-40767000D01*
X187228238Y-40827476D01*
X187046809Y-40827476D01*
X186804904Y-40767000D01*
X186683952Y-40706523D01*
X186563000Y-40585571D01*
X186502523Y-40404142D01*
X186502523Y-40283190D01*
X186563000Y-40101761D01*
X186623476Y-40041285D01*
X186502523Y-38892238D02*
X186502523Y-39497000D01*
X187107285Y-39557476D01*
X187046809Y-39497000D01*
X186986333Y-39376047D01*
X186986333Y-39073666D01*
X187046809Y-38952714D01*
X187107285Y-38892238D01*
X187228238Y-38831761D01*
X187530619Y-38831761D01*
X187651571Y-38892238D01*
X187712047Y-38952714D01*
X187772523Y-39073666D01*
X187772523Y-39376047D01*
X187712047Y-39497000D01*
X187651571Y-39557476D01*
D10*
X208145142Y-32107142D02*
X208097523Y-32154761D01*
X207954666Y-32202380D01*
X207859428Y-32202380D01*
X207716571Y-32154761D01*
X207621333Y-32059523D01*
X207573714Y-31964285D01*
X207526095Y-31773809D01*
X207526095Y-31630952D01*
X207573714Y-31440476D01*
X207621333Y-31345238D01*
X207716571Y-31250000D01*
X207859428Y-31202380D01*
X207954666Y-31202380D01*
X208097523Y-31250000D01*
X208145142Y-31297619D01*
X209002285Y-31535714D02*
X209002285Y-32202380D01*
X208764190Y-31154761D02*
X208526095Y-31869047D01*
X209145142Y-31869047D01*
X209573714Y-32202380D02*
X209764190Y-32202380D01*
X209859428Y-32154761D01*
X209907047Y-32107142D01*
X210002285Y-31964285D01*
X210049904Y-31773809D01*
X210049904Y-31392857D01*
X210002285Y-31297619D01*
X209954666Y-31250000D01*
X209859428Y-31202380D01*
X209668952Y-31202380D01*
X209573714Y-31250000D01*
X209526095Y-31297619D01*
X209478476Y-31392857D01*
X209478476Y-31630952D01*
X209526095Y-31726190D01*
X209573714Y-31773809D01*
X209668952Y-31821428D01*
X209859428Y-31821428D01*
X209954666Y-31773809D01*
X210002285Y-31726190D01*
X210049904Y-31630952D01*
X196715142Y-38203142D02*
X196667523Y-38250761D01*
X196524666Y-38298380D01*
X196429428Y-38298380D01*
X196286571Y-38250761D01*
X196191333Y-38155523D01*
X196143714Y-38060285D01*
X196096095Y-37869809D01*
X196096095Y-37726952D01*
X196143714Y-37536476D01*
X196191333Y-37441238D01*
X196286571Y-37346000D01*
X196429428Y-37298380D01*
X196524666Y-37298380D01*
X196667523Y-37346000D01*
X196715142Y-37393619D01*
X197572285Y-37631714D02*
X197572285Y-38298380D01*
X197334190Y-37250761D02*
X197096095Y-37965047D01*
X197715142Y-37965047D01*
X198238952Y-37726952D02*
X198143714Y-37679333D01*
X198096095Y-37631714D01*
X198048476Y-37536476D01*
X198048476Y-37488857D01*
X198096095Y-37393619D01*
X198143714Y-37346000D01*
X198238952Y-37298380D01*
X198429428Y-37298380D01*
X198524666Y-37346000D01*
X198572285Y-37393619D01*
X198619904Y-37488857D01*
X198619904Y-37536476D01*
X198572285Y-37631714D01*
X198524666Y-37679333D01*
X198429428Y-37726952D01*
X198238952Y-37726952D01*
X198143714Y-37774571D01*
X198096095Y-37822190D01*
X198048476Y-37917428D01*
X198048476Y-38107904D01*
X198096095Y-38203142D01*
X198143714Y-38250761D01*
X198238952Y-38298380D01*
X198429428Y-38298380D01*
X198524666Y-38250761D01*
X198572285Y-38203142D01*
X198619904Y-38107904D01*
X198619904Y-37917428D01*
X198572285Y-37822190D01*
X198524666Y-37774571D01*
X198429428Y-37726952D01*
X196715142Y-33885142D02*
X196667523Y-33932761D01*
X196524666Y-33980380D01*
X196429428Y-33980380D01*
X196286571Y-33932761D01*
X196191333Y-33837523D01*
X196143714Y-33742285D01*
X196096095Y-33551809D01*
X196096095Y-33408952D01*
X196143714Y-33218476D01*
X196191333Y-33123238D01*
X196286571Y-33028000D01*
X196429428Y-32980380D01*
X196524666Y-32980380D01*
X196667523Y-33028000D01*
X196715142Y-33075619D01*
X197572285Y-33313714D02*
X197572285Y-33980380D01*
X197334190Y-32932761D02*
X197096095Y-33647047D01*
X197715142Y-33647047D01*
X198000857Y-32980380D02*
X198667523Y-32980380D01*
X198238952Y-33980380D01*
X196715142Y-32615142D02*
X196667523Y-32662761D01*
X196524666Y-32710380D01*
X196429428Y-32710380D01*
X196286571Y-32662761D01*
X196191333Y-32567523D01*
X196143714Y-32472285D01*
X196096095Y-32281809D01*
X196096095Y-32138952D01*
X196143714Y-31948476D01*
X196191333Y-31853238D01*
X196286571Y-31758000D01*
X196429428Y-31710380D01*
X196524666Y-31710380D01*
X196667523Y-31758000D01*
X196715142Y-31805619D01*
X197572285Y-32043714D02*
X197572285Y-32710380D01*
X197334190Y-31662761D02*
X197096095Y-32377047D01*
X197715142Y-32377047D01*
X198524666Y-31710380D02*
X198334190Y-31710380D01*
X198238952Y-31758000D01*
X198191333Y-31805619D01*
X198096095Y-31948476D01*
X198048476Y-32138952D01*
X198048476Y-32519904D01*
X198096095Y-32615142D01*
X198143714Y-32662761D01*
X198238952Y-32710380D01*
X198429428Y-32710380D01*
X198524666Y-32662761D01*
X198572285Y-32615142D01*
X198619904Y-32519904D01*
X198619904Y-32281809D01*
X198572285Y-32186571D01*
X198524666Y-32138952D01*
X198429428Y-32091333D01*
X198238952Y-32091333D01*
X198143714Y-32138952D01*
X198096095Y-32186571D01*
X198048476Y-32281809D01*
X205589142Y-42298857D02*
X205636761Y-42346476D01*
X205684380Y-42489333D01*
X205684380Y-42584571D01*
X205636761Y-42727428D01*
X205541523Y-42822666D01*
X205446285Y-42870285D01*
X205255809Y-42917904D01*
X205112952Y-42917904D01*
X204922476Y-42870285D01*
X204827238Y-42822666D01*
X204732000Y-42727428D01*
X204684380Y-42584571D01*
X204684380Y-42489333D01*
X204732000Y-42346476D01*
X204779619Y-42298857D01*
X205017714Y-41441714D02*
X205684380Y-41441714D01*
X204636761Y-41679809D02*
X205351047Y-41917904D01*
X205351047Y-41298857D01*
X204684380Y-40441714D02*
X204684380Y-40917904D01*
X205160571Y-40965523D01*
X205112952Y-40917904D01*
X205065333Y-40822666D01*
X205065333Y-40584571D01*
X205112952Y-40489333D01*
X205160571Y-40441714D01*
X205255809Y-40394095D01*
X205493904Y-40394095D01*
X205589142Y-40441714D01*
X205636761Y-40489333D01*
X205684380Y-40584571D01*
X205684380Y-40822666D01*
X205636761Y-40917904D01*
X205589142Y-40965523D01*
X206859142Y-42298857D02*
X206906761Y-42346476D01*
X206954380Y-42489333D01*
X206954380Y-42584571D01*
X206906761Y-42727428D01*
X206811523Y-42822666D01*
X206716285Y-42870285D01*
X206525809Y-42917904D01*
X206382952Y-42917904D01*
X206192476Y-42870285D01*
X206097238Y-42822666D01*
X206002000Y-42727428D01*
X205954380Y-42584571D01*
X205954380Y-42489333D01*
X206002000Y-42346476D01*
X206049619Y-42298857D01*
X206287714Y-41441714D02*
X206954380Y-41441714D01*
X205906761Y-41679809D02*
X206621047Y-41917904D01*
X206621047Y-41298857D01*
X206954380Y-40394095D02*
X206954380Y-40965523D01*
X206954380Y-40679809D02*
X205954380Y-40679809D01*
X206097238Y-40775047D01*
X206192476Y-40870285D01*
X206240095Y-40965523D01*
X209399142Y-43092666D02*
X209446761Y-43140285D01*
X209494380Y-43283142D01*
X209494380Y-43378380D01*
X209446761Y-43521238D01*
X209351523Y-43616476D01*
X209256285Y-43664095D01*
X209065809Y-43711714D01*
X208922952Y-43711714D01*
X208732476Y-43664095D01*
X208637238Y-43616476D01*
X208542000Y-43521238D01*
X208494380Y-43378380D01*
X208494380Y-43283142D01*
X208542000Y-43140285D01*
X208589619Y-43092666D01*
X208494380Y-42187904D02*
X208494380Y-42664095D01*
X208970571Y-42711714D01*
X208922952Y-42664095D01*
X208875333Y-42568857D01*
X208875333Y-42330761D01*
X208922952Y-42235523D01*
X208970571Y-42187904D01*
X209065809Y-42140285D01*
X209303904Y-42140285D01*
X209399142Y-42187904D01*
X209446761Y-42235523D01*
X209494380Y-42330761D01*
X209494380Y-42568857D01*
X209446761Y-42664095D01*
X209399142Y-42711714D01*
X202287142Y-43092666D02*
X202334761Y-43140285D01*
X202382380Y-43283142D01*
X202382380Y-43378380D01*
X202334761Y-43521238D01*
X202239523Y-43616476D01*
X202144285Y-43664095D01*
X201953809Y-43711714D01*
X201810952Y-43711714D01*
X201620476Y-43664095D01*
X201525238Y-43616476D01*
X201430000Y-43521238D01*
X201382380Y-43378380D01*
X201382380Y-43283142D01*
X201430000Y-43140285D01*
X201477619Y-43092666D01*
X201715714Y-42235523D02*
X202382380Y-42235523D01*
X201334761Y-42473619D02*
X202049047Y-42711714D01*
X202049047Y-42092666D01*
X168130952Y-82502380D02*
X167654761Y-82502380D01*
X167654761Y-81502380D01*
X168464285Y-81978571D02*
X168797619Y-81978571D01*
X168940476Y-82502380D02*
X168464285Y-82502380D01*
X168464285Y-81502380D01*
X168940476Y-81502380D01*
X169369047Y-82502380D02*
X169369047Y-81502380D01*
X169607142Y-81502380D01*
X169750000Y-81550000D01*
X169845238Y-81645238D01*
X169892857Y-81740476D01*
X169940476Y-81930952D01*
X169940476Y-82073809D01*
X169892857Y-82264285D01*
X169845238Y-82359523D01*
X169750000Y-82454761D01*
X169607142Y-82502380D01*
X169369047Y-82502380D01*
X170797619Y-81835714D02*
X170797619Y-82502380D01*
X170559523Y-81454761D02*
X170321428Y-82169047D01*
X170940476Y-82169047D01*
X159130952Y-82502380D02*
X158654761Y-82502380D01*
X158654761Y-81502380D01*
X159464285Y-81978571D02*
X159797619Y-81978571D01*
X159940476Y-82502380D02*
X159464285Y-82502380D01*
X159464285Y-81502380D01*
X159940476Y-81502380D01*
X160369047Y-82502380D02*
X160369047Y-81502380D01*
X160607142Y-81502380D01*
X160750000Y-81550000D01*
X160845238Y-81645238D01*
X160892857Y-81740476D01*
X160940476Y-81930952D01*
X160940476Y-82073809D01*
X160892857Y-82264285D01*
X160845238Y-82359523D01*
X160750000Y-82454761D01*
X160607142Y-82502380D01*
X160369047Y-82502380D01*
X161273809Y-81502380D02*
X161892857Y-81502380D01*
X161559523Y-81883333D01*
X161702380Y-81883333D01*
X161797619Y-81930952D01*
X161845238Y-81978571D01*
X161892857Y-82073809D01*
X161892857Y-82311904D01*
X161845238Y-82407142D01*
X161797619Y-82454761D01*
X161702380Y-82502380D01*
X161416666Y-82502380D01*
X161321428Y-82454761D01*
X161273809Y-82407142D01*
X177130952Y-82502380D02*
X176654761Y-82502380D01*
X176654761Y-81502380D01*
X177464285Y-81978571D02*
X177797619Y-81978571D01*
X177940476Y-82502380D02*
X177464285Y-82502380D01*
X177464285Y-81502380D01*
X177940476Y-81502380D01*
X178369047Y-82502380D02*
X178369047Y-81502380D01*
X178607142Y-81502380D01*
X178750000Y-81550000D01*
X178845238Y-81645238D01*
X178892857Y-81740476D01*
X178940476Y-81930952D01*
X178940476Y-82073809D01*
X178892857Y-82264285D01*
X178845238Y-82359523D01*
X178750000Y-82454761D01*
X178607142Y-82502380D01*
X178369047Y-82502380D01*
X179321428Y-81597619D02*
X179369047Y-81550000D01*
X179464285Y-81502380D01*
X179702380Y-81502380D01*
X179797619Y-81550000D01*
X179845238Y-81597619D01*
X179892857Y-81692857D01*
X179892857Y-81788095D01*
X179845238Y-81930952D01*
X179273809Y-82502380D01*
X179892857Y-82502380D01*
X195130952Y-77202380D02*
X194654761Y-77202380D01*
X194654761Y-76202380D01*
X195464285Y-76678571D02*
X195797619Y-76678571D01*
X195940476Y-77202380D02*
X195464285Y-77202380D01*
X195464285Y-76202380D01*
X195940476Y-76202380D01*
X196369047Y-77202380D02*
X196369047Y-76202380D01*
X196607142Y-76202380D01*
X196750000Y-76250000D01*
X196845238Y-76345238D01*
X196892857Y-76440476D01*
X196940476Y-76630952D01*
X196940476Y-76773809D01*
X196892857Y-76964285D01*
X196845238Y-77059523D01*
X196750000Y-77154761D01*
X196607142Y-77202380D01*
X196369047Y-77202380D01*
X197892857Y-77202380D02*
X197321428Y-77202380D01*
X197607142Y-77202380D02*
X197607142Y-76202380D01*
X197511904Y-76345238D01*
X197416666Y-76440476D01*
X197321428Y-76488095D01*
X140402380Y-54336904D02*
X140402380Y-53765476D01*
X141402380Y-54051190D02*
X140402380Y-54051190D01*
X141402380Y-52860714D02*
X140926190Y-53194047D01*
X141402380Y-53432142D02*
X140402380Y-53432142D01*
X140402380Y-53051190D01*
X140450000Y-52955952D01*
X140497619Y-52908333D01*
X140592857Y-52860714D01*
X140735714Y-52860714D01*
X140830952Y-52908333D01*
X140878571Y-52955952D01*
X140926190Y-53051190D01*
X140926190Y-53432142D01*
X141402380Y-51908333D02*
X141402380Y-52479761D01*
X141402380Y-52194047D02*
X140402380Y-52194047D01*
X140545238Y-52289285D01*
X140640476Y-52384523D01*
X140688095Y-52479761D01*
X199965476Y-79952380D02*
X200298809Y-80952380D01*
X200632142Y-79952380D01*
X201536904Y-80952380D02*
X201203571Y-80476190D01*
X200965476Y-80952380D02*
X200965476Y-79952380D01*
X201346428Y-79952380D01*
X201441666Y-80000000D01*
X201489285Y-80047619D01*
X201536904Y-80142857D01*
X201536904Y-80285714D01*
X201489285Y-80380952D01*
X201441666Y-80428571D01*
X201346428Y-80476190D01*
X200965476Y-80476190D01*
X202489285Y-80952380D02*
X201917857Y-80952380D01*
X202203571Y-80952380D02*
X202203571Y-79952380D01*
X202108333Y-80095238D01*
X202013095Y-80190476D01*
X201917857Y-80238095D01*
X182115476Y-82577380D02*
X182448809Y-83577380D01*
X182782142Y-82577380D01*
X183686904Y-83577380D02*
X183353571Y-83101190D01*
X183115476Y-83577380D02*
X183115476Y-82577380D01*
X183496428Y-82577380D01*
X183591666Y-82625000D01*
X183639285Y-82672619D01*
X183686904Y-82767857D01*
X183686904Y-82910714D01*
X183639285Y-83005952D01*
X183591666Y-83053571D01*
X183496428Y-83101190D01*
X183115476Y-83101190D01*
X184020238Y-82577380D02*
X184639285Y-82577380D01*
X184305952Y-82958333D01*
X184448809Y-82958333D01*
X184544047Y-83005952D01*
X184591666Y-83053571D01*
X184639285Y-83148809D01*
X184639285Y-83386904D01*
X184591666Y-83482142D01*
X184544047Y-83529761D01*
X184448809Y-83577380D01*
X184163095Y-83577380D01*
X184067857Y-83529761D01*
X184020238Y-83482142D01*
X163790476Y-82477380D02*
X164123809Y-83477380D01*
X164457142Y-82477380D01*
X165361904Y-83477380D02*
X165028571Y-83001190D01*
X164790476Y-83477380D02*
X164790476Y-82477380D01*
X165171428Y-82477380D01*
X165266666Y-82525000D01*
X165314285Y-82572619D01*
X165361904Y-82667857D01*
X165361904Y-82810714D01*
X165314285Y-82905952D01*
X165266666Y-82953571D01*
X165171428Y-83001190D01*
X164790476Y-83001190D01*
X165742857Y-82572619D02*
X165790476Y-82525000D01*
X165885714Y-82477380D01*
X166123809Y-82477380D01*
X166219047Y-82525000D01*
X166266666Y-82572619D01*
X166314285Y-82667857D01*
X166314285Y-82763095D01*
X166266666Y-82905952D01*
X165695238Y-83477380D01*
X166314285Y-83477380D01*
X82583333Y-103702380D02*
X82107142Y-103702380D01*
X82107142Y-102702380D01*
X83488095Y-103607142D02*
X83440476Y-103654761D01*
X83297619Y-103702380D01*
X83202380Y-103702380D01*
X83059523Y-103654761D01*
X82964285Y-103559523D01*
X82916666Y-103464285D01*
X82869047Y-103273809D01*
X82869047Y-103130952D01*
X82916666Y-102940476D01*
X82964285Y-102845238D01*
X83059523Y-102750000D01*
X83202380Y-102702380D01*
X83297619Y-102702380D01*
X83440476Y-102750000D01*
X83488095Y-102797619D01*
X83916666Y-103702380D02*
X83916666Y-102702380D01*
X84154761Y-102702380D01*
X84297619Y-102750000D01*
X84392857Y-102845238D01*
X84440476Y-102940476D01*
X84488095Y-103130952D01*
X84488095Y-103273809D01*
X84440476Y-103464285D01*
X84392857Y-103559523D01*
X84297619Y-103654761D01*
X84154761Y-103702380D01*
X83916666Y-103702380D01*
X85440476Y-103702380D02*
X84869047Y-103702380D01*
X85154761Y-103702380D02*
X85154761Y-102702380D01*
X85059523Y-102845238D01*
X84964285Y-102940476D01*
X84869047Y-102988095D01*
X138316666Y-89404761D02*
X138459523Y-89452380D01*
X138697619Y-89452380D01*
X138792857Y-89404761D01*
X138840476Y-89357142D01*
X138888095Y-89261904D01*
X138888095Y-89166666D01*
X138840476Y-89071428D01*
X138792857Y-89023809D01*
X138697619Y-88976190D01*
X138507142Y-88928571D01*
X138411904Y-88880952D01*
X138364285Y-88833333D01*
X138316666Y-88738095D01*
X138316666Y-88642857D01*
X138364285Y-88547619D01*
X138411904Y-88500000D01*
X138507142Y-88452380D01*
X138745238Y-88452380D01*
X138888095Y-88500000D01*
X139221428Y-88452380D02*
X139459523Y-89452380D01*
X139650000Y-88738095D01*
X139840476Y-89452380D01*
X140078571Y-88452380D01*
X140935714Y-88452380D02*
X140459523Y-88452380D01*
X140411904Y-88928571D01*
X140459523Y-88880952D01*
X140554761Y-88833333D01*
X140792857Y-88833333D01*
X140888095Y-88880952D01*
X140935714Y-88928571D01*
X140983333Y-89023809D01*
X140983333Y-89261904D01*
X140935714Y-89357142D01*
X140888095Y-89404761D01*
X140792857Y-89452380D01*
X140554761Y-89452380D01*
X140459523Y-89404761D01*
X140411904Y-89357142D01*
X146841666Y-89304761D02*
X146984523Y-89352380D01*
X147222619Y-89352380D01*
X147317857Y-89304761D01*
X147365476Y-89257142D01*
X147413095Y-89161904D01*
X147413095Y-89066666D01*
X147365476Y-88971428D01*
X147317857Y-88923809D01*
X147222619Y-88876190D01*
X147032142Y-88828571D01*
X146936904Y-88780952D01*
X146889285Y-88733333D01*
X146841666Y-88638095D01*
X146841666Y-88542857D01*
X146889285Y-88447619D01*
X146936904Y-88400000D01*
X147032142Y-88352380D01*
X147270238Y-88352380D01*
X147413095Y-88400000D01*
X147746428Y-88352380D02*
X147984523Y-89352380D01*
X148175000Y-88638095D01*
X148365476Y-89352380D01*
X148603571Y-88352380D01*
X149413095Y-88685714D02*
X149413095Y-89352380D01*
X149175000Y-88304761D02*
X148936904Y-89019047D01*
X149555952Y-89019047D01*
X138316666Y-92029761D02*
X138459523Y-92077380D01*
X138697619Y-92077380D01*
X138792857Y-92029761D01*
X138840476Y-91982142D01*
X138888095Y-91886904D01*
X138888095Y-91791666D01*
X138840476Y-91696428D01*
X138792857Y-91648809D01*
X138697619Y-91601190D01*
X138507142Y-91553571D01*
X138411904Y-91505952D01*
X138364285Y-91458333D01*
X138316666Y-91363095D01*
X138316666Y-91267857D01*
X138364285Y-91172619D01*
X138411904Y-91125000D01*
X138507142Y-91077380D01*
X138745238Y-91077380D01*
X138888095Y-91125000D01*
X139221428Y-91077380D02*
X139459523Y-92077380D01*
X139650000Y-91363095D01*
X139840476Y-92077380D01*
X140078571Y-91077380D01*
X140364285Y-91077380D02*
X140983333Y-91077380D01*
X140650000Y-91458333D01*
X140792857Y-91458333D01*
X140888095Y-91505952D01*
X140935714Y-91553571D01*
X140983333Y-91648809D01*
X140983333Y-91886904D01*
X140935714Y-91982142D01*
X140888095Y-92029761D01*
X140792857Y-92077380D01*
X140507142Y-92077380D01*
X140411904Y-92029761D01*
X140364285Y-91982142D01*
X146866666Y-92054761D02*
X147009523Y-92102380D01*
X147247619Y-92102380D01*
X147342857Y-92054761D01*
X147390476Y-92007142D01*
X147438095Y-91911904D01*
X147438095Y-91816666D01*
X147390476Y-91721428D01*
X147342857Y-91673809D01*
X147247619Y-91626190D01*
X147057142Y-91578571D01*
X146961904Y-91530952D01*
X146914285Y-91483333D01*
X146866666Y-91388095D01*
X146866666Y-91292857D01*
X146914285Y-91197619D01*
X146961904Y-91150000D01*
X147057142Y-91102380D01*
X147295238Y-91102380D01*
X147438095Y-91150000D01*
X147771428Y-91102380D02*
X148009523Y-92102380D01*
X148200000Y-91388095D01*
X148390476Y-92102380D01*
X148628571Y-91102380D01*
X148961904Y-91197619D02*
X149009523Y-91150000D01*
X149104761Y-91102380D01*
X149342857Y-91102380D01*
X149438095Y-91150000D01*
X149485714Y-91197619D01*
X149533333Y-91292857D01*
X149533333Y-91388095D01*
X149485714Y-91530952D01*
X148914285Y-92102380D01*
X149533333Y-92102380D01*
X90777380Y-63061904D02*
X91586904Y-63061904D01*
X91682142Y-63014285D01*
X91729761Y-62966666D01*
X91777380Y-62871428D01*
X91777380Y-62680952D01*
X91729761Y-62585714D01*
X91682142Y-62538095D01*
X91586904Y-62490476D01*
X90777380Y-62490476D01*
X90872619Y-62061904D02*
X90825000Y-62014285D01*
X90777380Y-61919047D01*
X90777380Y-61680952D01*
X90825000Y-61585714D01*
X90872619Y-61538095D01*
X90967857Y-61490476D01*
X91063095Y-61490476D01*
X91205952Y-61538095D01*
X91777380Y-62109523D01*
X91777380Y-61490476D01*
X186877380Y-70858333D02*
X187591666Y-70858333D01*
X187734523Y-70905952D01*
X187829761Y-71001190D01*
X187877380Y-71144047D01*
X187877380Y-71239285D01*
X187877380Y-69858333D02*
X187877380Y-70429761D01*
X187877380Y-70144047D02*
X186877380Y-70144047D01*
X187020238Y-70239285D01*
X187115476Y-70334523D01*
X187163095Y-70429761D01*
X128313095Y-51302380D02*
X128313095Y-52111904D01*
X128360714Y-52207142D01*
X128408333Y-52254761D01*
X128503571Y-52302380D01*
X128694047Y-52302380D01*
X128789285Y-52254761D01*
X128836904Y-52207142D01*
X128884523Y-52111904D01*
X128884523Y-51302380D01*
X129789285Y-51635714D02*
X129789285Y-52302380D01*
X129551190Y-51254761D02*
X129313095Y-51969047D01*
X129932142Y-51969047D01*
X168029761Y-37322619D02*
X167934523Y-37275000D01*
X167839285Y-37179761D01*
X167696428Y-37036904D01*
X167601190Y-36989285D01*
X167505952Y-36989285D01*
X167553571Y-37227380D02*
X167458333Y-37179761D01*
X167363095Y-37084523D01*
X167315476Y-36894047D01*
X167315476Y-36560714D01*
X167363095Y-36370238D01*
X167458333Y-36275000D01*
X167553571Y-36227380D01*
X167744047Y-36227380D01*
X167839285Y-36275000D01*
X167934523Y-36370238D01*
X167982142Y-36560714D01*
X167982142Y-36894047D01*
X167934523Y-37084523D01*
X167839285Y-37179761D01*
X167744047Y-37227380D01*
X167553571Y-37227380D01*
X168553571Y-36655952D02*
X168458333Y-36608333D01*
X168410714Y-36560714D01*
X168363095Y-36465476D01*
X168363095Y-36417857D01*
X168410714Y-36322619D01*
X168458333Y-36275000D01*
X168553571Y-36227380D01*
X168744047Y-36227380D01*
X168839285Y-36275000D01*
X168886904Y-36322619D01*
X168934523Y-36417857D01*
X168934523Y-36465476D01*
X168886904Y-36560714D01*
X168839285Y-36608333D01*
X168744047Y-36655952D01*
X168553571Y-36655952D01*
X168458333Y-36703571D01*
X168410714Y-36751190D01*
X168363095Y-36846428D01*
X168363095Y-37036904D01*
X168410714Y-37132142D01*
X168458333Y-37179761D01*
X168553571Y-37227380D01*
X168744047Y-37227380D01*
X168839285Y-37179761D01*
X168886904Y-37132142D01*
X168934523Y-37036904D01*
X168934523Y-36846428D01*
X168886904Y-36751190D01*
X168839285Y-36703571D01*
X168744047Y-36655952D01*
X175104761Y-37322619D02*
X175009523Y-37275000D01*
X174914285Y-37179761D01*
X174771428Y-37036904D01*
X174676190Y-36989285D01*
X174580952Y-36989285D01*
X174628571Y-37227380D02*
X174533333Y-37179761D01*
X174438095Y-37084523D01*
X174390476Y-36894047D01*
X174390476Y-36560714D01*
X174438095Y-36370238D01*
X174533333Y-36275000D01*
X174628571Y-36227380D01*
X174819047Y-36227380D01*
X174914285Y-36275000D01*
X175009523Y-36370238D01*
X175057142Y-36560714D01*
X175057142Y-36894047D01*
X175009523Y-37084523D01*
X174914285Y-37179761D01*
X174819047Y-37227380D01*
X174628571Y-37227380D01*
X175390476Y-36227380D02*
X176057142Y-36227380D01*
X175628571Y-37227380D01*
X182229761Y-37372619D02*
X182134523Y-37325000D01*
X182039285Y-37229761D01*
X181896428Y-37086904D01*
X181801190Y-37039285D01*
X181705952Y-37039285D01*
X181753571Y-37277380D02*
X181658333Y-37229761D01*
X181563095Y-37134523D01*
X181515476Y-36944047D01*
X181515476Y-36610714D01*
X181563095Y-36420238D01*
X181658333Y-36325000D01*
X181753571Y-36277380D01*
X181944047Y-36277380D01*
X182039285Y-36325000D01*
X182134523Y-36420238D01*
X182182142Y-36610714D01*
X182182142Y-36944047D01*
X182134523Y-37134523D01*
X182039285Y-37229761D01*
X181944047Y-37277380D01*
X181753571Y-37277380D01*
X183039285Y-36277380D02*
X182848809Y-36277380D01*
X182753571Y-36325000D01*
X182705952Y-36372619D01*
X182610714Y-36515476D01*
X182563095Y-36705952D01*
X182563095Y-37086904D01*
X182610714Y-37182142D01*
X182658333Y-37229761D01*
X182753571Y-37277380D01*
X182944047Y-37277380D01*
X183039285Y-37229761D01*
X183086904Y-37182142D01*
X183134523Y-37086904D01*
X183134523Y-36848809D01*
X183086904Y-36753571D01*
X183039285Y-36705952D01*
X182944047Y-36658333D01*
X182753571Y-36658333D01*
X182658333Y-36705952D01*
X182610714Y-36753571D01*
X182563095Y-36848809D01*
X143929761Y-37297619D02*
X143834523Y-37250000D01*
X143739285Y-37154761D01*
X143596428Y-37011904D01*
X143501190Y-36964285D01*
X143405952Y-36964285D01*
X143453571Y-37202380D02*
X143358333Y-37154761D01*
X143263095Y-37059523D01*
X143215476Y-36869047D01*
X143215476Y-36535714D01*
X143263095Y-36345238D01*
X143358333Y-36250000D01*
X143453571Y-36202380D01*
X143644047Y-36202380D01*
X143739285Y-36250000D01*
X143834523Y-36345238D01*
X143882142Y-36535714D01*
X143882142Y-36869047D01*
X143834523Y-37059523D01*
X143739285Y-37154761D01*
X143644047Y-37202380D01*
X143453571Y-37202380D01*
X144786904Y-36202380D02*
X144310714Y-36202380D01*
X144263095Y-36678571D01*
X144310714Y-36630952D01*
X144405952Y-36583333D01*
X144644047Y-36583333D01*
X144739285Y-36630952D01*
X144786904Y-36678571D01*
X144834523Y-36773809D01*
X144834523Y-37011904D01*
X144786904Y-37107142D01*
X144739285Y-37154761D01*
X144644047Y-37202380D01*
X144405952Y-37202380D01*
X144310714Y-37154761D01*
X144263095Y-37107142D01*
X151129761Y-37322619D02*
X151034523Y-37275000D01*
X150939285Y-37179761D01*
X150796428Y-37036904D01*
X150701190Y-36989285D01*
X150605952Y-36989285D01*
X150653571Y-37227380D02*
X150558333Y-37179761D01*
X150463095Y-37084523D01*
X150415476Y-36894047D01*
X150415476Y-36560714D01*
X150463095Y-36370238D01*
X150558333Y-36275000D01*
X150653571Y-36227380D01*
X150844047Y-36227380D01*
X150939285Y-36275000D01*
X151034523Y-36370238D01*
X151082142Y-36560714D01*
X151082142Y-36894047D01*
X151034523Y-37084523D01*
X150939285Y-37179761D01*
X150844047Y-37227380D01*
X150653571Y-37227380D01*
X151939285Y-36560714D02*
X151939285Y-37227380D01*
X151701190Y-36179761D02*
X151463095Y-36894047D01*
X152082142Y-36894047D01*
X158129761Y-37397619D02*
X158034523Y-37350000D01*
X157939285Y-37254761D01*
X157796428Y-37111904D01*
X157701190Y-37064285D01*
X157605952Y-37064285D01*
X157653571Y-37302380D02*
X157558333Y-37254761D01*
X157463095Y-37159523D01*
X157415476Y-36969047D01*
X157415476Y-36635714D01*
X157463095Y-36445238D01*
X157558333Y-36350000D01*
X157653571Y-36302380D01*
X157844047Y-36302380D01*
X157939285Y-36350000D01*
X158034523Y-36445238D01*
X158082142Y-36635714D01*
X158082142Y-36969047D01*
X158034523Y-37159523D01*
X157939285Y-37254761D01*
X157844047Y-37302380D01*
X157653571Y-37302380D01*
X158415476Y-36302380D02*
X159034523Y-36302380D01*
X158701190Y-36683333D01*
X158844047Y-36683333D01*
X158939285Y-36730952D01*
X158986904Y-36778571D01*
X159034523Y-36873809D01*
X159034523Y-37111904D01*
X158986904Y-37207142D01*
X158939285Y-37254761D01*
X158844047Y-37302380D01*
X158558333Y-37302380D01*
X158463095Y-37254761D01*
X158415476Y-37207142D01*
X161382380Y-24936190D02*
X160382380Y-24936190D01*
X161287142Y-23888571D02*
X161334761Y-23936190D01*
X161382380Y-24079047D01*
X161382380Y-24174285D01*
X161334761Y-24317142D01*
X161239523Y-24412380D01*
X161144285Y-24460000D01*
X160953809Y-24507619D01*
X160810952Y-24507619D01*
X160620476Y-24460000D01*
X160525238Y-24412380D01*
X160430000Y-24317142D01*
X160382380Y-24174285D01*
X160382380Y-24079047D01*
X160430000Y-23936190D01*
X160477619Y-23888571D01*
X160715714Y-23031428D02*
X161382380Y-23031428D01*
X160334761Y-23269523D02*
X161049047Y-23507619D01*
X161049047Y-22888571D01*
X142042380Y-24796190D02*
X141042380Y-24796190D01*
X141947142Y-23748571D02*
X141994761Y-23796190D01*
X142042380Y-23939047D01*
X142042380Y-24034285D01*
X141994761Y-24177142D01*
X141899523Y-24272380D01*
X141804285Y-24320000D01*
X141613809Y-24367619D01*
X141470952Y-24367619D01*
X141280476Y-24320000D01*
X141185238Y-24272380D01*
X141090000Y-24177142D01*
X141042380Y-24034285D01*
X141042380Y-23939047D01*
X141090000Y-23796190D01*
X141137619Y-23748571D01*
X141042380Y-23415238D02*
X141042380Y-22796190D01*
X141423333Y-23129523D01*
X141423333Y-22986666D01*
X141470952Y-22891428D01*
X141518571Y-22843809D01*
X141613809Y-22796190D01*
X141851904Y-22796190D01*
X141947142Y-22843809D01*
X141994761Y-22891428D01*
X142042380Y-22986666D01*
X142042380Y-23272380D01*
X141994761Y-23367619D01*
X141947142Y-23415238D01*
X122872380Y-24846190D02*
X121872380Y-24846190D01*
X122777142Y-23798571D02*
X122824761Y-23846190D01*
X122872380Y-23989047D01*
X122872380Y-24084285D01*
X122824761Y-24227142D01*
X122729523Y-24322380D01*
X122634285Y-24370000D01*
X122443809Y-24417619D01*
X122300952Y-24417619D01*
X122110476Y-24370000D01*
X122015238Y-24322380D01*
X121920000Y-24227142D01*
X121872380Y-24084285D01*
X121872380Y-23989047D01*
X121920000Y-23846190D01*
X121967619Y-23798571D01*
X121967619Y-23417619D02*
X121920000Y-23370000D01*
X121872380Y-23274761D01*
X121872380Y-23036666D01*
X121920000Y-22941428D01*
X121967619Y-22893809D01*
X122062857Y-22846190D01*
X122158095Y-22846190D01*
X122300952Y-22893809D01*
X122872380Y-23465238D01*
X122872380Y-22846190D01*
X195365809Y-60650380D02*
X195365809Y-59650380D01*
X196413428Y-60555142D02*
X196365809Y-60602761D01*
X196222952Y-60650380D01*
X196127714Y-60650380D01*
X195984857Y-60602761D01*
X195889619Y-60507523D01*
X195842000Y-60412285D01*
X195794380Y-60221809D01*
X195794380Y-60078952D01*
X195842000Y-59888476D01*
X195889619Y-59793238D01*
X195984857Y-59698000D01*
X196127714Y-59650380D01*
X196222952Y-59650380D01*
X196365809Y-59698000D01*
X196413428Y-59745619D01*
X197365809Y-60650380D02*
X196794380Y-60650380D01*
X197080095Y-60650380D02*
X197080095Y-59650380D01*
X196984857Y-59793238D01*
X196889619Y-59888476D01*
X196794380Y-59936095D01*
X199554761Y-71195904D02*
X199602380Y-71053047D01*
X199602380Y-70814952D01*
X199554761Y-70719714D01*
X199507142Y-70672095D01*
X199411904Y-70624476D01*
X199316666Y-70624476D01*
X199221428Y-70672095D01*
X199173809Y-70719714D01*
X199126190Y-70814952D01*
X199078571Y-71005428D01*
X199030952Y-71100666D01*
X198983333Y-71148285D01*
X198888095Y-71195904D01*
X198792857Y-71195904D01*
X198697619Y-71148285D01*
X198650000Y-71100666D01*
X198602380Y-71005428D01*
X198602380Y-70767333D01*
X198650000Y-70624476D01*
X199602380Y-69672095D02*
X199602380Y-70243523D01*
X199602380Y-69957809D02*
X198602380Y-69957809D01*
X198745238Y-70053047D01*
X198840476Y-70148285D01*
X198888095Y-70243523D01*
X79480476Y-46652380D02*
X79480476Y-47366666D01*
X79432857Y-47509523D01*
X79337619Y-47604761D01*
X79194761Y-47652380D01*
X79099523Y-47652380D01*
X80480476Y-47652380D02*
X79909047Y-47652380D01*
X80194761Y-47652380D02*
X80194761Y-46652380D01*
X80099523Y-46795238D01*
X80004285Y-46890476D01*
X79909047Y-46938095D01*
X81432857Y-47652380D02*
X80861428Y-47652380D01*
X81147142Y-47652380D02*
X81147142Y-46652380D01*
X81051904Y-46795238D01*
X80956666Y-46890476D01*
X80861428Y-46938095D01*
X132340476Y-101652380D02*
X132673809Y-102652380D01*
X133007142Y-101652380D01*
X133911904Y-102652380D02*
X133578571Y-102176190D01*
X133340476Y-102652380D02*
X133340476Y-101652380D01*
X133721428Y-101652380D01*
X133816666Y-101700000D01*
X133864285Y-101747619D01*
X133911904Y-101842857D01*
X133911904Y-101985714D01*
X133864285Y-102080952D01*
X133816666Y-102128571D01*
X133721428Y-102176190D01*
X133340476Y-102176190D01*
X134769047Y-101985714D02*
X134769047Y-102652380D01*
X134530952Y-101604761D02*
X134292857Y-102319047D01*
X134911904Y-102319047D01*
X105907142Y-35767857D02*
X105954761Y-35815476D01*
X106002380Y-35958333D01*
X106002380Y-36053571D01*
X105954761Y-36196428D01*
X105859523Y-36291666D01*
X105764285Y-36339285D01*
X105573809Y-36386904D01*
X105430952Y-36386904D01*
X105240476Y-36339285D01*
X105145238Y-36291666D01*
X105050000Y-36196428D01*
X105002380Y-36053571D01*
X105002380Y-35958333D01*
X105050000Y-35815476D01*
X105097619Y-35767857D01*
X106002380Y-34815476D02*
X106002380Y-35386904D01*
X106002380Y-35101190D02*
X105002380Y-35101190D01*
X105145238Y-35196428D01*
X105240476Y-35291666D01*
X105288095Y-35386904D01*
X105430952Y-34244047D02*
X105383333Y-34339285D01*
X105335714Y-34386904D01*
X105240476Y-34434523D01*
X105192857Y-34434523D01*
X105097619Y-34386904D01*
X105050000Y-34339285D01*
X105002380Y-34244047D01*
X105002380Y-34053571D01*
X105050000Y-33958333D01*
X105097619Y-33910714D01*
X105192857Y-33863095D01*
X105240476Y-33863095D01*
X105335714Y-33910714D01*
X105383333Y-33958333D01*
X105430952Y-34053571D01*
X105430952Y-34244047D01*
X105478571Y-34339285D01*
X105526190Y-34386904D01*
X105621428Y-34434523D01*
X105811904Y-34434523D01*
X105907142Y-34386904D01*
X105954761Y-34339285D01*
X106002380Y-34244047D01*
X106002380Y-34053571D01*
X105954761Y-33958333D01*
X105907142Y-33910714D01*
X105811904Y-33863095D01*
X105621428Y-33863095D01*
X105526190Y-33910714D01*
X105478571Y-33958333D01*
X105430952Y-34053571D01*
X80157142Y-62517857D02*
X80204761Y-62565476D01*
X80252380Y-62708333D01*
X80252380Y-62803571D01*
X80204761Y-62946428D01*
X80109523Y-63041666D01*
X80014285Y-63089285D01*
X79823809Y-63136904D01*
X79680952Y-63136904D01*
X79490476Y-63089285D01*
X79395238Y-63041666D01*
X79300000Y-62946428D01*
X79252380Y-62803571D01*
X79252380Y-62708333D01*
X79300000Y-62565476D01*
X79347619Y-62517857D01*
X79347619Y-62136904D02*
X79300000Y-62089285D01*
X79252380Y-61994047D01*
X79252380Y-61755952D01*
X79300000Y-61660714D01*
X79347619Y-61613095D01*
X79442857Y-61565476D01*
X79538095Y-61565476D01*
X79680952Y-61613095D01*
X80252380Y-62184523D01*
X80252380Y-61565476D01*
X80252380Y-60613095D02*
X80252380Y-61184523D01*
X80252380Y-60898809D02*
X79252380Y-60898809D01*
X79395238Y-60994047D01*
X79490476Y-61089285D01*
X79538095Y-61184523D01*
X118067142Y-33742857D02*
X118114761Y-33790476D01*
X118162380Y-33933333D01*
X118162380Y-34028571D01*
X118114761Y-34171428D01*
X118019523Y-34266666D01*
X117924285Y-34314285D01*
X117733809Y-34361904D01*
X117590952Y-34361904D01*
X117400476Y-34314285D01*
X117305238Y-34266666D01*
X117210000Y-34171428D01*
X117162380Y-34028571D01*
X117162380Y-33933333D01*
X117210000Y-33790476D01*
X117257619Y-33742857D01*
X117257619Y-33361904D02*
X117210000Y-33314285D01*
X117162380Y-33219047D01*
X117162380Y-32980952D01*
X117210000Y-32885714D01*
X117257619Y-32838095D01*
X117352857Y-32790476D01*
X117448095Y-32790476D01*
X117590952Y-32838095D01*
X118162380Y-33409523D01*
X118162380Y-32790476D01*
X117257619Y-32409523D02*
X117210000Y-32361904D01*
X117162380Y-32266666D01*
X117162380Y-32028571D01*
X117210000Y-31933333D01*
X117257619Y-31885714D01*
X117352857Y-31838095D01*
X117448095Y-31838095D01*
X117590952Y-31885714D01*
X118162380Y-32457142D01*
X118162380Y-31838095D01*
X108237142Y-33742857D02*
X108284761Y-33790476D01*
X108332380Y-33933333D01*
X108332380Y-34028571D01*
X108284761Y-34171428D01*
X108189523Y-34266666D01*
X108094285Y-34314285D01*
X107903809Y-34361904D01*
X107760952Y-34361904D01*
X107570476Y-34314285D01*
X107475238Y-34266666D01*
X107380000Y-34171428D01*
X107332380Y-34028571D01*
X107332380Y-33933333D01*
X107380000Y-33790476D01*
X107427619Y-33742857D01*
X107427619Y-33361904D02*
X107380000Y-33314285D01*
X107332380Y-33219047D01*
X107332380Y-32980952D01*
X107380000Y-32885714D01*
X107427619Y-32838095D01*
X107522857Y-32790476D01*
X107618095Y-32790476D01*
X107760952Y-32838095D01*
X108332380Y-33409523D01*
X108332380Y-32790476D01*
X107332380Y-32457142D02*
X107332380Y-31838095D01*
X107713333Y-32171428D01*
X107713333Y-32028571D01*
X107760952Y-31933333D01*
X107808571Y-31885714D01*
X107903809Y-31838095D01*
X108141904Y-31838095D01*
X108237142Y-31885714D01*
X108284761Y-31933333D01*
X108332380Y-32028571D01*
X108332380Y-32314285D01*
X108284761Y-32409523D01*
X108237142Y-32457142D01*
X121657142Y-61182142D02*
X121609523Y-61229761D01*
X121466666Y-61277380D01*
X121371428Y-61277380D01*
X121228571Y-61229761D01*
X121133333Y-61134523D01*
X121085714Y-61039285D01*
X121038095Y-60848809D01*
X121038095Y-60705952D01*
X121085714Y-60515476D01*
X121133333Y-60420238D01*
X121228571Y-60325000D01*
X121371428Y-60277380D01*
X121466666Y-60277380D01*
X121609523Y-60325000D01*
X121657142Y-60372619D01*
X122038095Y-60372619D02*
X122085714Y-60325000D01*
X122180952Y-60277380D01*
X122419047Y-60277380D01*
X122514285Y-60325000D01*
X122561904Y-60372619D01*
X122609523Y-60467857D01*
X122609523Y-60563095D01*
X122561904Y-60705952D01*
X121990476Y-61277380D01*
X122609523Y-61277380D01*
X123514285Y-60277380D02*
X123038095Y-60277380D01*
X122990476Y-60753571D01*
X123038095Y-60705952D01*
X123133333Y-60658333D01*
X123371428Y-60658333D01*
X123466666Y-60705952D01*
X123514285Y-60753571D01*
X123561904Y-60848809D01*
X123561904Y-61086904D01*
X123514285Y-61182142D01*
X123466666Y-61229761D01*
X123371428Y-61277380D01*
X123133333Y-61277380D01*
X123038095Y-61229761D01*
X122990476Y-61182142D01*
X116357142Y-31437142D02*
X116309523Y-31484761D01*
X116166666Y-31532380D01*
X116071428Y-31532380D01*
X115928571Y-31484761D01*
X115833333Y-31389523D01*
X115785714Y-31294285D01*
X115738095Y-31103809D01*
X115738095Y-30960952D01*
X115785714Y-30770476D01*
X115833333Y-30675238D01*
X115928571Y-30580000D01*
X116071428Y-30532380D01*
X116166666Y-30532380D01*
X116309523Y-30580000D01*
X116357142Y-30627619D01*
X116738095Y-30627619D02*
X116785714Y-30580000D01*
X116880952Y-30532380D01*
X117119047Y-30532380D01*
X117214285Y-30580000D01*
X117261904Y-30627619D01*
X117309523Y-30722857D01*
X117309523Y-30818095D01*
X117261904Y-30960952D01*
X116690476Y-31532380D01*
X117309523Y-31532380D01*
X117642857Y-30532380D02*
X118309523Y-30532380D01*
X117880952Y-31532380D01*
X122507142Y-55062857D02*
X122554761Y-55110476D01*
X122602380Y-55253333D01*
X122602380Y-55348571D01*
X122554761Y-55491428D01*
X122459523Y-55586666D01*
X122364285Y-55634285D01*
X122173809Y-55681904D01*
X122030952Y-55681904D01*
X121840476Y-55634285D01*
X121745238Y-55586666D01*
X121650000Y-55491428D01*
X121602380Y-55348571D01*
X121602380Y-55253333D01*
X121650000Y-55110476D01*
X121697619Y-55062857D01*
X121697619Y-54681904D02*
X121650000Y-54634285D01*
X121602380Y-54539047D01*
X121602380Y-54300952D01*
X121650000Y-54205714D01*
X121697619Y-54158095D01*
X121792857Y-54110476D01*
X121888095Y-54110476D01*
X122030952Y-54158095D01*
X122602380Y-54729523D01*
X122602380Y-54110476D01*
X122030952Y-53539047D02*
X121983333Y-53634285D01*
X121935714Y-53681904D01*
X121840476Y-53729523D01*
X121792857Y-53729523D01*
X121697619Y-53681904D01*
X121650000Y-53634285D01*
X121602380Y-53539047D01*
X121602380Y-53348571D01*
X121650000Y-53253333D01*
X121697619Y-53205714D01*
X121792857Y-53158095D01*
X121840476Y-53158095D01*
X121935714Y-53205714D01*
X121983333Y-53253333D01*
X122030952Y-53348571D01*
X122030952Y-53539047D01*
X122078571Y-53634285D01*
X122126190Y-53681904D01*
X122221428Y-53729523D01*
X122411904Y-53729523D01*
X122507142Y-53681904D01*
X122554761Y-53634285D01*
X122602380Y-53539047D01*
X122602380Y-53348571D01*
X122554761Y-53253333D01*
X122507142Y-53205714D01*
X122411904Y-53158095D01*
X122221428Y-53158095D01*
X122126190Y-53205714D01*
X122078571Y-53253333D01*
X122030952Y-53348571D01*
X137982142Y-49557142D02*
X137934523Y-49604761D01*
X137791666Y-49652380D01*
X137696428Y-49652380D01*
X137553571Y-49604761D01*
X137458333Y-49509523D01*
X137410714Y-49414285D01*
X137363095Y-49223809D01*
X137363095Y-49080952D01*
X137410714Y-48890476D01*
X137458333Y-48795238D01*
X137553571Y-48700000D01*
X137696428Y-48652380D01*
X137791666Y-48652380D01*
X137934523Y-48700000D01*
X137982142Y-48747619D01*
X138363095Y-48747619D02*
X138410714Y-48700000D01*
X138505952Y-48652380D01*
X138744047Y-48652380D01*
X138839285Y-48700000D01*
X138886904Y-48747619D01*
X138934523Y-48842857D01*
X138934523Y-48938095D01*
X138886904Y-49080952D01*
X138315476Y-49652380D01*
X138934523Y-49652380D01*
X139791666Y-48652380D02*
X139601190Y-48652380D01*
X139505952Y-48700000D01*
X139458333Y-48747619D01*
X139363095Y-48890476D01*
X139315476Y-49080952D01*
X139315476Y-49461904D01*
X139363095Y-49557142D01*
X139410714Y-49604761D01*
X139505952Y-49652380D01*
X139696428Y-49652380D01*
X139791666Y-49604761D01*
X139839285Y-49557142D01*
X139886904Y-49461904D01*
X139886904Y-49223809D01*
X139839285Y-49128571D01*
X139791666Y-49080952D01*
X139696428Y-49033333D01*
X139505952Y-49033333D01*
X139410714Y-49080952D01*
X139363095Y-49128571D01*
X139315476Y-49223809D01*
X84907142Y-58557142D02*
X84859523Y-58604761D01*
X84716666Y-58652380D01*
X84621428Y-58652380D01*
X84478571Y-58604761D01*
X84383333Y-58509523D01*
X84335714Y-58414285D01*
X84288095Y-58223809D01*
X84288095Y-58080952D01*
X84335714Y-57890476D01*
X84383333Y-57795238D01*
X84478571Y-57700000D01*
X84621428Y-57652380D01*
X84716666Y-57652380D01*
X84859523Y-57700000D01*
X84907142Y-57747619D01*
X85288095Y-57747619D02*
X85335714Y-57700000D01*
X85430952Y-57652380D01*
X85669047Y-57652380D01*
X85764285Y-57700000D01*
X85811904Y-57747619D01*
X85859523Y-57842857D01*
X85859523Y-57938095D01*
X85811904Y-58080952D01*
X85240476Y-58652380D01*
X85859523Y-58652380D01*
X86716666Y-57985714D02*
X86716666Y-58652380D01*
X86478571Y-57604761D02*
X86240476Y-58319047D01*
X86859523Y-58319047D01*
X112882142Y-41942857D02*
X112929761Y-41990476D01*
X112977380Y-42133333D01*
X112977380Y-42228571D01*
X112929761Y-42371428D01*
X112834523Y-42466666D01*
X112739285Y-42514285D01*
X112548809Y-42561904D01*
X112405952Y-42561904D01*
X112215476Y-42514285D01*
X112120238Y-42466666D01*
X112025000Y-42371428D01*
X111977380Y-42228571D01*
X111977380Y-42133333D01*
X112025000Y-41990476D01*
X112072619Y-41942857D01*
X111977380Y-41609523D02*
X111977380Y-40990476D01*
X112358333Y-41323809D01*
X112358333Y-41180952D01*
X112405952Y-41085714D01*
X112453571Y-41038095D01*
X112548809Y-40990476D01*
X112786904Y-40990476D01*
X112882142Y-41038095D01*
X112929761Y-41085714D01*
X112977380Y-41180952D01*
X112977380Y-41466666D01*
X112929761Y-41561904D01*
X112882142Y-41609523D01*
X111977380Y-40085714D02*
X111977380Y-40561904D01*
X112453571Y-40609523D01*
X112405952Y-40561904D01*
X112358333Y-40466666D01*
X112358333Y-40228571D01*
X112405952Y-40133333D01*
X112453571Y-40085714D01*
X112548809Y-40038095D01*
X112786904Y-40038095D01*
X112882142Y-40085714D01*
X112929761Y-40133333D01*
X112977380Y-40228571D01*
X112977380Y-40466666D01*
X112929761Y-40561904D01*
X112882142Y-40609523D01*
X139782142Y-51892857D02*
X139829761Y-51940476D01*
X139877380Y-52083333D01*
X139877380Y-52178571D01*
X139829761Y-52321428D01*
X139734523Y-52416666D01*
X139639285Y-52464285D01*
X139448809Y-52511904D01*
X139305952Y-52511904D01*
X139115476Y-52464285D01*
X139020238Y-52416666D01*
X138925000Y-52321428D01*
X138877380Y-52178571D01*
X138877380Y-52083333D01*
X138925000Y-51940476D01*
X138972619Y-51892857D01*
X138877380Y-51559523D02*
X138877380Y-50940476D01*
X139258333Y-51273809D01*
X139258333Y-51130952D01*
X139305952Y-51035714D01*
X139353571Y-50988095D01*
X139448809Y-50940476D01*
X139686904Y-50940476D01*
X139782142Y-50988095D01*
X139829761Y-51035714D01*
X139877380Y-51130952D01*
X139877380Y-51416666D01*
X139829761Y-51511904D01*
X139782142Y-51559523D01*
X139210714Y-50083333D02*
X139877380Y-50083333D01*
X138829761Y-50321428D02*
X139544047Y-50559523D01*
X139544047Y-49940476D01*
X109732142Y-43707142D02*
X109684523Y-43754761D01*
X109541666Y-43802380D01*
X109446428Y-43802380D01*
X109303571Y-43754761D01*
X109208333Y-43659523D01*
X109160714Y-43564285D01*
X109113095Y-43373809D01*
X109113095Y-43230952D01*
X109160714Y-43040476D01*
X109208333Y-42945238D01*
X109303571Y-42850000D01*
X109446428Y-42802380D01*
X109541666Y-42802380D01*
X109684523Y-42850000D01*
X109732142Y-42897619D01*
X110065476Y-42802380D02*
X110684523Y-42802380D01*
X110351190Y-43183333D01*
X110494047Y-43183333D01*
X110589285Y-43230952D01*
X110636904Y-43278571D01*
X110684523Y-43373809D01*
X110684523Y-43611904D01*
X110636904Y-43707142D01*
X110589285Y-43754761D01*
X110494047Y-43802380D01*
X110208333Y-43802380D01*
X110113095Y-43754761D01*
X110065476Y-43707142D01*
X111017857Y-42802380D02*
X111636904Y-42802380D01*
X111303571Y-43183333D01*
X111446428Y-43183333D01*
X111541666Y-43230952D01*
X111589285Y-43278571D01*
X111636904Y-43373809D01*
X111636904Y-43611904D01*
X111589285Y-43707142D01*
X111541666Y-43754761D01*
X111446428Y-43802380D01*
X111160714Y-43802380D01*
X111065476Y-43754761D01*
X111017857Y-43707142D01*
X115282142Y-43682142D02*
X115234523Y-43729761D01*
X115091666Y-43777380D01*
X114996428Y-43777380D01*
X114853571Y-43729761D01*
X114758333Y-43634523D01*
X114710714Y-43539285D01*
X114663095Y-43348809D01*
X114663095Y-43205952D01*
X114710714Y-43015476D01*
X114758333Y-42920238D01*
X114853571Y-42825000D01*
X114996428Y-42777380D01*
X115091666Y-42777380D01*
X115234523Y-42825000D01*
X115282142Y-42872619D01*
X115615476Y-42777380D02*
X116234523Y-42777380D01*
X115901190Y-43158333D01*
X116044047Y-43158333D01*
X116139285Y-43205952D01*
X116186904Y-43253571D01*
X116234523Y-43348809D01*
X116234523Y-43586904D01*
X116186904Y-43682142D01*
X116139285Y-43729761D01*
X116044047Y-43777380D01*
X115758333Y-43777380D01*
X115663095Y-43729761D01*
X115615476Y-43682142D01*
X116615476Y-42872619D02*
X116663095Y-42825000D01*
X116758333Y-42777380D01*
X116996428Y-42777380D01*
X117091666Y-42825000D01*
X117139285Y-42872619D01*
X117186904Y-42967857D01*
X117186904Y-43063095D01*
X117139285Y-43205952D01*
X116567857Y-43777380D01*
X117186904Y-43777380D01*
X88607142Y-58232142D02*
X88559523Y-58279761D01*
X88416666Y-58327380D01*
X88321428Y-58327380D01*
X88178571Y-58279761D01*
X88083333Y-58184523D01*
X88035714Y-58089285D01*
X87988095Y-57898809D01*
X87988095Y-57755952D01*
X88035714Y-57565476D01*
X88083333Y-57470238D01*
X88178571Y-57375000D01*
X88321428Y-57327380D01*
X88416666Y-57327380D01*
X88559523Y-57375000D01*
X88607142Y-57422619D01*
X88940476Y-57327380D02*
X89559523Y-57327380D01*
X89226190Y-57708333D01*
X89369047Y-57708333D01*
X89464285Y-57755952D01*
X89511904Y-57803571D01*
X89559523Y-57898809D01*
X89559523Y-58136904D01*
X89511904Y-58232142D01*
X89464285Y-58279761D01*
X89369047Y-58327380D01*
X89083333Y-58327380D01*
X88988095Y-58279761D01*
X88940476Y-58232142D01*
X90511904Y-58327380D02*
X89940476Y-58327380D01*
X90226190Y-58327380D02*
X90226190Y-57327380D01*
X90130952Y-57470238D01*
X90035714Y-57565476D01*
X89940476Y-57613095D01*
X107907142Y-31307142D02*
X107859523Y-31354761D01*
X107716666Y-31402380D01*
X107621428Y-31402380D01*
X107478571Y-31354761D01*
X107383333Y-31259523D01*
X107335714Y-31164285D01*
X107288095Y-30973809D01*
X107288095Y-30830952D01*
X107335714Y-30640476D01*
X107383333Y-30545238D01*
X107478571Y-30450000D01*
X107621428Y-30402380D01*
X107716666Y-30402380D01*
X107859523Y-30450000D01*
X107907142Y-30497619D01*
X108240476Y-30402380D02*
X108859523Y-30402380D01*
X108526190Y-30783333D01*
X108669047Y-30783333D01*
X108764285Y-30830952D01*
X108811904Y-30878571D01*
X108859523Y-30973809D01*
X108859523Y-31211904D01*
X108811904Y-31307142D01*
X108764285Y-31354761D01*
X108669047Y-31402380D01*
X108383333Y-31402380D01*
X108288095Y-31354761D01*
X108240476Y-31307142D01*
X109478571Y-30402380D02*
X109573809Y-30402380D01*
X109669047Y-30450000D01*
X109716666Y-30497619D01*
X109764285Y-30592857D01*
X109811904Y-30783333D01*
X109811904Y-31021428D01*
X109764285Y-31211904D01*
X109716666Y-31307142D01*
X109669047Y-31354761D01*
X109573809Y-31402380D01*
X109478571Y-31402380D01*
X109383333Y-31354761D01*
X109335714Y-31307142D01*
X109288095Y-31211904D01*
X109240476Y-31021428D01*
X109240476Y-30783333D01*
X109288095Y-30592857D01*
X109335714Y-30497619D01*
X109383333Y-30450000D01*
X109478571Y-30402380D01*
X112532142Y-43707142D02*
X112484523Y-43754761D01*
X112341666Y-43802380D01*
X112246428Y-43802380D01*
X112103571Y-43754761D01*
X112008333Y-43659523D01*
X111960714Y-43564285D01*
X111913095Y-43373809D01*
X111913095Y-43230952D01*
X111960714Y-43040476D01*
X112008333Y-42945238D01*
X112103571Y-42850000D01*
X112246428Y-42802380D01*
X112341666Y-42802380D01*
X112484523Y-42850000D01*
X112532142Y-42897619D01*
X112865476Y-42802380D02*
X113484523Y-42802380D01*
X113151190Y-43183333D01*
X113294047Y-43183333D01*
X113389285Y-43230952D01*
X113436904Y-43278571D01*
X113484523Y-43373809D01*
X113484523Y-43611904D01*
X113436904Y-43707142D01*
X113389285Y-43754761D01*
X113294047Y-43802380D01*
X113008333Y-43802380D01*
X112913095Y-43754761D01*
X112865476Y-43707142D01*
X114341666Y-42802380D02*
X114151190Y-42802380D01*
X114055952Y-42850000D01*
X114008333Y-42897619D01*
X113913095Y-43040476D01*
X113865476Y-43230952D01*
X113865476Y-43611904D01*
X113913095Y-43707142D01*
X113960714Y-43754761D01*
X114055952Y-43802380D01*
X114246428Y-43802380D01*
X114341666Y-43754761D01*
X114389285Y-43707142D01*
X114436904Y-43611904D01*
X114436904Y-43373809D01*
X114389285Y-43278571D01*
X114341666Y-43230952D01*
X114246428Y-43183333D01*
X114055952Y-43183333D01*
X113960714Y-43230952D01*
X113913095Y-43278571D01*
X113865476Y-43373809D01*
X139807142Y-54717857D02*
X139854761Y-54765476D01*
X139902380Y-54908333D01*
X139902380Y-55003571D01*
X139854761Y-55146428D01*
X139759523Y-55241666D01*
X139664285Y-55289285D01*
X139473809Y-55336904D01*
X139330952Y-55336904D01*
X139140476Y-55289285D01*
X139045238Y-55241666D01*
X138950000Y-55146428D01*
X138902380Y-55003571D01*
X138902380Y-54908333D01*
X138950000Y-54765476D01*
X138997619Y-54717857D01*
X138997619Y-54336904D02*
X138950000Y-54289285D01*
X138902380Y-54194047D01*
X138902380Y-53955952D01*
X138950000Y-53860714D01*
X138997619Y-53813095D01*
X139092857Y-53765476D01*
X139188095Y-53765476D01*
X139330952Y-53813095D01*
X139902380Y-54384523D01*
X139902380Y-53765476D01*
X138902380Y-53146428D02*
X138902380Y-53051190D01*
X138950000Y-52955952D01*
X138997619Y-52908333D01*
X139092857Y-52860714D01*
X139283333Y-52813095D01*
X139521428Y-52813095D01*
X139711904Y-52860714D01*
X139807142Y-52908333D01*
X139854761Y-52955952D01*
X139902380Y-53051190D01*
X139902380Y-53146428D01*
X139854761Y-53241666D01*
X139807142Y-53289285D01*
X139711904Y-53336904D01*
X139521428Y-53384523D01*
X139283333Y-53384523D01*
X139092857Y-53336904D01*
X138997619Y-53289285D01*
X138950000Y-53241666D01*
X138902380Y-53146428D01*
X122532142Y-58142857D02*
X122579761Y-58190476D01*
X122627380Y-58333333D01*
X122627380Y-58428571D01*
X122579761Y-58571428D01*
X122484523Y-58666666D01*
X122389285Y-58714285D01*
X122198809Y-58761904D01*
X122055952Y-58761904D01*
X121865476Y-58714285D01*
X121770238Y-58666666D01*
X121675000Y-58571428D01*
X121627380Y-58428571D01*
X121627380Y-58333333D01*
X121675000Y-58190476D01*
X121722619Y-58142857D01*
X121722619Y-57761904D02*
X121675000Y-57714285D01*
X121627380Y-57619047D01*
X121627380Y-57380952D01*
X121675000Y-57285714D01*
X121722619Y-57238095D01*
X121817857Y-57190476D01*
X121913095Y-57190476D01*
X122055952Y-57238095D01*
X122627380Y-57809523D01*
X122627380Y-57190476D01*
X122627380Y-56714285D02*
X122627380Y-56523809D01*
X122579761Y-56428571D01*
X122532142Y-56380952D01*
X122389285Y-56285714D01*
X122198809Y-56238095D01*
X121817857Y-56238095D01*
X121722619Y-56285714D01*
X121675000Y-56333333D01*
X121627380Y-56428571D01*
X121627380Y-56619047D01*
X121675000Y-56714285D01*
X121722619Y-56761904D01*
X121817857Y-56809523D01*
X122055952Y-56809523D01*
X122151190Y-56761904D01*
X122198809Y-56714285D01*
X122246428Y-56619047D01*
X122246428Y-56428571D01*
X122198809Y-56333333D01*
X122151190Y-56285714D01*
X122055952Y-56238095D01*
X172882142Y-33257142D02*
X172834523Y-33304761D01*
X172691666Y-33352380D01*
X172596428Y-33352380D01*
X172453571Y-33304761D01*
X172358333Y-33209523D01*
X172310714Y-33114285D01*
X172263095Y-32923809D01*
X172263095Y-32780952D01*
X172310714Y-32590476D01*
X172358333Y-32495238D01*
X172453571Y-32400000D01*
X172596428Y-32352380D01*
X172691666Y-32352380D01*
X172834523Y-32400000D01*
X172882142Y-32447619D01*
X173739285Y-32685714D02*
X173739285Y-33352380D01*
X173501190Y-32304761D02*
X173263095Y-33019047D01*
X173882142Y-33019047D01*
X174691666Y-32685714D02*
X174691666Y-33352380D01*
X174453571Y-32304761D02*
X174215476Y-33019047D01*
X174834523Y-33019047D01*
X198715333Y-62333142D02*
X198667714Y-62380761D01*
X198524857Y-62428380D01*
X198429619Y-62428380D01*
X198286761Y-62380761D01*
X198191523Y-62285523D01*
X198143904Y-62190285D01*
X198096285Y-61999809D01*
X198096285Y-61856952D01*
X198143904Y-61666476D01*
X198191523Y-61571238D01*
X198286761Y-61476000D01*
X198429619Y-61428380D01*
X198524857Y-61428380D01*
X198667714Y-61476000D01*
X198715333Y-61523619D01*
X199048666Y-61428380D02*
X199667714Y-61428380D01*
X199334380Y-61809333D01*
X199477238Y-61809333D01*
X199572476Y-61856952D01*
X199620095Y-61904571D01*
X199667714Y-61999809D01*
X199667714Y-62237904D01*
X199620095Y-62333142D01*
X199572476Y-62380761D01*
X199477238Y-62428380D01*
X199191523Y-62428380D01*
X199096285Y-62380761D01*
X199048666Y-62333142D01*
X149032142Y-33157142D02*
X148984523Y-33204761D01*
X148841666Y-33252380D01*
X148746428Y-33252380D01*
X148603571Y-33204761D01*
X148508333Y-33109523D01*
X148460714Y-33014285D01*
X148413095Y-32823809D01*
X148413095Y-32680952D01*
X148460714Y-32490476D01*
X148508333Y-32395238D01*
X148603571Y-32300000D01*
X148746428Y-32252380D01*
X148841666Y-32252380D01*
X148984523Y-32300000D01*
X149032142Y-32347619D01*
X149889285Y-32585714D02*
X149889285Y-33252380D01*
X149651190Y-32204761D02*
X149413095Y-32919047D01*
X150032142Y-32919047D01*
X150317857Y-32252380D02*
X150936904Y-32252380D01*
X150603571Y-32633333D01*
X150746428Y-32633333D01*
X150841666Y-32680952D01*
X150889285Y-32728571D01*
X150936904Y-32823809D01*
X150936904Y-33061904D01*
X150889285Y-33157142D01*
X150841666Y-33204761D01*
X150746428Y-33252380D01*
X150460714Y-33252380D01*
X150365476Y-33204761D01*
X150317857Y-33157142D01*
X128662142Y-35127857D02*
X128709761Y-35175476D01*
X128757380Y-35318333D01*
X128757380Y-35413571D01*
X128709761Y-35556428D01*
X128614523Y-35651666D01*
X128519285Y-35699285D01*
X128328809Y-35746904D01*
X128185952Y-35746904D01*
X127995476Y-35699285D01*
X127900238Y-35651666D01*
X127805000Y-35556428D01*
X127757380Y-35413571D01*
X127757380Y-35318333D01*
X127805000Y-35175476D01*
X127852619Y-35127857D01*
X128090714Y-34270714D02*
X128757380Y-34270714D01*
X127709761Y-34508809D02*
X128424047Y-34746904D01*
X128424047Y-34127857D01*
X127852619Y-33794523D02*
X127805000Y-33746904D01*
X127757380Y-33651666D01*
X127757380Y-33413571D01*
X127805000Y-33318333D01*
X127852619Y-33270714D01*
X127947857Y-33223095D01*
X128043095Y-33223095D01*
X128185952Y-33270714D01*
X128757380Y-33842142D01*
X128757380Y-33223095D01*
X148517142Y-25286666D02*
X148564761Y-25334285D01*
X148612380Y-25477142D01*
X148612380Y-25572380D01*
X148564761Y-25715238D01*
X148469523Y-25810476D01*
X148374285Y-25858095D01*
X148183809Y-25905714D01*
X148040952Y-25905714D01*
X147850476Y-25858095D01*
X147755238Y-25810476D01*
X147660000Y-25715238D01*
X147612380Y-25572380D01*
X147612380Y-25477142D01*
X147660000Y-25334285D01*
X147707619Y-25286666D01*
X147612380Y-24953333D02*
X147612380Y-24286666D01*
X148612380Y-24715238D01*
X167747142Y-25486666D02*
X167794761Y-25534285D01*
X167842380Y-25677142D01*
X167842380Y-25772380D01*
X167794761Y-25915238D01*
X167699523Y-26010476D01*
X167604285Y-26058095D01*
X167413809Y-26105714D01*
X167270952Y-26105714D01*
X167080476Y-26058095D01*
X166985238Y-26010476D01*
X166890000Y-25915238D01*
X166842380Y-25772380D01*
X166842380Y-25677142D01*
X166890000Y-25534285D01*
X166937619Y-25486666D01*
X167270952Y-24915238D02*
X167223333Y-25010476D01*
X167175714Y-25058095D01*
X167080476Y-25105714D01*
X167032857Y-25105714D01*
X166937619Y-25058095D01*
X166890000Y-25010476D01*
X166842380Y-24915238D01*
X166842380Y-24724761D01*
X166890000Y-24629523D01*
X166937619Y-24581904D01*
X167032857Y-24534285D01*
X167080476Y-24534285D01*
X167175714Y-24581904D01*
X167223333Y-24629523D01*
X167270952Y-24724761D01*
X167270952Y-24915238D01*
X167318571Y-25010476D01*
X167366190Y-25058095D01*
X167461428Y-25105714D01*
X167651904Y-25105714D01*
X167747142Y-25058095D01*
X167794761Y-25010476D01*
X167842380Y-24915238D01*
X167842380Y-24724761D01*
X167794761Y-24629523D01*
X167747142Y-24581904D01*
X167651904Y-24534285D01*
X167461428Y-24534285D01*
X167366190Y-24581904D01*
X167318571Y-24629523D01*
X167270952Y-24724761D01*
X88732142Y-35067857D02*
X88779761Y-35115476D01*
X88827380Y-35258333D01*
X88827380Y-35353571D01*
X88779761Y-35496428D01*
X88684523Y-35591666D01*
X88589285Y-35639285D01*
X88398809Y-35686904D01*
X88255952Y-35686904D01*
X88065476Y-35639285D01*
X87970238Y-35591666D01*
X87875000Y-35496428D01*
X87827380Y-35353571D01*
X87827380Y-35258333D01*
X87875000Y-35115476D01*
X87922619Y-35067857D01*
X88827380Y-34115476D02*
X88827380Y-34686904D01*
X88827380Y-34401190D02*
X87827380Y-34401190D01*
X87970238Y-34496428D01*
X88065476Y-34591666D01*
X88113095Y-34686904D01*
X87827380Y-33782142D02*
X87827380Y-33115476D01*
X88827380Y-33544047D01*
X130477142Y-31062857D02*
X130524761Y-31110476D01*
X130572380Y-31253333D01*
X130572380Y-31348571D01*
X130524761Y-31491428D01*
X130429523Y-31586666D01*
X130334285Y-31634285D01*
X130143809Y-31681904D01*
X130000952Y-31681904D01*
X129810476Y-31634285D01*
X129715238Y-31586666D01*
X129620000Y-31491428D01*
X129572380Y-31348571D01*
X129572380Y-31253333D01*
X129620000Y-31110476D01*
X129667619Y-31062857D01*
X130572380Y-30110476D02*
X130572380Y-30681904D01*
X130572380Y-30396190D02*
X129572380Y-30396190D01*
X129715238Y-30491428D01*
X129810476Y-30586666D01*
X129858095Y-30681904D01*
X129572380Y-29491428D02*
X129572380Y-29396190D01*
X129620000Y-29300952D01*
X129667619Y-29253333D01*
X129762857Y-29205714D01*
X129953333Y-29158095D01*
X130191428Y-29158095D01*
X130381904Y-29205714D01*
X130477142Y-29253333D01*
X130524761Y-29300952D01*
X130572380Y-29396190D01*
X130572380Y-29491428D01*
X130524761Y-29586666D01*
X130477142Y-29634285D01*
X130381904Y-29681904D01*
X130191428Y-29729523D01*
X129953333Y-29729523D01*
X129762857Y-29681904D01*
X129667619Y-29634285D01*
X129620000Y-29586666D01*
X129572380Y-29491428D01*
X186793142Y-62904666D02*
X186840761Y-62952285D01*
X186888380Y-63095142D01*
X186888380Y-63190380D01*
X186840761Y-63333238D01*
X186745523Y-63428476D01*
X186650285Y-63476095D01*
X186459809Y-63523714D01*
X186316952Y-63523714D01*
X186126476Y-63476095D01*
X186031238Y-63428476D01*
X185936000Y-63333238D01*
X185888380Y-63190380D01*
X185888380Y-63095142D01*
X185936000Y-62952285D01*
X185983619Y-62904666D01*
X185983619Y-62523714D02*
X185936000Y-62476095D01*
X185888380Y-62380857D01*
X185888380Y-62142761D01*
X185936000Y-62047523D01*
X185983619Y-61999904D01*
X186078857Y-61952285D01*
X186174095Y-61952285D01*
X186316952Y-61999904D01*
X186888380Y-62571333D01*
X186888380Y-61952285D01*
X129207142Y-25566666D02*
X129254761Y-25614285D01*
X129302380Y-25757142D01*
X129302380Y-25852380D01*
X129254761Y-25995238D01*
X129159523Y-26090476D01*
X129064285Y-26138095D01*
X128873809Y-26185714D01*
X128730952Y-26185714D01*
X128540476Y-26138095D01*
X128445238Y-26090476D01*
X128350000Y-25995238D01*
X128302380Y-25852380D01*
X128302380Y-25757142D01*
X128350000Y-25614285D01*
X128397619Y-25566666D01*
X128302380Y-24709523D02*
X128302380Y-24900000D01*
X128350000Y-24995238D01*
X128397619Y-25042857D01*
X128540476Y-25138095D01*
X128730952Y-25185714D01*
X129111904Y-25185714D01*
X129207142Y-25138095D01*
X129254761Y-25090476D01*
X129302380Y-24995238D01*
X129302380Y-24804761D01*
X129254761Y-24709523D01*
X129207142Y-24661904D01*
X129111904Y-24614285D01*
X128873809Y-24614285D01*
X128778571Y-24661904D01*
X128730952Y-24709523D01*
X128683333Y-24804761D01*
X128683333Y-24995238D01*
X128730952Y-25090476D01*
X128778571Y-25138095D01*
X128873809Y-25185714D01*
X112607142Y-38432142D02*
X112559523Y-38479761D01*
X112416666Y-38527380D01*
X112321428Y-38527380D01*
X112178571Y-38479761D01*
X112083333Y-38384523D01*
X112035714Y-38289285D01*
X111988095Y-38098809D01*
X111988095Y-37955952D01*
X112035714Y-37765476D01*
X112083333Y-37670238D01*
X112178571Y-37575000D01*
X112321428Y-37527380D01*
X112416666Y-37527380D01*
X112559523Y-37575000D01*
X112607142Y-37622619D01*
X112940476Y-37527380D02*
X113559523Y-37527380D01*
X113226190Y-37908333D01*
X113369047Y-37908333D01*
X113464285Y-37955952D01*
X113511904Y-38003571D01*
X113559523Y-38098809D01*
X113559523Y-38336904D01*
X113511904Y-38432142D01*
X113464285Y-38479761D01*
X113369047Y-38527380D01*
X113083333Y-38527380D01*
X112988095Y-38479761D01*
X112940476Y-38432142D01*
X113892857Y-37527380D02*
X114559523Y-37527380D01*
X114130952Y-38527380D01*
X76957142Y-34422857D02*
X77004761Y-34470476D01*
X77052380Y-34613333D01*
X77052380Y-34708571D01*
X77004761Y-34851428D01*
X76909523Y-34946666D01*
X76814285Y-34994285D01*
X76623809Y-35041904D01*
X76480952Y-35041904D01*
X76290476Y-34994285D01*
X76195238Y-34946666D01*
X76100000Y-34851428D01*
X76052380Y-34708571D01*
X76052380Y-34613333D01*
X76100000Y-34470476D01*
X76147619Y-34422857D01*
X77052380Y-33470476D02*
X77052380Y-34041904D01*
X77052380Y-33756190D02*
X76052380Y-33756190D01*
X76195238Y-33851428D01*
X76290476Y-33946666D01*
X76338095Y-34041904D01*
X76052380Y-32613333D02*
X76052380Y-32803809D01*
X76100000Y-32899047D01*
X76147619Y-32946666D01*
X76290476Y-33041904D01*
X76480952Y-33089523D01*
X76861904Y-33089523D01*
X76957142Y-33041904D01*
X77004761Y-32994285D01*
X77052380Y-32899047D01*
X77052380Y-32708571D01*
X77004761Y-32613333D01*
X76957142Y-32565714D01*
X76861904Y-32518095D01*
X76623809Y-32518095D01*
X76528571Y-32565714D01*
X76480952Y-32613333D01*
X76433333Y-32708571D01*
X76433333Y-32899047D01*
X76480952Y-32994285D01*
X76528571Y-33041904D01*
X76623809Y-33089523D01*
X76957142Y-41942857D02*
X77004761Y-41990476D01*
X77052380Y-42133333D01*
X77052380Y-42228571D01*
X77004761Y-42371428D01*
X76909523Y-42466666D01*
X76814285Y-42514285D01*
X76623809Y-42561904D01*
X76480952Y-42561904D01*
X76290476Y-42514285D01*
X76195238Y-42466666D01*
X76100000Y-42371428D01*
X76052380Y-42228571D01*
X76052380Y-42133333D01*
X76100000Y-41990476D01*
X76147619Y-41942857D01*
X77052380Y-40990476D02*
X77052380Y-41561904D01*
X77052380Y-41276190D02*
X76052380Y-41276190D01*
X76195238Y-41371428D01*
X76290476Y-41466666D01*
X76338095Y-41561904D01*
X76052380Y-40085714D02*
X76052380Y-40561904D01*
X76528571Y-40609523D01*
X76480952Y-40561904D01*
X76433333Y-40466666D01*
X76433333Y-40228571D01*
X76480952Y-40133333D01*
X76528571Y-40085714D01*
X76623809Y-40038095D01*
X76861904Y-40038095D01*
X76957142Y-40085714D01*
X77004761Y-40133333D01*
X77052380Y-40228571D01*
X77052380Y-40466666D01*
X77004761Y-40561904D01*
X76957142Y-40609523D01*
X118207142Y-41867857D02*
X118254761Y-41915476D01*
X118302380Y-42058333D01*
X118302380Y-42153571D01*
X118254761Y-42296428D01*
X118159523Y-42391666D01*
X118064285Y-42439285D01*
X117873809Y-42486904D01*
X117730952Y-42486904D01*
X117540476Y-42439285D01*
X117445238Y-42391666D01*
X117350000Y-42296428D01*
X117302380Y-42153571D01*
X117302380Y-42058333D01*
X117350000Y-41915476D01*
X117397619Y-41867857D01*
X117302380Y-41534523D02*
X117302380Y-40915476D01*
X117683333Y-41248809D01*
X117683333Y-41105952D01*
X117730952Y-41010714D01*
X117778571Y-40963095D01*
X117873809Y-40915476D01*
X118111904Y-40915476D01*
X118207142Y-40963095D01*
X118254761Y-41010714D01*
X118302380Y-41105952D01*
X118302380Y-41391666D01*
X118254761Y-41486904D01*
X118207142Y-41534523D01*
X117730952Y-40344047D02*
X117683333Y-40439285D01*
X117635714Y-40486904D01*
X117540476Y-40534523D01*
X117492857Y-40534523D01*
X117397619Y-40486904D01*
X117350000Y-40439285D01*
X117302380Y-40344047D01*
X117302380Y-40153571D01*
X117350000Y-40058333D01*
X117397619Y-40010714D01*
X117492857Y-39963095D01*
X117540476Y-39963095D01*
X117635714Y-40010714D01*
X117683333Y-40058333D01*
X117730952Y-40153571D01*
X117730952Y-40344047D01*
X117778571Y-40439285D01*
X117826190Y-40486904D01*
X117921428Y-40534523D01*
X118111904Y-40534523D01*
X118207142Y-40486904D01*
X118254761Y-40439285D01*
X118302380Y-40344047D01*
X118302380Y-40153571D01*
X118254761Y-40058333D01*
X118207142Y-40010714D01*
X118111904Y-39963095D01*
X117921428Y-39963095D01*
X117826190Y-40010714D01*
X117778571Y-40058333D01*
X117730952Y-40153571D01*
X109032142Y-41992857D02*
X109079761Y-42040476D01*
X109127380Y-42183333D01*
X109127380Y-42278571D01*
X109079761Y-42421428D01*
X108984523Y-42516666D01*
X108889285Y-42564285D01*
X108698809Y-42611904D01*
X108555952Y-42611904D01*
X108365476Y-42564285D01*
X108270238Y-42516666D01*
X108175000Y-42421428D01*
X108127380Y-42278571D01*
X108127380Y-42183333D01*
X108175000Y-42040476D01*
X108222619Y-41992857D01*
X108127380Y-41659523D02*
X108127380Y-41040476D01*
X108508333Y-41373809D01*
X108508333Y-41230952D01*
X108555952Y-41135714D01*
X108603571Y-41088095D01*
X108698809Y-41040476D01*
X108936904Y-41040476D01*
X109032142Y-41088095D01*
X109079761Y-41135714D01*
X109127380Y-41230952D01*
X109127380Y-41516666D01*
X109079761Y-41611904D01*
X109032142Y-41659523D01*
X109127380Y-40564285D02*
X109127380Y-40373809D01*
X109079761Y-40278571D01*
X109032142Y-40230952D01*
X108889285Y-40135714D01*
X108698809Y-40088095D01*
X108317857Y-40088095D01*
X108222619Y-40135714D01*
X108175000Y-40183333D01*
X108127380Y-40278571D01*
X108127380Y-40469047D01*
X108175000Y-40564285D01*
X108222619Y-40611904D01*
X108317857Y-40659523D01*
X108555952Y-40659523D01*
X108651190Y-40611904D01*
X108698809Y-40564285D01*
X108746428Y-40469047D01*
X108746428Y-40278571D01*
X108698809Y-40183333D01*
X108651190Y-40135714D01*
X108555952Y-40088095D01*
X120982142Y-32607142D02*
X120934523Y-32654761D01*
X120791666Y-32702380D01*
X120696428Y-32702380D01*
X120553571Y-32654761D01*
X120458333Y-32559523D01*
X120410714Y-32464285D01*
X120363095Y-32273809D01*
X120363095Y-32130952D01*
X120410714Y-31940476D01*
X120458333Y-31845238D01*
X120553571Y-31750000D01*
X120696428Y-31702380D01*
X120791666Y-31702380D01*
X120934523Y-31750000D01*
X120982142Y-31797619D01*
X121839285Y-32035714D02*
X121839285Y-32702380D01*
X121601190Y-31654761D02*
X121363095Y-32369047D01*
X121982142Y-32369047D01*
X122553571Y-31702380D02*
X122648809Y-31702380D01*
X122744047Y-31750000D01*
X122791666Y-31797619D01*
X122839285Y-31892857D01*
X122886904Y-32083333D01*
X122886904Y-32321428D01*
X122839285Y-32511904D01*
X122791666Y-32607142D01*
X122744047Y-32654761D01*
X122648809Y-32702380D01*
X122553571Y-32702380D01*
X122458333Y-32654761D01*
X122410714Y-32607142D01*
X122363095Y-32511904D01*
X122315476Y-32321428D01*
X122315476Y-32083333D01*
X122363095Y-31892857D01*
X122410714Y-31797619D01*
X122458333Y-31750000D01*
X122553571Y-31702380D01*
X149897142Y-31142857D02*
X149944761Y-31190476D01*
X149992380Y-31333333D01*
X149992380Y-31428571D01*
X149944761Y-31571428D01*
X149849523Y-31666666D01*
X149754285Y-31714285D01*
X149563809Y-31761904D01*
X149420952Y-31761904D01*
X149230476Y-31714285D01*
X149135238Y-31666666D01*
X149040000Y-31571428D01*
X148992380Y-31428571D01*
X148992380Y-31333333D01*
X149040000Y-31190476D01*
X149087619Y-31142857D01*
X149992380Y-30190476D02*
X149992380Y-30761904D01*
X149992380Y-30476190D02*
X148992380Y-30476190D01*
X149135238Y-30571428D01*
X149230476Y-30666666D01*
X149278095Y-30761904D01*
X149992380Y-29238095D02*
X149992380Y-29809523D01*
X149992380Y-29523809D02*
X148992380Y-29523809D01*
X149135238Y-29619047D01*
X149230476Y-29714285D01*
X149278095Y-29809523D01*
X168987142Y-30076666D02*
X169034761Y-30124285D01*
X169082380Y-30267142D01*
X169082380Y-30362380D01*
X169034761Y-30505238D01*
X168939523Y-30600476D01*
X168844285Y-30648095D01*
X168653809Y-30695714D01*
X168510952Y-30695714D01*
X168320476Y-30648095D01*
X168225238Y-30600476D01*
X168130000Y-30505238D01*
X168082380Y-30362380D01*
X168082380Y-30267142D01*
X168130000Y-30124285D01*
X168177619Y-30076666D01*
X169082380Y-29600476D02*
X169082380Y-29410000D01*
X169034761Y-29314761D01*
X168987142Y-29267142D01*
X168844285Y-29171904D01*
X168653809Y-29124285D01*
X168272857Y-29124285D01*
X168177619Y-29171904D01*
X168130000Y-29219523D01*
X168082380Y-29314761D01*
X168082380Y-29505238D01*
X168130000Y-29600476D01*
X168177619Y-29648095D01*
X168272857Y-29695714D01*
X168510952Y-29695714D01*
X168606190Y-29648095D01*
X168653809Y-29600476D01*
X168701428Y-29505238D01*
X168701428Y-29314761D01*
X168653809Y-29219523D01*
X168606190Y-29171904D01*
X168510952Y-29124285D01*
X186777333Y-59285142D02*
X186729714Y-59332761D01*
X186586857Y-59380380D01*
X186491619Y-59380380D01*
X186348761Y-59332761D01*
X186253523Y-59237523D01*
X186205904Y-59142285D01*
X186158285Y-58951809D01*
X186158285Y-58808952D01*
X186205904Y-58618476D01*
X186253523Y-58523238D01*
X186348761Y-58428000D01*
X186491619Y-58380380D01*
X186586857Y-58380380D01*
X186729714Y-58428000D01*
X186777333Y-58475619D01*
X187729714Y-59380380D02*
X187158285Y-59380380D01*
X187444000Y-59380380D02*
X187444000Y-58380380D01*
X187348761Y-58523238D01*
X187253523Y-58618476D01*
X187158285Y-58666095D01*
X117697142Y-24927142D02*
X117649523Y-24974761D01*
X117506666Y-25022380D01*
X117411428Y-25022380D01*
X117268571Y-24974761D01*
X117173333Y-24879523D01*
X117125714Y-24784285D01*
X117078095Y-24593809D01*
X117078095Y-24450952D01*
X117125714Y-24260476D01*
X117173333Y-24165238D01*
X117268571Y-24070000D01*
X117411428Y-24022380D01*
X117506666Y-24022380D01*
X117649523Y-24070000D01*
X117697142Y-24117619D01*
X118649523Y-25022380D02*
X118078095Y-25022380D01*
X118363809Y-25022380D02*
X118363809Y-24022380D01*
X118268571Y-24165238D01*
X118173333Y-24260476D01*
X118078095Y-24308095D01*
X118982857Y-24022380D02*
X119601904Y-24022380D01*
X119268571Y-24403333D01*
X119411428Y-24403333D01*
X119506666Y-24450952D01*
X119554285Y-24498571D01*
X119601904Y-24593809D01*
X119601904Y-24831904D01*
X119554285Y-24927142D01*
X119506666Y-24974761D01*
X119411428Y-25022380D01*
X119125714Y-25022380D01*
X119030476Y-24974761D01*
X118982857Y-24927142D01*
X130977142Y-25492857D02*
X131024761Y-25540476D01*
X131072380Y-25683333D01*
X131072380Y-25778571D01*
X131024761Y-25921428D01*
X130929523Y-26016666D01*
X130834285Y-26064285D01*
X130643809Y-26111904D01*
X130500952Y-26111904D01*
X130310476Y-26064285D01*
X130215238Y-26016666D01*
X130120000Y-25921428D01*
X130072380Y-25778571D01*
X130072380Y-25683333D01*
X130120000Y-25540476D01*
X130167619Y-25492857D01*
X131072380Y-24540476D02*
X131072380Y-25111904D01*
X131072380Y-24826190D02*
X130072380Y-24826190D01*
X130215238Y-24921428D01*
X130310476Y-25016666D01*
X130358095Y-25111904D01*
X130405714Y-23683333D02*
X131072380Y-23683333D01*
X130024761Y-23921428D02*
X130739047Y-24159523D01*
X130739047Y-23540476D01*
X150257142Y-25462857D02*
X150304761Y-25510476D01*
X150352380Y-25653333D01*
X150352380Y-25748571D01*
X150304761Y-25891428D01*
X150209523Y-25986666D01*
X150114285Y-26034285D01*
X149923809Y-26081904D01*
X149780952Y-26081904D01*
X149590476Y-26034285D01*
X149495238Y-25986666D01*
X149400000Y-25891428D01*
X149352380Y-25748571D01*
X149352380Y-25653333D01*
X149400000Y-25510476D01*
X149447619Y-25462857D01*
X150352380Y-24510476D02*
X150352380Y-25081904D01*
X150352380Y-24796190D02*
X149352380Y-24796190D01*
X149495238Y-24891428D01*
X149590476Y-24986666D01*
X149638095Y-25081904D01*
X149447619Y-24129523D02*
X149400000Y-24081904D01*
X149352380Y-23986666D01*
X149352380Y-23748571D01*
X149400000Y-23653333D01*
X149447619Y-23605714D01*
X149542857Y-23558095D01*
X149638095Y-23558095D01*
X149780952Y-23605714D01*
X150352380Y-24177142D01*
X150352380Y-23558095D01*
X157791666Y-55602380D02*
X157791666Y-56316666D01*
X157744047Y-56459523D01*
X157648809Y-56554761D01*
X157505952Y-56602380D01*
X157410714Y-56602380D01*
X158267857Y-56602380D02*
X158267857Y-55602380D01*
X158648809Y-55602380D01*
X158744047Y-55650000D01*
X158791666Y-55697619D01*
X158839285Y-55792857D01*
X158839285Y-55935714D01*
X158791666Y-56030952D01*
X158744047Y-56078571D01*
X158648809Y-56126190D01*
X158267857Y-56126190D01*
X159696428Y-55935714D02*
X159696428Y-56602380D01*
X159458333Y-55554761D02*
X159220238Y-56269047D01*
X159839285Y-56269047D01*
X180291666Y-55627380D02*
X180291666Y-56341666D01*
X180244047Y-56484523D01*
X180148809Y-56579761D01*
X180005952Y-56627380D01*
X179910714Y-56627380D01*
X180767857Y-56627380D02*
X180767857Y-55627380D01*
X181148809Y-55627380D01*
X181244047Y-55675000D01*
X181291666Y-55722619D01*
X181339285Y-55817857D01*
X181339285Y-55960714D01*
X181291666Y-56055952D01*
X181244047Y-56103571D01*
X181148809Y-56151190D01*
X180767857Y-56151190D01*
X182244047Y-55627380D02*
X181767857Y-55627380D01*
X181720238Y-56103571D01*
X181767857Y-56055952D01*
X181863095Y-56008333D01*
X182101190Y-56008333D01*
X182196428Y-56055952D01*
X182244047Y-56103571D01*
X182291666Y-56198809D01*
X182291666Y-56436904D01*
X182244047Y-56532142D01*
X182196428Y-56579761D01*
X182101190Y-56627380D01*
X181863095Y-56627380D01*
X181767857Y-56579761D01*
X181720238Y-56532142D01*
X113465266Y-22918380D02*
X113465266Y-23632666D01*
X113417647Y-23775523D01*
X113322409Y-23870761D01*
X113179552Y-23918380D01*
X113084314Y-23918380D01*
X113941457Y-23918380D02*
X113941457Y-22918380D01*
X114322409Y-22918380D01*
X114417647Y-22966000D01*
X114465266Y-23013619D01*
X114512885Y-23108857D01*
X114512885Y-23251714D01*
X114465266Y-23346952D01*
X114417647Y-23394571D01*
X114322409Y-23442190D01*
X113941457Y-23442190D01*
X114893838Y-23013619D02*
X114941457Y-22966000D01*
X115036695Y-22918380D01*
X115274790Y-22918380D01*
X115370028Y-22966000D01*
X115417647Y-23013619D01*
X115465266Y-23108857D01*
X115465266Y-23204095D01*
X115417647Y-23346952D01*
X114846219Y-23918380D01*
X115465266Y-23918380D01*
X111906666Y-33182380D02*
X111906666Y-33896666D01*
X111859047Y-34039523D01*
X111763809Y-34134761D01*
X111620952Y-34182380D01*
X111525714Y-34182380D01*
X112382857Y-34182380D02*
X112382857Y-33182380D01*
X112763809Y-33182380D01*
X112859047Y-33230000D01*
X112906666Y-33277619D01*
X112954285Y-33372857D01*
X112954285Y-33515714D01*
X112906666Y-33610952D01*
X112859047Y-33658571D01*
X112763809Y-33706190D01*
X112382857Y-33706190D01*
X113287619Y-33182380D02*
X113906666Y-33182380D01*
X113573333Y-33563333D01*
X113716190Y-33563333D01*
X113811428Y-33610952D01*
X113859047Y-33658571D01*
X113906666Y-33753809D01*
X113906666Y-33991904D01*
X113859047Y-34087142D01*
X113811428Y-34134761D01*
X113716190Y-34182380D01*
X113430476Y-34182380D01*
X113335238Y-34134761D01*
X113287619Y-34087142D01*
X134506666Y-45392380D02*
X134506666Y-46106666D01*
X134459047Y-46249523D01*
X134363809Y-46344761D01*
X134220952Y-46392380D01*
X134125714Y-46392380D01*
X135411428Y-45725714D02*
X135411428Y-46392380D01*
X135173333Y-45344761D02*
X134935238Y-46059047D01*
X135554285Y-46059047D01*
X86526666Y-23572380D02*
X86526666Y-24286666D01*
X86479047Y-24429523D01*
X86383809Y-24524761D01*
X86240952Y-24572380D01*
X86145714Y-24572380D01*
X86907619Y-23572380D02*
X87526666Y-23572380D01*
X87193333Y-23953333D01*
X87336190Y-23953333D01*
X87431428Y-24000952D01*
X87479047Y-24048571D01*
X87526666Y-24143809D01*
X87526666Y-24381904D01*
X87479047Y-24477142D01*
X87431428Y-24524761D01*
X87336190Y-24572380D01*
X87050476Y-24572380D01*
X86955238Y-24524761D01*
X86907619Y-24477142D01*
X76772380Y-39553809D02*
X77772380Y-38887142D01*
X76772380Y-38887142D02*
X77772380Y-39553809D01*
X76772380Y-38649047D02*
X76772380Y-38077619D01*
X77772380Y-38363333D02*
X76772380Y-38363333D01*
X77486666Y-37791904D02*
X77486666Y-37315714D01*
X77772380Y-37887142D02*
X76772380Y-37553809D01*
X77772380Y-37220476D01*
X77772380Y-36410952D02*
X77772380Y-36887142D01*
X76772380Y-36887142D01*
X77772380Y-35553809D02*
X77772380Y-36125238D01*
X77772380Y-35839523D02*
X76772380Y-35839523D01*
X76915238Y-35934761D01*
X77010476Y-36030000D01*
X77058095Y-36125238D01*
X110052380Y-39688095D02*
X109052380Y-39688095D01*
X109052380Y-39450000D01*
X109100000Y-39307142D01*
X109195238Y-39211904D01*
X109290476Y-39164285D01*
X109480952Y-39116666D01*
X109623809Y-39116666D01*
X109814285Y-39164285D01*
X109909523Y-39211904D01*
X110004761Y-39307142D01*
X110052380Y-39450000D01*
X110052380Y-39688095D01*
X109385714Y-38259523D02*
X110052380Y-38259523D01*
X109004761Y-38497619D02*
X109719047Y-38735714D01*
X109719047Y-38116666D01*
X117352380Y-39638095D02*
X116352380Y-39638095D01*
X116352380Y-39400000D01*
X116400000Y-39257142D01*
X116495238Y-39161904D01*
X116590476Y-39114285D01*
X116780952Y-39066666D01*
X116923809Y-39066666D01*
X117114285Y-39114285D01*
X117209523Y-39161904D01*
X117304761Y-39257142D01*
X117352380Y-39400000D01*
X117352380Y-39638095D01*
X116352380Y-38733333D02*
X116352380Y-38114285D01*
X116733333Y-38447619D01*
X116733333Y-38304761D01*
X116780952Y-38209523D01*
X116828571Y-38161904D01*
X116923809Y-38114285D01*
X117161904Y-38114285D01*
X117257142Y-38161904D01*
X117304761Y-38209523D01*
X117352380Y-38304761D01*
X117352380Y-38590476D01*
X117304761Y-38685714D01*
X117257142Y-38733333D01*
X90763095Y-26652380D02*
X90763095Y-27461904D01*
X90810714Y-27557142D01*
X90858333Y-27604761D01*
X90953571Y-27652380D01*
X91144047Y-27652380D01*
X91239285Y-27604761D01*
X91286904Y-27557142D01*
X91334523Y-27461904D01*
X91334523Y-26652380D01*
X92334523Y-27652380D02*
X91763095Y-27652380D01*
X92048809Y-27652380D02*
X92048809Y-26652380D01*
X91953571Y-26795238D01*
X91858333Y-26890476D01*
X91763095Y-26938095D01*
X120302380Y-43136904D02*
X121111904Y-43136904D01*
X121207142Y-43089285D01*
X121254761Y-43041666D01*
X121302380Y-42946428D01*
X121302380Y-42755952D01*
X121254761Y-42660714D01*
X121207142Y-42613095D01*
X121111904Y-42565476D01*
X120302380Y-42565476D01*
X120730952Y-41946428D02*
X120683333Y-42041666D01*
X120635714Y-42089285D01*
X120540476Y-42136904D01*
X120492857Y-42136904D01*
X120397619Y-42089285D01*
X120350000Y-42041666D01*
X120302380Y-41946428D01*
X120302380Y-41755952D01*
X120350000Y-41660714D01*
X120397619Y-41613095D01*
X120492857Y-41565476D01*
X120540476Y-41565476D01*
X120635714Y-41613095D01*
X120683333Y-41660714D01*
X120730952Y-41755952D01*
X120730952Y-41946428D01*
X120778571Y-42041666D01*
X120826190Y-42089285D01*
X120921428Y-42136904D01*
X121111904Y-42136904D01*
X121207142Y-42089285D01*
X121254761Y-42041666D01*
X121302380Y-41946428D01*
X121302380Y-41755952D01*
X121254761Y-41660714D01*
X121207142Y-41613095D01*
X121111904Y-41565476D01*
X120921428Y-41565476D01*
X120826190Y-41613095D01*
X120778571Y-41660714D01*
X120730952Y-41755952D01*
X108227380Y-52286904D02*
X109036904Y-52286904D01*
X109132142Y-52239285D01*
X109179761Y-52191666D01*
X109227380Y-52096428D01*
X109227380Y-51905952D01*
X109179761Y-51810714D01*
X109132142Y-51763095D01*
X109036904Y-51715476D01*
X108227380Y-51715476D01*
X108227380Y-50810714D02*
X108227380Y-51001190D01*
X108275000Y-51096428D01*
X108322619Y-51144047D01*
X108465476Y-51239285D01*
X108655952Y-51286904D01*
X109036904Y-51286904D01*
X109132142Y-51239285D01*
X109179761Y-51191666D01*
X109227380Y-51096428D01*
X109227380Y-50905952D01*
X109179761Y-50810714D01*
X109132142Y-50763095D01*
X109036904Y-50715476D01*
X108798809Y-50715476D01*
X108703571Y-50763095D01*
X108655952Y-50810714D01*
X108608333Y-50905952D01*
X108608333Y-51096428D01*
X108655952Y-51191666D01*
X108703571Y-51239285D01*
X108798809Y-51286904D01*
X131152380Y-44011904D02*
X131961904Y-44011904D01*
X132057142Y-43964285D01*
X132104761Y-43916666D01*
X132152380Y-43821428D01*
X132152380Y-43630952D01*
X132104761Y-43535714D01*
X132057142Y-43488095D01*
X131961904Y-43440476D01*
X131152380Y-43440476D01*
X131152380Y-43059523D02*
X131152380Y-42392857D01*
X132152380Y-42821428D01*
X181803333Y-80582380D02*
X181470000Y-80106190D01*
X181231904Y-80582380D02*
X181231904Y-79582380D01*
X181612857Y-79582380D01*
X181708095Y-79630000D01*
X181755714Y-79677619D01*
X181803333Y-79772857D01*
X181803333Y-79915714D01*
X181755714Y-80010952D01*
X181708095Y-80058571D01*
X181612857Y-80106190D01*
X181231904Y-80106190D01*
X182374761Y-80010952D02*
X182279523Y-79963333D01*
X182231904Y-79915714D01*
X182184285Y-79820476D01*
X182184285Y-79772857D01*
X182231904Y-79677619D01*
X182279523Y-79630000D01*
X182374761Y-79582380D01*
X182565238Y-79582380D01*
X182660476Y-79630000D01*
X182708095Y-79677619D01*
X182755714Y-79772857D01*
X182755714Y-79820476D01*
X182708095Y-79915714D01*
X182660476Y-79963333D01*
X182565238Y-80010952D01*
X182374761Y-80010952D01*
X182279523Y-80058571D01*
X182231904Y-80106190D01*
X182184285Y-80201428D01*
X182184285Y-80391904D01*
X182231904Y-80487142D01*
X182279523Y-80534761D01*
X182374761Y-80582380D01*
X182565238Y-80582380D01*
X182660476Y-80534761D01*
X182708095Y-80487142D01*
X182755714Y-80391904D01*
X182755714Y-80201428D01*
X182708095Y-80106190D01*
X182660476Y-80058571D01*
X182565238Y-80010952D01*
X134482380Y-35102857D02*
X134006190Y-35436190D01*
X134482380Y-35674285D02*
X133482380Y-35674285D01*
X133482380Y-35293333D01*
X133530000Y-35198095D01*
X133577619Y-35150476D01*
X133672857Y-35102857D01*
X133815714Y-35102857D01*
X133910952Y-35150476D01*
X133958571Y-35198095D01*
X134006190Y-35293333D01*
X134006190Y-35674285D01*
X133815714Y-34245714D02*
X134482380Y-34245714D01*
X133434761Y-34483809D02*
X134149047Y-34721904D01*
X134149047Y-34102857D01*
X133482380Y-33817142D02*
X133482380Y-33198095D01*
X133863333Y-33531428D01*
X133863333Y-33388571D01*
X133910952Y-33293333D01*
X133958571Y-33245714D01*
X134053809Y-33198095D01*
X134291904Y-33198095D01*
X134387142Y-33245714D01*
X134434761Y-33293333D01*
X134482380Y-33388571D01*
X134482380Y-33674285D01*
X134434761Y-33769523D01*
X134387142Y-33817142D01*
X134062142Y-36987380D02*
X133728809Y-36511190D01*
X133490714Y-36987380D02*
X133490714Y-35987380D01*
X133871666Y-35987380D01*
X133966904Y-36035000D01*
X134014523Y-36082619D01*
X134062142Y-36177857D01*
X134062142Y-36320714D01*
X134014523Y-36415952D01*
X133966904Y-36463571D01*
X133871666Y-36511190D01*
X133490714Y-36511190D01*
X134919285Y-36320714D02*
X134919285Y-36987380D01*
X134681190Y-35939761D02*
X134443095Y-36654047D01*
X135062142Y-36654047D01*
X135966904Y-36987380D02*
X135395476Y-36987380D01*
X135681190Y-36987380D02*
X135681190Y-35987380D01*
X135585952Y-36130238D01*
X135490714Y-36225476D01*
X135395476Y-36273095D01*
X110427380Y-41967857D02*
X109951190Y-42301190D01*
X110427380Y-42539285D02*
X109427380Y-42539285D01*
X109427380Y-42158333D01*
X109475000Y-42063095D01*
X109522619Y-42015476D01*
X109617857Y-41967857D01*
X109760714Y-41967857D01*
X109855952Y-42015476D01*
X109903571Y-42063095D01*
X109951190Y-42158333D01*
X109951190Y-42539285D01*
X109427380Y-41634523D02*
X109427380Y-41015476D01*
X109808333Y-41348809D01*
X109808333Y-41205952D01*
X109855952Y-41110714D01*
X109903571Y-41063095D01*
X109998809Y-41015476D01*
X110236904Y-41015476D01*
X110332142Y-41063095D01*
X110379761Y-41110714D01*
X110427380Y-41205952D01*
X110427380Y-41491666D01*
X110379761Y-41586904D01*
X110332142Y-41634523D01*
X110427380Y-40539285D02*
X110427380Y-40348809D01*
X110379761Y-40253571D01*
X110332142Y-40205952D01*
X110189285Y-40110714D01*
X109998809Y-40063095D01*
X109617857Y-40063095D01*
X109522619Y-40110714D01*
X109475000Y-40158333D01*
X109427380Y-40253571D01*
X109427380Y-40444047D01*
X109475000Y-40539285D01*
X109522619Y-40586904D01*
X109617857Y-40634523D01*
X109855952Y-40634523D01*
X109951190Y-40586904D01*
X109998809Y-40539285D01*
X110046428Y-40444047D01*
X110046428Y-40253571D01*
X109998809Y-40158333D01*
X109951190Y-40110714D01*
X109855952Y-40063095D01*
X116927380Y-41942857D02*
X116451190Y-42276190D01*
X116927380Y-42514285D02*
X115927380Y-42514285D01*
X115927380Y-42133333D01*
X115975000Y-42038095D01*
X116022619Y-41990476D01*
X116117857Y-41942857D01*
X116260714Y-41942857D01*
X116355952Y-41990476D01*
X116403571Y-42038095D01*
X116451190Y-42133333D01*
X116451190Y-42514285D01*
X115927380Y-41609523D02*
X115927380Y-40990476D01*
X116308333Y-41323809D01*
X116308333Y-41180952D01*
X116355952Y-41085714D01*
X116403571Y-41038095D01*
X116498809Y-40990476D01*
X116736904Y-40990476D01*
X116832142Y-41038095D01*
X116879761Y-41085714D01*
X116927380Y-41180952D01*
X116927380Y-41466666D01*
X116879761Y-41561904D01*
X116832142Y-41609523D01*
X116355952Y-40419047D02*
X116308333Y-40514285D01*
X116260714Y-40561904D01*
X116165476Y-40609523D01*
X116117857Y-40609523D01*
X116022619Y-40561904D01*
X115975000Y-40514285D01*
X115927380Y-40419047D01*
X115927380Y-40228571D01*
X115975000Y-40133333D01*
X116022619Y-40085714D01*
X116117857Y-40038095D01*
X116165476Y-40038095D01*
X116260714Y-40085714D01*
X116308333Y-40133333D01*
X116355952Y-40228571D01*
X116355952Y-40419047D01*
X116403571Y-40514285D01*
X116451190Y-40561904D01*
X116546428Y-40609523D01*
X116736904Y-40609523D01*
X116832142Y-40561904D01*
X116879761Y-40514285D01*
X116927380Y-40419047D01*
X116927380Y-40228571D01*
X116879761Y-40133333D01*
X116832142Y-40085714D01*
X116736904Y-40038095D01*
X116546428Y-40038095D01*
X116451190Y-40085714D01*
X116403571Y-40133333D01*
X116355952Y-40228571D01*
X113182142Y-47077380D02*
X112848809Y-46601190D01*
X112610714Y-47077380D02*
X112610714Y-46077380D01*
X112991666Y-46077380D01*
X113086904Y-46125000D01*
X113134523Y-46172619D01*
X113182142Y-46267857D01*
X113182142Y-46410714D01*
X113134523Y-46505952D01*
X113086904Y-46553571D01*
X112991666Y-46601190D01*
X112610714Y-46601190D01*
X113515476Y-46077380D02*
X114134523Y-46077380D01*
X113801190Y-46458333D01*
X113944047Y-46458333D01*
X114039285Y-46505952D01*
X114086904Y-46553571D01*
X114134523Y-46648809D01*
X114134523Y-46886904D01*
X114086904Y-46982142D01*
X114039285Y-47029761D01*
X113944047Y-47077380D01*
X113658333Y-47077380D01*
X113563095Y-47029761D01*
X113515476Y-46982142D01*
X114467857Y-46077380D02*
X115134523Y-46077380D01*
X114705952Y-47077380D01*
X110007142Y-47077380D02*
X109673809Y-46601190D01*
X109435714Y-47077380D02*
X109435714Y-46077380D01*
X109816666Y-46077380D01*
X109911904Y-46125000D01*
X109959523Y-46172619D01*
X110007142Y-46267857D01*
X110007142Y-46410714D01*
X109959523Y-46505952D01*
X109911904Y-46553571D01*
X109816666Y-46601190D01*
X109435714Y-46601190D01*
X110340476Y-46077380D02*
X110959523Y-46077380D01*
X110626190Y-46458333D01*
X110769047Y-46458333D01*
X110864285Y-46505952D01*
X110911904Y-46553571D01*
X110959523Y-46648809D01*
X110959523Y-46886904D01*
X110911904Y-46982142D01*
X110864285Y-47029761D01*
X110769047Y-47077380D01*
X110483333Y-47077380D01*
X110388095Y-47029761D01*
X110340476Y-46982142D01*
X111816666Y-46077380D02*
X111626190Y-46077380D01*
X111530952Y-46125000D01*
X111483333Y-46172619D01*
X111388095Y-46315476D01*
X111340476Y-46505952D01*
X111340476Y-46886904D01*
X111388095Y-46982142D01*
X111435714Y-47029761D01*
X111530952Y-47077380D01*
X111721428Y-47077380D01*
X111816666Y-47029761D01*
X111864285Y-46982142D01*
X111911904Y-46886904D01*
X111911904Y-46648809D01*
X111864285Y-46553571D01*
X111816666Y-46505952D01*
X111721428Y-46458333D01*
X111530952Y-46458333D01*
X111435714Y-46505952D01*
X111388095Y-46553571D01*
X111340476Y-46648809D01*
X111057142Y-39877380D02*
X110723809Y-39401190D01*
X110485714Y-39877380D02*
X110485714Y-38877380D01*
X110866666Y-38877380D01*
X110961904Y-38925000D01*
X111009523Y-38972619D01*
X111057142Y-39067857D01*
X111057142Y-39210714D01*
X111009523Y-39305952D01*
X110961904Y-39353571D01*
X110866666Y-39401190D01*
X110485714Y-39401190D01*
X111390476Y-38877380D02*
X112009523Y-38877380D01*
X111676190Y-39258333D01*
X111819047Y-39258333D01*
X111914285Y-39305952D01*
X111961904Y-39353571D01*
X112009523Y-39448809D01*
X112009523Y-39686904D01*
X111961904Y-39782142D01*
X111914285Y-39829761D01*
X111819047Y-39877380D01*
X111533333Y-39877380D01*
X111438095Y-39829761D01*
X111390476Y-39782142D01*
X112914285Y-38877380D02*
X112438095Y-38877380D01*
X112390476Y-39353571D01*
X112438095Y-39305952D01*
X112533333Y-39258333D01*
X112771428Y-39258333D01*
X112866666Y-39305952D01*
X112914285Y-39353571D01*
X112961904Y-39448809D01*
X112961904Y-39686904D01*
X112914285Y-39782142D01*
X112866666Y-39829761D01*
X112771428Y-39877380D01*
X112533333Y-39877380D01*
X112438095Y-39829761D01*
X112390476Y-39782142D01*
X159107142Y-33102380D02*
X158773809Y-32626190D01*
X158535714Y-33102380D02*
X158535714Y-32102380D01*
X158916666Y-32102380D01*
X159011904Y-32150000D01*
X159059523Y-32197619D01*
X159107142Y-32292857D01*
X159107142Y-32435714D01*
X159059523Y-32530952D01*
X159011904Y-32578571D01*
X158916666Y-32626190D01*
X158535714Y-32626190D01*
X160011904Y-32102380D02*
X159535714Y-32102380D01*
X159488095Y-32578571D01*
X159535714Y-32530952D01*
X159630952Y-32483333D01*
X159869047Y-32483333D01*
X159964285Y-32530952D01*
X160011904Y-32578571D01*
X160059523Y-32673809D01*
X160059523Y-32911904D01*
X160011904Y-33007142D01*
X159964285Y-33054761D01*
X159869047Y-33102380D01*
X159630952Y-33102380D01*
X159535714Y-33054761D01*
X159488095Y-33007142D01*
X160535714Y-33102380D02*
X160726190Y-33102380D01*
X160821428Y-33054761D01*
X160869047Y-33007142D01*
X160964285Y-32864285D01*
X161011904Y-32673809D01*
X161011904Y-32292857D01*
X160964285Y-32197619D01*
X160916666Y-32150000D01*
X160821428Y-32102380D01*
X160630952Y-32102380D01*
X160535714Y-32150000D01*
X160488095Y-32197619D01*
X160440476Y-32292857D01*
X160440476Y-32530952D01*
X160488095Y-32626190D01*
X160535714Y-32673809D01*
X160630952Y-32721428D01*
X160821428Y-32721428D01*
X160916666Y-32673809D01*
X160964285Y-32626190D01*
X161011904Y-32530952D01*
X144857142Y-33262380D02*
X144523809Y-32786190D01*
X144285714Y-33262380D02*
X144285714Y-32262380D01*
X144666666Y-32262380D01*
X144761904Y-32310000D01*
X144809523Y-32357619D01*
X144857142Y-32452857D01*
X144857142Y-32595714D01*
X144809523Y-32690952D01*
X144761904Y-32738571D01*
X144666666Y-32786190D01*
X144285714Y-32786190D01*
X145714285Y-32262380D02*
X145523809Y-32262380D01*
X145428571Y-32310000D01*
X145380952Y-32357619D01*
X145285714Y-32500476D01*
X145238095Y-32690952D01*
X145238095Y-33071904D01*
X145285714Y-33167142D01*
X145333333Y-33214761D01*
X145428571Y-33262380D01*
X145619047Y-33262380D01*
X145714285Y-33214761D01*
X145761904Y-33167142D01*
X145809523Y-33071904D01*
X145809523Y-32833809D01*
X145761904Y-32738571D01*
X145714285Y-32690952D01*
X145619047Y-32643333D01*
X145428571Y-32643333D01*
X145333333Y-32690952D01*
X145285714Y-32738571D01*
X145238095Y-32833809D01*
X146428571Y-32262380D02*
X146523809Y-32262380D01*
X146619047Y-32310000D01*
X146666666Y-32357619D01*
X146714285Y-32452857D01*
X146761904Y-32643333D01*
X146761904Y-32881428D01*
X146714285Y-33071904D01*
X146666666Y-33167142D01*
X146619047Y-33214761D01*
X146523809Y-33262380D01*
X146428571Y-33262380D01*
X146333333Y-33214761D01*
X146285714Y-33167142D01*
X146238095Y-33071904D01*
X146190476Y-32881428D01*
X146190476Y-32643333D01*
X146238095Y-32452857D01*
X146285714Y-32357619D01*
X146333333Y-32310000D01*
X146428571Y-32262380D01*
X183232142Y-33202380D02*
X182898809Y-32726190D01*
X182660714Y-33202380D02*
X182660714Y-32202380D01*
X183041666Y-32202380D01*
X183136904Y-32250000D01*
X183184523Y-32297619D01*
X183232142Y-32392857D01*
X183232142Y-32535714D01*
X183184523Y-32630952D01*
X183136904Y-32678571D01*
X183041666Y-32726190D01*
X182660714Y-32726190D01*
X184089285Y-32202380D02*
X183898809Y-32202380D01*
X183803571Y-32250000D01*
X183755952Y-32297619D01*
X183660714Y-32440476D01*
X183613095Y-32630952D01*
X183613095Y-33011904D01*
X183660714Y-33107142D01*
X183708333Y-33154761D01*
X183803571Y-33202380D01*
X183994047Y-33202380D01*
X184089285Y-33154761D01*
X184136904Y-33107142D01*
X184184523Y-33011904D01*
X184184523Y-32773809D01*
X184136904Y-32678571D01*
X184089285Y-32630952D01*
X183994047Y-32583333D01*
X183803571Y-32583333D01*
X183708333Y-32630952D01*
X183660714Y-32678571D01*
X183613095Y-32773809D01*
X185136904Y-33202380D02*
X184565476Y-33202380D01*
X184851190Y-33202380D02*
X184851190Y-32202380D01*
X184755952Y-32345238D01*
X184660714Y-32440476D01*
X184565476Y-32488095D01*
X169032142Y-33227380D02*
X168698809Y-32751190D01*
X168460714Y-33227380D02*
X168460714Y-32227380D01*
X168841666Y-32227380D01*
X168936904Y-32275000D01*
X168984523Y-32322619D01*
X169032142Y-32417857D01*
X169032142Y-32560714D01*
X168984523Y-32655952D01*
X168936904Y-32703571D01*
X168841666Y-32751190D01*
X168460714Y-32751190D01*
X169889285Y-32227380D02*
X169698809Y-32227380D01*
X169603571Y-32275000D01*
X169555952Y-32322619D01*
X169460714Y-32465476D01*
X169413095Y-32655952D01*
X169413095Y-33036904D01*
X169460714Y-33132142D01*
X169508333Y-33179761D01*
X169603571Y-33227380D01*
X169794047Y-33227380D01*
X169889285Y-33179761D01*
X169936904Y-33132142D01*
X169984523Y-33036904D01*
X169984523Y-32798809D01*
X169936904Y-32703571D01*
X169889285Y-32655952D01*
X169794047Y-32608333D01*
X169603571Y-32608333D01*
X169508333Y-32655952D01*
X169460714Y-32703571D01*
X169413095Y-32798809D01*
X170365476Y-32322619D02*
X170413095Y-32275000D01*
X170508333Y-32227380D01*
X170746428Y-32227380D01*
X170841666Y-32275000D01*
X170889285Y-32322619D01*
X170936904Y-32417857D01*
X170936904Y-32513095D01*
X170889285Y-32655952D01*
X170317857Y-33227380D01*
X170936904Y-33227380D01*
X127127380Y-36067857D02*
X126651190Y-36401190D01*
X127127380Y-36639285D02*
X126127380Y-36639285D01*
X126127380Y-36258333D01*
X126175000Y-36163095D01*
X126222619Y-36115476D01*
X126317857Y-36067857D01*
X126460714Y-36067857D01*
X126555952Y-36115476D01*
X126603571Y-36163095D01*
X126651190Y-36258333D01*
X126651190Y-36639285D01*
X126127380Y-35163095D02*
X126127380Y-35639285D01*
X126603571Y-35686904D01*
X126555952Y-35639285D01*
X126508333Y-35544047D01*
X126508333Y-35305952D01*
X126555952Y-35210714D01*
X126603571Y-35163095D01*
X126698809Y-35115476D01*
X126936904Y-35115476D01*
X127032142Y-35163095D01*
X127079761Y-35210714D01*
X127127380Y-35305952D01*
X127127380Y-35544047D01*
X127079761Y-35639285D01*
X127032142Y-35686904D01*
X126127380Y-34496428D02*
X126127380Y-34401190D01*
X126175000Y-34305952D01*
X126222619Y-34258333D01*
X126317857Y-34210714D01*
X126508333Y-34163095D01*
X126746428Y-34163095D01*
X126936904Y-34210714D01*
X127032142Y-34258333D01*
X127079761Y-34305952D01*
X127127380Y-34401190D01*
X127127380Y-34496428D01*
X127079761Y-34591666D01*
X127032142Y-34639285D01*
X126936904Y-34686904D01*
X126746428Y-34734523D01*
X126508333Y-34734523D01*
X126317857Y-34686904D01*
X126222619Y-34639285D01*
X126175000Y-34591666D01*
X126127380Y-34496428D01*
X135782380Y-35102857D02*
X135306190Y-35436190D01*
X135782380Y-35674285D02*
X134782380Y-35674285D01*
X134782380Y-35293333D01*
X134830000Y-35198095D01*
X134877619Y-35150476D01*
X134972857Y-35102857D01*
X135115714Y-35102857D01*
X135210952Y-35150476D01*
X135258571Y-35198095D01*
X135306190Y-35293333D01*
X135306190Y-35674285D01*
X135115714Y-34245714D02*
X135782380Y-34245714D01*
X134734761Y-34483809D02*
X135449047Y-34721904D01*
X135449047Y-34102857D01*
X135115714Y-33293333D02*
X135782380Y-33293333D01*
X134734761Y-33531428D02*
X135449047Y-33769523D01*
X135449047Y-33150476D01*
X114057142Y-39827380D02*
X113723809Y-39351190D01*
X113485714Y-39827380D02*
X113485714Y-38827380D01*
X113866666Y-38827380D01*
X113961904Y-38875000D01*
X114009523Y-38922619D01*
X114057142Y-39017857D01*
X114057142Y-39160714D01*
X114009523Y-39255952D01*
X113961904Y-39303571D01*
X113866666Y-39351190D01*
X113485714Y-39351190D01*
X114390476Y-38827380D02*
X115009523Y-38827380D01*
X114676190Y-39208333D01*
X114819047Y-39208333D01*
X114914285Y-39255952D01*
X114961904Y-39303571D01*
X115009523Y-39398809D01*
X115009523Y-39636904D01*
X114961904Y-39732142D01*
X114914285Y-39779761D01*
X114819047Y-39827380D01*
X114533333Y-39827380D01*
X114438095Y-39779761D01*
X114390476Y-39732142D01*
X115866666Y-39160714D02*
X115866666Y-39827380D01*
X115628571Y-38779761D02*
X115390476Y-39494047D01*
X116009523Y-39494047D01*
X100952380Y-24566666D02*
X100476190Y-24900000D01*
X100952380Y-25138095D02*
X99952380Y-25138095D01*
X99952380Y-24757142D01*
X100000000Y-24661904D01*
X100047619Y-24614285D01*
X100142857Y-24566666D01*
X100285714Y-24566666D01*
X100380952Y-24614285D01*
X100428571Y-24661904D01*
X100476190Y-24757142D01*
X100476190Y-25138095D01*
X99952380Y-24233333D02*
X99952380Y-23614285D01*
X100333333Y-23947619D01*
X100333333Y-23804761D01*
X100380952Y-23709523D01*
X100428571Y-23661904D01*
X100523809Y-23614285D01*
X100761904Y-23614285D01*
X100857142Y-23661904D01*
X100904761Y-23709523D01*
X100952380Y-23804761D01*
X100952380Y-24090476D01*
X100904761Y-24185714D01*
X100857142Y-24233333D01*
X121007142Y-33977380D02*
X120673809Y-33501190D01*
X120435714Y-33977380D02*
X120435714Y-32977380D01*
X120816666Y-32977380D01*
X120911904Y-33025000D01*
X120959523Y-33072619D01*
X121007142Y-33167857D01*
X121007142Y-33310714D01*
X120959523Y-33405952D01*
X120911904Y-33453571D01*
X120816666Y-33501190D01*
X120435714Y-33501190D01*
X121864285Y-33310714D02*
X121864285Y-33977380D01*
X121626190Y-32929761D02*
X121388095Y-33644047D01*
X122007142Y-33644047D01*
X122340476Y-33072619D02*
X122388095Y-33025000D01*
X122483333Y-32977380D01*
X122721428Y-32977380D01*
X122816666Y-33025000D01*
X122864285Y-33072619D01*
X122911904Y-33167857D01*
X122911904Y-33263095D01*
X122864285Y-33405952D01*
X122292857Y-33977380D01*
X122911904Y-33977380D01*
X156057142Y-33102380D02*
X155723809Y-32626190D01*
X155485714Y-33102380D02*
X155485714Y-32102380D01*
X155866666Y-32102380D01*
X155961904Y-32150000D01*
X156009523Y-32197619D01*
X156057142Y-32292857D01*
X156057142Y-32435714D01*
X156009523Y-32530952D01*
X155961904Y-32578571D01*
X155866666Y-32626190D01*
X155485714Y-32626190D01*
X156961904Y-32102380D02*
X156485714Y-32102380D01*
X156438095Y-32578571D01*
X156485714Y-32530952D01*
X156580952Y-32483333D01*
X156819047Y-32483333D01*
X156914285Y-32530952D01*
X156961904Y-32578571D01*
X157009523Y-32673809D01*
X157009523Y-32911904D01*
X156961904Y-33007142D01*
X156914285Y-33054761D01*
X156819047Y-33102380D01*
X156580952Y-33102380D01*
X156485714Y-33054761D01*
X156438095Y-33007142D01*
X157342857Y-32102380D02*
X157961904Y-32102380D01*
X157628571Y-32483333D01*
X157771428Y-32483333D01*
X157866666Y-32530952D01*
X157914285Y-32578571D01*
X157961904Y-32673809D01*
X157961904Y-32911904D01*
X157914285Y-33007142D01*
X157866666Y-33054761D01*
X157771428Y-33102380D01*
X157485714Y-33102380D01*
X157390476Y-33054761D01*
X157342857Y-33007142D01*
X141837142Y-33252380D02*
X141503809Y-32776190D01*
X141265714Y-33252380D02*
X141265714Y-32252380D01*
X141646666Y-32252380D01*
X141741904Y-32300000D01*
X141789523Y-32347619D01*
X141837142Y-32442857D01*
X141837142Y-32585714D01*
X141789523Y-32680952D01*
X141741904Y-32728571D01*
X141646666Y-32776190D01*
X141265714Y-32776190D01*
X142741904Y-32252380D02*
X142265714Y-32252380D01*
X142218095Y-32728571D01*
X142265714Y-32680952D01*
X142360952Y-32633333D01*
X142599047Y-32633333D01*
X142694285Y-32680952D01*
X142741904Y-32728571D01*
X142789523Y-32823809D01*
X142789523Y-33061904D01*
X142741904Y-33157142D01*
X142694285Y-33204761D01*
X142599047Y-33252380D01*
X142360952Y-33252380D01*
X142265714Y-33204761D01*
X142218095Y-33157142D01*
X143646666Y-32585714D02*
X143646666Y-33252380D01*
X143408571Y-32204761D02*
X143170476Y-32919047D01*
X143789523Y-32919047D01*
X179982142Y-33202380D02*
X179648809Y-32726190D01*
X179410714Y-33202380D02*
X179410714Y-32202380D01*
X179791666Y-32202380D01*
X179886904Y-32250000D01*
X179934523Y-32297619D01*
X179982142Y-32392857D01*
X179982142Y-32535714D01*
X179934523Y-32630952D01*
X179886904Y-32678571D01*
X179791666Y-32726190D01*
X179410714Y-32726190D01*
X180886904Y-32202380D02*
X180410714Y-32202380D01*
X180363095Y-32678571D01*
X180410714Y-32630952D01*
X180505952Y-32583333D01*
X180744047Y-32583333D01*
X180839285Y-32630952D01*
X180886904Y-32678571D01*
X180934523Y-32773809D01*
X180934523Y-33011904D01*
X180886904Y-33107142D01*
X180839285Y-33154761D01*
X180744047Y-33202380D01*
X180505952Y-33202380D01*
X180410714Y-33154761D01*
X180363095Y-33107142D01*
X181839285Y-32202380D02*
X181363095Y-32202380D01*
X181315476Y-32678571D01*
X181363095Y-32630952D01*
X181458333Y-32583333D01*
X181696428Y-32583333D01*
X181791666Y-32630952D01*
X181839285Y-32678571D01*
X181886904Y-32773809D01*
X181886904Y-33011904D01*
X181839285Y-33107142D01*
X181791666Y-33154761D01*
X181696428Y-33202380D01*
X181458333Y-33202380D01*
X181363095Y-33154761D01*
X181315476Y-33107142D01*
X165782142Y-33202380D02*
X165448809Y-32726190D01*
X165210714Y-33202380D02*
X165210714Y-32202380D01*
X165591666Y-32202380D01*
X165686904Y-32250000D01*
X165734523Y-32297619D01*
X165782142Y-32392857D01*
X165782142Y-32535714D01*
X165734523Y-32630952D01*
X165686904Y-32678571D01*
X165591666Y-32726190D01*
X165210714Y-32726190D01*
X166686904Y-32202380D02*
X166210714Y-32202380D01*
X166163095Y-32678571D01*
X166210714Y-32630952D01*
X166305952Y-32583333D01*
X166544047Y-32583333D01*
X166639285Y-32630952D01*
X166686904Y-32678571D01*
X166734523Y-32773809D01*
X166734523Y-33011904D01*
X166686904Y-33107142D01*
X166639285Y-33154761D01*
X166544047Y-33202380D01*
X166305952Y-33202380D01*
X166210714Y-33154761D01*
X166163095Y-33107142D01*
X167591666Y-32202380D02*
X167401190Y-32202380D01*
X167305952Y-32250000D01*
X167258333Y-32297619D01*
X167163095Y-32440476D01*
X167115476Y-32630952D01*
X167115476Y-33011904D01*
X167163095Y-33107142D01*
X167210714Y-33154761D01*
X167305952Y-33202380D01*
X167496428Y-33202380D01*
X167591666Y-33154761D01*
X167639285Y-33107142D01*
X167686904Y-33011904D01*
X167686904Y-32773809D01*
X167639285Y-32678571D01*
X167591666Y-32630952D01*
X167496428Y-32583333D01*
X167305952Y-32583333D01*
X167210714Y-32630952D01*
X167163095Y-32678571D01*
X167115476Y-32773809D01*
X152407142Y-33127380D02*
X152073809Y-32651190D01*
X151835714Y-33127380D02*
X151835714Y-32127380D01*
X152216666Y-32127380D01*
X152311904Y-32175000D01*
X152359523Y-32222619D01*
X152407142Y-32317857D01*
X152407142Y-32460714D01*
X152359523Y-32555952D01*
X152311904Y-32603571D01*
X152216666Y-32651190D01*
X151835714Y-32651190D01*
X153311904Y-32127380D02*
X152835714Y-32127380D01*
X152788095Y-32603571D01*
X152835714Y-32555952D01*
X152930952Y-32508333D01*
X153169047Y-32508333D01*
X153264285Y-32555952D01*
X153311904Y-32603571D01*
X153359523Y-32698809D01*
X153359523Y-32936904D01*
X153311904Y-33032142D01*
X153264285Y-33079761D01*
X153169047Y-33127380D01*
X152930952Y-33127380D01*
X152835714Y-33079761D01*
X152788095Y-33032142D01*
X153692857Y-32127380D02*
X154359523Y-32127380D01*
X153930952Y-33127380D01*
X176082142Y-33177380D02*
X175748809Y-32701190D01*
X175510714Y-33177380D02*
X175510714Y-32177380D01*
X175891666Y-32177380D01*
X175986904Y-32225000D01*
X176034523Y-32272619D01*
X176082142Y-32367857D01*
X176082142Y-32510714D01*
X176034523Y-32605952D01*
X175986904Y-32653571D01*
X175891666Y-32701190D01*
X175510714Y-32701190D01*
X176986904Y-32177380D02*
X176510714Y-32177380D01*
X176463095Y-32653571D01*
X176510714Y-32605952D01*
X176605952Y-32558333D01*
X176844047Y-32558333D01*
X176939285Y-32605952D01*
X176986904Y-32653571D01*
X177034523Y-32748809D01*
X177034523Y-32986904D01*
X176986904Y-33082142D01*
X176939285Y-33129761D01*
X176844047Y-33177380D01*
X176605952Y-33177380D01*
X176510714Y-33129761D01*
X176463095Y-33082142D01*
X177605952Y-32605952D02*
X177510714Y-32558333D01*
X177463095Y-32510714D01*
X177415476Y-32415476D01*
X177415476Y-32367857D01*
X177463095Y-32272619D01*
X177510714Y-32225000D01*
X177605952Y-32177380D01*
X177796428Y-32177380D01*
X177891666Y-32225000D01*
X177939285Y-32272619D01*
X177986904Y-32367857D01*
X177986904Y-32415476D01*
X177939285Y-32510714D01*
X177891666Y-32558333D01*
X177796428Y-32605952D01*
X177605952Y-32605952D01*
X177510714Y-32653571D01*
X177463095Y-32701190D01*
X177415476Y-32796428D01*
X177415476Y-32986904D01*
X177463095Y-33082142D01*
X177510714Y-33129761D01*
X177605952Y-33177380D01*
X177796428Y-33177380D01*
X177891666Y-33129761D01*
X177939285Y-33082142D01*
X177986904Y-32986904D01*
X177986904Y-32796428D01*
X177939285Y-32701190D01*
X177891666Y-32653571D01*
X177796428Y-32605952D01*
X123832142Y-36652380D02*
X123498809Y-36176190D01*
X123260714Y-36652380D02*
X123260714Y-35652380D01*
X123641666Y-35652380D01*
X123736904Y-35700000D01*
X123784523Y-35747619D01*
X123832142Y-35842857D01*
X123832142Y-35985714D01*
X123784523Y-36080952D01*
X123736904Y-36128571D01*
X123641666Y-36176190D01*
X123260714Y-36176190D01*
X124689285Y-35985714D02*
X124689285Y-36652380D01*
X124451190Y-35604761D02*
X124213095Y-36319047D01*
X124832142Y-36319047D01*
X125260714Y-36652380D02*
X125451190Y-36652380D01*
X125546428Y-36604761D01*
X125594047Y-36557142D01*
X125689285Y-36414285D01*
X125736904Y-36223809D01*
X125736904Y-35842857D01*
X125689285Y-35747619D01*
X125641666Y-35700000D01*
X125546428Y-35652380D01*
X125355952Y-35652380D01*
X125260714Y-35700000D01*
X125213095Y-35747619D01*
X125165476Y-35842857D01*
X125165476Y-36080952D01*
X125213095Y-36176190D01*
X125260714Y-36223809D01*
X125355952Y-36271428D01*
X125546428Y-36271428D01*
X125641666Y-36223809D01*
X125689285Y-36176190D01*
X125736904Y-36080952D01*
X133107380Y-35102857D02*
X132631190Y-35436190D01*
X133107380Y-35674285D02*
X132107380Y-35674285D01*
X132107380Y-35293333D01*
X132155000Y-35198095D01*
X132202619Y-35150476D01*
X132297857Y-35102857D01*
X132440714Y-35102857D01*
X132535952Y-35150476D01*
X132583571Y-35198095D01*
X132631190Y-35293333D01*
X132631190Y-35674285D01*
X132440714Y-34245714D02*
X133107380Y-34245714D01*
X132059761Y-34483809D02*
X132774047Y-34721904D01*
X132774047Y-34102857D01*
X132535952Y-33579047D02*
X132488333Y-33674285D01*
X132440714Y-33721904D01*
X132345476Y-33769523D01*
X132297857Y-33769523D01*
X132202619Y-33721904D01*
X132155000Y-33674285D01*
X132107380Y-33579047D01*
X132107380Y-33388571D01*
X132155000Y-33293333D01*
X132202619Y-33245714D01*
X132297857Y-33198095D01*
X132345476Y-33198095D01*
X132440714Y-33245714D01*
X132488333Y-33293333D01*
X132535952Y-33388571D01*
X132535952Y-33579047D01*
X132583571Y-33674285D01*
X132631190Y-33721904D01*
X132726428Y-33769523D01*
X132916904Y-33769523D01*
X133012142Y-33721904D01*
X133059761Y-33674285D01*
X133107380Y-33579047D01*
X133107380Y-33388571D01*
X133059761Y-33293333D01*
X133012142Y-33245714D01*
X132916904Y-33198095D01*
X132726428Y-33198095D01*
X132631190Y-33245714D01*
X132583571Y-33293333D01*
X132535952Y-33388571D01*
X129762142Y-34237380D02*
X129428809Y-33761190D01*
X129190714Y-34237380D02*
X129190714Y-33237380D01*
X129571666Y-33237380D01*
X129666904Y-33285000D01*
X129714523Y-33332619D01*
X129762142Y-33427857D01*
X129762142Y-33570714D01*
X129714523Y-33665952D01*
X129666904Y-33713571D01*
X129571666Y-33761190D01*
X129190714Y-33761190D01*
X130619285Y-33570714D02*
X130619285Y-34237380D01*
X130381190Y-33189761D02*
X130143095Y-33904047D01*
X130762142Y-33904047D01*
X131047857Y-33237380D02*
X131714523Y-33237380D01*
X131285952Y-34237380D01*
X121427380Y-36192857D02*
X120951190Y-36526190D01*
X121427380Y-36764285D02*
X120427380Y-36764285D01*
X120427380Y-36383333D01*
X120475000Y-36288095D01*
X120522619Y-36240476D01*
X120617857Y-36192857D01*
X120760714Y-36192857D01*
X120855952Y-36240476D01*
X120903571Y-36288095D01*
X120951190Y-36383333D01*
X120951190Y-36764285D01*
X120760714Y-35335714D02*
X121427380Y-35335714D01*
X120379761Y-35573809D02*
X121094047Y-35811904D01*
X121094047Y-35192857D01*
X120427380Y-34383333D02*
X120427380Y-34573809D01*
X120475000Y-34669047D01*
X120522619Y-34716666D01*
X120665476Y-34811904D01*
X120855952Y-34859523D01*
X121236904Y-34859523D01*
X121332142Y-34811904D01*
X121379761Y-34764285D01*
X121427380Y-34669047D01*
X121427380Y-34478571D01*
X121379761Y-34383333D01*
X121332142Y-34335714D01*
X121236904Y-34288095D01*
X120998809Y-34288095D01*
X120903571Y-34335714D01*
X120855952Y-34383333D01*
X120808333Y-34478571D01*
X120808333Y-34669047D01*
X120855952Y-34764285D01*
X120903571Y-34811904D01*
X120998809Y-34859523D01*
X105552380Y-24566666D02*
X105076190Y-24900000D01*
X105552380Y-25138095D02*
X104552380Y-25138095D01*
X104552380Y-24757142D01*
X104600000Y-24661904D01*
X104647619Y-24614285D01*
X104742857Y-24566666D01*
X104885714Y-24566666D01*
X104980952Y-24614285D01*
X105028571Y-24661904D01*
X105076190Y-24757142D01*
X105076190Y-25138095D01*
X104552380Y-23661904D02*
X104552380Y-24138095D01*
X105028571Y-24185714D01*
X104980952Y-24138095D01*
X104933333Y-24042857D01*
X104933333Y-23804761D01*
X104980952Y-23709523D01*
X105028571Y-23661904D01*
X105123809Y-23614285D01*
X105361904Y-23614285D01*
X105457142Y-23661904D01*
X105504761Y-23709523D01*
X105552380Y-23804761D01*
X105552380Y-24042857D01*
X105504761Y-24138095D01*
X105457142Y-24185714D01*
X122877380Y-36192857D02*
X122401190Y-36526190D01*
X122877380Y-36764285D02*
X121877380Y-36764285D01*
X121877380Y-36383333D01*
X121925000Y-36288095D01*
X121972619Y-36240476D01*
X122067857Y-36192857D01*
X122210714Y-36192857D01*
X122305952Y-36240476D01*
X122353571Y-36288095D01*
X122401190Y-36383333D01*
X122401190Y-36764285D01*
X122210714Y-35335714D02*
X122877380Y-35335714D01*
X121829761Y-35573809D02*
X122544047Y-35811904D01*
X122544047Y-35192857D01*
X121877380Y-34335714D02*
X121877380Y-34811904D01*
X122353571Y-34859523D01*
X122305952Y-34811904D01*
X122258333Y-34716666D01*
X122258333Y-34478571D01*
X122305952Y-34383333D01*
X122353571Y-34335714D01*
X122448809Y-34288095D01*
X122686904Y-34288095D01*
X122782142Y-34335714D01*
X122829761Y-34383333D01*
X122877380Y-34478571D01*
X122877380Y-34716666D01*
X122829761Y-34811904D01*
X122782142Y-34859523D01*
X123832142Y-35327380D02*
X123498809Y-34851190D01*
X123260714Y-35327380D02*
X123260714Y-34327380D01*
X123641666Y-34327380D01*
X123736904Y-34375000D01*
X123784523Y-34422619D01*
X123832142Y-34517857D01*
X123832142Y-34660714D01*
X123784523Y-34755952D01*
X123736904Y-34803571D01*
X123641666Y-34851190D01*
X123260714Y-34851190D01*
X124736904Y-34327380D02*
X124260714Y-34327380D01*
X124213095Y-34803571D01*
X124260714Y-34755952D01*
X124355952Y-34708333D01*
X124594047Y-34708333D01*
X124689285Y-34755952D01*
X124736904Y-34803571D01*
X124784523Y-34898809D01*
X124784523Y-35136904D01*
X124736904Y-35232142D01*
X124689285Y-35279761D01*
X124594047Y-35327380D01*
X124355952Y-35327380D01*
X124260714Y-35279761D01*
X124213095Y-35232142D01*
X125736904Y-35327380D02*
X125165476Y-35327380D01*
X125451190Y-35327380D02*
X125451190Y-34327380D01*
X125355952Y-34470238D01*
X125260714Y-34565476D01*
X125165476Y-34613095D01*
X84377380Y-56967857D02*
X83901190Y-57301190D01*
X84377380Y-57539285D02*
X83377380Y-57539285D01*
X83377380Y-57158333D01*
X83425000Y-57063095D01*
X83472619Y-57015476D01*
X83567857Y-56967857D01*
X83710714Y-56967857D01*
X83805952Y-57015476D01*
X83853571Y-57063095D01*
X83901190Y-57158333D01*
X83901190Y-57539285D01*
X83472619Y-56586904D02*
X83425000Y-56539285D01*
X83377380Y-56444047D01*
X83377380Y-56205952D01*
X83425000Y-56110714D01*
X83472619Y-56063095D01*
X83567857Y-56015476D01*
X83663095Y-56015476D01*
X83805952Y-56063095D01*
X84377380Y-56634523D01*
X84377380Y-56015476D01*
X84377380Y-55063095D02*
X84377380Y-55634523D01*
X84377380Y-55348809D02*
X83377380Y-55348809D01*
X83520238Y-55444047D01*
X83615476Y-55539285D01*
X83663095Y-55634523D01*
X111207142Y-45052380D02*
X110873809Y-44576190D01*
X110635714Y-45052380D02*
X110635714Y-44052380D01*
X111016666Y-44052380D01*
X111111904Y-44100000D01*
X111159523Y-44147619D01*
X111207142Y-44242857D01*
X111207142Y-44385714D01*
X111159523Y-44480952D01*
X111111904Y-44528571D01*
X111016666Y-44576190D01*
X110635714Y-44576190D01*
X112159523Y-45052380D02*
X111588095Y-45052380D01*
X111873809Y-45052380D02*
X111873809Y-44052380D01*
X111778571Y-44195238D01*
X111683333Y-44290476D01*
X111588095Y-44338095D01*
X112635714Y-45052380D02*
X112826190Y-45052380D01*
X112921428Y-45004761D01*
X112969047Y-44957142D01*
X113064285Y-44814285D01*
X113111904Y-44623809D01*
X113111904Y-44242857D01*
X113064285Y-44147619D01*
X113016666Y-44100000D01*
X112921428Y-44052380D01*
X112730952Y-44052380D01*
X112635714Y-44100000D01*
X112588095Y-44147619D01*
X112540476Y-44242857D01*
X112540476Y-44480952D01*
X112588095Y-44576190D01*
X112635714Y-44623809D01*
X112730952Y-44671428D01*
X112921428Y-44671428D01*
X113016666Y-44623809D01*
X113064285Y-44576190D01*
X113111904Y-44480952D01*
X108432142Y-45052380D02*
X108098809Y-44576190D01*
X107860714Y-45052380D02*
X107860714Y-44052380D01*
X108241666Y-44052380D01*
X108336904Y-44100000D01*
X108384523Y-44147619D01*
X108432142Y-44242857D01*
X108432142Y-44385714D01*
X108384523Y-44480952D01*
X108336904Y-44528571D01*
X108241666Y-44576190D01*
X107860714Y-44576190D01*
X109384523Y-45052380D02*
X108813095Y-45052380D01*
X109098809Y-45052380D02*
X109098809Y-44052380D01*
X109003571Y-44195238D01*
X108908333Y-44290476D01*
X108813095Y-44338095D01*
X109955952Y-44480952D02*
X109860714Y-44433333D01*
X109813095Y-44385714D01*
X109765476Y-44290476D01*
X109765476Y-44242857D01*
X109813095Y-44147619D01*
X109860714Y-44100000D01*
X109955952Y-44052380D01*
X110146428Y-44052380D01*
X110241666Y-44100000D01*
X110289285Y-44147619D01*
X110336904Y-44242857D01*
X110336904Y-44290476D01*
X110289285Y-44385714D01*
X110241666Y-44433333D01*
X110146428Y-44480952D01*
X109955952Y-44480952D01*
X109860714Y-44528571D01*
X109813095Y-44576190D01*
X109765476Y-44671428D01*
X109765476Y-44861904D01*
X109813095Y-44957142D01*
X109860714Y-45004761D01*
X109955952Y-45052380D01*
X110146428Y-45052380D01*
X110241666Y-45004761D01*
X110289285Y-44957142D01*
X110336904Y-44861904D01*
X110336904Y-44671428D01*
X110289285Y-44576190D01*
X110241666Y-44528571D01*
X110146428Y-44480952D01*
X82182142Y-58702380D02*
X81848809Y-58226190D01*
X81610714Y-58702380D02*
X81610714Y-57702380D01*
X81991666Y-57702380D01*
X82086904Y-57750000D01*
X82134523Y-57797619D01*
X82182142Y-57892857D01*
X82182142Y-58035714D01*
X82134523Y-58130952D01*
X82086904Y-58178571D01*
X81991666Y-58226190D01*
X81610714Y-58226190D01*
X83134523Y-58702380D02*
X82563095Y-58702380D01*
X82848809Y-58702380D02*
X82848809Y-57702380D01*
X82753571Y-57845238D01*
X82658333Y-57940476D01*
X82563095Y-57988095D01*
X83467857Y-57702380D02*
X84134523Y-57702380D01*
X83705952Y-58702380D01*
X116707142Y-45077380D02*
X116373809Y-44601190D01*
X116135714Y-45077380D02*
X116135714Y-44077380D01*
X116516666Y-44077380D01*
X116611904Y-44125000D01*
X116659523Y-44172619D01*
X116707142Y-44267857D01*
X116707142Y-44410714D01*
X116659523Y-44505952D01*
X116611904Y-44553571D01*
X116516666Y-44601190D01*
X116135714Y-44601190D01*
X117659523Y-45077380D02*
X117088095Y-45077380D01*
X117373809Y-45077380D02*
X117373809Y-44077380D01*
X117278571Y-44220238D01*
X117183333Y-44315476D01*
X117088095Y-44363095D01*
X118516666Y-44077380D02*
X118326190Y-44077380D01*
X118230952Y-44125000D01*
X118183333Y-44172619D01*
X118088095Y-44315476D01*
X118040476Y-44505952D01*
X118040476Y-44886904D01*
X118088095Y-44982142D01*
X118135714Y-45029761D01*
X118230952Y-45077380D01*
X118421428Y-45077380D01*
X118516666Y-45029761D01*
X118564285Y-44982142D01*
X118611904Y-44886904D01*
X118611904Y-44648809D01*
X118564285Y-44553571D01*
X118516666Y-44505952D01*
X118421428Y-44458333D01*
X118230952Y-44458333D01*
X118135714Y-44505952D01*
X118088095Y-44553571D01*
X118040476Y-44648809D01*
X109742380Y-35152857D02*
X109266190Y-35486190D01*
X109742380Y-35724285D02*
X108742380Y-35724285D01*
X108742380Y-35343333D01*
X108790000Y-35248095D01*
X108837619Y-35200476D01*
X108932857Y-35152857D01*
X109075714Y-35152857D01*
X109170952Y-35200476D01*
X109218571Y-35248095D01*
X109266190Y-35343333D01*
X109266190Y-35724285D01*
X109742380Y-34200476D02*
X109742380Y-34771904D01*
X109742380Y-34486190D02*
X108742380Y-34486190D01*
X108885238Y-34581428D01*
X108980476Y-34676666D01*
X109028095Y-34771904D01*
X108742380Y-33295714D02*
X108742380Y-33771904D01*
X109218571Y-33819523D01*
X109170952Y-33771904D01*
X109123333Y-33676666D01*
X109123333Y-33438571D01*
X109170952Y-33343333D01*
X109218571Y-33295714D01*
X109313809Y-33248095D01*
X109551904Y-33248095D01*
X109647142Y-33295714D01*
X109694761Y-33343333D01*
X109742380Y-33438571D01*
X109742380Y-33676666D01*
X109694761Y-33771904D01*
X109647142Y-33819523D01*
X116922380Y-35152857D02*
X116446190Y-35486190D01*
X116922380Y-35724285D02*
X115922380Y-35724285D01*
X115922380Y-35343333D01*
X115970000Y-35248095D01*
X116017619Y-35200476D01*
X116112857Y-35152857D01*
X116255714Y-35152857D01*
X116350952Y-35200476D01*
X116398571Y-35248095D01*
X116446190Y-35343333D01*
X116446190Y-35724285D01*
X116922380Y-34200476D02*
X116922380Y-34771904D01*
X116922380Y-34486190D02*
X115922380Y-34486190D01*
X116065238Y-34581428D01*
X116160476Y-34676666D01*
X116208095Y-34771904D01*
X116255714Y-33343333D02*
X116922380Y-33343333D01*
X115874761Y-33581428D02*
X116589047Y-33819523D01*
X116589047Y-33200476D01*
X186888380Y-54268666D02*
X186412190Y-54602000D01*
X186888380Y-54840095D02*
X185888380Y-54840095D01*
X185888380Y-54459142D01*
X185936000Y-54363904D01*
X185983619Y-54316285D01*
X186078857Y-54268666D01*
X186221714Y-54268666D01*
X186316952Y-54316285D01*
X186364571Y-54363904D01*
X186412190Y-54459142D01*
X186412190Y-54840095D01*
X185983619Y-53887714D02*
X185936000Y-53840095D01*
X185888380Y-53744857D01*
X185888380Y-53506761D01*
X185936000Y-53411523D01*
X185983619Y-53363904D01*
X186078857Y-53316285D01*
X186174095Y-53316285D01*
X186316952Y-53363904D01*
X186888380Y-53935333D01*
X186888380Y-53316285D01*
X172387142Y-81982380D02*
X172053809Y-81506190D01*
X171815714Y-81982380D02*
X171815714Y-80982380D01*
X172196666Y-80982380D01*
X172291904Y-81030000D01*
X172339523Y-81077619D01*
X172387142Y-81172857D01*
X172387142Y-81315714D01*
X172339523Y-81410952D01*
X172291904Y-81458571D01*
X172196666Y-81506190D01*
X171815714Y-81506190D01*
X173339523Y-81982380D02*
X172768095Y-81982380D01*
X173053809Y-81982380D02*
X173053809Y-80982380D01*
X172958571Y-81125238D01*
X172863333Y-81220476D01*
X172768095Y-81268095D01*
X173958571Y-80982380D02*
X174053809Y-80982380D01*
X174149047Y-81030000D01*
X174196666Y-81077619D01*
X174244285Y-81172857D01*
X174291904Y-81363333D01*
X174291904Y-81601428D01*
X174244285Y-81791904D01*
X174196666Y-81887142D01*
X174149047Y-81934761D01*
X174053809Y-81982380D01*
X173958571Y-81982380D01*
X173863333Y-81934761D01*
X173815714Y-81887142D01*
X173768095Y-81791904D01*
X173720476Y-81601428D01*
X173720476Y-81363333D01*
X173768095Y-81172857D01*
X173815714Y-81077619D01*
X173863333Y-81030000D01*
X173958571Y-80982380D01*
X163823333Y-80572380D02*
X163490000Y-80096190D01*
X163251904Y-80572380D02*
X163251904Y-79572380D01*
X163632857Y-79572380D01*
X163728095Y-79620000D01*
X163775714Y-79667619D01*
X163823333Y-79762857D01*
X163823333Y-79905714D01*
X163775714Y-80000952D01*
X163728095Y-80048571D01*
X163632857Y-80096190D01*
X163251904Y-80096190D01*
X164299523Y-80572380D02*
X164490000Y-80572380D01*
X164585238Y-80524761D01*
X164632857Y-80477142D01*
X164728095Y-80334285D01*
X164775714Y-80143809D01*
X164775714Y-79762857D01*
X164728095Y-79667619D01*
X164680476Y-79620000D01*
X164585238Y-79572380D01*
X164394761Y-79572380D01*
X164299523Y-79620000D01*
X164251904Y-79667619D01*
X164204285Y-79762857D01*
X164204285Y-80000952D01*
X164251904Y-80096190D01*
X164299523Y-80143809D01*
X164394761Y-80191428D01*
X164585238Y-80191428D01*
X164680476Y-80143809D01*
X164728095Y-80096190D01*
X164775714Y-80000952D01*
X103952380Y-24566666D02*
X103476190Y-24900000D01*
X103952380Y-25138095D02*
X102952380Y-25138095D01*
X102952380Y-24757142D01*
X103000000Y-24661904D01*
X103047619Y-24614285D01*
X103142857Y-24566666D01*
X103285714Y-24566666D01*
X103380952Y-24614285D01*
X103428571Y-24661904D01*
X103476190Y-24757142D01*
X103476190Y-25138095D01*
X102952380Y-23709523D02*
X102952380Y-23900000D01*
X103000000Y-23995238D01*
X103047619Y-24042857D01*
X103190476Y-24138095D01*
X103380952Y-24185714D01*
X103761904Y-24185714D01*
X103857142Y-24138095D01*
X103904761Y-24090476D01*
X103952380Y-23995238D01*
X103952380Y-23804761D01*
X103904761Y-23709523D01*
X103857142Y-23661904D01*
X103761904Y-23614285D01*
X103523809Y-23614285D01*
X103428571Y-23661904D01*
X103380952Y-23709523D01*
X103333333Y-23804761D01*
X103333333Y-23995238D01*
X103380952Y-24090476D01*
X103428571Y-24138095D01*
X103523809Y-24185714D01*
X83152380Y-56992857D02*
X82676190Y-57326190D01*
X83152380Y-57564285D02*
X82152380Y-57564285D01*
X82152380Y-57183333D01*
X82200000Y-57088095D01*
X82247619Y-57040476D01*
X82342857Y-56992857D01*
X82485714Y-56992857D01*
X82580952Y-57040476D01*
X82628571Y-57088095D01*
X82676190Y-57183333D01*
X82676190Y-57564285D01*
X82247619Y-56611904D02*
X82200000Y-56564285D01*
X82152380Y-56469047D01*
X82152380Y-56230952D01*
X82200000Y-56135714D01*
X82247619Y-56088095D01*
X82342857Y-56040476D01*
X82438095Y-56040476D01*
X82580952Y-56088095D01*
X83152380Y-56659523D01*
X83152380Y-56040476D01*
X82152380Y-55421428D02*
X82152380Y-55326190D01*
X82200000Y-55230952D01*
X82247619Y-55183333D01*
X82342857Y-55135714D01*
X82533333Y-55088095D01*
X82771428Y-55088095D01*
X82961904Y-55135714D01*
X83057142Y-55183333D01*
X83104761Y-55230952D01*
X83152380Y-55326190D01*
X83152380Y-55421428D01*
X83104761Y-55516666D01*
X83057142Y-55564285D01*
X82961904Y-55611904D01*
X82771428Y-55659523D01*
X82533333Y-55659523D01*
X82342857Y-55611904D01*
X82247619Y-55564285D01*
X82200000Y-55516666D01*
X82152380Y-55421428D01*
X85702380Y-56967857D02*
X85226190Y-57301190D01*
X85702380Y-57539285D02*
X84702380Y-57539285D01*
X84702380Y-57158333D01*
X84750000Y-57063095D01*
X84797619Y-57015476D01*
X84892857Y-56967857D01*
X85035714Y-56967857D01*
X85130952Y-57015476D01*
X85178571Y-57063095D01*
X85226190Y-57158333D01*
X85226190Y-57539285D01*
X84797619Y-56586904D02*
X84750000Y-56539285D01*
X84702380Y-56444047D01*
X84702380Y-56205952D01*
X84750000Y-56110714D01*
X84797619Y-56063095D01*
X84892857Y-56015476D01*
X84988095Y-56015476D01*
X85130952Y-56063095D01*
X85702380Y-56634523D01*
X85702380Y-56015476D01*
X84797619Y-55634523D02*
X84750000Y-55586904D01*
X84702380Y-55491666D01*
X84702380Y-55253571D01*
X84750000Y-55158333D01*
X84797619Y-55110714D01*
X84892857Y-55063095D01*
X84988095Y-55063095D01*
X85130952Y-55110714D01*
X85702380Y-55682142D01*
X85702380Y-55063095D01*
X129687142Y-35687380D02*
X129353809Y-35211190D01*
X129115714Y-35687380D02*
X129115714Y-34687380D01*
X129496666Y-34687380D01*
X129591904Y-34735000D01*
X129639523Y-34782619D01*
X129687142Y-34877857D01*
X129687142Y-35020714D01*
X129639523Y-35115952D01*
X129591904Y-35163571D01*
X129496666Y-35211190D01*
X129115714Y-35211190D01*
X130591904Y-34687380D02*
X130115714Y-34687380D01*
X130068095Y-35163571D01*
X130115714Y-35115952D01*
X130210952Y-35068333D01*
X130449047Y-35068333D01*
X130544285Y-35115952D01*
X130591904Y-35163571D01*
X130639523Y-35258809D01*
X130639523Y-35496904D01*
X130591904Y-35592142D01*
X130544285Y-35639761D01*
X130449047Y-35687380D01*
X130210952Y-35687380D01*
X130115714Y-35639761D01*
X130068095Y-35592142D01*
X131020476Y-34782619D02*
X131068095Y-34735000D01*
X131163333Y-34687380D01*
X131401428Y-34687380D01*
X131496666Y-34735000D01*
X131544285Y-34782619D01*
X131591904Y-34877857D01*
X131591904Y-34973095D01*
X131544285Y-35115952D01*
X130972857Y-35687380D01*
X131591904Y-35687380D01*
X113507142Y-31532380D02*
X113173809Y-31056190D01*
X112935714Y-31532380D02*
X112935714Y-30532380D01*
X113316666Y-30532380D01*
X113411904Y-30580000D01*
X113459523Y-30627619D01*
X113507142Y-30722857D01*
X113507142Y-30865714D01*
X113459523Y-30960952D01*
X113411904Y-31008571D01*
X113316666Y-31056190D01*
X112935714Y-31056190D01*
X113888095Y-30627619D02*
X113935714Y-30580000D01*
X114030952Y-30532380D01*
X114269047Y-30532380D01*
X114364285Y-30580000D01*
X114411904Y-30627619D01*
X114459523Y-30722857D01*
X114459523Y-30818095D01*
X114411904Y-30960952D01*
X113840476Y-31532380D01*
X114459523Y-31532380D01*
X114792857Y-30532380D02*
X115459523Y-30532380D01*
X115030952Y-31532380D01*
X139952380Y-60317857D02*
X139476190Y-60651190D01*
X139952380Y-60889285D02*
X138952380Y-60889285D01*
X138952380Y-60508333D01*
X139000000Y-60413095D01*
X139047619Y-60365476D01*
X139142857Y-60317857D01*
X139285714Y-60317857D01*
X139380952Y-60365476D01*
X139428571Y-60413095D01*
X139476190Y-60508333D01*
X139476190Y-60889285D01*
X139047619Y-59936904D02*
X139000000Y-59889285D01*
X138952380Y-59794047D01*
X138952380Y-59555952D01*
X139000000Y-59460714D01*
X139047619Y-59413095D01*
X139142857Y-59365476D01*
X139238095Y-59365476D01*
X139380952Y-59413095D01*
X139952380Y-59984523D01*
X139952380Y-59365476D01*
X138952380Y-58508333D02*
X138952380Y-58698809D01*
X139000000Y-58794047D01*
X139047619Y-58841666D01*
X139190476Y-58936904D01*
X139380952Y-58984523D01*
X139761904Y-58984523D01*
X139857142Y-58936904D01*
X139904761Y-58889285D01*
X139952380Y-58794047D01*
X139952380Y-58603571D01*
X139904761Y-58508333D01*
X139857142Y-58460714D01*
X139761904Y-58413095D01*
X139523809Y-58413095D01*
X139428571Y-58460714D01*
X139380952Y-58508333D01*
X139333333Y-58603571D01*
X139333333Y-58794047D01*
X139380952Y-58889285D01*
X139428571Y-58936904D01*
X139523809Y-58984523D01*
X186812380Y-56966666D02*
X186336190Y-57300000D01*
X186812380Y-57538095D02*
X185812380Y-57538095D01*
X185812380Y-57157142D01*
X185860000Y-57061904D01*
X185907619Y-57014285D01*
X186002857Y-56966666D01*
X186145714Y-56966666D01*
X186240952Y-57014285D01*
X186288571Y-57061904D01*
X186336190Y-57157142D01*
X186336190Y-57538095D01*
X186812380Y-56014285D02*
X186812380Y-56585714D01*
X186812380Y-56300000D02*
X185812380Y-56300000D01*
X185955238Y-56395238D01*
X186050476Y-56490476D01*
X186098095Y-56585714D01*
X139927380Y-57517857D02*
X139451190Y-57851190D01*
X139927380Y-58089285D02*
X138927380Y-58089285D01*
X138927380Y-57708333D01*
X138975000Y-57613095D01*
X139022619Y-57565476D01*
X139117857Y-57517857D01*
X139260714Y-57517857D01*
X139355952Y-57565476D01*
X139403571Y-57613095D01*
X139451190Y-57708333D01*
X139451190Y-58089285D01*
X139022619Y-57136904D02*
X138975000Y-57089285D01*
X138927380Y-56994047D01*
X138927380Y-56755952D01*
X138975000Y-56660714D01*
X139022619Y-56613095D01*
X139117857Y-56565476D01*
X139213095Y-56565476D01*
X139355952Y-56613095D01*
X139927380Y-57184523D01*
X139927380Y-56565476D01*
X138927380Y-55660714D02*
X138927380Y-56136904D01*
X139403571Y-56184523D01*
X139355952Y-56136904D01*
X139308333Y-56041666D01*
X139308333Y-55803571D01*
X139355952Y-55708333D01*
X139403571Y-55660714D01*
X139498809Y-55613095D01*
X139736904Y-55613095D01*
X139832142Y-55660714D01*
X139879761Y-55708333D01*
X139927380Y-55803571D01*
X139927380Y-56041666D01*
X139879761Y-56136904D01*
X139832142Y-56184523D01*
X109287142Y-32842380D02*
X108953809Y-32366190D01*
X108715714Y-32842380D02*
X108715714Y-31842380D01*
X109096666Y-31842380D01*
X109191904Y-31890000D01*
X109239523Y-31937619D01*
X109287142Y-32032857D01*
X109287142Y-32175714D01*
X109239523Y-32270952D01*
X109191904Y-32318571D01*
X109096666Y-32366190D01*
X108715714Y-32366190D01*
X109668095Y-31937619D02*
X109715714Y-31890000D01*
X109810952Y-31842380D01*
X110049047Y-31842380D01*
X110144285Y-31890000D01*
X110191904Y-31937619D01*
X110239523Y-32032857D01*
X110239523Y-32128095D01*
X110191904Y-32270952D01*
X109620476Y-32842380D01*
X110239523Y-32842380D01*
X111096666Y-32175714D02*
X111096666Y-32842380D01*
X110858571Y-31794761D02*
X110620476Y-32509047D01*
X111239523Y-32509047D01*
X102452380Y-24566666D02*
X101976190Y-24900000D01*
X102452380Y-25138095D02*
X101452380Y-25138095D01*
X101452380Y-24757142D01*
X101500000Y-24661904D01*
X101547619Y-24614285D01*
X101642857Y-24566666D01*
X101785714Y-24566666D01*
X101880952Y-24614285D01*
X101928571Y-24661904D01*
X101976190Y-24757142D01*
X101976190Y-25138095D01*
X101785714Y-23709523D02*
X102452380Y-23709523D01*
X101404761Y-23947619D02*
X102119047Y-24185714D01*
X102119047Y-23566666D01*
X112137142Y-32842380D02*
X111803809Y-32366190D01*
X111565714Y-32842380D02*
X111565714Y-31842380D01*
X111946666Y-31842380D01*
X112041904Y-31890000D01*
X112089523Y-31937619D01*
X112137142Y-32032857D01*
X112137142Y-32175714D01*
X112089523Y-32270952D01*
X112041904Y-32318571D01*
X111946666Y-32366190D01*
X111565714Y-32366190D01*
X112518095Y-31937619D02*
X112565714Y-31890000D01*
X112660952Y-31842380D01*
X112899047Y-31842380D01*
X112994285Y-31890000D01*
X113041904Y-31937619D01*
X113089523Y-32032857D01*
X113089523Y-32128095D01*
X113041904Y-32270952D01*
X112470476Y-32842380D01*
X113089523Y-32842380D01*
X113660952Y-32270952D02*
X113565714Y-32223333D01*
X113518095Y-32175714D01*
X113470476Y-32080476D01*
X113470476Y-32032857D01*
X113518095Y-31937619D01*
X113565714Y-31890000D01*
X113660952Y-31842380D01*
X113851428Y-31842380D01*
X113946666Y-31890000D01*
X113994285Y-31937619D01*
X114041904Y-32032857D01*
X114041904Y-32080476D01*
X113994285Y-32175714D01*
X113946666Y-32223333D01*
X113851428Y-32270952D01*
X113660952Y-32270952D01*
X113565714Y-32318571D01*
X113518095Y-32366190D01*
X113470476Y-32461428D01*
X113470476Y-32651904D01*
X113518095Y-32747142D01*
X113565714Y-32794761D01*
X113660952Y-32842380D01*
X113851428Y-32842380D01*
X113946666Y-32794761D01*
X113994285Y-32747142D01*
X114041904Y-32651904D01*
X114041904Y-32461428D01*
X113994285Y-32366190D01*
X113946666Y-32318571D01*
X113851428Y-32270952D01*
X110697142Y-31472380D02*
X110363809Y-30996190D01*
X110125714Y-31472380D02*
X110125714Y-30472380D01*
X110506666Y-30472380D01*
X110601904Y-30520000D01*
X110649523Y-30567619D01*
X110697142Y-30662857D01*
X110697142Y-30805714D01*
X110649523Y-30900952D01*
X110601904Y-30948571D01*
X110506666Y-30996190D01*
X110125714Y-30996190D01*
X111078095Y-30567619D02*
X111125714Y-30520000D01*
X111220952Y-30472380D01*
X111459047Y-30472380D01*
X111554285Y-30520000D01*
X111601904Y-30567619D01*
X111649523Y-30662857D01*
X111649523Y-30758095D01*
X111601904Y-30900952D01*
X111030476Y-31472380D01*
X111649523Y-31472380D01*
X112125714Y-31472380D02*
X112316190Y-31472380D01*
X112411428Y-31424761D01*
X112459047Y-31377142D01*
X112554285Y-31234285D01*
X112601904Y-31043809D01*
X112601904Y-30662857D01*
X112554285Y-30567619D01*
X112506666Y-30520000D01*
X112411428Y-30472380D01*
X112220952Y-30472380D01*
X112125714Y-30520000D01*
X112078095Y-30567619D01*
X112030476Y-30662857D01*
X112030476Y-30900952D01*
X112078095Y-30996190D01*
X112125714Y-31043809D01*
X112220952Y-31091428D01*
X112411428Y-31091428D01*
X112506666Y-31043809D01*
X112554285Y-30996190D01*
X112601904Y-30900952D01*
X114277380Y-41942857D02*
X113801190Y-42276190D01*
X114277380Y-42514285D02*
X113277380Y-42514285D01*
X113277380Y-42133333D01*
X113325000Y-42038095D01*
X113372619Y-41990476D01*
X113467857Y-41942857D01*
X113610714Y-41942857D01*
X113705952Y-41990476D01*
X113753571Y-42038095D01*
X113801190Y-42133333D01*
X113801190Y-42514285D01*
X113277380Y-41609523D02*
X113277380Y-40990476D01*
X113658333Y-41323809D01*
X113658333Y-41180952D01*
X113705952Y-41085714D01*
X113753571Y-41038095D01*
X113848809Y-40990476D01*
X114086904Y-40990476D01*
X114182142Y-41038095D01*
X114229761Y-41085714D01*
X114277380Y-41180952D01*
X114277380Y-41466666D01*
X114229761Y-41561904D01*
X114182142Y-41609523D01*
X113277380Y-40371428D02*
X113277380Y-40276190D01*
X113325000Y-40180952D01*
X113372619Y-40133333D01*
X113467857Y-40085714D01*
X113658333Y-40038095D01*
X113896428Y-40038095D01*
X114086904Y-40085714D01*
X114182142Y-40133333D01*
X114229761Y-40180952D01*
X114277380Y-40276190D01*
X114277380Y-40371428D01*
X114229761Y-40466666D01*
X114182142Y-40514285D01*
X114086904Y-40561904D01*
X113896428Y-40609523D01*
X113658333Y-40609523D01*
X113467857Y-40561904D01*
X113372619Y-40514285D01*
X113325000Y-40466666D01*
X113277380Y-40371428D01*
X113982142Y-45052380D02*
X113648809Y-44576190D01*
X113410714Y-45052380D02*
X113410714Y-44052380D01*
X113791666Y-44052380D01*
X113886904Y-44100000D01*
X113934523Y-44147619D01*
X113982142Y-44242857D01*
X113982142Y-44385714D01*
X113934523Y-44480952D01*
X113886904Y-44528571D01*
X113791666Y-44576190D01*
X113410714Y-44576190D01*
X114315476Y-44052380D02*
X114934523Y-44052380D01*
X114601190Y-44433333D01*
X114744047Y-44433333D01*
X114839285Y-44480952D01*
X114886904Y-44528571D01*
X114934523Y-44623809D01*
X114934523Y-44861904D01*
X114886904Y-44957142D01*
X114839285Y-45004761D01*
X114744047Y-45052380D01*
X114458333Y-45052380D01*
X114363095Y-45004761D01*
X114315476Y-44957142D01*
X115886904Y-45052380D02*
X115315476Y-45052380D01*
X115601190Y-45052380D02*
X115601190Y-44052380D01*
X115505952Y-44195238D01*
X115410714Y-44290476D01*
X115315476Y-44338095D01*
X115577380Y-41967857D02*
X115101190Y-42301190D01*
X115577380Y-42539285D02*
X114577380Y-42539285D01*
X114577380Y-42158333D01*
X114625000Y-42063095D01*
X114672619Y-42015476D01*
X114767857Y-41967857D01*
X114910714Y-41967857D01*
X115005952Y-42015476D01*
X115053571Y-42063095D01*
X115101190Y-42158333D01*
X115101190Y-42539285D01*
X114577380Y-41634523D02*
X114577380Y-41015476D01*
X114958333Y-41348809D01*
X114958333Y-41205952D01*
X115005952Y-41110714D01*
X115053571Y-41063095D01*
X115148809Y-41015476D01*
X115386904Y-41015476D01*
X115482142Y-41063095D01*
X115529761Y-41110714D01*
X115577380Y-41205952D01*
X115577380Y-41491666D01*
X115529761Y-41586904D01*
X115482142Y-41634523D01*
X114672619Y-40634523D02*
X114625000Y-40586904D01*
X114577380Y-40491666D01*
X114577380Y-40253571D01*
X114625000Y-40158333D01*
X114672619Y-40110714D01*
X114767857Y-40063095D01*
X114863095Y-40063095D01*
X115005952Y-40110714D01*
X115577380Y-40682142D01*
X115577380Y-40063095D01*
X111702380Y-41992857D02*
X111226190Y-42326190D01*
X111702380Y-42564285D02*
X110702380Y-42564285D01*
X110702380Y-42183333D01*
X110750000Y-42088095D01*
X110797619Y-42040476D01*
X110892857Y-41992857D01*
X111035714Y-41992857D01*
X111130952Y-42040476D01*
X111178571Y-42088095D01*
X111226190Y-42183333D01*
X111226190Y-42564285D01*
X110702380Y-41659523D02*
X110702380Y-41040476D01*
X111083333Y-41373809D01*
X111083333Y-41230952D01*
X111130952Y-41135714D01*
X111178571Y-41088095D01*
X111273809Y-41040476D01*
X111511904Y-41040476D01*
X111607142Y-41088095D01*
X111654761Y-41135714D01*
X111702380Y-41230952D01*
X111702380Y-41516666D01*
X111654761Y-41611904D01*
X111607142Y-41659523D01*
X110702380Y-40707142D02*
X110702380Y-40088095D01*
X111083333Y-40421428D01*
X111083333Y-40278571D01*
X111130952Y-40183333D01*
X111178571Y-40135714D01*
X111273809Y-40088095D01*
X111511904Y-40088095D01*
X111607142Y-40135714D01*
X111654761Y-40183333D01*
X111702380Y-40278571D01*
X111702380Y-40564285D01*
X111654761Y-40659523D01*
X111607142Y-40707142D01*
X192373333Y-79122380D02*
X192040000Y-78646190D01*
X191801904Y-79122380D02*
X191801904Y-78122380D01*
X192182857Y-78122380D01*
X192278095Y-78170000D01*
X192325714Y-78217619D01*
X192373333Y-78312857D01*
X192373333Y-78455714D01*
X192325714Y-78550952D01*
X192278095Y-78598571D01*
X192182857Y-78646190D01*
X191801904Y-78646190D01*
X192706666Y-78122380D02*
X193373333Y-78122380D01*
X192944761Y-79122380D01*
X114917142Y-32882380D02*
X114583809Y-32406190D01*
X114345714Y-32882380D02*
X114345714Y-31882380D01*
X114726666Y-31882380D01*
X114821904Y-31930000D01*
X114869523Y-31977619D01*
X114917142Y-32072857D01*
X114917142Y-32215714D01*
X114869523Y-32310952D01*
X114821904Y-32358571D01*
X114726666Y-32406190D01*
X114345714Y-32406190D01*
X115298095Y-31977619D02*
X115345714Y-31930000D01*
X115440952Y-31882380D01*
X115679047Y-31882380D01*
X115774285Y-31930000D01*
X115821904Y-31977619D01*
X115869523Y-32072857D01*
X115869523Y-32168095D01*
X115821904Y-32310952D01*
X115250476Y-32882380D01*
X115869523Y-32882380D01*
X116202857Y-31882380D02*
X116821904Y-31882380D01*
X116488571Y-32263333D01*
X116631428Y-32263333D01*
X116726666Y-32310952D01*
X116774285Y-32358571D01*
X116821904Y-32453809D01*
X116821904Y-32691904D01*
X116774285Y-32787142D01*
X116726666Y-32834761D01*
X116631428Y-32882380D01*
X116345714Y-32882380D01*
X116250476Y-32834761D01*
X116202857Y-32787142D01*
X139122380Y-41092857D02*
X138646190Y-41426190D01*
X139122380Y-41664285D02*
X138122380Y-41664285D01*
X138122380Y-41283333D01*
X138170000Y-41188095D01*
X138217619Y-41140476D01*
X138312857Y-41092857D01*
X138455714Y-41092857D01*
X138550952Y-41140476D01*
X138598571Y-41188095D01*
X138646190Y-41283333D01*
X138646190Y-41664285D01*
X138455714Y-40235714D02*
X139122380Y-40235714D01*
X138074761Y-40473809D02*
X138789047Y-40711904D01*
X138789047Y-40092857D01*
X138122380Y-39521428D02*
X138122380Y-39426190D01*
X138170000Y-39330952D01*
X138217619Y-39283333D01*
X138312857Y-39235714D01*
X138503333Y-39188095D01*
X138741428Y-39188095D01*
X138931904Y-39235714D01*
X139027142Y-39283333D01*
X139074761Y-39330952D01*
X139122380Y-39426190D01*
X139122380Y-39521428D01*
X139074761Y-39616666D01*
X139027142Y-39664285D01*
X138931904Y-39711904D01*
X138741428Y-39759523D01*
X138503333Y-39759523D01*
X138312857Y-39711904D01*
X138217619Y-39664285D01*
X138170000Y-39616666D01*
X138122380Y-39521428D01*
X162652380Y-54486904D02*
X162652380Y-53915476D01*
X163652380Y-54201190D02*
X162652380Y-54201190D01*
X163652380Y-53010714D02*
X163176190Y-53344047D01*
X163652380Y-53582142D02*
X162652380Y-53582142D01*
X162652380Y-53201190D01*
X162700000Y-53105952D01*
X162747619Y-53058333D01*
X162842857Y-53010714D01*
X162985714Y-53010714D01*
X163080952Y-53058333D01*
X163128571Y-53105952D01*
X163176190Y-53201190D01*
X163176190Y-53582142D01*
X162747619Y-52629761D02*
X162700000Y-52582142D01*
X162652380Y-52486904D01*
X162652380Y-52248809D01*
X162700000Y-52153571D01*
X162747619Y-52105952D01*
X162842857Y-52058333D01*
X162938095Y-52058333D01*
X163080952Y-52105952D01*
X163652380Y-52677380D01*
X163652380Y-52058333D01*
D15*
X187972095Y-44147619D02*
X187972095Y-43131619D01*
X188214000Y-43131619D01*
X188359142Y-43180000D01*
X188455904Y-43276761D01*
X188504285Y-43373523D01*
X188552666Y-43567047D01*
X188552666Y-43712190D01*
X188504285Y-43905714D01*
X188455904Y-44002476D01*
X188359142Y-44099238D01*
X188214000Y-44147619D01*
X187972095Y-44147619D01*
X188939714Y-43228380D02*
X188988095Y-43180000D01*
X189084857Y-43131619D01*
X189326761Y-43131619D01*
X189423523Y-43180000D01*
X189471904Y-43228380D01*
X189520285Y-43325142D01*
X189520285Y-43421904D01*
X189471904Y-43567047D01*
X188891333Y-44147619D01*
X189520285Y-44147619D01*
X192544095Y-44147619D02*
X192544095Y-43131619D01*
X192786000Y-43131619D01*
X192931142Y-43180000D01*
X193027904Y-43276761D01*
X193076285Y-43373523D01*
X193124666Y-43567047D01*
X193124666Y-43712190D01*
X193076285Y-43905714D01*
X193027904Y-44002476D01*
X192931142Y-44099238D01*
X192786000Y-44147619D01*
X192544095Y-44147619D01*
X194092285Y-44147619D02*
X193511714Y-44147619D01*
X193802000Y-44147619D02*
X193802000Y-43131619D01*
X193705238Y-43276761D01*
X193608476Y-43373523D01*
X193511714Y-43421904D01*
X168579523Y-74503095D02*
X169486666Y-74503095D01*
X169668095Y-74563571D01*
X169789047Y-74684523D01*
X169849523Y-74865952D01*
X169849523Y-74986904D01*
X169849523Y-73233095D02*
X169849523Y-73958809D01*
X169849523Y-73595952D02*
X168579523Y-73595952D01*
X168760952Y-73716904D01*
X168881904Y-73837857D01*
X168942380Y-73958809D01*
X168579523Y-72446904D02*
X168579523Y-72325952D01*
X168640000Y-72205000D01*
X168700476Y-72144523D01*
X168821428Y-72084047D01*
X169063333Y-72023571D01*
X169365714Y-72023571D01*
X169607619Y-72084047D01*
X169728571Y-72144523D01*
X169789047Y-72205000D01*
X169849523Y-72325952D01*
X169849523Y-72446904D01*
X169789047Y-72567857D01*
X169728571Y-72628333D01*
X169607619Y-72688809D01*
X169365714Y-72749285D01*
X169063333Y-72749285D01*
X168821428Y-72688809D01*
X168700476Y-72628333D01*
X168640000Y-72567857D01*
X168579523Y-72446904D01*
X106629523Y-59973333D02*
X107536666Y-59973333D01*
X107718095Y-60033809D01*
X107839047Y-60154761D01*
X107899523Y-60336190D01*
X107899523Y-60457142D01*
X106629523Y-58824285D02*
X106629523Y-59066190D01*
X106690000Y-59187142D01*
X106750476Y-59247619D01*
X106931904Y-59368571D01*
X107173809Y-59429047D01*
X107657619Y-59429047D01*
X107778571Y-59368571D01*
X107839047Y-59308095D01*
X107899523Y-59187142D01*
X107899523Y-58945238D01*
X107839047Y-58824285D01*
X107778571Y-58763809D01*
X107657619Y-58703333D01*
X107355238Y-58703333D01*
X107234285Y-58763809D01*
X107173809Y-58824285D01*
X107113333Y-58945238D01*
X107113333Y-59187142D01*
X107173809Y-59308095D01*
X107234285Y-59368571D01*
X107355238Y-59429047D01*
X77101666Y-61754523D02*
X77101666Y-62661666D01*
X77041190Y-62843095D01*
X76920238Y-62964047D01*
X76738809Y-63024523D01*
X76617857Y-63024523D01*
X78311190Y-61754523D02*
X77706428Y-61754523D01*
X77645952Y-62359285D01*
X77706428Y-62298809D01*
X77827380Y-62238333D01*
X78129761Y-62238333D01*
X78250714Y-62298809D01*
X78311190Y-62359285D01*
X78371666Y-62480238D01*
X78371666Y-62782619D01*
X78311190Y-62903571D01*
X78250714Y-62964047D01*
X78129761Y-63024523D01*
X77827380Y-63024523D01*
X77706428Y-62964047D01*
X77645952Y-62903571D01*
X120826666Y-61679523D02*
X120826666Y-62586666D01*
X120766190Y-62768095D01*
X120645238Y-62889047D01*
X120463809Y-62949523D01*
X120342857Y-62949523D01*
X121310476Y-61679523D02*
X122157142Y-61679523D01*
X121612857Y-62949523D01*
X138776666Y-64154523D02*
X138776666Y-65061666D01*
X138716190Y-65243095D01*
X138595238Y-65364047D01*
X138413809Y-65424523D01*
X138292857Y-65424523D01*
X139562857Y-64698809D02*
X139441904Y-64638333D01*
X139381428Y-64577857D01*
X139320952Y-64456904D01*
X139320952Y-64396428D01*
X139381428Y-64275476D01*
X139441904Y-64215000D01*
X139562857Y-64154523D01*
X139804761Y-64154523D01*
X139925714Y-64215000D01*
X139986190Y-64275476D01*
X140046666Y-64396428D01*
X140046666Y-64456904D01*
X139986190Y-64577857D01*
X139925714Y-64638333D01*
X139804761Y-64698809D01*
X139562857Y-64698809D01*
X139441904Y-64759285D01*
X139381428Y-64819761D01*
X139320952Y-64940714D01*
X139320952Y-65182619D01*
X139381428Y-65303571D01*
X139441904Y-65364047D01*
X139562857Y-65424523D01*
X139804761Y-65424523D01*
X139925714Y-65364047D01*
X139986190Y-65303571D01*
X140046666Y-65182619D01*
X140046666Y-64940714D01*
X139986190Y-64819761D01*
X139925714Y-64759285D01*
X139804761Y-64698809D01*
X150729523Y-74598333D02*
X151636666Y-74598333D01*
X151818095Y-74658809D01*
X151939047Y-74779761D01*
X151999523Y-74961190D01*
X151999523Y-75082142D01*
X151999523Y-73933095D02*
X151999523Y-73691190D01*
X151939047Y-73570238D01*
X151878571Y-73509761D01*
X151697142Y-73388809D01*
X151455238Y-73328333D01*
X150971428Y-73328333D01*
X150850476Y-73388809D01*
X150790000Y-73449285D01*
X150729523Y-73570238D01*
X150729523Y-73812142D01*
X150790000Y-73933095D01*
X150850476Y-73993571D01*
X150971428Y-74054047D01*
X151273809Y-74054047D01*
X151394761Y-73993571D01*
X151455238Y-73933095D01*
X151515714Y-73812142D01*
X151515714Y-73570238D01*
X151455238Y-73449285D01*
X151394761Y-73388809D01*
X151273809Y-73328333D01*
M02*
