G04 #@! TF.GenerationSoftware,KiCad,Pcbnew,(5.1.2)-1*
G04 #@! TF.CreationDate,2019-07-27T13:44:34-05:00*
G04 #@! TF.ProjectId,mk312,6d6b3331-322e-46b6-9963-61645f706362,rev?*
G04 #@! TF.SameCoordinates,Original*
G04 #@! TF.FileFunction,Soldermask,Bot*
G04 #@! TF.FilePolarity,Negative*
%FSLAX46Y46*%
G04 Gerber Fmt 4.6, Leading zero omitted, Abs format (unit mm)*
G04 Created by KiCad (PCBNEW (5.1.2)-1) date 2019-07-27 13:44:34*
%MOMM*%
%LPD*%
G04 APERTURE LIST*
%ADD10C,0.100000*%
%ADD11C,0.050000*%
%ADD12O,1.700000X1.950000*%
%ADD13C,1.700000*%
%ADD14C,3.800000*%
%ADD15R,3.800000X3.800000*%
%ADD16C,1.524000*%
%ADD17C,3.500000*%
%ADD18C,2.700000*%
%ADD19C,1.800000*%
%ADD20C,4.000000*%
%ADD21C,2.800000*%
%ADD22C,1.200000*%
%ADD23C,2.000000*%
%ADD24C,3.000000*%
%ADD25R,3.500000X3.500000*%
%ADD26O,2.000000X1.905000*%
%ADD27R,2.000000X1.905000*%
%ADD28C,2.900000*%
%ADD29R,0.600000X1.850000*%
%ADD30C,0.590000*%
%ADD31O,1.700000X1.700000*%
%ADD32R,1.700000X1.700000*%
%ADD33C,0.600000*%
%ADD34R,0.900000X0.800000*%
%ADD35C,0.875000*%
G04 APERTURE END LIST*
D10*
G36*
X199490000Y-58760000D02*
G01*
X193090000Y-58760000D01*
X193090000Y-52960000D01*
X199490000Y-52960000D01*
X199490000Y-58760000D01*
G37*
X199490000Y-58760000D02*
X193090000Y-58760000D01*
X193090000Y-52960000D01*
X199490000Y-52960000D01*
X199490000Y-58760000D01*
D11*
G36*
X185214000Y-45750000D02*
G01*
X179414000Y-45750000D01*
X179414000Y-39350000D01*
X185214000Y-39350000D01*
X185214000Y-45750000D01*
G37*
X185214000Y-45750000D02*
X179414000Y-45750000D01*
X179414000Y-39350000D01*
X185214000Y-39350000D01*
X185214000Y-45750000D01*
G36*
X178100000Y-45750000D02*
G01*
X172300000Y-45750000D01*
X172300000Y-39350000D01*
X178100000Y-39350000D01*
X178100000Y-45750000D01*
G37*
X178100000Y-45750000D02*
X172300000Y-45750000D01*
X172300000Y-39350000D01*
X178100000Y-39350000D01*
X178100000Y-45750000D01*
G36*
X170990000Y-45750000D02*
G01*
X165190000Y-45750000D01*
X165190000Y-39350000D01*
X170990000Y-39350000D01*
X170990000Y-45750000D01*
G37*
X170990000Y-45750000D02*
X165190000Y-45750000D01*
X165190000Y-39350000D01*
X170990000Y-39350000D01*
X170990000Y-45750000D01*
G36*
X161148000Y-45750000D02*
G01*
X155348000Y-45750000D01*
X155348000Y-39350000D01*
X161148000Y-39350000D01*
X161148000Y-45750000D01*
G37*
X161148000Y-45750000D02*
X155348000Y-45750000D01*
X155348000Y-39350000D01*
X161148000Y-39350000D01*
X161148000Y-45750000D01*
G36*
X154100000Y-45750000D02*
G01*
X148300000Y-45750000D01*
X148300000Y-39350000D01*
X154100000Y-39350000D01*
X154100000Y-45750000D01*
G37*
X154100000Y-45750000D02*
X148300000Y-45750000D01*
X148300000Y-39350000D01*
X154100000Y-39350000D01*
X154100000Y-45750000D01*
G36*
X146924000Y-45750000D02*
G01*
X141124000Y-45750000D01*
X141124000Y-39350000D01*
X146924000Y-39350000D01*
X146924000Y-45750000D01*
G37*
X146924000Y-45750000D02*
X141124000Y-45750000D01*
X141124000Y-39350000D01*
X146924000Y-39350000D01*
X146924000Y-45750000D01*
D12*
X190240000Y-26380000D03*
X187740000Y-26380000D03*
X185240000Y-26380000D03*
D10*
G36*
X183364504Y-25406204D02*
G01*
X183388773Y-25409804D01*
X183412571Y-25415765D01*
X183435671Y-25424030D01*
X183457849Y-25434520D01*
X183478893Y-25447133D01*
X183498598Y-25461747D01*
X183516777Y-25478223D01*
X183533253Y-25496402D01*
X183547867Y-25516107D01*
X183560480Y-25537151D01*
X183570970Y-25559329D01*
X183579235Y-25582429D01*
X183585196Y-25606227D01*
X183588796Y-25630496D01*
X183590000Y-25655000D01*
X183590000Y-27105000D01*
X183588796Y-27129504D01*
X183585196Y-27153773D01*
X183579235Y-27177571D01*
X183570970Y-27200671D01*
X183560480Y-27222849D01*
X183547867Y-27243893D01*
X183533253Y-27263598D01*
X183516777Y-27281777D01*
X183498598Y-27298253D01*
X183478893Y-27312867D01*
X183457849Y-27325480D01*
X183435671Y-27335970D01*
X183412571Y-27344235D01*
X183388773Y-27350196D01*
X183364504Y-27353796D01*
X183340000Y-27355000D01*
X182140000Y-27355000D01*
X182115496Y-27353796D01*
X182091227Y-27350196D01*
X182067429Y-27344235D01*
X182044329Y-27335970D01*
X182022151Y-27325480D01*
X182001107Y-27312867D01*
X181981402Y-27298253D01*
X181963223Y-27281777D01*
X181946747Y-27263598D01*
X181932133Y-27243893D01*
X181919520Y-27222849D01*
X181909030Y-27200671D01*
X181900765Y-27177571D01*
X181894804Y-27153773D01*
X181891204Y-27129504D01*
X181890000Y-27105000D01*
X181890000Y-25655000D01*
X181891204Y-25630496D01*
X181894804Y-25606227D01*
X181900765Y-25582429D01*
X181909030Y-25559329D01*
X181919520Y-25537151D01*
X181932133Y-25516107D01*
X181946747Y-25496402D01*
X181963223Y-25478223D01*
X181981402Y-25461747D01*
X182001107Y-25447133D01*
X182022151Y-25434520D01*
X182044329Y-25424030D01*
X182067429Y-25415765D01*
X182091227Y-25409804D01*
X182115496Y-25406204D01*
X182140000Y-25405000D01*
X183340000Y-25405000D01*
X183364504Y-25406204D01*
X183364504Y-25406204D01*
G37*
D13*
X182740000Y-26380000D03*
D14*
X176360000Y-26650000D03*
D15*
X171360000Y-26650000D03*
D16*
X143104000Y-60040000D03*
X143104000Y-57500000D03*
X143104000Y-54960000D03*
X155296000Y-54960000D03*
X155296000Y-57500000D03*
X155296000Y-60040000D03*
D17*
X206770000Y-26330000D03*
X79430000Y-26330000D03*
D18*
X207650000Y-79500000D03*
X207650000Y-103000000D03*
X154750000Y-103000000D03*
X78600000Y-103000000D03*
X154750000Y-79500000D03*
X78600000Y-79500000D03*
D19*
X193750000Y-82500000D03*
X198750000Y-82500000D03*
X198750000Y-85000000D03*
X196250000Y-85000000D03*
X193750000Y-85000000D03*
D20*
X200650000Y-92000000D03*
X191850000Y-92000000D03*
X173850000Y-92000000D03*
X182650000Y-92000000D03*
D19*
X175750000Y-85000000D03*
X178250000Y-85000000D03*
X180750000Y-85000000D03*
D20*
X155850000Y-92000000D03*
X164650000Y-92000000D03*
D19*
X157750000Y-85000000D03*
X160250000Y-85000000D03*
X162750000Y-85000000D03*
D21*
X134950000Y-88500000D03*
X134950000Y-83500000D03*
D22*
X93550000Y-102550000D03*
X95050000Y-102550000D03*
X96550000Y-102550000D03*
X98050000Y-102550000D03*
X99550000Y-102550000D03*
X101050000Y-102550000D03*
X102550000Y-102550000D03*
X104050000Y-102550000D03*
X105550000Y-102550000D03*
X107050000Y-102550000D03*
X108550000Y-102550000D03*
X110050000Y-102550000D03*
X111550000Y-102550000D03*
X113050000Y-102550000D03*
D23*
X137450000Y-79600000D03*
X137450000Y-86100000D03*
X141950000Y-79600000D03*
X141950000Y-86100000D03*
X150450000Y-86100000D03*
X150450000Y-79600000D03*
X145950000Y-86100000D03*
X145950000Y-79600000D03*
X137450000Y-94250000D03*
X137450000Y-100750000D03*
X141950000Y-94250000D03*
X141950000Y-100750000D03*
X150450000Y-100750000D03*
X150450000Y-94250000D03*
X145950000Y-100750000D03*
X145950000Y-94250000D03*
D10*
G36*
X198760765Y-63850213D02*
G01*
X198845704Y-63862813D01*
X198928999Y-63883677D01*
X199009848Y-63912605D01*
X199087472Y-63949319D01*
X199161124Y-63993464D01*
X199230094Y-64044616D01*
X199293718Y-64102282D01*
X199351384Y-64165906D01*
X199402536Y-64234876D01*
X199446681Y-64308528D01*
X199483395Y-64386152D01*
X199512323Y-64467001D01*
X199533187Y-64550296D01*
X199545787Y-64635235D01*
X199550000Y-64721000D01*
X199550000Y-66471000D01*
X199545787Y-66556765D01*
X199533187Y-66641704D01*
X199512323Y-66724999D01*
X199483395Y-66805848D01*
X199446681Y-66883472D01*
X199402536Y-66957124D01*
X199351384Y-67026094D01*
X199293718Y-67089718D01*
X199230094Y-67147384D01*
X199161124Y-67198536D01*
X199087472Y-67242681D01*
X199009848Y-67279395D01*
X198928999Y-67308323D01*
X198845704Y-67329187D01*
X198760765Y-67341787D01*
X198675000Y-67346000D01*
X196925000Y-67346000D01*
X196839235Y-67341787D01*
X196754296Y-67329187D01*
X196671001Y-67308323D01*
X196590152Y-67279395D01*
X196512528Y-67242681D01*
X196438876Y-67198536D01*
X196369906Y-67147384D01*
X196306282Y-67089718D01*
X196248616Y-67026094D01*
X196197464Y-66957124D01*
X196153319Y-66883472D01*
X196116605Y-66805848D01*
X196087677Y-66724999D01*
X196066813Y-66641704D01*
X196054213Y-66556765D01*
X196050000Y-66471000D01*
X196050000Y-64721000D01*
X196054213Y-64635235D01*
X196066813Y-64550296D01*
X196087677Y-64467001D01*
X196116605Y-64386152D01*
X196153319Y-64308528D01*
X196197464Y-64234876D01*
X196248616Y-64165906D01*
X196306282Y-64102282D01*
X196369906Y-64044616D01*
X196438876Y-63993464D01*
X196512528Y-63949319D01*
X196590152Y-63912605D01*
X196671001Y-63883677D01*
X196754296Y-63862813D01*
X196839235Y-63850213D01*
X196925000Y-63846000D01*
X198675000Y-63846000D01*
X198760765Y-63850213D01*
X198760765Y-63850213D01*
G37*
D17*
X197800000Y-65596000D03*
D10*
G36*
X194173513Y-67099611D02*
G01*
X194246318Y-67110411D01*
X194317714Y-67128295D01*
X194387013Y-67153090D01*
X194453548Y-67184559D01*
X194516678Y-67222398D01*
X194575795Y-67266242D01*
X194630330Y-67315670D01*
X194679758Y-67370205D01*
X194723602Y-67429322D01*
X194761441Y-67492452D01*
X194792910Y-67558987D01*
X194817705Y-67628286D01*
X194835589Y-67699682D01*
X194846389Y-67772487D01*
X194850000Y-67846000D01*
X194850000Y-69346000D01*
X194846389Y-69419513D01*
X194835589Y-69492318D01*
X194817705Y-69563714D01*
X194792910Y-69633013D01*
X194761441Y-69699548D01*
X194723602Y-69762678D01*
X194679758Y-69821795D01*
X194630330Y-69876330D01*
X194575795Y-69925758D01*
X194516678Y-69969602D01*
X194453548Y-70007441D01*
X194387013Y-70038910D01*
X194317714Y-70063705D01*
X194246318Y-70081589D01*
X194173513Y-70092389D01*
X194100000Y-70096000D01*
X192100000Y-70096000D01*
X192026487Y-70092389D01*
X191953682Y-70081589D01*
X191882286Y-70063705D01*
X191812987Y-70038910D01*
X191746452Y-70007441D01*
X191683322Y-69969602D01*
X191624205Y-69925758D01*
X191569670Y-69876330D01*
X191520242Y-69821795D01*
X191476398Y-69762678D01*
X191438559Y-69699548D01*
X191407090Y-69633013D01*
X191382295Y-69563714D01*
X191364411Y-69492318D01*
X191353611Y-69419513D01*
X191350000Y-69346000D01*
X191350000Y-67846000D01*
X191353611Y-67772487D01*
X191364411Y-67699682D01*
X191382295Y-67628286D01*
X191407090Y-67558987D01*
X191438559Y-67492452D01*
X191476398Y-67429322D01*
X191520242Y-67370205D01*
X191569670Y-67315670D01*
X191624205Y-67266242D01*
X191683322Y-67222398D01*
X191746452Y-67184559D01*
X191812987Y-67153090D01*
X191882286Y-67128295D01*
X191953682Y-67110411D01*
X192026487Y-67099611D01*
X192100000Y-67096000D01*
X194100000Y-67096000D01*
X194173513Y-67099611D01*
X194173513Y-67099611D01*
G37*
D24*
X193100000Y-68596000D03*
D25*
X193100000Y-62596000D03*
D26*
X163101000Y-30423800D03*
X163101000Y-27883800D03*
D27*
X163101000Y-25343800D03*
D26*
X143861000Y-30420000D03*
X143861000Y-27880000D03*
D27*
X143861000Y-25340000D03*
D26*
X124591000Y-30430000D03*
X124591000Y-27890000D03*
D27*
X124591000Y-25350000D03*
D28*
X206790000Y-74534000D03*
X201710000Y-74534000D03*
X204250000Y-54214000D03*
X204250000Y-58024000D03*
X204250000Y-61834000D03*
D29*
X80490000Y-88300000D03*
X81490000Y-92150000D03*
X82490000Y-88300000D03*
X83490000Y-92150000D03*
X84490000Y-88300000D03*
X85490000Y-92150000D03*
X86490000Y-88300000D03*
X87490000Y-92150000D03*
X88490000Y-88300000D03*
X89490000Y-92150000D03*
X90490000Y-88300000D03*
X91490000Y-92150000D03*
X92490000Y-88300000D03*
X93490000Y-92150000D03*
X94490000Y-88300000D03*
X95490000Y-92150000D03*
X96490000Y-88300000D03*
X97490000Y-92150000D03*
X98490000Y-88300000D03*
X99490000Y-92150000D03*
X100490000Y-88300000D03*
X101490000Y-92150000D03*
X102490000Y-88300000D03*
X103490000Y-92150000D03*
D10*
G36*
X116366958Y-92180710D02*
G01*
X116381276Y-92182834D01*
X116395317Y-92186351D01*
X116408946Y-92191228D01*
X116422031Y-92197417D01*
X116434447Y-92204858D01*
X116446073Y-92213481D01*
X116456798Y-92223202D01*
X116466519Y-92233927D01*
X116475142Y-92245553D01*
X116482583Y-92257969D01*
X116488772Y-92271054D01*
X116493649Y-92284683D01*
X116497166Y-92298724D01*
X116499290Y-92313042D01*
X116500000Y-92327500D01*
X116500000Y-92672500D01*
X116499290Y-92686958D01*
X116497166Y-92701276D01*
X116493649Y-92715317D01*
X116488772Y-92728946D01*
X116482583Y-92742031D01*
X116475142Y-92754447D01*
X116466519Y-92766073D01*
X116456798Y-92776798D01*
X116446073Y-92786519D01*
X116434447Y-92795142D01*
X116422031Y-92802583D01*
X116408946Y-92808772D01*
X116395317Y-92813649D01*
X116381276Y-92817166D01*
X116366958Y-92819290D01*
X116352500Y-92820000D01*
X116057500Y-92820000D01*
X116043042Y-92819290D01*
X116028724Y-92817166D01*
X116014683Y-92813649D01*
X116001054Y-92808772D01*
X115987969Y-92802583D01*
X115975553Y-92795142D01*
X115963927Y-92786519D01*
X115953202Y-92776798D01*
X115943481Y-92766073D01*
X115934858Y-92754447D01*
X115927417Y-92742031D01*
X115921228Y-92728946D01*
X115916351Y-92715317D01*
X115912834Y-92701276D01*
X115910710Y-92686958D01*
X115910000Y-92672500D01*
X115910000Y-92327500D01*
X115910710Y-92313042D01*
X115912834Y-92298724D01*
X115916351Y-92284683D01*
X115921228Y-92271054D01*
X115927417Y-92257969D01*
X115934858Y-92245553D01*
X115943481Y-92233927D01*
X115953202Y-92223202D01*
X115963927Y-92213481D01*
X115975553Y-92204858D01*
X115987969Y-92197417D01*
X116001054Y-92191228D01*
X116014683Y-92186351D01*
X116028724Y-92182834D01*
X116043042Y-92180710D01*
X116057500Y-92180000D01*
X116352500Y-92180000D01*
X116366958Y-92180710D01*
X116366958Y-92180710D01*
G37*
D30*
X116205000Y-92500000D03*
D10*
G36*
X117336958Y-92180710D02*
G01*
X117351276Y-92182834D01*
X117365317Y-92186351D01*
X117378946Y-92191228D01*
X117392031Y-92197417D01*
X117404447Y-92204858D01*
X117416073Y-92213481D01*
X117426798Y-92223202D01*
X117436519Y-92233927D01*
X117445142Y-92245553D01*
X117452583Y-92257969D01*
X117458772Y-92271054D01*
X117463649Y-92284683D01*
X117467166Y-92298724D01*
X117469290Y-92313042D01*
X117470000Y-92327500D01*
X117470000Y-92672500D01*
X117469290Y-92686958D01*
X117467166Y-92701276D01*
X117463649Y-92715317D01*
X117458772Y-92728946D01*
X117452583Y-92742031D01*
X117445142Y-92754447D01*
X117436519Y-92766073D01*
X117426798Y-92776798D01*
X117416073Y-92786519D01*
X117404447Y-92795142D01*
X117392031Y-92802583D01*
X117378946Y-92808772D01*
X117365317Y-92813649D01*
X117351276Y-92817166D01*
X117336958Y-92819290D01*
X117322500Y-92820000D01*
X117027500Y-92820000D01*
X117013042Y-92819290D01*
X116998724Y-92817166D01*
X116984683Y-92813649D01*
X116971054Y-92808772D01*
X116957969Y-92802583D01*
X116945553Y-92795142D01*
X116933927Y-92786519D01*
X116923202Y-92776798D01*
X116913481Y-92766073D01*
X116904858Y-92754447D01*
X116897417Y-92742031D01*
X116891228Y-92728946D01*
X116886351Y-92715317D01*
X116882834Y-92701276D01*
X116880710Y-92686958D01*
X116880000Y-92672500D01*
X116880000Y-92327500D01*
X116880710Y-92313042D01*
X116882834Y-92298724D01*
X116886351Y-92284683D01*
X116891228Y-92271054D01*
X116897417Y-92257969D01*
X116904858Y-92245553D01*
X116913481Y-92233927D01*
X116923202Y-92223202D01*
X116933927Y-92213481D01*
X116945553Y-92204858D01*
X116957969Y-92197417D01*
X116971054Y-92191228D01*
X116984683Y-92186351D01*
X116998724Y-92182834D01*
X117013042Y-92180710D01*
X117027500Y-92180000D01*
X117322500Y-92180000D01*
X117336958Y-92180710D01*
X117336958Y-92180710D01*
G37*
D30*
X117175000Y-92500000D03*
D31*
X158640000Y-58810000D03*
D32*
X158640000Y-61350000D03*
D31*
X181140000Y-58810000D03*
D32*
X181140000Y-61350000D03*
D31*
X114298600Y-28336000D03*
D32*
X114298600Y-25796000D03*
D31*
X95440000Y-61420000D03*
X97980000Y-61420000D03*
X100520000Y-61420000D03*
D32*
X103060000Y-61420000D03*
D31*
X134840000Y-60970000D03*
X134840000Y-58430000D03*
X134840000Y-55890000D03*
X134840000Y-53350000D03*
X134840000Y-50810000D03*
D32*
X134840000Y-48270000D03*
D31*
X88130000Y-31530000D03*
X85590000Y-31530000D03*
X88130000Y-28990000D03*
X85590000Y-28990000D03*
X88130000Y-26450000D03*
D32*
X85590000Y-26450000D03*
D10*
G36*
X118004703Y-90760722D02*
G01*
X118019264Y-90762882D01*
X118033543Y-90766459D01*
X118047403Y-90771418D01*
X118060710Y-90777712D01*
X118073336Y-90785280D01*
X118085159Y-90794048D01*
X118096066Y-90803934D01*
X118105952Y-90814841D01*
X118114720Y-90826664D01*
X118122288Y-90839290D01*
X118128582Y-90852597D01*
X118133541Y-90866457D01*
X118137118Y-90880736D01*
X118139278Y-90895297D01*
X118140000Y-90910000D01*
X118140000Y-91210000D01*
X118139278Y-91224703D01*
X118137118Y-91239264D01*
X118133541Y-91253543D01*
X118128582Y-91267403D01*
X118122288Y-91280710D01*
X118114720Y-91293336D01*
X118105952Y-91305159D01*
X118096066Y-91316066D01*
X118085159Y-91325952D01*
X118073336Y-91334720D01*
X118060710Y-91342288D01*
X118047403Y-91348582D01*
X118033543Y-91353541D01*
X118019264Y-91357118D01*
X118004703Y-91359278D01*
X117990000Y-91360000D01*
X116340000Y-91360000D01*
X116325297Y-91359278D01*
X116310736Y-91357118D01*
X116296457Y-91353541D01*
X116282597Y-91348582D01*
X116269290Y-91342288D01*
X116256664Y-91334720D01*
X116244841Y-91325952D01*
X116233934Y-91316066D01*
X116224048Y-91305159D01*
X116215280Y-91293336D01*
X116207712Y-91280710D01*
X116201418Y-91267403D01*
X116196459Y-91253543D01*
X116192882Y-91239264D01*
X116190722Y-91224703D01*
X116190000Y-91210000D01*
X116190000Y-90910000D01*
X116190722Y-90895297D01*
X116192882Y-90880736D01*
X116196459Y-90866457D01*
X116201418Y-90852597D01*
X116207712Y-90839290D01*
X116215280Y-90826664D01*
X116224048Y-90814841D01*
X116233934Y-90803934D01*
X116244841Y-90794048D01*
X116256664Y-90785280D01*
X116269290Y-90777712D01*
X116282597Y-90771418D01*
X116296457Y-90766459D01*
X116310736Y-90762882D01*
X116325297Y-90760722D01*
X116340000Y-90760000D01*
X117990000Y-90760000D01*
X118004703Y-90760722D01*
X118004703Y-90760722D01*
G37*
D33*
X117165000Y-91060000D03*
D10*
G36*
X118004703Y-89490722D02*
G01*
X118019264Y-89492882D01*
X118033543Y-89496459D01*
X118047403Y-89501418D01*
X118060710Y-89507712D01*
X118073336Y-89515280D01*
X118085159Y-89524048D01*
X118096066Y-89533934D01*
X118105952Y-89544841D01*
X118114720Y-89556664D01*
X118122288Y-89569290D01*
X118128582Y-89582597D01*
X118133541Y-89596457D01*
X118137118Y-89610736D01*
X118139278Y-89625297D01*
X118140000Y-89640000D01*
X118140000Y-89940000D01*
X118139278Y-89954703D01*
X118137118Y-89969264D01*
X118133541Y-89983543D01*
X118128582Y-89997403D01*
X118122288Y-90010710D01*
X118114720Y-90023336D01*
X118105952Y-90035159D01*
X118096066Y-90046066D01*
X118085159Y-90055952D01*
X118073336Y-90064720D01*
X118060710Y-90072288D01*
X118047403Y-90078582D01*
X118033543Y-90083541D01*
X118019264Y-90087118D01*
X118004703Y-90089278D01*
X117990000Y-90090000D01*
X116340000Y-90090000D01*
X116325297Y-90089278D01*
X116310736Y-90087118D01*
X116296457Y-90083541D01*
X116282597Y-90078582D01*
X116269290Y-90072288D01*
X116256664Y-90064720D01*
X116244841Y-90055952D01*
X116233934Y-90046066D01*
X116224048Y-90035159D01*
X116215280Y-90023336D01*
X116207712Y-90010710D01*
X116201418Y-89997403D01*
X116196459Y-89983543D01*
X116192882Y-89969264D01*
X116190722Y-89954703D01*
X116190000Y-89940000D01*
X116190000Y-89640000D01*
X116190722Y-89625297D01*
X116192882Y-89610736D01*
X116196459Y-89596457D01*
X116201418Y-89582597D01*
X116207712Y-89569290D01*
X116215280Y-89556664D01*
X116224048Y-89544841D01*
X116233934Y-89533934D01*
X116244841Y-89524048D01*
X116256664Y-89515280D01*
X116269290Y-89507712D01*
X116282597Y-89501418D01*
X116296457Y-89496459D01*
X116310736Y-89492882D01*
X116325297Y-89490722D01*
X116340000Y-89490000D01*
X117990000Y-89490000D01*
X118004703Y-89490722D01*
X118004703Y-89490722D01*
G37*
D33*
X117165000Y-89790000D03*
D10*
G36*
X118004703Y-88220722D02*
G01*
X118019264Y-88222882D01*
X118033543Y-88226459D01*
X118047403Y-88231418D01*
X118060710Y-88237712D01*
X118073336Y-88245280D01*
X118085159Y-88254048D01*
X118096066Y-88263934D01*
X118105952Y-88274841D01*
X118114720Y-88286664D01*
X118122288Y-88299290D01*
X118128582Y-88312597D01*
X118133541Y-88326457D01*
X118137118Y-88340736D01*
X118139278Y-88355297D01*
X118140000Y-88370000D01*
X118140000Y-88670000D01*
X118139278Y-88684703D01*
X118137118Y-88699264D01*
X118133541Y-88713543D01*
X118128582Y-88727403D01*
X118122288Y-88740710D01*
X118114720Y-88753336D01*
X118105952Y-88765159D01*
X118096066Y-88776066D01*
X118085159Y-88785952D01*
X118073336Y-88794720D01*
X118060710Y-88802288D01*
X118047403Y-88808582D01*
X118033543Y-88813541D01*
X118019264Y-88817118D01*
X118004703Y-88819278D01*
X117990000Y-88820000D01*
X116340000Y-88820000D01*
X116325297Y-88819278D01*
X116310736Y-88817118D01*
X116296457Y-88813541D01*
X116282597Y-88808582D01*
X116269290Y-88802288D01*
X116256664Y-88794720D01*
X116244841Y-88785952D01*
X116233934Y-88776066D01*
X116224048Y-88765159D01*
X116215280Y-88753336D01*
X116207712Y-88740710D01*
X116201418Y-88727403D01*
X116196459Y-88713543D01*
X116192882Y-88699264D01*
X116190722Y-88684703D01*
X116190000Y-88670000D01*
X116190000Y-88370000D01*
X116190722Y-88355297D01*
X116192882Y-88340736D01*
X116196459Y-88326457D01*
X116201418Y-88312597D01*
X116207712Y-88299290D01*
X116215280Y-88286664D01*
X116224048Y-88274841D01*
X116233934Y-88263934D01*
X116244841Y-88254048D01*
X116256664Y-88245280D01*
X116269290Y-88237712D01*
X116282597Y-88231418D01*
X116296457Y-88226459D01*
X116310736Y-88222882D01*
X116325297Y-88220722D01*
X116340000Y-88220000D01*
X117990000Y-88220000D01*
X118004703Y-88220722D01*
X118004703Y-88220722D01*
G37*
D33*
X117165000Y-88520000D03*
D10*
G36*
X118004703Y-86950722D02*
G01*
X118019264Y-86952882D01*
X118033543Y-86956459D01*
X118047403Y-86961418D01*
X118060710Y-86967712D01*
X118073336Y-86975280D01*
X118085159Y-86984048D01*
X118096066Y-86993934D01*
X118105952Y-87004841D01*
X118114720Y-87016664D01*
X118122288Y-87029290D01*
X118128582Y-87042597D01*
X118133541Y-87056457D01*
X118137118Y-87070736D01*
X118139278Y-87085297D01*
X118140000Y-87100000D01*
X118140000Y-87400000D01*
X118139278Y-87414703D01*
X118137118Y-87429264D01*
X118133541Y-87443543D01*
X118128582Y-87457403D01*
X118122288Y-87470710D01*
X118114720Y-87483336D01*
X118105952Y-87495159D01*
X118096066Y-87506066D01*
X118085159Y-87515952D01*
X118073336Y-87524720D01*
X118060710Y-87532288D01*
X118047403Y-87538582D01*
X118033543Y-87543541D01*
X118019264Y-87547118D01*
X118004703Y-87549278D01*
X117990000Y-87550000D01*
X116340000Y-87550000D01*
X116325297Y-87549278D01*
X116310736Y-87547118D01*
X116296457Y-87543541D01*
X116282597Y-87538582D01*
X116269290Y-87532288D01*
X116256664Y-87524720D01*
X116244841Y-87515952D01*
X116233934Y-87506066D01*
X116224048Y-87495159D01*
X116215280Y-87483336D01*
X116207712Y-87470710D01*
X116201418Y-87457403D01*
X116196459Y-87443543D01*
X116192882Y-87429264D01*
X116190722Y-87414703D01*
X116190000Y-87400000D01*
X116190000Y-87100000D01*
X116190722Y-87085297D01*
X116192882Y-87070736D01*
X116196459Y-87056457D01*
X116201418Y-87042597D01*
X116207712Y-87029290D01*
X116215280Y-87016664D01*
X116224048Y-87004841D01*
X116233934Y-86993934D01*
X116244841Y-86984048D01*
X116256664Y-86975280D01*
X116269290Y-86967712D01*
X116282597Y-86961418D01*
X116296457Y-86956459D01*
X116310736Y-86952882D01*
X116325297Y-86950722D01*
X116340000Y-86950000D01*
X117990000Y-86950000D01*
X118004703Y-86950722D01*
X118004703Y-86950722D01*
G37*
D33*
X117165000Y-87250000D03*
D10*
G36*
X118004703Y-85680722D02*
G01*
X118019264Y-85682882D01*
X118033543Y-85686459D01*
X118047403Y-85691418D01*
X118060710Y-85697712D01*
X118073336Y-85705280D01*
X118085159Y-85714048D01*
X118096066Y-85723934D01*
X118105952Y-85734841D01*
X118114720Y-85746664D01*
X118122288Y-85759290D01*
X118128582Y-85772597D01*
X118133541Y-85786457D01*
X118137118Y-85800736D01*
X118139278Y-85815297D01*
X118140000Y-85830000D01*
X118140000Y-86130000D01*
X118139278Y-86144703D01*
X118137118Y-86159264D01*
X118133541Y-86173543D01*
X118128582Y-86187403D01*
X118122288Y-86200710D01*
X118114720Y-86213336D01*
X118105952Y-86225159D01*
X118096066Y-86236066D01*
X118085159Y-86245952D01*
X118073336Y-86254720D01*
X118060710Y-86262288D01*
X118047403Y-86268582D01*
X118033543Y-86273541D01*
X118019264Y-86277118D01*
X118004703Y-86279278D01*
X117990000Y-86280000D01*
X116340000Y-86280000D01*
X116325297Y-86279278D01*
X116310736Y-86277118D01*
X116296457Y-86273541D01*
X116282597Y-86268582D01*
X116269290Y-86262288D01*
X116256664Y-86254720D01*
X116244841Y-86245952D01*
X116233934Y-86236066D01*
X116224048Y-86225159D01*
X116215280Y-86213336D01*
X116207712Y-86200710D01*
X116201418Y-86187403D01*
X116196459Y-86173543D01*
X116192882Y-86159264D01*
X116190722Y-86144703D01*
X116190000Y-86130000D01*
X116190000Y-85830000D01*
X116190722Y-85815297D01*
X116192882Y-85800736D01*
X116196459Y-85786457D01*
X116201418Y-85772597D01*
X116207712Y-85759290D01*
X116215280Y-85746664D01*
X116224048Y-85734841D01*
X116233934Y-85723934D01*
X116244841Y-85714048D01*
X116256664Y-85705280D01*
X116269290Y-85697712D01*
X116282597Y-85691418D01*
X116296457Y-85686459D01*
X116310736Y-85682882D01*
X116325297Y-85680722D01*
X116340000Y-85680000D01*
X117990000Y-85680000D01*
X118004703Y-85680722D01*
X118004703Y-85680722D01*
G37*
D33*
X117165000Y-85980000D03*
D10*
G36*
X118004703Y-84410722D02*
G01*
X118019264Y-84412882D01*
X118033543Y-84416459D01*
X118047403Y-84421418D01*
X118060710Y-84427712D01*
X118073336Y-84435280D01*
X118085159Y-84444048D01*
X118096066Y-84453934D01*
X118105952Y-84464841D01*
X118114720Y-84476664D01*
X118122288Y-84489290D01*
X118128582Y-84502597D01*
X118133541Y-84516457D01*
X118137118Y-84530736D01*
X118139278Y-84545297D01*
X118140000Y-84560000D01*
X118140000Y-84860000D01*
X118139278Y-84874703D01*
X118137118Y-84889264D01*
X118133541Y-84903543D01*
X118128582Y-84917403D01*
X118122288Y-84930710D01*
X118114720Y-84943336D01*
X118105952Y-84955159D01*
X118096066Y-84966066D01*
X118085159Y-84975952D01*
X118073336Y-84984720D01*
X118060710Y-84992288D01*
X118047403Y-84998582D01*
X118033543Y-85003541D01*
X118019264Y-85007118D01*
X118004703Y-85009278D01*
X117990000Y-85010000D01*
X116340000Y-85010000D01*
X116325297Y-85009278D01*
X116310736Y-85007118D01*
X116296457Y-85003541D01*
X116282597Y-84998582D01*
X116269290Y-84992288D01*
X116256664Y-84984720D01*
X116244841Y-84975952D01*
X116233934Y-84966066D01*
X116224048Y-84955159D01*
X116215280Y-84943336D01*
X116207712Y-84930710D01*
X116201418Y-84917403D01*
X116196459Y-84903543D01*
X116192882Y-84889264D01*
X116190722Y-84874703D01*
X116190000Y-84860000D01*
X116190000Y-84560000D01*
X116190722Y-84545297D01*
X116192882Y-84530736D01*
X116196459Y-84516457D01*
X116201418Y-84502597D01*
X116207712Y-84489290D01*
X116215280Y-84476664D01*
X116224048Y-84464841D01*
X116233934Y-84453934D01*
X116244841Y-84444048D01*
X116256664Y-84435280D01*
X116269290Y-84427712D01*
X116282597Y-84421418D01*
X116296457Y-84416459D01*
X116310736Y-84412882D01*
X116325297Y-84410722D01*
X116340000Y-84410000D01*
X117990000Y-84410000D01*
X118004703Y-84410722D01*
X118004703Y-84410722D01*
G37*
D33*
X117165000Y-84710000D03*
D10*
G36*
X118004703Y-83140722D02*
G01*
X118019264Y-83142882D01*
X118033543Y-83146459D01*
X118047403Y-83151418D01*
X118060710Y-83157712D01*
X118073336Y-83165280D01*
X118085159Y-83174048D01*
X118096066Y-83183934D01*
X118105952Y-83194841D01*
X118114720Y-83206664D01*
X118122288Y-83219290D01*
X118128582Y-83232597D01*
X118133541Y-83246457D01*
X118137118Y-83260736D01*
X118139278Y-83275297D01*
X118140000Y-83290000D01*
X118140000Y-83590000D01*
X118139278Y-83604703D01*
X118137118Y-83619264D01*
X118133541Y-83633543D01*
X118128582Y-83647403D01*
X118122288Y-83660710D01*
X118114720Y-83673336D01*
X118105952Y-83685159D01*
X118096066Y-83696066D01*
X118085159Y-83705952D01*
X118073336Y-83714720D01*
X118060710Y-83722288D01*
X118047403Y-83728582D01*
X118033543Y-83733541D01*
X118019264Y-83737118D01*
X118004703Y-83739278D01*
X117990000Y-83740000D01*
X116340000Y-83740000D01*
X116325297Y-83739278D01*
X116310736Y-83737118D01*
X116296457Y-83733541D01*
X116282597Y-83728582D01*
X116269290Y-83722288D01*
X116256664Y-83714720D01*
X116244841Y-83705952D01*
X116233934Y-83696066D01*
X116224048Y-83685159D01*
X116215280Y-83673336D01*
X116207712Y-83660710D01*
X116201418Y-83647403D01*
X116196459Y-83633543D01*
X116192882Y-83619264D01*
X116190722Y-83604703D01*
X116190000Y-83590000D01*
X116190000Y-83290000D01*
X116190722Y-83275297D01*
X116192882Y-83260736D01*
X116196459Y-83246457D01*
X116201418Y-83232597D01*
X116207712Y-83219290D01*
X116215280Y-83206664D01*
X116224048Y-83194841D01*
X116233934Y-83183934D01*
X116244841Y-83174048D01*
X116256664Y-83165280D01*
X116269290Y-83157712D01*
X116282597Y-83151418D01*
X116296457Y-83146459D01*
X116310736Y-83142882D01*
X116325297Y-83140722D01*
X116340000Y-83140000D01*
X117990000Y-83140000D01*
X118004703Y-83140722D01*
X118004703Y-83140722D01*
G37*
D33*
X117165000Y-83440000D03*
D10*
G36*
X113054703Y-83140722D02*
G01*
X113069264Y-83142882D01*
X113083543Y-83146459D01*
X113097403Y-83151418D01*
X113110710Y-83157712D01*
X113123336Y-83165280D01*
X113135159Y-83174048D01*
X113146066Y-83183934D01*
X113155952Y-83194841D01*
X113164720Y-83206664D01*
X113172288Y-83219290D01*
X113178582Y-83232597D01*
X113183541Y-83246457D01*
X113187118Y-83260736D01*
X113189278Y-83275297D01*
X113190000Y-83290000D01*
X113190000Y-83590000D01*
X113189278Y-83604703D01*
X113187118Y-83619264D01*
X113183541Y-83633543D01*
X113178582Y-83647403D01*
X113172288Y-83660710D01*
X113164720Y-83673336D01*
X113155952Y-83685159D01*
X113146066Y-83696066D01*
X113135159Y-83705952D01*
X113123336Y-83714720D01*
X113110710Y-83722288D01*
X113097403Y-83728582D01*
X113083543Y-83733541D01*
X113069264Y-83737118D01*
X113054703Y-83739278D01*
X113040000Y-83740000D01*
X111390000Y-83740000D01*
X111375297Y-83739278D01*
X111360736Y-83737118D01*
X111346457Y-83733541D01*
X111332597Y-83728582D01*
X111319290Y-83722288D01*
X111306664Y-83714720D01*
X111294841Y-83705952D01*
X111283934Y-83696066D01*
X111274048Y-83685159D01*
X111265280Y-83673336D01*
X111257712Y-83660710D01*
X111251418Y-83647403D01*
X111246459Y-83633543D01*
X111242882Y-83619264D01*
X111240722Y-83604703D01*
X111240000Y-83590000D01*
X111240000Y-83290000D01*
X111240722Y-83275297D01*
X111242882Y-83260736D01*
X111246459Y-83246457D01*
X111251418Y-83232597D01*
X111257712Y-83219290D01*
X111265280Y-83206664D01*
X111274048Y-83194841D01*
X111283934Y-83183934D01*
X111294841Y-83174048D01*
X111306664Y-83165280D01*
X111319290Y-83157712D01*
X111332597Y-83151418D01*
X111346457Y-83146459D01*
X111360736Y-83142882D01*
X111375297Y-83140722D01*
X111390000Y-83140000D01*
X113040000Y-83140000D01*
X113054703Y-83140722D01*
X113054703Y-83140722D01*
G37*
D33*
X112215000Y-83440000D03*
D10*
G36*
X113054703Y-84410722D02*
G01*
X113069264Y-84412882D01*
X113083543Y-84416459D01*
X113097403Y-84421418D01*
X113110710Y-84427712D01*
X113123336Y-84435280D01*
X113135159Y-84444048D01*
X113146066Y-84453934D01*
X113155952Y-84464841D01*
X113164720Y-84476664D01*
X113172288Y-84489290D01*
X113178582Y-84502597D01*
X113183541Y-84516457D01*
X113187118Y-84530736D01*
X113189278Y-84545297D01*
X113190000Y-84560000D01*
X113190000Y-84860000D01*
X113189278Y-84874703D01*
X113187118Y-84889264D01*
X113183541Y-84903543D01*
X113178582Y-84917403D01*
X113172288Y-84930710D01*
X113164720Y-84943336D01*
X113155952Y-84955159D01*
X113146066Y-84966066D01*
X113135159Y-84975952D01*
X113123336Y-84984720D01*
X113110710Y-84992288D01*
X113097403Y-84998582D01*
X113083543Y-85003541D01*
X113069264Y-85007118D01*
X113054703Y-85009278D01*
X113040000Y-85010000D01*
X111390000Y-85010000D01*
X111375297Y-85009278D01*
X111360736Y-85007118D01*
X111346457Y-85003541D01*
X111332597Y-84998582D01*
X111319290Y-84992288D01*
X111306664Y-84984720D01*
X111294841Y-84975952D01*
X111283934Y-84966066D01*
X111274048Y-84955159D01*
X111265280Y-84943336D01*
X111257712Y-84930710D01*
X111251418Y-84917403D01*
X111246459Y-84903543D01*
X111242882Y-84889264D01*
X111240722Y-84874703D01*
X111240000Y-84860000D01*
X111240000Y-84560000D01*
X111240722Y-84545297D01*
X111242882Y-84530736D01*
X111246459Y-84516457D01*
X111251418Y-84502597D01*
X111257712Y-84489290D01*
X111265280Y-84476664D01*
X111274048Y-84464841D01*
X111283934Y-84453934D01*
X111294841Y-84444048D01*
X111306664Y-84435280D01*
X111319290Y-84427712D01*
X111332597Y-84421418D01*
X111346457Y-84416459D01*
X111360736Y-84412882D01*
X111375297Y-84410722D01*
X111390000Y-84410000D01*
X113040000Y-84410000D01*
X113054703Y-84410722D01*
X113054703Y-84410722D01*
G37*
D33*
X112215000Y-84710000D03*
D10*
G36*
X113054703Y-85680722D02*
G01*
X113069264Y-85682882D01*
X113083543Y-85686459D01*
X113097403Y-85691418D01*
X113110710Y-85697712D01*
X113123336Y-85705280D01*
X113135159Y-85714048D01*
X113146066Y-85723934D01*
X113155952Y-85734841D01*
X113164720Y-85746664D01*
X113172288Y-85759290D01*
X113178582Y-85772597D01*
X113183541Y-85786457D01*
X113187118Y-85800736D01*
X113189278Y-85815297D01*
X113190000Y-85830000D01*
X113190000Y-86130000D01*
X113189278Y-86144703D01*
X113187118Y-86159264D01*
X113183541Y-86173543D01*
X113178582Y-86187403D01*
X113172288Y-86200710D01*
X113164720Y-86213336D01*
X113155952Y-86225159D01*
X113146066Y-86236066D01*
X113135159Y-86245952D01*
X113123336Y-86254720D01*
X113110710Y-86262288D01*
X113097403Y-86268582D01*
X113083543Y-86273541D01*
X113069264Y-86277118D01*
X113054703Y-86279278D01*
X113040000Y-86280000D01*
X111390000Y-86280000D01*
X111375297Y-86279278D01*
X111360736Y-86277118D01*
X111346457Y-86273541D01*
X111332597Y-86268582D01*
X111319290Y-86262288D01*
X111306664Y-86254720D01*
X111294841Y-86245952D01*
X111283934Y-86236066D01*
X111274048Y-86225159D01*
X111265280Y-86213336D01*
X111257712Y-86200710D01*
X111251418Y-86187403D01*
X111246459Y-86173543D01*
X111242882Y-86159264D01*
X111240722Y-86144703D01*
X111240000Y-86130000D01*
X111240000Y-85830000D01*
X111240722Y-85815297D01*
X111242882Y-85800736D01*
X111246459Y-85786457D01*
X111251418Y-85772597D01*
X111257712Y-85759290D01*
X111265280Y-85746664D01*
X111274048Y-85734841D01*
X111283934Y-85723934D01*
X111294841Y-85714048D01*
X111306664Y-85705280D01*
X111319290Y-85697712D01*
X111332597Y-85691418D01*
X111346457Y-85686459D01*
X111360736Y-85682882D01*
X111375297Y-85680722D01*
X111390000Y-85680000D01*
X113040000Y-85680000D01*
X113054703Y-85680722D01*
X113054703Y-85680722D01*
G37*
D33*
X112215000Y-85980000D03*
D10*
G36*
X113054703Y-86950722D02*
G01*
X113069264Y-86952882D01*
X113083543Y-86956459D01*
X113097403Y-86961418D01*
X113110710Y-86967712D01*
X113123336Y-86975280D01*
X113135159Y-86984048D01*
X113146066Y-86993934D01*
X113155952Y-87004841D01*
X113164720Y-87016664D01*
X113172288Y-87029290D01*
X113178582Y-87042597D01*
X113183541Y-87056457D01*
X113187118Y-87070736D01*
X113189278Y-87085297D01*
X113190000Y-87100000D01*
X113190000Y-87400000D01*
X113189278Y-87414703D01*
X113187118Y-87429264D01*
X113183541Y-87443543D01*
X113178582Y-87457403D01*
X113172288Y-87470710D01*
X113164720Y-87483336D01*
X113155952Y-87495159D01*
X113146066Y-87506066D01*
X113135159Y-87515952D01*
X113123336Y-87524720D01*
X113110710Y-87532288D01*
X113097403Y-87538582D01*
X113083543Y-87543541D01*
X113069264Y-87547118D01*
X113054703Y-87549278D01*
X113040000Y-87550000D01*
X111390000Y-87550000D01*
X111375297Y-87549278D01*
X111360736Y-87547118D01*
X111346457Y-87543541D01*
X111332597Y-87538582D01*
X111319290Y-87532288D01*
X111306664Y-87524720D01*
X111294841Y-87515952D01*
X111283934Y-87506066D01*
X111274048Y-87495159D01*
X111265280Y-87483336D01*
X111257712Y-87470710D01*
X111251418Y-87457403D01*
X111246459Y-87443543D01*
X111242882Y-87429264D01*
X111240722Y-87414703D01*
X111240000Y-87400000D01*
X111240000Y-87100000D01*
X111240722Y-87085297D01*
X111242882Y-87070736D01*
X111246459Y-87056457D01*
X111251418Y-87042597D01*
X111257712Y-87029290D01*
X111265280Y-87016664D01*
X111274048Y-87004841D01*
X111283934Y-86993934D01*
X111294841Y-86984048D01*
X111306664Y-86975280D01*
X111319290Y-86967712D01*
X111332597Y-86961418D01*
X111346457Y-86956459D01*
X111360736Y-86952882D01*
X111375297Y-86950722D01*
X111390000Y-86950000D01*
X113040000Y-86950000D01*
X113054703Y-86950722D01*
X113054703Y-86950722D01*
G37*
D33*
X112215000Y-87250000D03*
D10*
G36*
X113054703Y-88220722D02*
G01*
X113069264Y-88222882D01*
X113083543Y-88226459D01*
X113097403Y-88231418D01*
X113110710Y-88237712D01*
X113123336Y-88245280D01*
X113135159Y-88254048D01*
X113146066Y-88263934D01*
X113155952Y-88274841D01*
X113164720Y-88286664D01*
X113172288Y-88299290D01*
X113178582Y-88312597D01*
X113183541Y-88326457D01*
X113187118Y-88340736D01*
X113189278Y-88355297D01*
X113190000Y-88370000D01*
X113190000Y-88670000D01*
X113189278Y-88684703D01*
X113187118Y-88699264D01*
X113183541Y-88713543D01*
X113178582Y-88727403D01*
X113172288Y-88740710D01*
X113164720Y-88753336D01*
X113155952Y-88765159D01*
X113146066Y-88776066D01*
X113135159Y-88785952D01*
X113123336Y-88794720D01*
X113110710Y-88802288D01*
X113097403Y-88808582D01*
X113083543Y-88813541D01*
X113069264Y-88817118D01*
X113054703Y-88819278D01*
X113040000Y-88820000D01*
X111390000Y-88820000D01*
X111375297Y-88819278D01*
X111360736Y-88817118D01*
X111346457Y-88813541D01*
X111332597Y-88808582D01*
X111319290Y-88802288D01*
X111306664Y-88794720D01*
X111294841Y-88785952D01*
X111283934Y-88776066D01*
X111274048Y-88765159D01*
X111265280Y-88753336D01*
X111257712Y-88740710D01*
X111251418Y-88727403D01*
X111246459Y-88713543D01*
X111242882Y-88699264D01*
X111240722Y-88684703D01*
X111240000Y-88670000D01*
X111240000Y-88370000D01*
X111240722Y-88355297D01*
X111242882Y-88340736D01*
X111246459Y-88326457D01*
X111251418Y-88312597D01*
X111257712Y-88299290D01*
X111265280Y-88286664D01*
X111274048Y-88274841D01*
X111283934Y-88263934D01*
X111294841Y-88254048D01*
X111306664Y-88245280D01*
X111319290Y-88237712D01*
X111332597Y-88231418D01*
X111346457Y-88226459D01*
X111360736Y-88222882D01*
X111375297Y-88220722D01*
X111390000Y-88220000D01*
X113040000Y-88220000D01*
X113054703Y-88220722D01*
X113054703Y-88220722D01*
G37*
D33*
X112215000Y-88520000D03*
D10*
G36*
X113054703Y-89490722D02*
G01*
X113069264Y-89492882D01*
X113083543Y-89496459D01*
X113097403Y-89501418D01*
X113110710Y-89507712D01*
X113123336Y-89515280D01*
X113135159Y-89524048D01*
X113146066Y-89533934D01*
X113155952Y-89544841D01*
X113164720Y-89556664D01*
X113172288Y-89569290D01*
X113178582Y-89582597D01*
X113183541Y-89596457D01*
X113187118Y-89610736D01*
X113189278Y-89625297D01*
X113190000Y-89640000D01*
X113190000Y-89940000D01*
X113189278Y-89954703D01*
X113187118Y-89969264D01*
X113183541Y-89983543D01*
X113178582Y-89997403D01*
X113172288Y-90010710D01*
X113164720Y-90023336D01*
X113155952Y-90035159D01*
X113146066Y-90046066D01*
X113135159Y-90055952D01*
X113123336Y-90064720D01*
X113110710Y-90072288D01*
X113097403Y-90078582D01*
X113083543Y-90083541D01*
X113069264Y-90087118D01*
X113054703Y-90089278D01*
X113040000Y-90090000D01*
X111390000Y-90090000D01*
X111375297Y-90089278D01*
X111360736Y-90087118D01*
X111346457Y-90083541D01*
X111332597Y-90078582D01*
X111319290Y-90072288D01*
X111306664Y-90064720D01*
X111294841Y-90055952D01*
X111283934Y-90046066D01*
X111274048Y-90035159D01*
X111265280Y-90023336D01*
X111257712Y-90010710D01*
X111251418Y-89997403D01*
X111246459Y-89983543D01*
X111242882Y-89969264D01*
X111240722Y-89954703D01*
X111240000Y-89940000D01*
X111240000Y-89640000D01*
X111240722Y-89625297D01*
X111242882Y-89610736D01*
X111246459Y-89596457D01*
X111251418Y-89582597D01*
X111257712Y-89569290D01*
X111265280Y-89556664D01*
X111274048Y-89544841D01*
X111283934Y-89533934D01*
X111294841Y-89524048D01*
X111306664Y-89515280D01*
X111319290Y-89507712D01*
X111332597Y-89501418D01*
X111346457Y-89496459D01*
X111360736Y-89492882D01*
X111375297Y-89490722D01*
X111390000Y-89490000D01*
X113040000Y-89490000D01*
X113054703Y-89490722D01*
X113054703Y-89490722D01*
G37*
D33*
X112215000Y-89790000D03*
D10*
G36*
X113054703Y-90760722D02*
G01*
X113069264Y-90762882D01*
X113083543Y-90766459D01*
X113097403Y-90771418D01*
X113110710Y-90777712D01*
X113123336Y-90785280D01*
X113135159Y-90794048D01*
X113146066Y-90803934D01*
X113155952Y-90814841D01*
X113164720Y-90826664D01*
X113172288Y-90839290D01*
X113178582Y-90852597D01*
X113183541Y-90866457D01*
X113187118Y-90880736D01*
X113189278Y-90895297D01*
X113190000Y-90910000D01*
X113190000Y-91210000D01*
X113189278Y-91224703D01*
X113187118Y-91239264D01*
X113183541Y-91253543D01*
X113178582Y-91267403D01*
X113172288Y-91280710D01*
X113164720Y-91293336D01*
X113155952Y-91305159D01*
X113146066Y-91316066D01*
X113135159Y-91325952D01*
X113123336Y-91334720D01*
X113110710Y-91342288D01*
X113097403Y-91348582D01*
X113083543Y-91353541D01*
X113069264Y-91357118D01*
X113054703Y-91359278D01*
X113040000Y-91360000D01*
X111390000Y-91360000D01*
X111375297Y-91359278D01*
X111360736Y-91357118D01*
X111346457Y-91353541D01*
X111332597Y-91348582D01*
X111319290Y-91342288D01*
X111306664Y-91334720D01*
X111294841Y-91325952D01*
X111283934Y-91316066D01*
X111274048Y-91305159D01*
X111265280Y-91293336D01*
X111257712Y-91280710D01*
X111251418Y-91267403D01*
X111246459Y-91253543D01*
X111242882Y-91239264D01*
X111240722Y-91224703D01*
X111240000Y-91210000D01*
X111240000Y-90910000D01*
X111240722Y-90895297D01*
X111242882Y-90880736D01*
X111246459Y-90866457D01*
X111251418Y-90852597D01*
X111257712Y-90839290D01*
X111265280Y-90826664D01*
X111274048Y-90814841D01*
X111283934Y-90803934D01*
X111294841Y-90794048D01*
X111306664Y-90785280D01*
X111319290Y-90777712D01*
X111332597Y-90771418D01*
X111346457Y-90766459D01*
X111360736Y-90762882D01*
X111375297Y-90760722D01*
X111390000Y-90760000D01*
X113040000Y-90760000D01*
X113054703Y-90760722D01*
X113054703Y-90760722D01*
G37*
D33*
X112215000Y-91060000D03*
D34*
X131690000Y-88500000D03*
X129690000Y-87550000D03*
X129690000Y-89450000D03*
X126140000Y-90400000D03*
X128140000Y-91350000D03*
X128140000Y-89450000D03*
D10*
G36*
X128367691Y-92476053D02*
G01*
X128388926Y-92479203D01*
X128409750Y-92484419D01*
X128429962Y-92491651D01*
X128449368Y-92500830D01*
X128467781Y-92511866D01*
X128485024Y-92524654D01*
X128500930Y-92539070D01*
X128515346Y-92554976D01*
X128528134Y-92572219D01*
X128539170Y-92590632D01*
X128548349Y-92610038D01*
X128555581Y-92630250D01*
X128560797Y-92651074D01*
X128563947Y-92672309D01*
X128565000Y-92693750D01*
X128565000Y-93206250D01*
X128563947Y-93227691D01*
X128560797Y-93248926D01*
X128555581Y-93269750D01*
X128548349Y-93289962D01*
X128539170Y-93309368D01*
X128528134Y-93327781D01*
X128515346Y-93345024D01*
X128500930Y-93360930D01*
X128485024Y-93375346D01*
X128467781Y-93388134D01*
X128449368Y-93399170D01*
X128429962Y-93408349D01*
X128409750Y-93415581D01*
X128388926Y-93420797D01*
X128367691Y-93423947D01*
X128346250Y-93425000D01*
X127908750Y-93425000D01*
X127887309Y-93423947D01*
X127866074Y-93420797D01*
X127845250Y-93415581D01*
X127825038Y-93408349D01*
X127805632Y-93399170D01*
X127787219Y-93388134D01*
X127769976Y-93375346D01*
X127754070Y-93360930D01*
X127739654Y-93345024D01*
X127726866Y-93327781D01*
X127715830Y-93309368D01*
X127706651Y-93289962D01*
X127699419Y-93269750D01*
X127694203Y-93248926D01*
X127691053Y-93227691D01*
X127690000Y-93206250D01*
X127690000Y-92693750D01*
X127691053Y-92672309D01*
X127694203Y-92651074D01*
X127699419Y-92630250D01*
X127706651Y-92610038D01*
X127715830Y-92590632D01*
X127726866Y-92572219D01*
X127739654Y-92554976D01*
X127754070Y-92539070D01*
X127769976Y-92524654D01*
X127787219Y-92511866D01*
X127805632Y-92500830D01*
X127825038Y-92491651D01*
X127845250Y-92484419D01*
X127866074Y-92479203D01*
X127887309Y-92476053D01*
X127908750Y-92475000D01*
X128346250Y-92475000D01*
X128367691Y-92476053D01*
X128367691Y-92476053D01*
G37*
D35*
X128127500Y-92950000D03*
D10*
G36*
X126792691Y-92476053D02*
G01*
X126813926Y-92479203D01*
X126834750Y-92484419D01*
X126854962Y-92491651D01*
X126874368Y-92500830D01*
X126892781Y-92511866D01*
X126910024Y-92524654D01*
X126925930Y-92539070D01*
X126940346Y-92554976D01*
X126953134Y-92572219D01*
X126964170Y-92590632D01*
X126973349Y-92610038D01*
X126980581Y-92630250D01*
X126985797Y-92651074D01*
X126988947Y-92672309D01*
X126990000Y-92693750D01*
X126990000Y-93206250D01*
X126988947Y-93227691D01*
X126985797Y-93248926D01*
X126980581Y-93269750D01*
X126973349Y-93289962D01*
X126964170Y-93309368D01*
X126953134Y-93327781D01*
X126940346Y-93345024D01*
X126925930Y-93360930D01*
X126910024Y-93375346D01*
X126892781Y-93388134D01*
X126874368Y-93399170D01*
X126854962Y-93408349D01*
X126834750Y-93415581D01*
X126813926Y-93420797D01*
X126792691Y-93423947D01*
X126771250Y-93425000D01*
X126333750Y-93425000D01*
X126312309Y-93423947D01*
X126291074Y-93420797D01*
X126270250Y-93415581D01*
X126250038Y-93408349D01*
X126230632Y-93399170D01*
X126212219Y-93388134D01*
X126194976Y-93375346D01*
X126179070Y-93360930D01*
X126164654Y-93345024D01*
X126151866Y-93327781D01*
X126140830Y-93309368D01*
X126131651Y-93289962D01*
X126124419Y-93269750D01*
X126119203Y-93248926D01*
X126116053Y-93227691D01*
X126115000Y-93206250D01*
X126115000Y-92693750D01*
X126116053Y-92672309D01*
X126119203Y-92651074D01*
X126124419Y-92630250D01*
X126131651Y-92610038D01*
X126140830Y-92590632D01*
X126151866Y-92572219D01*
X126164654Y-92554976D01*
X126179070Y-92539070D01*
X126194976Y-92524654D01*
X126212219Y-92511866D01*
X126230632Y-92500830D01*
X126250038Y-92491651D01*
X126270250Y-92484419D01*
X126291074Y-92479203D01*
X126312309Y-92476053D01*
X126333750Y-92475000D01*
X126771250Y-92475000D01*
X126792691Y-92476053D01*
X126792691Y-92476053D01*
G37*
D35*
X126552500Y-92950000D03*
D10*
G36*
X131917691Y-83026053D02*
G01*
X131938926Y-83029203D01*
X131959750Y-83034419D01*
X131979962Y-83041651D01*
X131999368Y-83050830D01*
X132017781Y-83061866D01*
X132035024Y-83074654D01*
X132050930Y-83089070D01*
X132065346Y-83104976D01*
X132078134Y-83122219D01*
X132089170Y-83140632D01*
X132098349Y-83160038D01*
X132105581Y-83180250D01*
X132110797Y-83201074D01*
X132113947Y-83222309D01*
X132115000Y-83243750D01*
X132115000Y-83756250D01*
X132113947Y-83777691D01*
X132110797Y-83798926D01*
X132105581Y-83819750D01*
X132098349Y-83839962D01*
X132089170Y-83859368D01*
X132078134Y-83877781D01*
X132065346Y-83895024D01*
X132050930Y-83910930D01*
X132035024Y-83925346D01*
X132017781Y-83938134D01*
X131999368Y-83949170D01*
X131979962Y-83958349D01*
X131959750Y-83965581D01*
X131938926Y-83970797D01*
X131917691Y-83973947D01*
X131896250Y-83975000D01*
X131458750Y-83975000D01*
X131437309Y-83973947D01*
X131416074Y-83970797D01*
X131395250Y-83965581D01*
X131375038Y-83958349D01*
X131355632Y-83949170D01*
X131337219Y-83938134D01*
X131319976Y-83925346D01*
X131304070Y-83910930D01*
X131289654Y-83895024D01*
X131276866Y-83877781D01*
X131265830Y-83859368D01*
X131256651Y-83839962D01*
X131249419Y-83819750D01*
X131244203Y-83798926D01*
X131241053Y-83777691D01*
X131240000Y-83756250D01*
X131240000Y-83243750D01*
X131241053Y-83222309D01*
X131244203Y-83201074D01*
X131249419Y-83180250D01*
X131256651Y-83160038D01*
X131265830Y-83140632D01*
X131276866Y-83122219D01*
X131289654Y-83104976D01*
X131304070Y-83089070D01*
X131319976Y-83074654D01*
X131337219Y-83061866D01*
X131355632Y-83050830D01*
X131375038Y-83041651D01*
X131395250Y-83034419D01*
X131416074Y-83029203D01*
X131437309Y-83026053D01*
X131458750Y-83025000D01*
X131896250Y-83025000D01*
X131917691Y-83026053D01*
X131917691Y-83026053D01*
G37*
D35*
X131677500Y-83500000D03*
D10*
G36*
X130342691Y-83026053D02*
G01*
X130363926Y-83029203D01*
X130384750Y-83034419D01*
X130404962Y-83041651D01*
X130424368Y-83050830D01*
X130442781Y-83061866D01*
X130460024Y-83074654D01*
X130475930Y-83089070D01*
X130490346Y-83104976D01*
X130503134Y-83122219D01*
X130514170Y-83140632D01*
X130523349Y-83160038D01*
X130530581Y-83180250D01*
X130535797Y-83201074D01*
X130538947Y-83222309D01*
X130540000Y-83243750D01*
X130540000Y-83756250D01*
X130538947Y-83777691D01*
X130535797Y-83798926D01*
X130530581Y-83819750D01*
X130523349Y-83839962D01*
X130514170Y-83859368D01*
X130503134Y-83877781D01*
X130490346Y-83895024D01*
X130475930Y-83910930D01*
X130460024Y-83925346D01*
X130442781Y-83938134D01*
X130424368Y-83949170D01*
X130404962Y-83958349D01*
X130384750Y-83965581D01*
X130363926Y-83970797D01*
X130342691Y-83973947D01*
X130321250Y-83975000D01*
X129883750Y-83975000D01*
X129862309Y-83973947D01*
X129841074Y-83970797D01*
X129820250Y-83965581D01*
X129800038Y-83958349D01*
X129780632Y-83949170D01*
X129762219Y-83938134D01*
X129744976Y-83925346D01*
X129729070Y-83910930D01*
X129714654Y-83895024D01*
X129701866Y-83877781D01*
X129690830Y-83859368D01*
X129681651Y-83839962D01*
X129674419Y-83819750D01*
X129669203Y-83798926D01*
X129666053Y-83777691D01*
X129665000Y-83756250D01*
X129665000Y-83243750D01*
X129666053Y-83222309D01*
X129669203Y-83201074D01*
X129674419Y-83180250D01*
X129681651Y-83160038D01*
X129690830Y-83140632D01*
X129701866Y-83122219D01*
X129714654Y-83104976D01*
X129729070Y-83089070D01*
X129744976Y-83074654D01*
X129762219Y-83061866D01*
X129780632Y-83050830D01*
X129800038Y-83041651D01*
X129820250Y-83034419D01*
X129841074Y-83029203D01*
X129862309Y-83026053D01*
X129883750Y-83025000D01*
X130321250Y-83025000D01*
X130342691Y-83026053D01*
X130342691Y-83026053D01*
G37*
D35*
X130102500Y-83500000D03*
D10*
G36*
X123342691Y-89926053D02*
G01*
X123363926Y-89929203D01*
X123384750Y-89934419D01*
X123404962Y-89941651D01*
X123424368Y-89950830D01*
X123442781Y-89961866D01*
X123460024Y-89974654D01*
X123475930Y-89989070D01*
X123490346Y-90004976D01*
X123503134Y-90022219D01*
X123514170Y-90040632D01*
X123523349Y-90060038D01*
X123530581Y-90080250D01*
X123535797Y-90101074D01*
X123538947Y-90122309D01*
X123540000Y-90143750D01*
X123540000Y-90656250D01*
X123538947Y-90677691D01*
X123535797Y-90698926D01*
X123530581Y-90719750D01*
X123523349Y-90739962D01*
X123514170Y-90759368D01*
X123503134Y-90777781D01*
X123490346Y-90795024D01*
X123475930Y-90810930D01*
X123460024Y-90825346D01*
X123442781Y-90838134D01*
X123424368Y-90849170D01*
X123404962Y-90858349D01*
X123384750Y-90865581D01*
X123363926Y-90870797D01*
X123342691Y-90873947D01*
X123321250Y-90875000D01*
X122883750Y-90875000D01*
X122862309Y-90873947D01*
X122841074Y-90870797D01*
X122820250Y-90865581D01*
X122800038Y-90858349D01*
X122780632Y-90849170D01*
X122762219Y-90838134D01*
X122744976Y-90825346D01*
X122729070Y-90810930D01*
X122714654Y-90795024D01*
X122701866Y-90777781D01*
X122690830Y-90759368D01*
X122681651Y-90739962D01*
X122674419Y-90719750D01*
X122669203Y-90698926D01*
X122666053Y-90677691D01*
X122665000Y-90656250D01*
X122665000Y-90143750D01*
X122666053Y-90122309D01*
X122669203Y-90101074D01*
X122674419Y-90080250D01*
X122681651Y-90060038D01*
X122690830Y-90040632D01*
X122701866Y-90022219D01*
X122714654Y-90004976D01*
X122729070Y-89989070D01*
X122744976Y-89974654D01*
X122762219Y-89961866D01*
X122780632Y-89950830D01*
X122800038Y-89941651D01*
X122820250Y-89934419D01*
X122841074Y-89929203D01*
X122862309Y-89926053D01*
X122883750Y-89925000D01*
X123321250Y-89925000D01*
X123342691Y-89926053D01*
X123342691Y-89926053D01*
G37*
D35*
X123102500Y-90400000D03*
D10*
G36*
X124917691Y-89926053D02*
G01*
X124938926Y-89929203D01*
X124959750Y-89934419D01*
X124979962Y-89941651D01*
X124999368Y-89950830D01*
X125017781Y-89961866D01*
X125035024Y-89974654D01*
X125050930Y-89989070D01*
X125065346Y-90004976D01*
X125078134Y-90022219D01*
X125089170Y-90040632D01*
X125098349Y-90060038D01*
X125105581Y-90080250D01*
X125110797Y-90101074D01*
X125113947Y-90122309D01*
X125115000Y-90143750D01*
X125115000Y-90656250D01*
X125113947Y-90677691D01*
X125110797Y-90698926D01*
X125105581Y-90719750D01*
X125098349Y-90739962D01*
X125089170Y-90759368D01*
X125078134Y-90777781D01*
X125065346Y-90795024D01*
X125050930Y-90810930D01*
X125035024Y-90825346D01*
X125017781Y-90838134D01*
X124999368Y-90849170D01*
X124979962Y-90858349D01*
X124959750Y-90865581D01*
X124938926Y-90870797D01*
X124917691Y-90873947D01*
X124896250Y-90875000D01*
X124458750Y-90875000D01*
X124437309Y-90873947D01*
X124416074Y-90870797D01*
X124395250Y-90865581D01*
X124375038Y-90858349D01*
X124355632Y-90849170D01*
X124337219Y-90838134D01*
X124319976Y-90825346D01*
X124304070Y-90810930D01*
X124289654Y-90795024D01*
X124276866Y-90777781D01*
X124265830Y-90759368D01*
X124256651Y-90739962D01*
X124249419Y-90719750D01*
X124244203Y-90698926D01*
X124241053Y-90677691D01*
X124240000Y-90656250D01*
X124240000Y-90143750D01*
X124241053Y-90122309D01*
X124244203Y-90101074D01*
X124249419Y-90080250D01*
X124256651Y-90060038D01*
X124265830Y-90040632D01*
X124276866Y-90022219D01*
X124289654Y-90004976D01*
X124304070Y-89989070D01*
X124319976Y-89974654D01*
X124337219Y-89961866D01*
X124355632Y-89950830D01*
X124375038Y-89941651D01*
X124395250Y-89934419D01*
X124416074Y-89929203D01*
X124437309Y-89926053D01*
X124458750Y-89925000D01*
X124896250Y-89925000D01*
X124917691Y-89926053D01*
X124917691Y-89926053D01*
G37*
D35*
X124677500Y-90400000D03*
D16*
X165604000Y-60040000D03*
X165604000Y-57500000D03*
X165604000Y-54960000D03*
X177796000Y-54960000D03*
X177796000Y-57500000D03*
X177796000Y-60040000D03*
M02*
